G04 #@! TF.GenerationSoftware,KiCad,Pcbnew,(5.0.0)*
G04 #@! TF.CreationDate,2018-12-04T13:53:09-05:00*
G04 #@! TF.ProjectId,buttons_board,627574746F6E735F626F6172642E6B69,rev?*
G04 #@! TF.SameCoordinates,PX6c9f9e0PY6560260*
G04 #@! TF.FileFunction,Soldermask,Bot*
G04 #@! TF.FilePolarity,Negative*
%FSLAX46Y46*%
G04 Gerber Fmt 4.6, Leading zero omitted, Abs format (unit mm)*
G04 Created by KiCad (PCBNEW (5.0.0)) date 12/04/18 13:53:09*
%MOMM*%
%LPD*%
G01*
G04 APERTURE LIST*
%ADD10C,0.500000*%
%ADD11C,0.150000*%
%ADD12O,4.900000X2.100000*%
%ADD13O,2.100000X4.400000*%
%ADD14C,2.200000*%
%ADD15C,3.400000*%
%ADD16R,2.127200X2.127200*%
%ADD17O,2.127200X2.127200*%
G04 APERTURE END LIST*
D10*
X46928571Y33714286D02*
X47357142Y33571429D01*
X47500000Y33428572D01*
X47642857Y33142858D01*
X47642857Y32714286D01*
X47500000Y32428572D01*
X47357142Y32285715D01*
X47071428Y32142858D01*
X45928571Y32142858D01*
X45928571Y35142858D01*
X46928571Y35142858D01*
X47214285Y35000000D01*
X47357142Y34857143D01*
X47500000Y34571429D01*
X47500000Y34285715D01*
X47357142Y34000000D01*
X47214285Y33857143D01*
X46928571Y33714286D01*
X45928571Y33714286D01*
X49500000Y35142858D02*
X50071428Y35142858D01*
X50357142Y35000000D01*
X50642857Y34714286D01*
X50785714Y34142858D01*
X50785714Y33142858D01*
X50642857Y32571429D01*
X50357142Y32285715D01*
X50071428Y32142858D01*
X49500000Y32142858D01*
X49214285Y32285715D01*
X48928571Y32571429D01*
X48785714Y33142858D01*
X48785714Y34142858D01*
X48928571Y34714286D01*
X49214285Y35000000D01*
X49500000Y35142858D01*
X51642857Y35142858D02*
X53357142Y35142858D01*
X52500000Y32142858D02*
X52500000Y35142858D01*
X53928571Y35142858D02*
X55642857Y35142858D01*
X54785714Y32142858D02*
X54785714Y35142858D01*
X57214285Y35142858D02*
X57785714Y35142858D01*
X58071428Y35000000D01*
X58357142Y34714286D01*
X58500000Y34142858D01*
X58500000Y33142858D01*
X58357142Y32571429D01*
X58071428Y32285715D01*
X57785714Y32142858D01*
X57214285Y32142858D01*
X56928571Y32285715D01*
X56642857Y32571429D01*
X56500000Y33142858D01*
X56500000Y34142858D01*
X56642857Y34714286D01*
X56928571Y35000000D01*
X57214285Y35142858D01*
X59785714Y32142858D02*
X59785714Y35142858D01*
X60785714Y33000000D01*
X61785714Y35142858D01*
X61785714Y32142858D01*
X65357142Y32285715D02*
X65785714Y32142858D01*
X66500000Y32142858D01*
X66785714Y32285715D01*
X66928571Y32428572D01*
X67071428Y32714286D01*
X67071428Y33000000D01*
X66928571Y33285715D01*
X66785714Y33428572D01*
X66500000Y33571429D01*
X65928571Y33714286D01*
X65642857Y33857143D01*
X65500000Y34000000D01*
X65357142Y34285715D01*
X65357142Y34571429D01*
X65500000Y34857143D01*
X65642857Y35000000D01*
X65928571Y35142858D01*
X66642857Y35142858D01*
X67071428Y35000000D01*
X68928571Y35142858D02*
X69500000Y35142858D01*
X69785714Y35000000D01*
X70071428Y34714286D01*
X70214285Y34142858D01*
X70214285Y33142858D01*
X70071428Y32571429D01*
X69785714Y32285715D01*
X69500000Y32142858D01*
X68928571Y32142858D01*
X68642857Y32285715D01*
X68357142Y32571429D01*
X68214285Y33142858D01*
X68214285Y34142858D01*
X68357142Y34714286D01*
X68642857Y35000000D01*
X68928571Y35142858D01*
X72928571Y32142858D02*
X71500000Y32142858D01*
X71500000Y35142858D01*
X73928571Y32142858D02*
X73928571Y35142858D01*
X74642857Y35142858D01*
X75071428Y35000000D01*
X75357142Y34714286D01*
X75500000Y34428572D01*
X75642857Y33857143D01*
X75642857Y33428572D01*
X75500000Y32857143D01*
X75357142Y32571429D01*
X75071428Y32285715D01*
X74642857Y32142858D01*
X73928571Y32142858D01*
X76928571Y33714286D02*
X77928571Y33714286D01*
X78357142Y32142858D02*
X76928571Y32142858D01*
X76928571Y35142858D01*
X78357142Y35142858D01*
X81357142Y32142858D02*
X80357142Y33571429D01*
X79642857Y32142858D02*
X79642857Y35142858D01*
X80785714Y35142858D01*
X81071428Y35000000D01*
X81214285Y34857143D01*
X81357142Y34571429D01*
X81357142Y34142858D01*
X81214285Y33857143D01*
X81071428Y33714286D01*
X80785714Y33571429D01*
X79642857Y33571429D01*
X82642857Y32142858D02*
X82642857Y35142858D01*
X83642857Y33000000D01*
X84642857Y35142858D01*
X84642857Y32142858D01*
X85928571Y33000000D02*
X87357142Y33000000D01*
X85642857Y32142858D02*
X86642857Y35142858D01*
X87642857Y32142858D01*
X88500000Y32285715D02*
X88928571Y32142858D01*
X89642857Y32142858D01*
X89928571Y32285715D01*
X90071428Y32428572D01*
X90214285Y32714286D01*
X90214285Y33000000D01*
X90071428Y33285715D01*
X89928571Y33428572D01*
X89642857Y33571429D01*
X89071428Y33714286D01*
X88785714Y33857143D01*
X88642857Y34000000D01*
X88500000Y34285715D01*
X88500000Y34571429D01*
X88642857Y34857143D01*
X88785714Y35000000D01*
X89071428Y35142858D01*
X89785714Y35142858D01*
X90214285Y35000000D01*
X91500000Y32142858D02*
X91500000Y35142858D01*
X93214285Y32142858D02*
X91928571Y33857143D01*
X93214285Y35142858D02*
X91500000Y33428572D01*
D11*
X1666666Y12800000D02*
G75*
G03X1666666Y12800000I-1666666J0D01*
G01*
X-2500000Y12800000D02*
X2500000Y12800000D01*
X0Y15300000D02*
X0Y10300000D01*
X85166666Y12800000D02*
G75*
G03X85166666Y12800000I-1666666J0D01*
G01*
X81000000Y12800000D02*
X86000000Y12800000D01*
X83500000Y15300000D02*
X83500000Y10300000D01*
X85166666Y0D02*
G75*
G03X85166666Y0I-1666666J0D01*
G01*
X81000000Y0D02*
X86000000Y0D01*
X83500000Y2500000D02*
X83500000Y-2500000D01*
X1666666Y0D02*
G75*
G03X1666666Y0I-1666666J0D01*
G01*
X-2500000Y0D02*
X2500000Y0D01*
X0Y2500000D02*
X0Y-2500000D01*
X0Y0D02*
X0Y6700000D01*
X0Y12800000D02*
X0Y10200000D01*
X20400000Y12800000D02*
X0Y12800000D01*
X83500000Y12800000D02*
X83500000Y6600000D01*
X83500000Y0D02*
X83500000Y6600000D01*
X20400000Y12800000D02*
X83500000Y12800000D01*
X12800000Y0D02*
X0Y0D01*
X12800000Y0D02*
X83500000Y0D01*
X0Y6700000D02*
X0Y10200000D01*
D12*
G04 #@! TO.C,CON1*
X13300000Y2350000D03*
D13*
X16100000Y7900000D03*
X18800000Y5300000D03*
G04 #@! TD*
D14*
G04 #@! TO.C,SW1*
X73550000Y4450000D03*
X67050000Y4450000D03*
X73550000Y8950000D03*
X67050000Y8950000D03*
G04 #@! TD*
G04 #@! TO.C,SW2*
X58550000Y4450000D03*
X52050000Y4450000D03*
X58550000Y8950000D03*
X52050000Y8950000D03*
G04 #@! TD*
G04 #@! TO.C,SW3*
X43550000Y4450000D03*
X37050000Y4450000D03*
X43550000Y8950000D03*
X37050000Y8950000D03*
G04 #@! TD*
D15*
G04 #@! TO.C,X1*
X79500000Y6700000D03*
G04 #@! TD*
G04 #@! TO.C,X2*
X4000000Y6700000D03*
G04 #@! TD*
D16*
G04 #@! TO.C,P1*
X23000000Y6300000D03*
D17*
X23000000Y8840000D03*
X25540000Y6300000D03*
X25540000Y8840000D03*
X28080000Y6300000D03*
X28080000Y8840000D03*
X30620000Y6300000D03*
X30620000Y8840000D03*
X33160000Y6300000D03*
X33160000Y8840000D03*
G04 #@! TD*
M02*
