G04 #@! TF.GenerationSoftware,KiCad,Pcbnew,(5.0.0)*
G04 #@! TF.CreationDate,2018-12-04T13:53:09-05:00*
G04 #@! TF.ProjectId,buttons_board,627574746F6E735F626F6172642E6B69,rev?*
G04 #@! TF.SameCoordinates,PX6c9f9e0PY6560260*
G04 #@! TF.FileFunction,Legend,Top*
G04 #@! TF.FilePolarity,Positive*
%FSLAX46Y46*%
G04 Gerber Fmt 4.6, Leading zero omitted, Abs format (unit mm)*
G04 Created by KiCad (PCBNEW (5.0.0)) date 12/04/18 13:53:09*
%MOMM*%
%LPD*%
G01*
G04 APERTURE LIST*
%ADD10C,0.500000*%
%ADD11C,0.150000*%
%ADD12O,4.900000X2.100000*%
%ADD13O,2.100000X4.400000*%
%ADD14C,2.200000*%
%ADD15C,3.400000*%
%ADD16R,2.127200X2.127200*%
%ADD17O,2.127200X2.127200*%
G04 APERTURE END LIST*
D10*
X46928571Y38714286D02*
X45928571Y38714286D01*
X45928571Y37142858D02*
X45928571Y40142858D01*
X47357142Y40142858D01*
X50214285Y37142858D02*
X49214285Y38571429D01*
X48500000Y37142858D02*
X48500000Y40142858D01*
X49642857Y40142858D01*
X49928571Y40000000D01*
X50071428Y39857143D01*
X50214285Y39571429D01*
X50214285Y39142858D01*
X50071428Y38857143D01*
X49928571Y38714286D01*
X49642857Y38571429D01*
X48500000Y38571429D01*
X52071428Y40142858D02*
X52642857Y40142858D01*
X52928571Y40000000D01*
X53214285Y39714286D01*
X53357142Y39142858D01*
X53357142Y38142858D01*
X53214285Y37571429D01*
X52928571Y37285715D01*
X52642857Y37142858D01*
X52071428Y37142858D01*
X51785714Y37285715D01*
X51500000Y37571429D01*
X51357142Y38142858D01*
X51357142Y39142858D01*
X51500000Y39714286D01*
X51785714Y40000000D01*
X52071428Y40142858D01*
X54642857Y37142858D02*
X54642857Y40142858D01*
X56357142Y37142858D01*
X56357142Y40142858D01*
X57357142Y40142858D02*
X59071428Y40142858D01*
X58214285Y37142858D02*
X58214285Y40142858D01*
X62214285Y37285715D02*
X62642857Y37142858D01*
X63357142Y37142858D01*
X63642857Y37285715D01*
X63785714Y37428572D01*
X63928571Y37714286D01*
X63928571Y38000000D01*
X63785714Y38285715D01*
X63642857Y38428572D01*
X63357142Y38571429D01*
X62785714Y38714286D01*
X62500000Y38857143D01*
X62357142Y39000000D01*
X62214285Y39285715D01*
X62214285Y39571429D01*
X62357142Y39857143D01*
X62500000Y40000000D01*
X62785714Y40142858D01*
X63500000Y40142858D01*
X63928571Y40000000D01*
X65214285Y37142858D02*
X65214285Y40142858D01*
X68071428Y37142858D02*
X66642857Y37142858D01*
X66642857Y40142858D01*
X69071428Y37142858D02*
X69071428Y40142858D01*
X70785714Y37142858D02*
X69500000Y38857143D01*
X70785714Y40142858D02*
X69071428Y38428572D01*
X71928571Y37285715D02*
X72357142Y37142858D01*
X73071428Y37142858D01*
X73357142Y37285715D01*
X73500000Y37428572D01*
X73642857Y37714286D01*
X73642857Y38000000D01*
X73500000Y38285715D01*
X73357142Y38428572D01*
X73071428Y38571429D01*
X72500000Y38714286D01*
X72214285Y38857143D01*
X72071428Y39000000D01*
X71928571Y39285715D01*
X71928571Y39571429D01*
X72071428Y39857143D01*
X72214285Y40000000D01*
X72500000Y40142858D01*
X73214285Y40142858D01*
X73642857Y40000000D01*
X76642857Y37428572D02*
X76500000Y37285715D01*
X76071428Y37142858D01*
X75785714Y37142858D01*
X75357142Y37285715D01*
X75071428Y37571429D01*
X74928571Y37857143D01*
X74785714Y38428572D01*
X74785714Y38857143D01*
X74928571Y39428572D01*
X75071428Y39714286D01*
X75357142Y40000000D01*
X75785714Y40142858D01*
X76071428Y40142858D01*
X76500000Y40000000D01*
X76642857Y39857143D01*
X79642857Y37142858D02*
X78642857Y38571429D01*
X77928571Y37142858D02*
X77928571Y40142858D01*
X79071428Y40142858D01*
X79357142Y40000000D01*
X79500000Y39857143D01*
X79642857Y39571429D01*
X79642857Y39142858D01*
X79500000Y38857143D01*
X79357142Y38714286D01*
X79071428Y38571429D01*
X77928571Y38571429D01*
X80928571Y38714286D02*
X81928571Y38714286D01*
X82357142Y37142858D02*
X80928571Y37142858D01*
X80928571Y40142858D01*
X82357142Y40142858D01*
X83642857Y38714286D02*
X84642857Y38714286D01*
X85071428Y37142858D02*
X83642857Y37142858D01*
X83642857Y40142858D01*
X85071428Y40142858D01*
X86357142Y37142858D02*
X86357142Y40142858D01*
X88071428Y37142858D01*
X88071428Y40142858D01*
D11*
X1666666Y12800000D02*
G75*
G03X1666666Y12800000I-1666666J0D01*
G01*
X-2500000Y12800000D02*
X2500000Y12800000D01*
X0Y15300000D02*
X0Y10300000D01*
X85166666Y12800000D02*
G75*
G03X85166666Y12800000I-1666666J0D01*
G01*
X81000000Y12800000D02*
X86000000Y12800000D01*
X83500000Y15300000D02*
X83500000Y10300000D01*
X85166666Y0D02*
G75*
G03X85166666Y0I-1666666J0D01*
G01*
X81000000Y0D02*
X86000000Y0D01*
X83500000Y2500000D02*
X83500000Y-2500000D01*
X1666666Y0D02*
G75*
G03X1666666Y0I-1666666J0D01*
G01*
X-2500000Y0D02*
X2500000Y0D01*
X0Y2500000D02*
X0Y-2500000D01*
X0Y0D02*
X0Y6700000D01*
X0Y12800000D02*
X0Y10200000D01*
X20400000Y12800000D02*
X0Y12800000D01*
X83500000Y12800000D02*
X83500000Y6600000D01*
X83500000Y0D02*
X83500000Y6600000D01*
X20400000Y12800000D02*
X83500000Y12800000D01*
X12800000Y0D02*
X0Y0D01*
X12800000Y0D02*
X83500000Y0D01*
X0Y6700000D02*
X0Y10200000D01*
G04 #@! TO.C,CON1*
X19700000Y6700000D02*
X19700000Y2300000D01*
X19700000Y2300000D02*
X9000000Y2300000D01*
X9000000Y2300000D02*
X9000000Y11100000D01*
X9000000Y11100000D02*
X19700000Y11100000D01*
X19700000Y11100000D02*
X19700000Y6700000D01*
X16400000Y6700000D02*
G75*
G03X16400000Y6700000I-3100000J0D01*
G01*
X14300000Y6700000D02*
G75*
G03X14300000Y6700000I-1000000J0D01*
G01*
G04 #@! TO.C,SW1*
X71800000Y6700000D02*
G75*
G03X71800000Y6700000I-1500000J0D01*
G01*
X72000000Y6700000D02*
G75*
G03X72000000Y6700000I-1700000J0D01*
G01*
X70300000Y3700000D02*
X72800000Y3700000D01*
X70300000Y3700000D02*
X67800000Y3700000D01*
X73300000Y6700000D02*
X73300000Y7900000D01*
X73300000Y6700000D02*
X73300000Y5500000D01*
X70300000Y9700000D02*
X72800000Y9700000D01*
X70300000Y9700000D02*
X67800000Y9700000D01*
X67300000Y6700000D02*
X67300000Y7900000D01*
X67300000Y6700000D02*
X67300000Y5500000D01*
G04 #@! TO.C,SW2*
X56800000Y6700000D02*
G75*
G03X56800000Y6700000I-1500000J0D01*
G01*
X57000000Y6700000D02*
G75*
G03X57000000Y6700000I-1700000J0D01*
G01*
X55300000Y3700000D02*
X57800000Y3700000D01*
X55300000Y3700000D02*
X52800000Y3700000D01*
X58300000Y6700000D02*
X58300000Y7900000D01*
X58300000Y6700000D02*
X58300000Y5500000D01*
X55300000Y9700000D02*
X57800000Y9700000D01*
X55300000Y9700000D02*
X52800000Y9700000D01*
X52300000Y6700000D02*
X52300000Y7900000D01*
X52300000Y6700000D02*
X52300000Y5500000D01*
G04 #@! TO.C,SW3*
X41800000Y6700000D02*
G75*
G03X41800000Y6700000I-1500000J0D01*
G01*
X42000000Y6700000D02*
G75*
G03X42000000Y6700000I-1700000J0D01*
G01*
X40300000Y3700000D02*
X42800000Y3700000D01*
X40300000Y3700000D02*
X37800000Y3700000D01*
X43300000Y6700000D02*
X43300000Y7900000D01*
X43300000Y6700000D02*
X43300000Y5500000D01*
X40300000Y9700000D02*
X42800000Y9700000D01*
X40300000Y9700000D02*
X37800000Y9700000D01*
X37300000Y6700000D02*
X37300000Y7900000D01*
X37300000Y6700000D02*
X37300000Y5500000D01*
G04 #@! TO.C,P1*
X33414000Y7824000D02*
X33414000Y7316000D01*
X32906000Y7824000D02*
X32906000Y7316000D01*
X30874000Y7824000D02*
X30874000Y7316000D01*
X30366000Y7824000D02*
X30366000Y7316000D01*
X22746000Y7824000D02*
X22746000Y7316000D01*
X23254000Y7824000D02*
X23254000Y7316000D01*
X28334000Y7824000D02*
X28334000Y7316000D01*
X27826000Y7824000D02*
X27826000Y7316000D01*
X25794000Y7824000D02*
X25794000Y7316000D01*
X25286000Y7824000D02*
X25286000Y7316000D01*
X33414000Y10364000D02*
X33414000Y9856000D01*
X32906000Y10364000D02*
X32906000Y9856000D01*
X22746000Y10364000D02*
X22746000Y9856000D01*
X23254000Y10364000D02*
X23254000Y9856000D01*
X25286000Y10364000D02*
X25286000Y9856000D01*
X25794000Y10364000D02*
X25794000Y9856000D01*
X30874000Y10364000D02*
X30874000Y9856000D01*
X30366000Y10364000D02*
X30366000Y9856000D01*
X28334000Y10364000D02*
X28334000Y9856000D01*
X27826000Y10364000D02*
X27826000Y9856000D01*
X21450000Y6300000D02*
X21450000Y5150000D01*
X21450000Y5150000D02*
X23000000Y5150000D01*
X22873000Y12904000D02*
X22873000Y18873000D01*
X22873000Y18873000D02*
X23127000Y18873000D01*
X23127000Y18873000D02*
X23127000Y13031000D01*
X23127000Y13031000D02*
X23000000Y13031000D01*
X23000000Y13031000D02*
X23000000Y18873000D01*
X31890000Y10364000D02*
X31890000Y12904000D01*
X31890000Y10364000D02*
X34430000Y10364000D01*
X32906000Y12904000D02*
X32906000Y19000000D01*
X32906000Y19000000D02*
X33414000Y19000000D01*
X33414000Y19000000D02*
X33414000Y12904000D01*
X34430000Y12904000D02*
X31890000Y12904000D01*
X34430000Y10364000D02*
X34430000Y12904000D01*
X26810000Y10364000D02*
X26810000Y12904000D01*
X26810000Y10364000D02*
X29350000Y10364000D01*
X29350000Y10364000D02*
X29350000Y12904000D01*
X27826000Y12904000D02*
X27826000Y19000000D01*
X27826000Y19000000D02*
X28334000Y19000000D01*
X28334000Y19000000D02*
X28334000Y12904000D01*
X29350000Y12904000D02*
X26810000Y12904000D01*
X31890000Y12904000D02*
X29350000Y12904000D01*
X30874000Y19000000D02*
X30874000Y12904000D01*
X30366000Y19000000D02*
X30874000Y19000000D01*
X30366000Y12904000D02*
X30366000Y19000000D01*
X31890000Y10364000D02*
X31890000Y12904000D01*
X29350000Y10364000D02*
X31890000Y10364000D01*
X29350000Y10364000D02*
X29350000Y12904000D01*
X24270000Y10364000D02*
X24270000Y12904000D01*
X24270000Y10364000D02*
X26810000Y10364000D01*
X26810000Y10364000D02*
X26810000Y12904000D01*
X25286000Y12904000D02*
X25286000Y19000000D01*
X25286000Y19000000D02*
X25794000Y19000000D01*
X25794000Y19000000D02*
X25794000Y12904000D01*
X26810000Y12904000D02*
X24270000Y12904000D01*
X24270000Y12904000D02*
X21730000Y12904000D01*
X23254000Y19000000D02*
X23254000Y12904000D01*
X22746000Y19000000D02*
X23254000Y19000000D01*
X22746000Y12904000D02*
X22746000Y19000000D01*
X24270000Y10364000D02*
X24270000Y12904000D01*
X21730000Y10364000D02*
X24270000Y10364000D01*
X21730000Y10364000D02*
X21730000Y12904000D01*
G04 #@! TD*
G04 #@! TO.C,CON1*
X8357142Y5285715D02*
X8404761Y5238096D01*
X8452380Y5095239D01*
X8452380Y5000000D01*
X8404761Y4857143D01*
X8309523Y4761905D01*
X8214285Y4714286D01*
X8023809Y4666667D01*
X7880952Y4666667D01*
X7690476Y4714286D01*
X7595238Y4761905D01*
X7500000Y4857143D01*
X7452380Y5000000D01*
X7452380Y5095239D01*
X7500000Y5238096D01*
X7547619Y5285715D01*
X7452380Y5904762D02*
X7452380Y6095239D01*
X7500000Y6190477D01*
X7595238Y6285715D01*
X7785714Y6333334D01*
X8119047Y6333334D01*
X8309523Y6285715D01*
X8404761Y6190477D01*
X8452380Y6095239D01*
X8452380Y5904762D01*
X8404761Y5809524D01*
X8309523Y5714286D01*
X8119047Y5666667D01*
X7785714Y5666667D01*
X7595238Y5714286D01*
X7500000Y5809524D01*
X7452380Y5904762D01*
X8452380Y6761905D02*
X7452380Y6761905D01*
X8452380Y7333334D01*
X7452380Y7333334D01*
X8452380Y8333334D02*
X8452380Y7761905D01*
X8452380Y8047620D02*
X7452380Y8047620D01*
X7595238Y7952381D01*
X7690476Y7857143D01*
X7738095Y7761905D01*
G04 #@! TO.C,SW1*
X68966666Y10495239D02*
X69109523Y10447620D01*
X69347619Y10447620D01*
X69442857Y10495239D01*
X69490476Y10542858D01*
X69538095Y10638096D01*
X69538095Y10733334D01*
X69490476Y10828572D01*
X69442857Y10876191D01*
X69347619Y10923810D01*
X69157142Y10971429D01*
X69061904Y11019048D01*
X69014285Y11066667D01*
X68966666Y11161905D01*
X68966666Y11257143D01*
X69014285Y11352381D01*
X69061904Y11400000D01*
X69157142Y11447620D01*
X69395238Y11447620D01*
X69538095Y11400000D01*
X69871428Y11447620D02*
X70109523Y10447620D01*
X70300000Y11161905D01*
X70490476Y10447620D01*
X70728571Y11447620D01*
X71633333Y10447620D02*
X71061904Y10447620D01*
X71347619Y10447620D02*
X71347619Y11447620D01*
X71252380Y11304762D01*
X71157142Y11209524D01*
X71061904Y11161905D01*
G04 #@! TO.C,SW2*
X53966666Y10495239D02*
X54109523Y10447620D01*
X54347619Y10447620D01*
X54442857Y10495239D01*
X54490476Y10542858D01*
X54538095Y10638096D01*
X54538095Y10733334D01*
X54490476Y10828572D01*
X54442857Y10876191D01*
X54347619Y10923810D01*
X54157142Y10971429D01*
X54061904Y11019048D01*
X54014285Y11066667D01*
X53966666Y11161905D01*
X53966666Y11257143D01*
X54014285Y11352381D01*
X54061904Y11400000D01*
X54157142Y11447620D01*
X54395238Y11447620D01*
X54538095Y11400000D01*
X54871428Y11447620D02*
X55109523Y10447620D01*
X55300000Y11161905D01*
X55490476Y10447620D01*
X55728571Y11447620D01*
X56061904Y11352381D02*
X56109523Y11400000D01*
X56204761Y11447620D01*
X56442857Y11447620D01*
X56538095Y11400000D01*
X56585714Y11352381D01*
X56633333Y11257143D01*
X56633333Y11161905D01*
X56585714Y11019048D01*
X56014285Y10447620D01*
X56633333Y10447620D01*
G04 #@! TO.C,SW3*
X38966666Y10495239D02*
X39109523Y10447620D01*
X39347619Y10447620D01*
X39442857Y10495239D01*
X39490476Y10542858D01*
X39538095Y10638096D01*
X39538095Y10733334D01*
X39490476Y10828572D01*
X39442857Y10876191D01*
X39347619Y10923810D01*
X39157142Y10971429D01*
X39061904Y11019048D01*
X39014285Y11066667D01*
X38966666Y11161905D01*
X38966666Y11257143D01*
X39014285Y11352381D01*
X39061904Y11400000D01*
X39157142Y11447620D01*
X39395238Y11447620D01*
X39538095Y11400000D01*
X39871428Y11447620D02*
X40109523Y10447620D01*
X40300000Y11161905D01*
X40490476Y10447620D01*
X40728571Y11447620D01*
X41014285Y11447620D02*
X41633333Y11447620D01*
X41300000Y11066667D01*
X41442857Y11066667D01*
X41538095Y11019048D01*
X41585714Y10971429D01*
X41633333Y10876191D01*
X41633333Y10638096D01*
X41585714Y10542858D01*
X41538095Y10495239D01*
X41442857Y10447620D01*
X41157142Y10447620D01*
X41061904Y10495239D01*
X41014285Y10542858D01*
G04 #@! TO.C,P1*
X18352380Y5561905D02*
X17352380Y5561905D01*
X17352380Y5942858D01*
X17400000Y6038096D01*
X17447619Y6085715D01*
X17542857Y6133334D01*
X17685714Y6133334D01*
X17780952Y6085715D01*
X17828571Y6038096D01*
X17876190Y5942858D01*
X17876190Y5561905D01*
X18352380Y7085715D02*
X18352380Y6514286D01*
X18352380Y6800000D02*
X17352380Y6800000D01*
X17495238Y6704762D01*
X17590476Y6609524D01*
X17638095Y6514286D01*
G04 #@! TD*
%LPC*%
D12*
G04 #@! TO.C,CON1*
X13300000Y2350000D03*
D13*
X16100000Y7900000D03*
X18800000Y5300000D03*
G04 #@! TD*
D14*
G04 #@! TO.C,SW1*
X73550000Y4450000D03*
X67050000Y4450000D03*
X73550000Y8950000D03*
X67050000Y8950000D03*
G04 #@! TD*
G04 #@! TO.C,SW2*
X58550000Y4450000D03*
X52050000Y4450000D03*
X58550000Y8950000D03*
X52050000Y8950000D03*
G04 #@! TD*
G04 #@! TO.C,SW3*
X43550000Y4450000D03*
X37050000Y4450000D03*
X43550000Y8950000D03*
X37050000Y8950000D03*
G04 #@! TD*
D15*
G04 #@! TO.C,X1*
X79500000Y6700000D03*
G04 #@! TD*
G04 #@! TO.C,X2*
X4000000Y6700000D03*
G04 #@! TD*
D16*
G04 #@! TO.C,P1*
X23000000Y6300000D03*
D17*
X23000000Y8840000D03*
X25540000Y6300000D03*
X25540000Y8840000D03*
X28080000Y6300000D03*
X28080000Y8840000D03*
X30620000Y6300000D03*
X30620000Y8840000D03*
X33160000Y6300000D03*
X33160000Y8840000D03*
G04 #@! TD*
M02*
