G04 #@! TF.GenerationSoftware,KiCad,Pcbnew,(5.0.0)*
G04 #@! TF.CreationDate,2018-12-04T13:53:09-05:00*
G04 #@! TF.ProjectId,buttons_board,627574746F6E735F626F6172642E6B69,rev?*
G04 #@! TF.SameCoordinates,PX6c9f9e0PY6560260*
G04 #@! TF.FileFunction,Other,ECO1*
%FSLAX46Y46*%
G04 Gerber Fmt 4.6, Leading zero omitted, Abs format (unit mm)*
G04 Created by KiCad (PCBNEW (5.0.0)) date 12/04/18 13:53:09*
%MOMM*%
%LPD*%
G01*
G04 APERTURE LIST*
%ADD10C,0.200000*%
%ADD11C,0.300000*%
%ADD12C,0.500000*%
%ADD13C,0.150000*%
G04 APERTURE END LIST*
D10*
X-37700000Y40800000D02*
X-31000000Y40800000D01*
X-37700000Y23900000D02*
X-37700000Y40800000D01*
X-2600000Y23900000D02*
X-37700000Y23900000D01*
X-2600000Y40800000D02*
X-2600000Y23900000D01*
X-31000000Y40800000D02*
X-2600000Y40800000D01*
D11*
X-36647858Y38096429D02*
X-36647858Y39596429D01*
X-36147858Y38525000D01*
X-35647858Y39596429D01*
X-35647858Y38096429D01*
X-34290715Y38096429D02*
X-34290715Y38882143D01*
X-34362143Y39025000D01*
X-34505000Y39096429D01*
X-34790715Y39096429D01*
X-34933572Y39025000D01*
X-34290715Y38167858D02*
X-34433572Y38096429D01*
X-34790715Y38096429D01*
X-34933572Y38167858D01*
X-35005000Y38310715D01*
X-35005000Y38453572D01*
X-34933572Y38596429D01*
X-34790715Y38667858D01*
X-34433572Y38667858D01*
X-34290715Y38739286D01*
X-33790715Y39096429D02*
X-33219286Y39096429D01*
X-33576429Y39596429D02*
X-33576429Y38310715D01*
X-33505000Y38167858D01*
X-33362143Y38096429D01*
X-33219286Y38096429D01*
X-32147858Y38167858D02*
X-32290715Y38096429D01*
X-32576429Y38096429D01*
X-32719286Y38167858D01*
X-32790715Y38310715D01*
X-32790715Y38882143D01*
X-32719286Y39025000D01*
X-32576429Y39096429D01*
X-32290715Y39096429D01*
X-32147858Y39025000D01*
X-32076429Y38882143D01*
X-32076429Y38739286D01*
X-32790715Y38596429D01*
X-31433572Y38096429D02*
X-31433572Y39096429D01*
X-31433572Y38810715D02*
X-31362143Y38953572D01*
X-31290715Y39025000D01*
X-31147858Y39096429D01*
X-31005000Y39096429D01*
X-30505000Y38096429D02*
X-30505000Y39096429D01*
X-30505000Y39596429D02*
X-30576429Y39525000D01*
X-30505000Y39453572D01*
X-30433572Y39525000D01*
X-30505000Y39596429D01*
X-30505000Y39453572D01*
X-29147858Y38096429D02*
X-29147858Y38882143D01*
X-29219286Y39025000D01*
X-29362143Y39096429D01*
X-29647858Y39096429D01*
X-29790715Y39025000D01*
X-29147858Y38167858D02*
X-29290715Y38096429D01*
X-29647858Y38096429D01*
X-29790715Y38167858D01*
X-29862143Y38310715D01*
X-29862143Y38453572D01*
X-29790715Y38596429D01*
X-29647858Y38667858D01*
X-29290715Y38667858D01*
X-29147858Y38739286D01*
X-28219286Y38096429D02*
X-28362143Y38167858D01*
X-28433572Y38310715D01*
X-28433572Y39596429D01*
X-27647858Y38239286D02*
X-27576429Y38167858D01*
X-27647858Y38096429D01*
X-27719286Y38167858D01*
X-27647858Y38239286D01*
X-27647858Y38096429D01*
X-27647858Y39025000D02*
X-27576429Y38953572D01*
X-27647858Y38882143D01*
X-27719286Y38953572D01*
X-27647858Y39025000D01*
X-27647858Y38882143D01*
X-25290715Y38882143D02*
X-25790715Y38882143D01*
X-25790715Y38096429D02*
X-25790715Y39596429D01*
X-25076429Y39596429D01*
X-23647858Y38096429D02*
X-24147858Y38810715D01*
X-24505000Y38096429D02*
X-24505000Y39596429D01*
X-23933572Y39596429D01*
X-23790715Y39525000D01*
X-23719286Y39453572D01*
X-23647858Y39310715D01*
X-23647858Y39096429D01*
X-23719286Y38953572D01*
X-23790715Y38882143D01*
X-23933572Y38810715D01*
X-24505000Y38810715D01*
X-22362143Y39096429D02*
X-22362143Y38096429D01*
X-22719286Y39667858D02*
X-23076429Y38596429D01*
X-22147858Y38596429D01*
X-21505000Y38167858D02*
X-21505000Y38096429D01*
X-21576429Y37953572D01*
X-21647858Y37882143D01*
X-18933572Y38096429D02*
X-19790715Y38096429D01*
X-19362143Y38096429D02*
X-19362143Y39596429D01*
X-19505000Y39382143D01*
X-19647858Y39239286D01*
X-19790715Y39167858D01*
X-18290715Y38239286D02*
X-18219286Y38167858D01*
X-18290715Y38096429D01*
X-18362143Y38167858D01*
X-18290715Y38239286D01*
X-18290715Y38096429D01*
X-16933572Y39596429D02*
X-17219286Y39596429D01*
X-17362143Y39525000D01*
X-17433572Y39453572D01*
X-17576429Y39239286D01*
X-17647858Y38953572D01*
X-17647858Y38382143D01*
X-17576429Y38239286D01*
X-17505000Y38167858D01*
X-17362143Y38096429D01*
X-17076429Y38096429D01*
X-16933572Y38167858D01*
X-16862143Y38239286D01*
X-16790715Y38382143D01*
X-16790715Y38739286D01*
X-16862143Y38882143D01*
X-16933572Y38953572D01*
X-17076429Y39025000D01*
X-17362143Y39025000D01*
X-17505000Y38953572D01*
X-17576429Y38882143D01*
X-17647858Y38739286D01*
X-16147858Y38096429D02*
X-16147858Y39096429D01*
X-16147858Y38953572D02*
X-16076429Y39025000D01*
X-15933572Y39096429D01*
X-15719286Y39096429D01*
X-15576429Y39025000D01*
X-15505000Y38882143D01*
X-15505000Y38096429D01*
X-15505000Y38882143D02*
X-15433572Y39025000D01*
X-15290715Y39096429D01*
X-15076429Y39096429D01*
X-14933572Y39025000D01*
X-14862143Y38882143D01*
X-14862143Y38096429D01*
X-14147858Y38096429D02*
X-14147858Y39096429D01*
X-14147858Y38953572D02*
X-14076429Y39025000D01*
X-13933572Y39096429D01*
X-13719286Y39096429D01*
X-13576429Y39025000D01*
X-13505000Y38882143D01*
X-13505000Y38096429D01*
X-13505000Y38882143D02*
X-13433572Y39025000D01*
X-13290715Y39096429D01*
X-13076429Y39096429D01*
X-12933572Y39025000D01*
X-12862143Y38882143D01*
X-12862143Y38096429D01*
X-11219286Y39096429D02*
X-10647858Y39096429D01*
X-11005000Y39596429D02*
X-11005000Y38310715D01*
X-10933572Y38167858D01*
X-10790715Y38096429D01*
X-10647858Y38096429D01*
X-10147858Y38096429D02*
X-10147858Y39596429D01*
X-9505000Y38096429D02*
X-9505000Y38882143D01*
X-9576429Y39025000D01*
X-9719286Y39096429D01*
X-9933572Y39096429D01*
X-10076429Y39025000D01*
X-10147858Y38953572D01*
X-8790715Y38096429D02*
X-8790715Y39096429D01*
X-8790715Y39596429D02*
X-8862143Y39525000D01*
X-8790715Y39453572D01*
X-8719286Y39525000D01*
X-8790715Y39596429D01*
X-8790715Y39453572D01*
X-7433572Y38167858D02*
X-7576429Y38096429D01*
X-7862143Y38096429D01*
X-8005000Y38167858D01*
X-8076429Y38239286D01*
X-8147858Y38382143D01*
X-8147858Y38810715D01*
X-8076429Y38953572D01*
X-8005000Y39025000D01*
X-7862143Y39096429D01*
X-7576429Y39096429D01*
X-7433572Y39025000D01*
X-6790715Y38096429D02*
X-6790715Y39596429D01*
X-6647858Y38667858D02*
X-6219286Y38096429D01*
X-6219286Y39096429D02*
X-6790715Y38525000D01*
X-36790715Y37046429D02*
X-35862143Y37046429D01*
X-36362143Y36475000D01*
X-36147858Y36475000D01*
X-36005000Y36403572D01*
X-35933572Y36332143D01*
X-35862143Y36189286D01*
X-35862143Y35832143D01*
X-35933572Y35689286D01*
X-36005000Y35617858D01*
X-36147858Y35546429D01*
X-36576429Y35546429D01*
X-36719286Y35617858D01*
X-36790715Y35689286D01*
X-34576429Y36546429D02*
X-34576429Y35546429D01*
X-34933572Y37117858D02*
X-35290715Y36046429D01*
X-34362143Y36046429D01*
X-33147858Y36546429D02*
X-33147858Y35546429D01*
X-33790715Y36546429D02*
X-33790715Y35760715D01*
X-33719286Y35617858D01*
X-33576429Y35546429D01*
X-33362143Y35546429D01*
X-33219286Y35617858D01*
X-33147858Y35689286D01*
X-32433572Y35546429D02*
X-32433572Y36546429D01*
X-32433572Y36403572D02*
X-32362143Y36475000D01*
X-32219286Y36546429D01*
X-32005000Y36546429D01*
X-31862143Y36475000D01*
X-31790715Y36332143D01*
X-31790715Y35546429D01*
X-31790715Y36332143D02*
X-31719286Y36475000D01*
X-31576429Y36546429D01*
X-31362143Y36546429D01*
X-31219286Y36475000D01*
X-31147858Y36332143D01*
X-31147858Y35546429D01*
X-28647858Y35617858D02*
X-28790715Y35546429D01*
X-29076429Y35546429D01*
X-29219286Y35617858D01*
X-29290715Y35689286D01*
X-29362143Y35832143D01*
X-29362143Y36260715D01*
X-29290715Y36403572D01*
X-29219286Y36475000D01*
X-29076429Y36546429D01*
X-28790715Y36546429D01*
X-28647858Y36475000D01*
X-27790715Y35546429D02*
X-27933572Y35617858D01*
X-28005000Y35689286D01*
X-28076429Y35832143D01*
X-28076429Y36260715D01*
X-28005000Y36403572D01*
X-27933572Y36475000D01*
X-27790715Y36546429D01*
X-27576429Y36546429D01*
X-27433572Y36475000D01*
X-27362143Y36403572D01*
X-27290715Y36260715D01*
X-27290715Y35832143D01*
X-27362143Y35689286D01*
X-27433572Y35617858D01*
X-27576429Y35546429D01*
X-27790715Y35546429D01*
X-26647858Y36546429D02*
X-26647858Y35046429D01*
X-26647858Y36475000D02*
X-26505000Y36546429D01*
X-26219286Y36546429D01*
X-26076429Y36475000D01*
X-26005000Y36403572D01*
X-25933572Y36260715D01*
X-25933572Y35832143D01*
X-26005000Y35689286D01*
X-26076429Y35617858D01*
X-26219286Y35546429D01*
X-26505000Y35546429D01*
X-26647858Y35617858D01*
X-25290715Y36546429D02*
X-25290715Y35046429D01*
X-25290715Y36475000D02*
X-25147858Y36546429D01*
X-24862143Y36546429D01*
X-24719286Y36475000D01*
X-24647858Y36403572D01*
X-24576429Y36260715D01*
X-24576429Y35832143D01*
X-24647858Y35689286D01*
X-24719286Y35617858D01*
X-24862143Y35546429D01*
X-25147858Y35546429D01*
X-25290715Y35617858D01*
X-23362143Y35617858D02*
X-23505000Y35546429D01*
X-23790715Y35546429D01*
X-23933572Y35617858D01*
X-24005000Y35760715D01*
X-24005000Y36332143D01*
X-23933572Y36475000D01*
X-23790715Y36546429D01*
X-23505000Y36546429D01*
X-23362143Y36475000D01*
X-23290715Y36332143D01*
X-23290715Y36189286D01*
X-24005000Y36046429D01*
X-22647858Y35546429D02*
X-22647858Y36546429D01*
X-22647858Y36260715D02*
X-22576429Y36403572D01*
X-22505000Y36475000D01*
X-22362143Y36546429D01*
X-22219286Y36546429D01*
X-20790715Y36546429D02*
X-20219286Y36546429D01*
X-20576429Y37046429D02*
X-20576429Y35760715D01*
X-20505000Y35617858D01*
X-20362143Y35546429D01*
X-20219286Y35546429D01*
X-19719286Y35546429D02*
X-19719286Y37046429D01*
X-19076429Y35546429D02*
X-19076429Y36332143D01*
X-19147858Y36475000D01*
X-19290715Y36546429D01*
X-19505000Y36546429D01*
X-19647858Y36475000D01*
X-19719286Y36403572D01*
X-18362143Y35546429D02*
X-18362143Y36546429D01*
X-18362143Y37046429D02*
X-18433572Y36975000D01*
X-18362143Y36903572D01*
X-18290715Y36975000D01*
X-18362143Y37046429D01*
X-18362143Y36903572D01*
X-17005000Y35617858D02*
X-17147858Y35546429D01*
X-17433572Y35546429D01*
X-17576429Y35617858D01*
X-17647858Y35689286D01*
X-17719286Y35832143D01*
X-17719286Y36260715D01*
X-17647858Y36403572D01*
X-17576429Y36475000D01*
X-17433572Y36546429D01*
X-17147858Y36546429D01*
X-17005000Y36475000D01*
X-16362143Y35546429D02*
X-16362143Y37046429D01*
X-16219286Y36117858D02*
X-15790715Y35546429D01*
X-15790715Y36546429D02*
X-16362143Y35975000D01*
X-15147858Y36546429D02*
X-15147858Y35546429D01*
X-15147858Y36403572D02*
X-15076429Y36475000D01*
X-14933572Y36546429D01*
X-14719286Y36546429D01*
X-14576429Y36475000D01*
X-14505000Y36332143D01*
X-14505000Y35546429D01*
X-13219286Y35617858D02*
X-13362143Y35546429D01*
X-13647858Y35546429D01*
X-13790715Y35617858D01*
X-13862143Y35760715D01*
X-13862143Y36332143D01*
X-13790715Y36475000D01*
X-13647858Y36546429D01*
X-13362143Y36546429D01*
X-13219286Y36475000D01*
X-13147858Y36332143D01*
X-13147858Y36189286D01*
X-13862143Y36046429D01*
X-12576429Y35617858D02*
X-12433572Y35546429D01*
X-12147858Y35546429D01*
X-12005000Y35617858D01*
X-11933572Y35760715D01*
X-11933572Y35832143D01*
X-12005000Y35975000D01*
X-12147858Y36046429D01*
X-12362143Y36046429D01*
X-12505000Y36117858D01*
X-12576429Y36260715D01*
X-12576429Y36332143D01*
X-12505000Y36475000D01*
X-12362143Y36546429D01*
X-12147858Y36546429D01*
X-12005000Y36475000D01*
X-11362143Y35617858D02*
X-11219286Y35546429D01*
X-10933572Y35546429D01*
X-10790715Y35617858D01*
X-10719286Y35760715D01*
X-10719286Y35832143D01*
X-10790715Y35975000D01*
X-10933572Y36046429D01*
X-11147858Y36046429D01*
X-11290715Y36117858D01*
X-11362143Y36260715D01*
X-11362143Y36332143D01*
X-11290715Y36475000D01*
X-11147858Y36546429D01*
X-10933572Y36546429D01*
X-10790715Y36475000D01*
X-8505000Y34975000D02*
X-8576429Y35046429D01*
X-8719286Y35260715D01*
X-8790715Y35403572D01*
X-8862143Y35617858D01*
X-8933572Y35975000D01*
X-8933572Y36260715D01*
X-8862143Y36617858D01*
X-8790715Y36832143D01*
X-8719286Y36975000D01*
X-8576429Y37189286D01*
X-8505000Y37260715D01*
X-7147858Y35546429D02*
X-8005000Y35546429D01*
X-7576429Y35546429D02*
X-7576429Y37046429D01*
X-7719286Y36832143D01*
X-7862143Y36689286D01*
X-8005000Y36617858D01*
X-6290715Y35546429D02*
X-6433572Y35617858D01*
X-6505000Y35689286D01*
X-6576429Y35832143D01*
X-6576429Y36260715D01*
X-6505000Y36403572D01*
X-6433572Y36475000D01*
X-6290715Y36546429D01*
X-6076429Y36546429D01*
X-5933572Y36475000D01*
X-5862143Y36403572D01*
X-5790715Y36260715D01*
X-5790715Y35832143D01*
X-5862143Y35689286D01*
X-5933572Y35617858D01*
X-6076429Y35546429D01*
X-6290715Y35546429D01*
X-5290715Y36546429D02*
X-4505000Y36546429D01*
X-5290715Y35546429D01*
X-4505000Y35546429D01*
X-4076429Y34975000D02*
X-4005000Y35046429D01*
X-3862143Y35260715D01*
X-3790715Y35403572D01*
X-3719286Y35617858D01*
X-3647858Y35975000D01*
X-3647858Y36260715D01*
X-3719286Y36617858D01*
X-3790715Y36832143D01*
X-3862143Y36975000D01*
X-4005000Y37189286D01*
X-4076429Y37260715D01*
X-36862143Y34496429D02*
X-36362143Y32996429D01*
X-35862143Y34496429D01*
X-35362143Y33567858D02*
X-34219286Y33567858D01*
X-33576429Y33067858D02*
X-33433572Y32996429D01*
X-33147858Y32996429D01*
X-33005000Y33067858D01*
X-32933572Y33210715D01*
X-32933572Y33282143D01*
X-33005000Y33425000D01*
X-33147858Y33496429D01*
X-33362143Y33496429D01*
X-33505000Y33567858D01*
X-33576429Y33710715D01*
X-33576429Y33782143D01*
X-33505000Y33925000D01*
X-33362143Y33996429D01*
X-33147858Y33996429D01*
X-33005000Y33925000D01*
X-31647858Y33067858D02*
X-31790715Y32996429D01*
X-32076429Y32996429D01*
X-32219286Y33067858D01*
X-32290715Y33139286D01*
X-32362143Y33282143D01*
X-32362143Y33710715D01*
X-32290715Y33853572D01*
X-32219286Y33925000D01*
X-32076429Y33996429D01*
X-31790715Y33996429D01*
X-31647858Y33925000D01*
X-30790715Y32996429D02*
X-30933572Y33067858D01*
X-31005000Y33139286D01*
X-31076429Y33282143D01*
X-31076429Y33710715D01*
X-31005000Y33853572D01*
X-30933572Y33925000D01*
X-30790715Y33996429D01*
X-30576429Y33996429D01*
X-30433572Y33925000D01*
X-30362143Y33853572D01*
X-30290715Y33710715D01*
X-30290715Y33282143D01*
X-30362143Y33139286D01*
X-30433572Y33067858D01*
X-30576429Y32996429D01*
X-30790715Y32996429D01*
X-29647858Y32996429D02*
X-29647858Y33996429D01*
X-29647858Y33710715D02*
X-29576429Y33853572D01*
X-29505000Y33925000D01*
X-29362143Y33996429D01*
X-29219286Y33996429D01*
X-28719286Y32996429D02*
X-28719286Y33996429D01*
X-28719286Y34496429D02*
X-28790715Y34425000D01*
X-28719286Y34353572D01*
X-28647858Y34425000D01*
X-28719286Y34496429D01*
X-28719286Y34353572D01*
X-28005000Y33996429D02*
X-28005000Y32996429D01*
X-28005000Y33853572D02*
X-27933572Y33925000D01*
X-27790715Y33996429D01*
X-27576429Y33996429D01*
X-27433572Y33925000D01*
X-27362143Y33782143D01*
X-27362143Y32996429D01*
X-26005000Y33996429D02*
X-26005000Y32782143D01*
X-26076429Y32639286D01*
X-26147858Y32567858D01*
X-26290715Y32496429D01*
X-26505000Y32496429D01*
X-26647858Y32567858D01*
X-26005000Y33067858D02*
X-26147858Y32996429D01*
X-26433572Y32996429D01*
X-26576429Y33067858D01*
X-26647858Y33139286D01*
X-26719286Y33282143D01*
X-26719286Y33710715D01*
X-26647858Y33853572D01*
X-26576429Y33925000D01*
X-26433572Y33996429D01*
X-26147858Y33996429D01*
X-26005000Y33925000D01*
X-23505000Y33067858D02*
X-23647858Y32996429D01*
X-23933572Y32996429D01*
X-24076429Y33067858D01*
X-24147858Y33139286D01*
X-24219286Y33282143D01*
X-24219286Y33710715D01*
X-24147858Y33853572D01*
X-24076429Y33925000D01*
X-23933572Y33996429D01*
X-23647858Y33996429D01*
X-23505000Y33925000D01*
X-22219286Y33996429D02*
X-22219286Y32996429D01*
X-22862143Y33996429D02*
X-22862143Y33210715D01*
X-22790715Y33067858D01*
X-22647858Y32996429D01*
X-22433572Y32996429D01*
X-22290715Y33067858D01*
X-22219286Y33139286D01*
X-21719286Y33996429D02*
X-21147858Y33996429D01*
X-21505000Y34496429D02*
X-21505000Y33210715D01*
X-21433572Y33067858D01*
X-21290715Y32996429D01*
X-21147858Y32996429D01*
X-36647858Y30446429D02*
X-36647858Y31946429D01*
X-36647858Y31232143D02*
X-35790715Y31232143D01*
X-35790715Y30446429D02*
X-35790715Y31946429D01*
X-35147858Y30875000D02*
X-34433572Y30875000D01*
X-35290715Y30446429D02*
X-34790715Y31946429D01*
X-34290715Y30446429D01*
X-33862143Y30517858D02*
X-33647858Y30446429D01*
X-33290715Y30446429D01*
X-33147858Y30517858D01*
X-33076429Y30589286D01*
X-33005000Y30732143D01*
X-33005000Y30875000D01*
X-33076429Y31017858D01*
X-33147858Y31089286D01*
X-33290715Y31160715D01*
X-33576429Y31232143D01*
X-33719286Y31303572D01*
X-33790715Y31375000D01*
X-33862143Y31517858D01*
X-33862143Y31660715D01*
X-33790715Y31803572D01*
X-33719286Y31875000D01*
X-33576429Y31946429D01*
X-33219286Y31946429D01*
X-33005000Y31875000D01*
X-31647858Y30446429D02*
X-32362143Y30446429D01*
X-32362143Y31946429D01*
X-30219286Y31446429D02*
X-29647858Y31446429D01*
X-30005000Y30446429D02*
X-30005000Y31732143D01*
X-29933572Y31875000D01*
X-29790715Y31946429D01*
X-29647858Y31946429D01*
X-29147858Y30446429D02*
X-29147858Y31446429D01*
X-29147858Y31946429D02*
X-29219286Y31875000D01*
X-29147858Y31803572D01*
X-29076429Y31875000D01*
X-29147858Y31946429D01*
X-29147858Y31803572D01*
X-28433572Y31446429D02*
X-28433572Y30446429D01*
X-28433572Y31303572D02*
X-28362143Y31375000D01*
X-28219286Y31446429D01*
X-28005000Y31446429D01*
X-27862143Y31375000D01*
X-27790715Y31232143D01*
X-27790715Y30446429D01*
X-27076429Y30446429D02*
X-27076429Y31446429D01*
X-27076429Y31946429D02*
X-27147858Y31875000D01*
X-27076429Y31803572D01*
X-27005000Y31875000D01*
X-27076429Y31946429D01*
X-27076429Y31803572D01*
X-26433572Y30517858D02*
X-26290715Y30446429D01*
X-26005000Y30446429D01*
X-25862143Y30517858D01*
X-25790715Y30660715D01*
X-25790715Y30732143D01*
X-25862143Y30875000D01*
X-26005000Y30946429D01*
X-26219286Y30946429D01*
X-26362143Y31017858D01*
X-26433572Y31160715D01*
X-26433572Y31232143D01*
X-26362143Y31375000D01*
X-26219286Y31446429D01*
X-26005000Y31446429D01*
X-25862143Y31375000D01*
X-25147858Y30446429D02*
X-25147858Y31946429D01*
X-24505000Y30446429D02*
X-24505000Y31232143D01*
X-24576429Y31375000D01*
X-24719286Y31446429D01*
X-24933572Y31446429D01*
X-25076429Y31375000D01*
X-25147858Y31303572D01*
X-36147858Y28682143D02*
X-35933572Y28610715D01*
X-35862143Y28539286D01*
X-35790715Y28396429D01*
X-35790715Y28182143D01*
X-35862143Y28039286D01*
X-35933572Y27967858D01*
X-36076429Y27896429D01*
X-36647858Y27896429D01*
X-36647858Y29396429D01*
X-36147858Y29396429D01*
X-36005000Y29325000D01*
X-35933572Y29253572D01*
X-35862143Y29110715D01*
X-35862143Y28967858D01*
X-35933572Y28825000D01*
X-36005000Y28753572D01*
X-36147858Y28682143D01*
X-36647858Y28682143D01*
X-34933572Y27896429D02*
X-35076429Y27967858D01*
X-35147858Y28110715D01*
X-35147858Y29396429D01*
X-33719286Y27896429D02*
X-33719286Y28682143D01*
X-33790715Y28825000D01*
X-33933572Y28896429D01*
X-34219286Y28896429D01*
X-34362143Y28825000D01*
X-33719286Y27967858D02*
X-33862143Y27896429D01*
X-34219286Y27896429D01*
X-34362143Y27967858D01*
X-34433572Y28110715D01*
X-34433572Y28253572D01*
X-34362143Y28396429D01*
X-34219286Y28467858D01*
X-33862143Y28467858D01*
X-33719286Y28539286D01*
X-32362143Y27967858D02*
X-32505000Y27896429D01*
X-32790715Y27896429D01*
X-32933572Y27967858D01*
X-33005000Y28039286D01*
X-33076429Y28182143D01*
X-33076429Y28610715D01*
X-33005000Y28753572D01*
X-32933572Y28825000D01*
X-32790715Y28896429D01*
X-32505000Y28896429D01*
X-32362143Y28825000D01*
X-31719286Y27896429D02*
X-31719286Y29396429D01*
X-31576429Y28467858D02*
X-31147858Y27896429D01*
X-31147858Y28896429D02*
X-31719286Y28325000D01*
X-29433572Y27967858D02*
X-29219286Y27896429D01*
X-28862143Y27896429D01*
X-28719286Y27967858D01*
X-28647858Y28039286D01*
X-28576429Y28182143D01*
X-28576429Y28325000D01*
X-28647858Y28467858D01*
X-28719286Y28539286D01*
X-28862143Y28610715D01*
X-29147858Y28682143D01*
X-29290715Y28753572D01*
X-29362143Y28825000D01*
X-29433572Y28967858D01*
X-29433572Y29110715D01*
X-29362143Y29253572D01*
X-29290715Y29325000D01*
X-29147858Y29396429D01*
X-28790715Y29396429D01*
X-28576429Y29325000D01*
X-27719286Y27896429D02*
X-27862143Y27967858D01*
X-27933572Y28039286D01*
X-28005000Y28182143D01*
X-28005000Y28610715D01*
X-27933572Y28753572D01*
X-27862143Y28825000D01*
X-27719286Y28896429D01*
X-27505000Y28896429D01*
X-27362143Y28825000D01*
X-27290715Y28753572D01*
X-27219286Y28610715D01*
X-27219286Y28182143D01*
X-27290715Y28039286D01*
X-27362143Y27967858D01*
X-27505000Y27896429D01*
X-27719286Y27896429D01*
X-26362143Y27896429D02*
X-26505000Y27967858D01*
X-26576429Y28110715D01*
X-26576429Y29396429D01*
X-25147858Y27896429D02*
X-25147858Y29396429D01*
X-25147858Y27967858D02*
X-25290715Y27896429D01*
X-25576429Y27896429D01*
X-25719286Y27967858D01*
X-25790715Y28039286D01*
X-25862143Y28182143D01*
X-25862143Y28610715D01*
X-25790715Y28753572D01*
X-25719286Y28825000D01*
X-25576429Y28896429D01*
X-25290715Y28896429D01*
X-25147858Y28825000D01*
X-23862143Y27967858D02*
X-24005000Y27896429D01*
X-24290715Y27896429D01*
X-24433572Y27967858D01*
X-24505000Y28110715D01*
X-24505000Y28682143D01*
X-24433572Y28825000D01*
X-24290715Y28896429D01*
X-24005000Y28896429D01*
X-23862143Y28825000D01*
X-23790715Y28682143D01*
X-23790715Y28539286D01*
X-24505000Y28396429D01*
X-23147858Y27896429D02*
X-23147858Y28896429D01*
X-23147858Y28610715D02*
X-23076429Y28753572D01*
X-23005000Y28825000D01*
X-22862143Y28896429D01*
X-22719286Y28896429D01*
X-22219286Y27896429D02*
X-22219286Y28896429D01*
X-22219286Y28753572D02*
X-22147858Y28825000D01*
X-22005000Y28896429D01*
X-21790715Y28896429D01*
X-21647858Y28825000D01*
X-21576429Y28682143D01*
X-21576429Y27896429D01*
X-21576429Y28682143D02*
X-21505000Y28825000D01*
X-21362143Y28896429D01*
X-21147858Y28896429D01*
X-21005000Y28825000D01*
X-20933572Y28682143D01*
X-20933572Y27896429D01*
X-19576429Y27896429D02*
X-19576429Y28682143D01*
X-19647858Y28825000D01*
X-19790715Y28896429D01*
X-20076429Y28896429D01*
X-20219286Y28825000D01*
X-19576429Y27967858D02*
X-19719286Y27896429D01*
X-20076429Y27896429D01*
X-20219286Y27967858D01*
X-20290715Y28110715D01*
X-20290715Y28253572D01*
X-20219286Y28396429D01*
X-20076429Y28467858D01*
X-19719286Y28467858D01*
X-19576429Y28539286D01*
X-18933572Y27967858D02*
X-18790715Y27896429D01*
X-18505000Y27896429D01*
X-18362143Y27967858D01*
X-18290715Y28110715D01*
X-18290715Y28182143D01*
X-18362143Y28325000D01*
X-18505000Y28396429D01*
X-18719286Y28396429D01*
X-18862143Y28467858D01*
X-18933572Y28610715D01*
X-18933572Y28682143D01*
X-18862143Y28825000D01*
X-18719286Y28896429D01*
X-18505000Y28896429D01*
X-18362143Y28825000D01*
X-17647858Y27896429D02*
X-17647858Y29396429D01*
X-17505000Y28467858D02*
X-17076429Y27896429D01*
X-17076429Y28896429D02*
X-17647858Y28325000D01*
X-36790715Y26846429D02*
X-36433572Y25346429D01*
X-36147858Y26417858D01*
X-35862143Y25346429D01*
X-35505000Y26846429D01*
X-34933572Y25346429D02*
X-34933572Y26846429D01*
X-34290715Y25346429D02*
X-34290715Y26132143D01*
X-34362143Y26275000D01*
X-34505000Y26346429D01*
X-34719286Y26346429D01*
X-34862143Y26275000D01*
X-34933572Y26203572D01*
X-33576429Y25346429D02*
X-33576429Y26346429D01*
X-33576429Y26846429D02*
X-33647858Y26775000D01*
X-33576429Y26703572D01*
X-33505000Y26775000D01*
X-33576429Y26846429D01*
X-33576429Y26703572D01*
X-33076429Y26346429D02*
X-32505000Y26346429D01*
X-32862143Y26846429D02*
X-32862143Y25560715D01*
X-32790715Y25417858D01*
X-32647858Y25346429D01*
X-32505000Y25346429D01*
X-31433572Y25417858D02*
X-31576429Y25346429D01*
X-31862143Y25346429D01*
X-32005000Y25417858D01*
X-32076429Y25560715D01*
X-32076429Y26132143D01*
X-32005000Y26275000D01*
X-31862143Y26346429D01*
X-31576429Y26346429D01*
X-31433572Y26275000D01*
X-31362143Y26132143D01*
X-31362143Y25989286D01*
X-32076429Y25846429D01*
X-29647858Y25417858D02*
X-29433572Y25346429D01*
X-29076429Y25346429D01*
X-28933572Y25417858D01*
X-28862143Y25489286D01*
X-28790715Y25632143D01*
X-28790715Y25775000D01*
X-28862143Y25917858D01*
X-28933572Y25989286D01*
X-29076429Y26060715D01*
X-29362143Y26132143D01*
X-29505000Y26203572D01*
X-29576429Y26275000D01*
X-29647858Y26417858D01*
X-29647858Y26560715D01*
X-29576429Y26703572D01*
X-29505000Y26775000D01*
X-29362143Y26846429D01*
X-29005000Y26846429D01*
X-28790715Y26775000D01*
X-28147858Y25346429D02*
X-28147858Y26346429D01*
X-28147858Y26846429D02*
X-28219286Y26775000D01*
X-28147858Y26703572D01*
X-28076429Y26775000D01*
X-28147858Y26846429D01*
X-28147858Y26703572D01*
X-27219286Y25346429D02*
X-27362143Y25417858D01*
X-27433572Y25560715D01*
X-27433572Y26846429D01*
X-26647858Y25346429D02*
X-26647858Y26846429D01*
X-26505000Y25917858D02*
X-26076429Y25346429D01*
X-26076429Y26346429D02*
X-26647858Y25775000D01*
X-25505000Y25417858D02*
X-25362143Y25346429D01*
X-25076429Y25346429D01*
X-24933572Y25417858D01*
X-24862143Y25560715D01*
X-24862143Y25632143D01*
X-24933572Y25775000D01*
X-25076429Y25846429D01*
X-25290715Y25846429D01*
X-25433572Y25917858D01*
X-25505000Y26060715D01*
X-25505000Y26132143D01*
X-25433572Y26275000D01*
X-25290715Y26346429D01*
X-25076429Y26346429D01*
X-24933572Y26275000D01*
X-23576429Y25417858D02*
X-23719286Y25346429D01*
X-24005000Y25346429D01*
X-24147858Y25417858D01*
X-24219286Y25489286D01*
X-24290715Y25632143D01*
X-24290715Y26060715D01*
X-24219286Y26203572D01*
X-24147858Y26275000D01*
X-24005000Y26346429D01*
X-23719286Y26346429D01*
X-23576429Y26275000D01*
X-22933572Y25346429D02*
X-22933572Y26346429D01*
X-22933572Y26060715D02*
X-22862143Y26203572D01*
X-22790715Y26275000D01*
X-22647858Y26346429D01*
X-22505000Y26346429D01*
X-21433572Y25417858D02*
X-21576429Y25346429D01*
X-21862143Y25346429D01*
X-22005000Y25417858D01*
X-22076429Y25560715D01*
X-22076429Y26132143D01*
X-22005000Y26275000D01*
X-21862143Y26346429D01*
X-21576429Y26346429D01*
X-21433572Y26275000D01*
X-21362143Y26132143D01*
X-21362143Y25989286D01*
X-22076429Y25846429D01*
X-20147858Y25417858D02*
X-20290715Y25346429D01*
X-20576429Y25346429D01*
X-20719286Y25417858D01*
X-20790715Y25560715D01*
X-20790715Y26132143D01*
X-20719286Y26275000D01*
X-20576429Y26346429D01*
X-20290715Y26346429D01*
X-20147858Y26275000D01*
X-20076429Y26132143D01*
X-20076429Y25989286D01*
X-20790715Y25846429D01*
X-19433572Y26346429D02*
X-19433572Y25346429D01*
X-19433572Y26203572D02*
X-19362143Y26275000D01*
X-19219286Y26346429D01*
X-19005000Y26346429D01*
X-18862143Y26275000D01*
X-18790715Y26132143D01*
X-18790715Y25346429D01*
D10*
X-32200000Y48500000D02*
X-26700000Y48500000D01*
X-32200000Y42600000D02*
X-32200000Y48500000D01*
X-11000000Y42600000D02*
X-32200000Y42600000D01*
X-11000000Y48500000D02*
X-11000000Y42600000D01*
X-26700000Y48500000D02*
X-11000000Y48500000D01*
D11*
X-30157143Y46782143D02*
X-29942858Y46710715D01*
X-29871429Y46639286D01*
X-29800000Y46496429D01*
X-29800000Y46282143D01*
X-29871429Y46139286D01*
X-29942858Y46067858D01*
X-30085715Y45996429D01*
X-30657143Y45996429D01*
X-30657143Y47496429D01*
X-30157143Y47496429D01*
X-30014286Y47425000D01*
X-29942858Y47353572D01*
X-29871429Y47210715D01*
X-29871429Y47067858D01*
X-29942858Y46925000D01*
X-30014286Y46853572D01*
X-30157143Y46782143D01*
X-30657143Y46782143D01*
X-29157143Y47496429D02*
X-29157143Y46282143D01*
X-29085715Y46139286D01*
X-29014286Y46067858D01*
X-28871429Y45996429D01*
X-28585715Y45996429D01*
X-28442858Y46067858D01*
X-28371429Y46139286D01*
X-28300000Y46282143D01*
X-28300000Y47496429D01*
X-27800000Y47496429D02*
X-26942858Y47496429D01*
X-27371429Y45996429D02*
X-27371429Y47496429D01*
X-26657143Y47496429D02*
X-25800000Y47496429D01*
X-26228572Y45996429D02*
X-26228572Y47496429D01*
X-25014286Y47496429D02*
X-24728572Y47496429D01*
X-24585715Y47425000D01*
X-24442858Y47282143D01*
X-24371429Y46996429D01*
X-24371429Y46496429D01*
X-24442858Y46210715D01*
X-24585715Y46067858D01*
X-24728572Y45996429D01*
X-25014286Y45996429D01*
X-25157143Y46067858D01*
X-25300000Y46210715D01*
X-25371429Y46496429D01*
X-25371429Y46996429D01*
X-25300000Y47282143D01*
X-25157143Y47425000D01*
X-25014286Y47496429D01*
X-23728572Y45996429D02*
X-23728572Y47496429D01*
X-22871429Y45996429D01*
X-22871429Y47496429D01*
X-22228572Y46067858D02*
X-22014286Y45996429D01*
X-21657143Y45996429D01*
X-21514286Y46067858D01*
X-21442858Y46139286D01*
X-21371429Y46282143D01*
X-21371429Y46425000D01*
X-21442858Y46567858D01*
X-21514286Y46639286D01*
X-21657143Y46710715D01*
X-21942858Y46782143D01*
X-22085715Y46853572D01*
X-22157143Y46925000D01*
X-22228572Y47067858D01*
X-22228572Y47210715D01*
X-22157143Y47353572D01*
X-22085715Y47425000D01*
X-21942858Y47496429D01*
X-21585715Y47496429D01*
X-21371429Y47425000D01*
X-21085715Y45853572D02*
X-19942858Y45853572D01*
X-19085715Y46782143D02*
X-18871429Y46710715D01*
X-18800000Y46639286D01*
X-18728572Y46496429D01*
X-18728572Y46282143D01*
X-18800000Y46139286D01*
X-18871429Y46067858D01*
X-19014286Y45996429D01*
X-19585715Y45996429D01*
X-19585715Y47496429D01*
X-19085715Y47496429D01*
X-18942858Y47425000D01*
X-18871429Y47353572D01*
X-18800000Y47210715D01*
X-18800000Y47067858D01*
X-18871429Y46925000D01*
X-18942858Y46853572D01*
X-19085715Y46782143D01*
X-19585715Y46782143D01*
X-17800000Y47496429D02*
X-17514286Y47496429D01*
X-17371429Y47425000D01*
X-17228572Y47282143D01*
X-17157143Y46996429D01*
X-17157143Y46496429D01*
X-17228572Y46210715D01*
X-17371429Y46067858D01*
X-17514286Y45996429D01*
X-17800000Y45996429D01*
X-17942858Y46067858D01*
X-18085715Y46210715D01*
X-18157143Y46496429D01*
X-18157143Y46996429D01*
X-18085715Y47282143D01*
X-17942858Y47425000D01*
X-17800000Y47496429D01*
X-16585715Y46425000D02*
X-15871429Y46425000D01*
X-16728572Y45996429D02*
X-16228572Y47496429D01*
X-15728572Y45996429D01*
X-14371429Y45996429D02*
X-14871429Y46710715D01*
X-15228572Y45996429D02*
X-15228572Y47496429D01*
X-14657143Y47496429D01*
X-14514286Y47425000D01*
X-14442858Y47353572D01*
X-14371429Y47210715D01*
X-14371429Y46996429D01*
X-14442858Y46853572D01*
X-14514286Y46782143D01*
X-14657143Y46710715D01*
X-15228572Y46710715D01*
X-13728572Y45996429D02*
X-13728572Y47496429D01*
X-13371429Y47496429D01*
X-13157143Y47425000D01*
X-13014286Y47282143D01*
X-12942858Y47139286D01*
X-12871429Y46853572D01*
X-12871429Y46639286D01*
X-12942858Y46353572D01*
X-13014286Y46210715D01*
X-13157143Y46067858D01*
X-13371429Y45996429D01*
X-13728572Y45996429D01*
X-31121429Y43446429D02*
X-31121429Y44946429D01*
X-30764286Y44946429D01*
X-30550000Y44875000D01*
X-30407143Y44732143D01*
X-30335715Y44589286D01*
X-30264286Y44303572D01*
X-30264286Y44089286D01*
X-30335715Y43803572D01*
X-30407143Y43660715D01*
X-30550000Y43517858D01*
X-30764286Y43446429D01*
X-31121429Y43446429D01*
X-29621429Y44232143D02*
X-29121429Y44232143D01*
X-28907143Y43446429D02*
X-29621429Y43446429D01*
X-29621429Y44946429D01*
X-28907143Y44946429D01*
X-27407143Y43589286D02*
X-27478572Y43517858D01*
X-27692858Y43446429D01*
X-27835715Y43446429D01*
X-28050000Y43517858D01*
X-28192858Y43660715D01*
X-28264286Y43803572D01*
X-28335715Y44089286D01*
X-28335715Y44303572D01*
X-28264286Y44589286D01*
X-28192858Y44732143D01*
X-28050000Y44875000D01*
X-27835715Y44946429D01*
X-27692858Y44946429D01*
X-27478572Y44875000D01*
X-27407143Y44803572D01*
X-26764286Y44232143D02*
X-26264286Y44232143D01*
X-26050000Y43446429D02*
X-26764286Y43446429D01*
X-26764286Y44946429D01*
X-26050000Y44946429D01*
X-25407143Y43446429D02*
X-25407143Y44946429D01*
X-24907143Y43875000D01*
X-24407143Y44946429D01*
X-24407143Y43446429D01*
X-23192858Y44232143D02*
X-22978572Y44160715D01*
X-22907143Y44089286D01*
X-22835715Y43946429D01*
X-22835715Y43732143D01*
X-22907143Y43589286D01*
X-22978572Y43517858D01*
X-23121429Y43446429D01*
X-23692858Y43446429D01*
X-23692858Y44946429D01*
X-23192858Y44946429D01*
X-23050000Y44875000D01*
X-22978572Y44803572D01*
X-22907143Y44660715D01*
X-22907143Y44517858D01*
X-22978572Y44375000D01*
X-23050000Y44303572D01*
X-23192858Y44232143D01*
X-23692858Y44232143D01*
X-22192858Y44232143D02*
X-21692858Y44232143D01*
X-21478572Y43446429D02*
X-22192858Y43446429D01*
X-22192858Y44946429D01*
X-21478572Y44946429D01*
X-19978572Y43446429D02*
X-20478572Y44160715D01*
X-20835715Y43446429D02*
X-20835715Y44946429D01*
X-20264286Y44946429D01*
X-20121429Y44875000D01*
X-20050000Y44803572D01*
X-19978572Y44660715D01*
X-19978572Y44446429D01*
X-20050000Y44303572D01*
X-20121429Y44232143D01*
X-20264286Y44160715D01*
X-20835715Y44160715D01*
X-19335715Y44017858D02*
X-18192858Y44017858D01*
X-17550000Y44803572D02*
X-17478572Y44875000D01*
X-17335715Y44946429D01*
X-16978572Y44946429D01*
X-16835715Y44875000D01*
X-16764286Y44803572D01*
X-16692858Y44660715D01*
X-16692858Y44517858D01*
X-16764286Y44303572D01*
X-17621429Y43446429D01*
X-16692858Y43446429D01*
X-15764286Y44946429D02*
X-15621429Y44946429D01*
X-15478572Y44875000D01*
X-15407143Y44803572D01*
X-15335715Y44660715D01*
X-15264286Y44375000D01*
X-15264286Y44017858D01*
X-15335715Y43732143D01*
X-15407143Y43589286D01*
X-15478572Y43517858D01*
X-15621429Y43446429D01*
X-15764286Y43446429D01*
X-15907143Y43517858D01*
X-15978572Y43589286D01*
X-16050000Y43732143D01*
X-16121429Y44017858D01*
X-16121429Y44375000D01*
X-16050000Y44660715D01*
X-15978572Y44803572D01*
X-15907143Y44875000D01*
X-15764286Y44946429D01*
X-13835715Y43446429D02*
X-14692858Y43446429D01*
X-14264286Y43446429D02*
X-14264286Y44946429D01*
X-14407143Y44732143D01*
X-14550000Y44589286D01*
X-14692858Y44517858D01*
X-12978572Y44303572D02*
X-13121429Y44375000D01*
X-13192858Y44446429D01*
X-13264286Y44589286D01*
X-13264286Y44660715D01*
X-13192858Y44803572D01*
X-13121429Y44875000D01*
X-12978572Y44946429D01*
X-12692858Y44946429D01*
X-12550000Y44875000D01*
X-12478572Y44803572D01*
X-12407143Y44660715D01*
X-12407143Y44589286D01*
X-12478572Y44446429D01*
X-12550000Y44375000D01*
X-12692858Y44303572D01*
X-12978572Y44303572D01*
X-13121429Y44232143D01*
X-13192858Y44160715D01*
X-13264286Y44017858D01*
X-13264286Y43732143D01*
X-13192858Y43589286D01*
X-13121429Y43517858D01*
X-12978572Y43446429D01*
X-12692858Y43446429D01*
X-12550000Y43517858D01*
X-12478572Y43589286D01*
X-12407143Y43732143D01*
X-12407143Y44017858D01*
X-12478572Y44160715D01*
X-12550000Y44232143D01*
X-12692858Y44303572D01*
D12*
X46000000Y27142858D02*
X46000000Y30142858D01*
X46714285Y30142858D01*
X47142857Y30000000D01*
X47428571Y29714286D01*
X47571428Y29428572D01*
X47714285Y28857143D01*
X47714285Y28428572D01*
X47571428Y27857143D01*
X47428571Y27571429D01*
X47142857Y27285715D01*
X46714285Y27142858D01*
X46000000Y27142858D01*
X49571428Y30142858D02*
X50142857Y30142858D01*
X50428571Y30000000D01*
X50714285Y29714286D01*
X50857142Y29142858D01*
X50857142Y28142858D01*
X50714285Y27571429D01*
X50428571Y27285715D01*
X50142857Y27142858D01*
X49571428Y27142858D01*
X49285714Y27285715D01*
X49000000Y27571429D01*
X48857142Y28142858D01*
X48857142Y29142858D01*
X49000000Y29714286D01*
X49285714Y30000000D01*
X49571428Y30142858D01*
X53857142Y27428572D02*
X53714285Y27285715D01*
X53285714Y27142858D01*
X53000000Y27142858D01*
X52571428Y27285715D01*
X52285714Y27571429D01*
X52142857Y27857143D01*
X52000000Y28428572D01*
X52000000Y28857143D01*
X52142857Y29428572D01*
X52285714Y29714286D01*
X52571428Y30000000D01*
X53000000Y30142858D01*
X53285714Y30142858D01*
X53714285Y30000000D01*
X53857142Y29857143D01*
X55142857Y30142858D02*
X55142857Y27714286D01*
X55285714Y27428572D01*
X55428571Y27285715D01*
X55714285Y27142858D01*
X56285714Y27142858D01*
X56571428Y27285715D01*
X56714285Y27428572D01*
X56857142Y27714286D01*
X56857142Y30142858D01*
X58285714Y27142858D02*
X58285714Y30142858D01*
X59285714Y28000000D01*
X60285714Y30142858D01*
X60285714Y27142858D01*
X61714285Y28714286D02*
X62714285Y28714286D01*
X63142857Y27142858D02*
X61714285Y27142858D01*
X61714285Y30142858D01*
X63142857Y30142858D01*
X64428571Y27142858D02*
X64428571Y30142858D01*
X66142857Y27142858D01*
X66142857Y30142858D01*
X67142857Y30142858D02*
X68857142Y30142858D01*
X68000000Y27142858D02*
X68000000Y30142858D01*
X69714285Y28000000D02*
X71142857Y28000000D01*
X69428571Y27142858D02*
X70428571Y30142858D01*
X71428571Y27142858D01*
X72000000Y30142858D02*
X73714285Y30142858D01*
X72857142Y27142858D02*
X72857142Y30142858D01*
X74714285Y27142858D02*
X74714285Y30142858D01*
X76714285Y30142858D02*
X77285714Y30142858D01*
X77571428Y30000000D01*
X77857142Y29714286D01*
X78000000Y29142858D01*
X78000000Y28142858D01*
X77857142Y27571429D01*
X77571428Y27285715D01*
X77285714Y27142858D01*
X76714285Y27142858D01*
X76428571Y27285715D01*
X76142857Y27571429D01*
X76000000Y28142858D01*
X76000000Y29142858D01*
X76142857Y29714286D01*
X76428571Y30000000D01*
X76714285Y30142858D01*
X79285714Y27142858D02*
X79285714Y30142858D01*
X81000000Y27142858D01*
X81000000Y30142858D01*
D10*
X-34200000Y21900000D02*
X-34200000Y19400000D01*
X-4700000Y21900000D02*
X-34200000Y21900000D01*
X-4700000Y10900000D02*
X-4700000Y21900000D01*
X-34200000Y10900000D02*
X-4700000Y10900000D01*
X-34200000Y19400000D02*
X-34200000Y10900000D01*
D11*
X-26842858Y19689286D02*
X-26914286Y19617858D01*
X-27128572Y19546429D01*
X-27271429Y19546429D01*
X-27485715Y19617858D01*
X-27628572Y19760715D01*
X-27700000Y19903572D01*
X-27771429Y20189286D01*
X-27771429Y20403572D01*
X-27700000Y20689286D01*
X-27628572Y20832143D01*
X-27485715Y20975000D01*
X-27271429Y21046429D01*
X-27128572Y21046429D01*
X-26914286Y20975000D01*
X-26842858Y20903572D01*
X-25914286Y21046429D02*
X-25628572Y21046429D01*
X-25485715Y20975000D01*
X-25342858Y20832143D01*
X-25271429Y20546429D01*
X-25271429Y20046429D01*
X-25342858Y19760715D01*
X-25485715Y19617858D01*
X-25628572Y19546429D01*
X-25914286Y19546429D01*
X-26057143Y19617858D01*
X-26200000Y19760715D01*
X-26271429Y20046429D01*
X-26271429Y20546429D01*
X-26200000Y20832143D01*
X-26057143Y20975000D01*
X-25914286Y21046429D01*
X-24628572Y19546429D02*
X-24628572Y21046429D01*
X-23771429Y19546429D01*
X-23771429Y21046429D01*
X-23271429Y21046429D02*
X-22414286Y21046429D01*
X-22842858Y19546429D02*
X-22842858Y21046429D01*
X-21985715Y19975000D02*
X-21271429Y19975000D01*
X-22128572Y19546429D02*
X-21628572Y21046429D01*
X-21128572Y19546429D01*
X-19771429Y19689286D02*
X-19842858Y19617858D01*
X-20057143Y19546429D01*
X-20200000Y19546429D01*
X-20414286Y19617858D01*
X-20557143Y19760715D01*
X-20628572Y19903572D01*
X-20700000Y20189286D01*
X-20700000Y20403572D01*
X-20628572Y20689286D01*
X-20557143Y20832143D01*
X-20414286Y20975000D01*
X-20200000Y21046429D01*
X-20057143Y21046429D01*
X-19842858Y20975000D01*
X-19771429Y20903572D01*
X-19342858Y21046429D02*
X-18485715Y21046429D01*
X-18914286Y19546429D02*
X-18914286Y21046429D01*
X-16842858Y19546429D02*
X-16842858Y21046429D01*
X-16128572Y19546429D02*
X-16128572Y21046429D01*
X-15271429Y19546429D01*
X-15271429Y21046429D01*
X-14057143Y20332143D02*
X-14557143Y20332143D01*
X-14557143Y19546429D02*
X-14557143Y21046429D01*
X-13842858Y21046429D01*
X-12985715Y21046429D02*
X-12700000Y21046429D01*
X-12557143Y20975000D01*
X-12414286Y20832143D01*
X-12342858Y20546429D01*
X-12342858Y20046429D01*
X-12414286Y19760715D01*
X-12557143Y19617858D01*
X-12700000Y19546429D01*
X-12985715Y19546429D01*
X-13128572Y19617858D01*
X-13271429Y19760715D01*
X-13342858Y20046429D01*
X-13342858Y20546429D01*
X-13271429Y20832143D01*
X-13128572Y20975000D01*
X-12985715Y21046429D01*
X-11700000Y19689286D02*
X-11628572Y19617858D01*
X-11700000Y19546429D01*
X-11771429Y19617858D01*
X-11700000Y19689286D01*
X-11700000Y19546429D01*
X-11700000Y20475000D02*
X-11628572Y20403572D01*
X-11700000Y20332143D01*
X-11771429Y20403572D01*
X-11700000Y20475000D01*
X-11700000Y20332143D01*
X-32342858Y18496429D02*
X-32342858Y17425000D01*
X-32414286Y17210715D01*
X-32557143Y17067858D01*
X-32771429Y16996429D01*
X-32914286Y16996429D01*
X-31414286Y16996429D02*
X-31557143Y17067858D01*
X-31628572Y17139286D01*
X-31700000Y17282143D01*
X-31700000Y17710715D01*
X-31628572Y17853572D01*
X-31557143Y17925000D01*
X-31414286Y17996429D01*
X-31200000Y17996429D01*
X-31057143Y17925000D01*
X-30985715Y17853572D01*
X-30914286Y17710715D01*
X-30914286Y17282143D01*
X-30985715Y17139286D01*
X-31057143Y17067858D01*
X-31200000Y16996429D01*
X-31414286Y16996429D01*
X-30342858Y17067858D02*
X-30200000Y16996429D01*
X-29914286Y16996429D01*
X-29771429Y17067858D01*
X-29700000Y17210715D01*
X-29700000Y17282143D01*
X-29771429Y17425000D01*
X-29914286Y17496429D01*
X-30128572Y17496429D01*
X-30271429Y17567858D01*
X-30342858Y17710715D01*
X-30342858Y17782143D01*
X-30271429Y17925000D01*
X-30128572Y17996429D01*
X-29914286Y17996429D01*
X-29771429Y17925000D01*
X-28485715Y17067858D02*
X-28628572Y16996429D01*
X-28914286Y16996429D01*
X-29057143Y17067858D01*
X-29128572Y17210715D01*
X-29128572Y17782143D01*
X-29057143Y17925000D01*
X-28914286Y17996429D01*
X-28628572Y17996429D01*
X-28485715Y17925000D01*
X-28414286Y17782143D01*
X-28414286Y17639286D01*
X-29128572Y17496429D01*
X-28628572Y18567858D02*
X-28842858Y18353572D01*
X-26700000Y17425000D02*
X-25985715Y17425000D01*
X-26842858Y16996429D02*
X-26342858Y18496429D01*
X-25842858Y16996429D01*
X-25128572Y16996429D02*
X-25271429Y17067858D01*
X-25342858Y17210715D01*
X-25342858Y18496429D01*
X-23985715Y17067858D02*
X-24128572Y16996429D01*
X-24414286Y16996429D01*
X-24557143Y17067858D01*
X-24628572Y17210715D01*
X-24628572Y17782143D01*
X-24557143Y17925000D01*
X-24414286Y17996429D01*
X-24128572Y17996429D01*
X-23985715Y17925000D01*
X-23914286Y17782143D01*
X-23914286Y17639286D01*
X-24628572Y17496429D01*
X-23271429Y17996429D02*
X-23271429Y16710715D01*
X-23342858Y16567858D01*
X-23485715Y16496429D01*
X-23557143Y16496429D01*
X-23271429Y18496429D02*
X-23342858Y18425000D01*
X-23271429Y18353572D01*
X-23200000Y18425000D01*
X-23271429Y18496429D01*
X-23271429Y18353572D01*
X-21914286Y16996429D02*
X-21914286Y17782143D01*
X-21985715Y17925000D01*
X-22128572Y17996429D01*
X-22414286Y17996429D01*
X-22557143Y17925000D01*
X-21914286Y17067858D02*
X-22057143Y16996429D01*
X-22414286Y16996429D01*
X-22557143Y17067858D01*
X-22628572Y17210715D01*
X-22628572Y17353572D01*
X-22557143Y17496429D01*
X-22414286Y17567858D01*
X-22057143Y17567858D01*
X-21914286Y17639286D01*
X-21200000Y17996429D02*
X-21200000Y16996429D01*
X-21200000Y17853572D02*
X-21128572Y17925000D01*
X-20985715Y17996429D01*
X-20771429Y17996429D01*
X-20628572Y17925000D01*
X-20557143Y17782143D01*
X-20557143Y16996429D01*
X-19200000Y16996429D02*
X-19200000Y18496429D01*
X-19200000Y17067858D02*
X-19342858Y16996429D01*
X-19628572Y16996429D01*
X-19771429Y17067858D01*
X-19842858Y17139286D01*
X-19914286Y17282143D01*
X-19914286Y17710715D01*
X-19842858Y17853572D01*
X-19771429Y17925000D01*
X-19628572Y17996429D01*
X-19342858Y17996429D01*
X-19200000Y17925000D01*
X-18485715Y16996429D02*
X-18485715Y17996429D01*
X-18485715Y17710715D02*
X-18414286Y17853572D01*
X-18342858Y17925000D01*
X-18200000Y17996429D01*
X-18057143Y17996429D01*
X-17342858Y16996429D02*
X-17485715Y17067858D01*
X-17557143Y17139286D01*
X-17628572Y17282143D01*
X-17628572Y17710715D01*
X-17557143Y17853572D01*
X-17485715Y17925000D01*
X-17342858Y17996429D01*
X-17128572Y17996429D01*
X-16985715Y17925000D01*
X-16914286Y17853572D01*
X-16842858Y17710715D01*
X-16842858Y17282143D01*
X-16914286Y17139286D01*
X-16985715Y17067858D01*
X-17128572Y16996429D01*
X-17342858Y16996429D01*
X-14342858Y16996429D02*
X-15057143Y16996429D01*
X-15057143Y18496429D01*
X-13628572Y16996429D02*
X-13771429Y17067858D01*
X-13842858Y17139286D01*
X-13914286Y17282143D01*
X-13914286Y17710715D01*
X-13842858Y17853572D01*
X-13771429Y17925000D01*
X-13628572Y17996429D01*
X-13414286Y17996429D01*
X-13271429Y17925000D01*
X-13200000Y17853572D01*
X-13128572Y17710715D01*
X-13128572Y17282143D01*
X-13200000Y17139286D01*
X-13271429Y17067858D01*
X-13414286Y16996429D01*
X-13628572Y16996429D01*
X-11842858Y17996429D02*
X-11842858Y16782143D01*
X-11914286Y16639286D01*
X-11985715Y16567858D01*
X-12128572Y16496429D01*
X-12342858Y16496429D01*
X-12485715Y16567858D01*
X-11842858Y17067858D02*
X-11985715Y16996429D01*
X-12271429Y16996429D01*
X-12414286Y17067858D01*
X-12485715Y17139286D01*
X-12557143Y17282143D01*
X-12557143Y17710715D01*
X-12485715Y17853572D01*
X-12414286Y17925000D01*
X-12271429Y17996429D01*
X-11985715Y17996429D01*
X-11842858Y17925000D01*
X-11128572Y16996429D02*
X-11128572Y17996429D01*
X-11128572Y17710715D02*
X-11057143Y17853572D01*
X-10985715Y17925000D01*
X-10842858Y17996429D01*
X-10700000Y17996429D01*
X-9628572Y17067858D02*
X-9771429Y16996429D01*
X-10057143Y16996429D01*
X-10200000Y17067858D01*
X-10271429Y17210715D01*
X-10271429Y17782143D01*
X-10200000Y17925000D01*
X-10057143Y17996429D01*
X-9771429Y17996429D01*
X-9628572Y17925000D01*
X-9557143Y17782143D01*
X-9557143Y17639286D01*
X-10271429Y17496429D01*
X-8914286Y16996429D02*
X-8914286Y17996429D01*
X-8914286Y18496429D02*
X-8985715Y18425000D01*
X-8914286Y18353572D01*
X-8842858Y18425000D01*
X-8914286Y18496429D01*
X-8914286Y18353572D01*
X-8200000Y16996429D02*
X-8200000Y17996429D01*
X-8200000Y17710715D02*
X-8128572Y17853572D01*
X-8057143Y17925000D01*
X-7914286Y17996429D01*
X-7771429Y17996429D01*
X-6628572Y16996429D02*
X-6628572Y17782143D01*
X-6700000Y17925000D01*
X-6842858Y17996429D01*
X-7128572Y17996429D01*
X-7271429Y17925000D01*
X-6628572Y17067858D02*
X-6771429Y16996429D01*
X-7128572Y16996429D01*
X-7271429Y17067858D01*
X-7342858Y17210715D01*
X-7342858Y17353572D01*
X-7271429Y17496429D01*
X-7128572Y17567858D01*
X-6771429Y17567858D01*
X-6628572Y17639286D01*
X-32128572Y14446429D02*
X-32128572Y15232143D01*
X-32200000Y15375000D01*
X-32342858Y15446429D01*
X-32628572Y15446429D01*
X-32771429Y15375000D01*
X-32128572Y14517858D02*
X-32271429Y14446429D01*
X-32628572Y14446429D01*
X-32771429Y14517858D01*
X-32842858Y14660715D01*
X-32842858Y14803572D01*
X-32771429Y14946429D01*
X-32628572Y15017858D01*
X-32271429Y15017858D01*
X-32128572Y15089286D01*
X-31200000Y14446429D02*
X-31342858Y14517858D01*
X-31414286Y14660715D01*
X-31414286Y15946429D01*
X-30057143Y14517858D02*
X-30200000Y14446429D01*
X-30485715Y14446429D01*
X-30628572Y14517858D01*
X-30700000Y14660715D01*
X-30700000Y15232143D01*
X-30628572Y15375000D01*
X-30485715Y15446429D01*
X-30200000Y15446429D01*
X-30057143Y15375000D01*
X-29985715Y15232143D01*
X-29985715Y15089286D01*
X-30700000Y14946429D01*
X-29342858Y15446429D02*
X-29342858Y14160715D01*
X-29414286Y14017858D01*
X-29557143Y13946429D01*
X-29628572Y13946429D01*
X-29342858Y15946429D02*
X-29414286Y15875000D01*
X-29342858Y15803572D01*
X-29271429Y15875000D01*
X-29342858Y15946429D01*
X-29342858Y15803572D01*
X-27985715Y14446429D02*
X-27985715Y15232143D01*
X-28057143Y15375000D01*
X-28200000Y15446429D01*
X-28485715Y15446429D01*
X-28628572Y15375000D01*
X-27985715Y14517858D02*
X-28128572Y14446429D01*
X-28485715Y14446429D01*
X-28628572Y14517858D01*
X-28700000Y14660715D01*
X-28700000Y14803572D01*
X-28628572Y14946429D01*
X-28485715Y15017858D01*
X-28128572Y15017858D01*
X-27985715Y15089286D01*
X-27271429Y15446429D02*
X-27271429Y14446429D01*
X-27271429Y15303572D02*
X-27200000Y15375000D01*
X-27057143Y15446429D01*
X-26842858Y15446429D01*
X-26700000Y15375000D01*
X-26628572Y15232143D01*
X-26628572Y14446429D01*
X-25271429Y14446429D02*
X-25271429Y15946429D01*
X-25271429Y14517858D02*
X-25414286Y14446429D01*
X-25700000Y14446429D01*
X-25842858Y14517858D01*
X-25914286Y14589286D01*
X-25985715Y14732143D01*
X-25985715Y15160715D01*
X-25914286Y15303572D01*
X-25842858Y15375000D01*
X-25700000Y15446429D01*
X-25414286Y15446429D01*
X-25271429Y15375000D01*
X-24557143Y14446429D02*
X-24557143Y15446429D01*
X-24557143Y15160715D02*
X-24485715Y15303572D01*
X-24414286Y15375000D01*
X-24271429Y15446429D01*
X-24128572Y15446429D01*
X-23414286Y14446429D02*
X-23557143Y14517858D01*
X-23628572Y14589286D01*
X-23700000Y14732143D01*
X-23700000Y15160715D01*
X-23628572Y15303572D01*
X-23557143Y15375000D01*
X-23414286Y15446429D01*
X-23200000Y15446429D01*
X-23057143Y15375000D01*
X-22985715Y15303572D01*
X-22914286Y15160715D01*
X-22914286Y14732143D01*
X-22985715Y14589286D01*
X-23057143Y14517858D01*
X-23200000Y14446429D01*
X-23414286Y14446429D01*
X-21342858Y15160715D02*
X-21414286Y15232143D01*
X-21557143Y15303572D01*
X-21700000Y15303572D01*
X-21842858Y15232143D01*
X-21914286Y15160715D01*
X-21985715Y15017858D01*
X-21985715Y14875000D01*
X-21914286Y14732143D01*
X-21842858Y14660715D01*
X-21700000Y14589286D01*
X-21557143Y14589286D01*
X-21414286Y14660715D01*
X-21342858Y14732143D01*
X-21342858Y15303572D02*
X-21342858Y14732143D01*
X-21271429Y14660715D01*
X-21200000Y14660715D01*
X-21057143Y14732143D01*
X-20985715Y14875000D01*
X-20985715Y15232143D01*
X-21128572Y15446429D01*
X-21342858Y15589286D01*
X-21628572Y15660715D01*
X-21914286Y15589286D01*
X-22128572Y15446429D01*
X-22271429Y15232143D01*
X-22342858Y14946429D01*
X-22271429Y14660715D01*
X-22128572Y14446429D01*
X-21914286Y14303572D01*
X-21628572Y14232143D01*
X-21342858Y14303572D01*
X-21128572Y14446429D01*
X-20342858Y15446429D02*
X-20342858Y14446429D01*
X-20342858Y15303572D02*
X-20271429Y15375000D01*
X-20128572Y15446429D01*
X-19914286Y15446429D01*
X-19771429Y15375000D01*
X-19700000Y15232143D01*
X-19700000Y14446429D01*
X-18342858Y15446429D02*
X-18342858Y14446429D01*
X-18985715Y15446429D02*
X-18985715Y14660715D01*
X-18914286Y14517858D01*
X-18771429Y14446429D01*
X-18557143Y14446429D01*
X-18414286Y14517858D01*
X-18342858Y14589286D01*
X-17771429Y15446429D02*
X-17414286Y14446429D01*
X-17057143Y15446429D01*
X-16485715Y14446429D02*
X-16485715Y15446429D01*
X-16485715Y15946429D02*
X-16557143Y15875000D01*
X-16485715Y15803572D01*
X-16414286Y15875000D01*
X-16485715Y15946429D01*
X-16485715Y15803572D01*
X-15985715Y15446429D02*
X-15414286Y15446429D01*
X-15771429Y15946429D02*
X-15771429Y14660715D01*
X-15700000Y14517858D01*
X-15557143Y14446429D01*
X-15414286Y14446429D01*
X-14914286Y14446429D02*
X-14914286Y15446429D01*
X-14914286Y15160715D02*
X-14842858Y15303572D01*
X-14771429Y15375000D01*
X-14628572Y15446429D01*
X-14485715Y15446429D01*
X-13771429Y14446429D02*
X-13914286Y14517858D01*
X-13985715Y14589286D01*
X-14057143Y14732143D01*
X-14057143Y15160715D01*
X-13985715Y15303572D01*
X-13914286Y15375000D01*
X-13771429Y15446429D01*
X-13557143Y15446429D01*
X-13414286Y15375000D01*
X-13342858Y15303572D01*
X-13271429Y15160715D01*
X-13271429Y14732143D01*
X-13342858Y14589286D01*
X-13414286Y14517858D01*
X-13557143Y14446429D01*
X-13771429Y14446429D01*
X-12628572Y15446429D02*
X-12628572Y14446429D01*
X-12628572Y15303572D02*
X-12557143Y15375000D01*
X-12414286Y15446429D01*
X-12200000Y15446429D01*
X-12057143Y15375000D01*
X-11985715Y15232143D01*
X-11985715Y14446429D01*
X-11271429Y14589286D02*
X-11200000Y14517858D01*
X-11271429Y14446429D01*
X-11342858Y14517858D01*
X-11271429Y14589286D01*
X-11271429Y14446429D01*
X-9914286Y14517858D02*
X-10057143Y14446429D01*
X-10342858Y14446429D01*
X-10485715Y14517858D01*
X-10557143Y14589286D01*
X-10628572Y14732143D01*
X-10628572Y15160715D01*
X-10557143Y15303572D01*
X-10485715Y15375000D01*
X-10342858Y15446429D01*
X-10057143Y15446429D01*
X-9914286Y15375000D01*
X-9057143Y14446429D02*
X-9200000Y14517858D01*
X-9271429Y14589286D01*
X-9342858Y14732143D01*
X-9342858Y15160715D01*
X-9271429Y15303572D01*
X-9200000Y15375000D01*
X-9057143Y15446429D01*
X-8842858Y15446429D01*
X-8700000Y15375000D01*
X-8628572Y15303572D01*
X-8557143Y15160715D01*
X-8557143Y14732143D01*
X-8628572Y14589286D01*
X-8700000Y14517858D01*
X-8842858Y14446429D01*
X-9057143Y14446429D01*
X-7914286Y14446429D02*
X-7914286Y15446429D01*
X-7914286Y15303572D02*
X-7842858Y15375000D01*
X-7700000Y15446429D01*
X-7485715Y15446429D01*
X-7342858Y15375000D01*
X-7271429Y15232143D01*
X-7271429Y14446429D01*
X-7271429Y15232143D02*
X-7200000Y15375000D01*
X-7057143Y15446429D01*
X-6842858Y15446429D01*
X-6700000Y15375000D01*
X-6628572Y15232143D01*
X-6628572Y14446429D01*
X-31128572Y11325000D02*
X-31200000Y11396429D01*
X-31342858Y11610715D01*
X-31414286Y11753572D01*
X-31485715Y11967858D01*
X-31557143Y12325000D01*
X-31557143Y12610715D01*
X-31485715Y12967858D01*
X-31414286Y13182143D01*
X-31342858Y13325000D01*
X-31200000Y13539286D01*
X-31128572Y13610715D01*
X-30557143Y12467858D02*
X-29414286Y12467858D01*
X-29985715Y11896429D02*
X-29985715Y13039286D01*
X-27985715Y13396429D02*
X-28700000Y13396429D01*
X-28771429Y12682143D01*
X-28700000Y12753572D01*
X-28557143Y12825000D01*
X-28200000Y12825000D01*
X-28057143Y12753572D01*
X-27985715Y12682143D01*
X-27914286Y12539286D01*
X-27914286Y12182143D01*
X-27985715Y12039286D01*
X-28057143Y11967858D01*
X-28200000Y11896429D01*
X-28557143Y11896429D01*
X-28700000Y11967858D01*
X-28771429Y12039286D01*
X-27414286Y13396429D02*
X-26414286Y13396429D01*
X-27057143Y11896429D01*
X-25985715Y11325000D02*
X-25914286Y11396429D01*
X-25771429Y11610715D01*
X-25700000Y11753572D01*
X-25628572Y11967858D01*
X-25557143Y12325000D01*
X-25557143Y12610715D01*
X-25628572Y12967858D01*
X-25700000Y13182143D01*
X-25771429Y13325000D01*
X-25914286Y13539286D01*
X-25985715Y13610715D01*
X-23842858Y13396429D02*
X-22914286Y13396429D01*
X-23414286Y12825000D01*
X-23200000Y12825000D01*
X-23057143Y12753572D01*
X-22985715Y12682143D01*
X-22914286Y12539286D01*
X-22914286Y12182143D01*
X-22985715Y12039286D01*
X-23057143Y11967858D01*
X-23200000Y11896429D01*
X-23628572Y11896429D01*
X-23771429Y11967858D01*
X-23842858Y12039286D01*
X-21485715Y11896429D02*
X-22342858Y11896429D01*
X-21914286Y11896429D02*
X-21914286Y13396429D01*
X-22057143Y13182143D01*
X-22200000Y13039286D01*
X-22342858Y12967858D01*
X-20985715Y13396429D02*
X-19985715Y13396429D01*
X-20628572Y11896429D01*
X-17557143Y13396429D02*
X-18271429Y13396429D01*
X-18342858Y12682143D01*
X-18271429Y12753572D01*
X-18128572Y12825000D01*
X-17771429Y12825000D01*
X-17628572Y12753572D01*
X-17557143Y12682143D01*
X-17485715Y12539286D01*
X-17485715Y12182143D01*
X-17557143Y12039286D01*
X-17628572Y11967858D01*
X-17771429Y11896429D01*
X-18128572Y11896429D01*
X-18271429Y11967858D01*
X-18342858Y12039286D01*
X-16985715Y13396429D02*
X-16057143Y13396429D01*
X-16557143Y12825000D01*
X-16342858Y12825000D01*
X-16200000Y12753572D01*
X-16128572Y12682143D01*
X-16057143Y12539286D01*
X-16057143Y12182143D01*
X-16128572Y12039286D01*
X-16200000Y11967858D01*
X-16342858Y11896429D01*
X-16771429Y11896429D01*
X-16914286Y11967858D01*
X-16985715Y12039286D01*
X-15557143Y13396429D02*
X-14628572Y13396429D01*
X-15128572Y12825000D01*
X-14914286Y12825000D01*
X-14771429Y12753572D01*
X-14700000Y12682143D01*
X-14628572Y12539286D01*
X-14628572Y12182143D01*
X-14700000Y12039286D01*
X-14771429Y11967858D01*
X-14914286Y11896429D01*
X-15342858Y11896429D01*
X-15485715Y11967858D01*
X-15557143Y12039286D01*
X-12985715Y13396429D02*
X-12057143Y13396429D01*
X-12557143Y12825000D01*
X-12342858Y12825000D01*
X-12200000Y12753572D01*
X-12128572Y12682143D01*
X-12057143Y12539286D01*
X-12057143Y12182143D01*
X-12128572Y12039286D01*
X-12200000Y11967858D01*
X-12342858Y11896429D01*
X-12771429Y11896429D01*
X-12914286Y11967858D01*
X-12985715Y12039286D01*
X-10628572Y11896429D02*
X-11485715Y11896429D01*
X-11057143Y11896429D02*
X-11057143Y13396429D01*
X-11200000Y13182143D01*
X-11342858Y13039286D01*
X-11485715Y12967858D01*
X-9271429Y13396429D02*
X-9985715Y13396429D01*
X-10057143Y12682143D01*
X-9985715Y12753572D01*
X-9842858Y12825000D01*
X-9485715Y12825000D01*
X-9342858Y12753572D01*
X-9271429Y12682143D01*
X-9200000Y12539286D01*
X-9200000Y12182143D01*
X-9271429Y12039286D01*
X-9342858Y11967858D01*
X-9485715Y11896429D01*
X-9842858Y11896429D01*
X-9985715Y11967858D01*
X-10057143Y12039286D01*
X-7842858Y13396429D02*
X-8557143Y13396429D01*
X-8628572Y12682143D01*
X-8557143Y12753572D01*
X-8414286Y12825000D01*
X-8057143Y12825000D01*
X-7914286Y12753572D01*
X-7842858Y12682143D01*
X-7771429Y12539286D01*
X-7771429Y12182143D01*
X-7842858Y12039286D01*
X-7914286Y11967858D01*
X-8057143Y11896429D01*
X-8414286Y11896429D01*
X-8557143Y11967858D01*
X-8628572Y12039286D01*
D10*
X-2100000Y58800000D02*
X-38100000Y58800000D01*
X-2100000Y49800000D02*
X-2100000Y58800000D01*
X-38100000Y49800000D02*
X-2100000Y49800000D01*
X-38100000Y58800000D02*
X-38100000Y49800000D01*
D11*
X-36100001Y56957143D02*
X-35885715Y56885715D01*
X-35814286Y56814286D01*
X-35742858Y56671429D01*
X-35742858Y56457143D01*
X-35814286Y56314286D01*
X-35885715Y56242858D01*
X-36028572Y56171429D01*
X-36600001Y56171429D01*
X-36600001Y57671429D01*
X-36100001Y57671429D01*
X-35957143Y57600000D01*
X-35885715Y57528572D01*
X-35814286Y57385715D01*
X-35814286Y57242858D01*
X-35885715Y57100000D01*
X-35957143Y57028572D01*
X-36100001Y56957143D01*
X-36600001Y56957143D01*
X-35100001Y56171429D02*
X-35100001Y57671429D01*
X-33671429Y56171429D02*
X-34385715Y56171429D01*
X-34385715Y57671429D01*
X-33171429Y56171429D02*
X-33171429Y57671429D01*
X-32671429Y57671429D02*
X-31814286Y57671429D01*
X-32242858Y56171429D02*
X-32242858Y57671429D01*
X-30457143Y56171429D02*
X-30957143Y56885715D01*
X-31314286Y56171429D02*
X-31314286Y57671429D01*
X-30742858Y57671429D01*
X-30600001Y57600000D01*
X-30528572Y57528572D01*
X-30457143Y57385715D01*
X-30457143Y57171429D01*
X-30528572Y57028572D01*
X-30600001Y56957143D01*
X-30742858Y56885715D01*
X-31314286Y56885715D01*
X-29814286Y56171429D02*
X-29814286Y57671429D01*
X-29100001Y57671429D02*
X-29100001Y56457143D01*
X-29028572Y56314286D01*
X-28957143Y56242858D01*
X-28814286Y56171429D01*
X-28528572Y56171429D01*
X-28385715Y56242858D01*
X-28314286Y56314286D01*
X-28242858Y56457143D01*
X-28242858Y57671429D01*
X-27528572Y56171429D02*
X-27528572Y57671429D01*
X-27028572Y56600000D01*
X-26528572Y57671429D01*
X-26528572Y56171429D01*
X-24885715Y57671429D02*
X-24028572Y57671429D01*
X-24457143Y56171429D02*
X-24457143Y57671429D01*
X-23528572Y56957143D02*
X-23028572Y56957143D01*
X-22814286Y56171429D02*
X-23528572Y56171429D01*
X-23528572Y57671429D01*
X-22814286Y57671429D01*
X-21314286Y56314286D02*
X-21385715Y56242858D01*
X-21600001Y56171429D01*
X-21742858Y56171429D01*
X-21957143Y56242858D01*
X-22100001Y56385715D01*
X-22171429Y56528572D01*
X-22242858Y56814286D01*
X-22242858Y57028572D01*
X-22171429Y57314286D01*
X-22100001Y57457143D01*
X-21957143Y57600000D01*
X-21742858Y57671429D01*
X-21600001Y57671429D01*
X-21385715Y57600000D01*
X-21314286Y57528572D01*
X-20671429Y56171429D02*
X-20671429Y57671429D01*
X-20671429Y56957143D02*
X-19814286Y56957143D01*
X-19814286Y56171429D02*
X-19814286Y57671429D01*
X-19100000Y56171429D02*
X-19100000Y57671429D01*
X-18242858Y56171429D01*
X-18242858Y57671429D01*
X-17242858Y57671429D02*
X-16957143Y57671429D01*
X-16814286Y57600000D01*
X-16671429Y57457143D01*
X-16600000Y57171429D01*
X-16600000Y56671429D01*
X-16671429Y56385715D01*
X-16814286Y56242858D01*
X-16957143Y56171429D01*
X-17242858Y56171429D01*
X-17385715Y56242858D01*
X-17528572Y56385715D01*
X-17600000Y56671429D01*
X-17600000Y57171429D01*
X-17528572Y57457143D01*
X-17385715Y57600000D01*
X-17242858Y57671429D01*
X-15242858Y56171429D02*
X-15957143Y56171429D01*
X-15957143Y57671429D01*
X-14457143Y57671429D02*
X-14171429Y57671429D01*
X-14028572Y57600000D01*
X-13885715Y57457143D01*
X-13814286Y57171429D01*
X-13814286Y56671429D01*
X-13885715Y56385715D01*
X-14028572Y56242858D01*
X-14171429Y56171429D01*
X-14457143Y56171429D01*
X-14600001Y56242858D01*
X-14742858Y56385715D01*
X-14814286Y56671429D01*
X-14814286Y57171429D01*
X-14742858Y57457143D01*
X-14600001Y57600000D01*
X-14457143Y57671429D01*
X-12385715Y57600000D02*
X-12528572Y57671429D01*
X-12742858Y57671429D01*
X-12957143Y57600000D01*
X-13100001Y57457143D01*
X-13171429Y57314286D01*
X-13242858Y57028572D01*
X-13242858Y56814286D01*
X-13171429Y56528572D01*
X-13100001Y56385715D01*
X-12957143Y56242858D01*
X-12742858Y56171429D01*
X-12600001Y56171429D01*
X-12385715Y56242858D01*
X-12314286Y56314286D01*
X-12314286Y56814286D01*
X-12600001Y56814286D01*
X-11671429Y56171429D02*
X-11671429Y57671429D01*
X-10957143Y56957143D02*
X-10457143Y56957143D01*
X-10242858Y56171429D02*
X-10957143Y56171429D01*
X-10957143Y57671429D01*
X-10242858Y57671429D01*
X-9671429Y56242858D02*
X-9457143Y56171429D01*
X-9100001Y56171429D01*
X-8957143Y56242858D01*
X-8885715Y56314286D01*
X-8814286Y56457143D01*
X-8814286Y56600000D01*
X-8885715Y56742858D01*
X-8957143Y56814286D01*
X-9100001Y56885715D01*
X-9385715Y56957143D01*
X-9528572Y57028572D01*
X-9600001Y57100000D01*
X-9671429Y57242858D01*
X-9671429Y57385715D01*
X-9600001Y57528572D01*
X-9528572Y57600000D01*
X-9385715Y57671429D01*
X-9028572Y57671429D01*
X-8814286Y57600000D01*
X-7100001Y56242858D02*
X-6885715Y56171429D01*
X-6528572Y56171429D01*
X-6385715Y56242858D01*
X-6314286Y56314286D01*
X-6242858Y56457143D01*
X-6242858Y56600000D01*
X-6314286Y56742858D01*
X-6385715Y56814286D01*
X-6528572Y56885715D01*
X-6814286Y56957143D01*
X-6957143Y57028572D01*
X-7028572Y57100000D01*
X-7100001Y57242858D01*
X-7100001Y57385715D01*
X-7028572Y57528572D01*
X-6957143Y57600000D01*
X-6814286Y57671429D01*
X-6457143Y57671429D01*
X-6242858Y57600000D01*
X-5671429Y56600000D02*
X-4957143Y56600000D01*
X-5814286Y56171429D02*
X-5314286Y57671429D01*
X-4814286Y56171429D01*
X-4385715Y56242858D02*
X-4171429Y56171429D01*
X-3814286Y56171429D01*
X-3671429Y56242858D01*
X-3600001Y56314286D01*
X-3528572Y56457143D01*
X-3528572Y56600000D01*
X-3600001Y56742858D01*
X-3671429Y56814286D01*
X-3814286Y56885715D01*
X-4100001Y56957143D01*
X-4242858Y57028572D01*
X-4314286Y57100000D01*
X-4385715Y57242858D01*
X-4385715Y57385715D01*
X-4314286Y57528572D01*
X-4242858Y57600000D01*
X-4100001Y57671429D01*
X-3742858Y57671429D01*
X-3528572Y57600000D01*
X-29814286Y54621429D02*
X-29528572Y53621429D01*
X-29242858Y54335715D01*
X-28957143Y53621429D01*
X-28671429Y54621429D01*
X-28242858Y54621429D02*
X-27957143Y53621429D01*
X-27671429Y54335715D01*
X-27385715Y53621429D01*
X-27100000Y54621429D01*
X-26671429Y54621429D02*
X-26385715Y53621429D01*
X-26100000Y54335715D01*
X-25814286Y53621429D01*
X-25528572Y54621429D01*
X-24957143Y53764286D02*
X-24885715Y53692858D01*
X-24957143Y53621429D01*
X-25028572Y53692858D01*
X-24957143Y53764286D01*
X-24957143Y53621429D01*
X-24242858Y54621429D02*
X-24242858Y53621429D01*
X-24242858Y54478572D02*
X-24171429Y54550000D01*
X-24028572Y54621429D01*
X-23814286Y54621429D01*
X-23671429Y54550000D01*
X-23600000Y54407143D01*
X-23600000Y53621429D01*
X-22242858Y54621429D02*
X-22242858Y53621429D01*
X-22885715Y54621429D02*
X-22885715Y53835715D01*
X-22814286Y53692858D01*
X-22671429Y53621429D01*
X-22457143Y53621429D01*
X-22314286Y53692858D01*
X-22242858Y53764286D01*
X-21671429Y54621429D02*
X-21314286Y53621429D01*
X-20957143Y54621429D01*
X-20385715Y53621429D02*
X-20385715Y54621429D01*
X-20385715Y55121429D02*
X-20457143Y55050000D01*
X-20385715Y54978572D01*
X-20314286Y55050000D01*
X-20385715Y55121429D01*
X-20385715Y54978572D01*
X-19885715Y54621429D02*
X-19314286Y54621429D01*
X-19671429Y55121429D02*
X-19671429Y53835715D01*
X-19600000Y53692858D01*
X-19457143Y53621429D01*
X-19314286Y53621429D01*
X-18814286Y53621429D02*
X-18814286Y54621429D01*
X-18814286Y54335715D02*
X-18742858Y54478572D01*
X-18671429Y54550000D01*
X-18528572Y54621429D01*
X-18385715Y54621429D01*
X-17671429Y53621429D02*
X-17814286Y53692858D01*
X-17885715Y53764286D01*
X-17957143Y53907143D01*
X-17957143Y54335715D01*
X-17885715Y54478572D01*
X-17814286Y54550000D01*
X-17671429Y54621429D01*
X-17457143Y54621429D01*
X-17314286Y54550000D01*
X-17242858Y54478572D01*
X-17171429Y54335715D01*
X-17171429Y53907143D01*
X-17242858Y53764286D01*
X-17314286Y53692858D01*
X-17457143Y53621429D01*
X-17671429Y53621429D01*
X-16528572Y54621429D02*
X-16528572Y53621429D01*
X-16528572Y54478572D02*
X-16457143Y54550000D01*
X-16314286Y54621429D01*
X-16100000Y54621429D01*
X-15957143Y54550000D01*
X-15885715Y54407143D01*
X-15885715Y53621429D01*
X-15171429Y53764286D02*
X-15100000Y53692858D01*
X-15171429Y53621429D01*
X-15242858Y53692858D01*
X-15171429Y53764286D01*
X-15171429Y53621429D01*
X-13814286Y53692858D02*
X-13957143Y53621429D01*
X-14242858Y53621429D01*
X-14385715Y53692858D01*
X-14457143Y53764286D01*
X-14528572Y53907143D01*
X-14528572Y54335715D01*
X-14457143Y54478572D01*
X-14385715Y54550000D01*
X-14242858Y54621429D01*
X-13957143Y54621429D01*
X-13814286Y54550000D01*
X-12957143Y53621429D02*
X-13100000Y53692858D01*
X-13171429Y53764286D01*
X-13242858Y53907143D01*
X-13242858Y54335715D01*
X-13171429Y54478572D01*
X-13100000Y54550000D01*
X-12957143Y54621429D01*
X-12742858Y54621429D01*
X-12600000Y54550000D01*
X-12528572Y54478572D01*
X-12457143Y54335715D01*
X-12457143Y53907143D01*
X-12528572Y53764286D01*
X-12600000Y53692858D01*
X-12742858Y53621429D01*
X-12957143Y53621429D01*
X-11814286Y53621429D02*
X-11814286Y54621429D01*
X-11814286Y54478572D02*
X-11742858Y54550000D01*
X-11600000Y54621429D01*
X-11385715Y54621429D01*
X-11242858Y54550000D01*
X-11171429Y54407143D01*
X-11171429Y53621429D01*
X-11171429Y54407143D02*
X-11100000Y54550000D01*
X-10957143Y54621429D01*
X-10742858Y54621429D01*
X-10600000Y54550000D01*
X-10528572Y54407143D01*
X-10528572Y53621429D01*
X-30421429Y51857143D02*
X-30207143Y51785715D01*
X-30135715Y51714286D01*
X-30064286Y51571429D01*
X-30064286Y51357143D01*
X-30135715Y51214286D01*
X-30207143Y51142858D01*
X-30350000Y51071429D01*
X-30921429Y51071429D01*
X-30921429Y52571429D01*
X-30421429Y52571429D01*
X-30278572Y52500000D01*
X-30207143Y52428572D01*
X-30135715Y52285715D01*
X-30135715Y52142858D01*
X-30207143Y52000000D01*
X-30278572Y51928572D01*
X-30421429Y51857143D01*
X-30921429Y51857143D01*
X-29207143Y51071429D02*
X-29350000Y51142858D01*
X-29421429Y51214286D01*
X-29492858Y51357143D01*
X-29492858Y51785715D01*
X-29421429Y51928572D01*
X-29350000Y52000000D01*
X-29207143Y52071429D01*
X-28992858Y52071429D01*
X-28850000Y52000000D01*
X-28778572Y51928572D01*
X-28707143Y51785715D01*
X-28707143Y51357143D01*
X-28778572Y51214286D01*
X-28850000Y51142858D01*
X-28992858Y51071429D01*
X-29207143Y51071429D01*
X-27421429Y52071429D02*
X-27421429Y50857143D01*
X-27492858Y50714286D01*
X-27564286Y50642858D01*
X-27707143Y50571429D01*
X-27921429Y50571429D01*
X-28064286Y50642858D01*
X-27421429Y51142858D02*
X-27564286Y51071429D01*
X-27850000Y51071429D01*
X-27992858Y51142858D01*
X-28064286Y51214286D01*
X-28135715Y51357143D01*
X-28135715Y51785715D01*
X-28064286Y51928572D01*
X-27992858Y52000000D01*
X-27850000Y52071429D01*
X-27564286Y52071429D01*
X-27421429Y52000000D01*
X-26492858Y51071429D02*
X-26635715Y51142858D01*
X-26707143Y51214286D01*
X-26778572Y51357143D01*
X-26778572Y51785715D01*
X-26707143Y51928572D01*
X-26635715Y52000000D01*
X-26492858Y52071429D01*
X-26278572Y52071429D01*
X-26135715Y52000000D01*
X-26064286Y51928572D01*
X-25992858Y51785715D01*
X-25992858Y51357143D01*
X-26064286Y51214286D01*
X-26135715Y51142858D01*
X-26278572Y51071429D01*
X-26492858Y51071429D01*
X-25564286Y52071429D02*
X-24992858Y52071429D01*
X-25350000Y52571429D02*
X-25350000Y51285715D01*
X-25278572Y51142858D01*
X-25135715Y51071429D01*
X-24992858Y51071429D01*
X-23850000Y51071429D02*
X-23850000Y51857143D01*
X-23921429Y52000000D01*
X-24064286Y52071429D01*
X-24350000Y52071429D01*
X-24492858Y52000000D01*
X-23850000Y51142858D02*
X-23992858Y51071429D01*
X-24350000Y51071429D01*
X-24492858Y51142858D01*
X-24564286Y51285715D01*
X-24564286Y51428572D01*
X-24492858Y51571429D01*
X-24350000Y51642858D01*
X-23992858Y51642858D01*
X-23850000Y51714286D01*
X-24064286Y52642858D02*
X-24278572Y52428572D01*
X-21992858Y51642858D02*
X-20850000Y51642858D01*
X-18135715Y51214286D02*
X-18207143Y51142858D01*
X-18421429Y51071429D01*
X-18564286Y51071429D01*
X-18778572Y51142858D01*
X-18921429Y51285715D01*
X-18992858Y51428572D01*
X-19064286Y51714286D01*
X-19064286Y51928572D01*
X-18992858Y52214286D01*
X-18921429Y52357143D01*
X-18778572Y52500000D01*
X-18564286Y52571429D01*
X-18421429Y52571429D01*
X-18207143Y52500000D01*
X-18135715Y52428572D01*
X-17278572Y51071429D02*
X-17421429Y51142858D01*
X-17492858Y51214286D01*
X-17564286Y51357143D01*
X-17564286Y51785715D01*
X-17492858Y51928572D01*
X-17421429Y52000000D01*
X-17278572Y52071429D01*
X-17064286Y52071429D01*
X-16921429Y52000000D01*
X-16850000Y51928572D01*
X-16778572Y51785715D01*
X-16778572Y51357143D01*
X-16850000Y51214286D01*
X-16921429Y51142858D01*
X-17064286Y51071429D01*
X-17278572Y51071429D01*
X-15921429Y51071429D02*
X-16064286Y51142858D01*
X-16135715Y51285715D01*
X-16135715Y52571429D01*
X-15135715Y51071429D02*
X-15278572Y51142858D01*
X-15350000Y51214286D01*
X-15421429Y51357143D01*
X-15421429Y51785715D01*
X-15350000Y51928572D01*
X-15278572Y52000000D01*
X-15135715Y52071429D01*
X-14921429Y52071429D01*
X-14778572Y52000000D01*
X-14707143Y51928572D01*
X-14635715Y51785715D01*
X-14635715Y51357143D01*
X-14707143Y51214286D01*
X-14778572Y51142858D01*
X-14921429Y51071429D01*
X-15135715Y51071429D01*
X-13992858Y51071429D02*
X-13992858Y52071429D01*
X-13992858Y51928572D02*
X-13921429Y52000000D01*
X-13778572Y52071429D01*
X-13564286Y52071429D01*
X-13421429Y52000000D01*
X-13350000Y51857143D01*
X-13350000Y51071429D01*
X-13350000Y51857143D02*
X-13278572Y52000000D01*
X-13135715Y52071429D01*
X-12921429Y52071429D01*
X-12778572Y52000000D01*
X-12707143Y51857143D01*
X-12707143Y51071429D01*
X-11992858Y51071429D02*
X-11992858Y52571429D01*
X-11992858Y52000000D02*
X-11850000Y52071429D01*
X-11564286Y52071429D01*
X-11421429Y52000000D01*
X-11350000Y51928572D01*
X-11278572Y51785715D01*
X-11278572Y51357143D01*
X-11350000Y51214286D01*
X-11421429Y51142858D01*
X-11564286Y51071429D01*
X-11850000Y51071429D01*
X-11992858Y51142858D01*
X-10635715Y51071429D02*
X-10635715Y52071429D01*
X-10635715Y52571429D02*
X-10707143Y52500000D01*
X-10635715Y52428572D01*
X-10564286Y52500000D01*
X-10635715Y52571429D01*
X-10635715Y52428572D01*
X-9278572Y51071429D02*
X-9278572Y51857143D01*
X-9350000Y52000000D01*
X-9492858Y52071429D01*
X-9778572Y52071429D01*
X-9921429Y52000000D01*
X-9278572Y51142858D02*
X-9421429Y51071429D01*
X-9778572Y51071429D01*
X-9921429Y51142858D01*
X-9992858Y51285715D01*
X-9992858Y51428572D01*
X-9921429Y51571429D01*
X-9778572Y51642858D01*
X-9421429Y51642858D01*
X-9278572Y51714286D01*
D13*
X1666666Y12800000D02*
G75*
G03X1666666Y12800000I-1666666J0D01*
G01*
X-2500000Y12800000D02*
X2500000Y12800000D01*
X0Y15300000D02*
X0Y10300000D01*
X85166666Y12800000D02*
G75*
G03X85166666Y12800000I-1666666J0D01*
G01*
X81000000Y12800000D02*
X86000000Y12800000D01*
X83500000Y15300000D02*
X83500000Y10300000D01*
X85166666Y0D02*
G75*
G03X85166666Y0I-1666666J0D01*
G01*
X81000000Y0D02*
X86000000Y0D01*
X83500000Y2500000D02*
X83500000Y-2500000D01*
X1666666Y0D02*
G75*
G03X1666666Y0I-1666666J0D01*
G01*
X-2500000Y0D02*
X2500000Y0D01*
X0Y2500000D02*
X0Y-2500000D01*
D10*
X16100000Y1200000D02*
X18800000Y-1500000D01*
X16100000Y6300000D02*
X16100000Y1200000D01*
X16100000Y6400000D02*
X16700000Y5800000D01*
X16100000Y6400000D02*
X15500000Y5800000D01*
X18800000Y3700000D02*
X18800000Y-11200000D01*
X18800000Y3700000D02*
X19400000Y3100000D01*
X18800000Y3700000D02*
X18200000Y3100000D01*
D11*
X11021428Y-12932142D02*
X11235714Y-13003571D01*
X11592857Y-13003571D01*
X11735714Y-12932142D01*
X11807142Y-12860714D01*
X11878571Y-12717857D01*
X11878571Y-12575000D01*
X11807142Y-12432142D01*
X11735714Y-12360714D01*
X11592857Y-12289285D01*
X11307142Y-12217857D01*
X11164285Y-12146428D01*
X11092857Y-12075000D01*
X11021428Y-11932142D01*
X11021428Y-11789285D01*
X11092857Y-11646428D01*
X11164285Y-11575000D01*
X11307142Y-11503571D01*
X11664285Y-11503571D01*
X11878571Y-11575000D01*
X12735714Y-13003571D02*
X12592857Y-12932142D01*
X12521428Y-12789285D01*
X12521428Y-11503571D01*
X13521428Y-13003571D02*
X13378571Y-12932142D01*
X13307142Y-12860714D01*
X13235714Y-12717857D01*
X13235714Y-12289285D01*
X13307142Y-12146428D01*
X13378571Y-12075000D01*
X13521428Y-12003571D01*
X13735714Y-12003571D01*
X13878571Y-12075000D01*
X13950000Y-12146428D01*
X14021428Y-12289285D01*
X14021428Y-12717857D01*
X13950000Y-12860714D01*
X13878571Y-12932142D01*
X13735714Y-13003571D01*
X13521428Y-13003571D01*
X14450000Y-12003571D02*
X15021428Y-12003571D01*
X14664285Y-11503571D02*
X14664285Y-12789285D01*
X14735714Y-12932142D01*
X14878571Y-13003571D01*
X15021428Y-13003571D01*
X15450000Y-12932142D02*
X15592857Y-13003571D01*
X15878571Y-13003571D01*
X16021428Y-12932142D01*
X16092857Y-12789285D01*
X16092857Y-12717857D01*
X16021428Y-12575000D01*
X15878571Y-12503571D01*
X15664285Y-12503571D01*
X15521428Y-12432142D01*
X15450000Y-12289285D01*
X15450000Y-12217857D01*
X15521428Y-12075000D01*
X15664285Y-12003571D01*
X15878571Y-12003571D01*
X16021428Y-12075000D01*
X17664285Y-12003571D02*
X18235714Y-12003571D01*
X17878571Y-13003571D02*
X17878571Y-11717857D01*
X17950000Y-11575000D01*
X18092857Y-11503571D01*
X18235714Y-11503571D01*
X18950000Y-13003571D02*
X18807142Y-12932142D01*
X18735714Y-12860714D01*
X18664285Y-12717857D01*
X18664285Y-12289285D01*
X18735714Y-12146428D01*
X18807142Y-12075000D01*
X18950000Y-12003571D01*
X19164285Y-12003571D01*
X19307142Y-12075000D01*
X19378571Y-12146428D01*
X19450000Y-12289285D01*
X19450000Y-12717857D01*
X19378571Y-12860714D01*
X19307142Y-12932142D01*
X19164285Y-13003571D01*
X18950000Y-13003571D01*
X20092857Y-13003571D02*
X20092857Y-12003571D01*
X20092857Y-12289285D02*
X20164285Y-12146428D01*
X20235714Y-12075000D01*
X20378571Y-12003571D01*
X20521428Y-12003571D01*
X12200000Y-15553571D02*
X12200000Y-14553571D01*
X12200000Y-14696428D02*
X12271428Y-14625000D01*
X12414285Y-14553571D01*
X12628571Y-14553571D01*
X12771428Y-14625000D01*
X12842857Y-14767857D01*
X12842857Y-15553571D01*
X12842857Y-14767857D02*
X12914285Y-14625000D01*
X13057142Y-14553571D01*
X13271428Y-14553571D01*
X13414285Y-14625000D01*
X13485714Y-14767857D01*
X13485714Y-15553571D01*
X14200000Y-15553571D02*
X14200000Y-14553571D01*
X14200000Y-14053571D02*
X14128571Y-14125000D01*
X14200000Y-14196428D01*
X14271428Y-14125000D01*
X14200000Y-14053571D01*
X14200000Y-14196428D01*
X15128571Y-15553571D02*
X14985714Y-15482142D01*
X14914285Y-15339285D01*
X14914285Y-14053571D01*
X15914285Y-15553571D02*
X15771428Y-15482142D01*
X15700000Y-15339285D01*
X15700000Y-14053571D01*
X16485714Y-15553571D02*
X16485714Y-14553571D01*
X16485714Y-14053571D02*
X16414285Y-14125000D01*
X16485714Y-14196428D01*
X16557142Y-14125000D01*
X16485714Y-14053571D01*
X16485714Y-14196428D01*
X17200000Y-14553571D02*
X17200000Y-15553571D01*
X17200000Y-14696428D02*
X17271428Y-14625000D01*
X17414285Y-14553571D01*
X17628571Y-14553571D01*
X17771428Y-14625000D01*
X17842857Y-14767857D01*
X17842857Y-15553571D01*
X19200000Y-14553571D02*
X19200000Y-15767857D01*
X19128571Y-15910714D01*
X19057142Y-15982142D01*
X18914285Y-16053571D01*
X18700000Y-16053571D01*
X18557142Y-15982142D01*
X19200000Y-15482142D02*
X19057142Y-15553571D01*
X18771428Y-15553571D01*
X18628571Y-15482142D01*
X18557142Y-15410714D01*
X18485714Y-15267857D01*
X18485714Y-14839285D01*
X18557142Y-14696428D01*
X18628571Y-14625000D01*
X18771428Y-14553571D01*
X19057142Y-14553571D01*
X19200000Y-14625000D01*
D10*
X13300000Y2000000D02*
X13300000Y-11100000D01*
X13300000Y2000000D02*
X13900000Y1400000D01*
X13300000Y2000000D02*
X12700000Y1400000D01*
D11*
X87928571Y1042858D02*
X87928571Y185715D01*
X87928571Y614286D02*
X86428571Y614286D01*
X86642857Y471429D01*
X86785714Y328572D01*
X86857142Y185715D01*
X86571428Y1614286D02*
X86500000Y1685715D01*
X86428571Y1828572D01*
X86428571Y2185715D01*
X86500000Y2328572D01*
X86571428Y2400000D01*
X86714285Y2471429D01*
X86857142Y2471429D01*
X87071428Y2400000D01*
X87928571Y1542858D01*
X87928571Y2471429D01*
X87857142Y3185715D02*
X87928571Y3185715D01*
X88071428Y3114286D01*
X88142857Y3042858D01*
X87071428Y4042858D02*
X87000000Y3900000D01*
X86928571Y3828572D01*
X86785714Y3757143D01*
X86714285Y3757143D01*
X86571428Y3828572D01*
X86500000Y3900000D01*
X86428571Y4042858D01*
X86428571Y4328572D01*
X86500000Y4471429D01*
X86571428Y4542858D01*
X86714285Y4614286D01*
X86785714Y4614286D01*
X86928571Y4542858D01*
X87000000Y4471429D01*
X87071428Y4328572D01*
X87071428Y4042858D01*
X87142857Y3900000D01*
X87214285Y3828572D01*
X87357142Y3757143D01*
X87642857Y3757143D01*
X87785714Y3828572D01*
X87857142Y3900000D01*
X87928571Y4042858D01*
X87928571Y4328572D01*
X87857142Y4471429D01*
X87785714Y4542858D01*
X87642857Y4614286D01*
X87357142Y4614286D01*
X87214285Y4542858D01*
X87142857Y4471429D01*
X87071428Y4328572D01*
X86428571Y5542858D02*
X86428571Y5685715D01*
X86500000Y5828572D01*
X86571428Y5900000D01*
X86714285Y5971429D01*
X87000000Y6042858D01*
X87357142Y6042858D01*
X87642857Y5971429D01*
X87785714Y5900000D01*
X87857142Y5828572D01*
X87928571Y5685715D01*
X87928571Y5542858D01*
X87857142Y5400000D01*
X87785714Y5328572D01*
X87642857Y5257143D01*
X87357142Y5185715D01*
X87000000Y5185715D01*
X86714285Y5257143D01*
X86571428Y5328572D01*
X86500000Y5400000D01*
X86428571Y5542858D01*
X86428571Y6971429D02*
X86428571Y7114286D01*
X86500000Y7257143D01*
X86571428Y7328572D01*
X86714285Y7400000D01*
X87000000Y7471429D01*
X87357142Y7471429D01*
X87642857Y7400000D01*
X87785714Y7328572D01*
X87857142Y7257143D01*
X87928571Y7114286D01*
X87928571Y6971429D01*
X87857142Y6828572D01*
X87785714Y6757143D01*
X87642857Y6685715D01*
X87357142Y6614286D01*
X87000000Y6614286D01*
X86714285Y6685715D01*
X86571428Y6757143D01*
X86500000Y6828572D01*
X86428571Y6971429D01*
X87928571Y9257143D02*
X86928571Y9257143D01*
X87071428Y9257143D02*
X87000000Y9328572D01*
X86928571Y9471429D01*
X86928571Y9685715D01*
X87000000Y9828572D01*
X87142857Y9900000D01*
X87928571Y9900000D01*
X87142857Y9900000D02*
X87000000Y9971429D01*
X86928571Y10114286D01*
X86928571Y10328572D01*
X87000000Y10471429D01*
X87142857Y10542858D01*
X87928571Y10542858D01*
X87928571Y11257143D02*
X86928571Y11257143D01*
X87071428Y11257143D02*
X87000000Y11328572D01*
X86928571Y11471429D01*
X86928571Y11685715D01*
X87000000Y11828572D01*
X87142857Y11900000D01*
X87928571Y11900000D01*
X87142857Y11900000D02*
X87000000Y11971429D01*
X86928571Y12114286D01*
X86928571Y12328572D01*
X87000000Y12471429D01*
X87142857Y12542858D01*
X87928571Y12542858D01*
X85900000Y0D02*
X85900000Y12800000D01*
X83500000Y0D02*
X88600000Y0D01*
X83500000Y12800000D02*
X88600000Y12800000D01*
X85900000Y12800000D02*
X86486421Y11673496D01*
X85900000Y12800000D02*
X85313579Y11673496D01*
X85900000Y0D02*
X86486421Y1126504D01*
X85900000Y0D02*
X85313579Y1126504D01*
X35464285Y-5928571D02*
X36464285Y-5928571D01*
X35821428Y-7428571D01*
X37750000Y-5928571D02*
X37035714Y-5928571D01*
X36964285Y-6642857D01*
X37035714Y-6571428D01*
X37178571Y-6500000D01*
X37535714Y-6500000D01*
X37678571Y-6571428D01*
X37750000Y-6642857D01*
X37821428Y-6785714D01*
X37821428Y-7142857D01*
X37750000Y-7285714D01*
X37678571Y-7357142D01*
X37535714Y-7428571D01*
X37178571Y-7428571D01*
X37035714Y-7357142D01*
X36964285Y-7285714D01*
X38535714Y-7357142D02*
X38535714Y-7428571D01*
X38464285Y-7571428D01*
X38392857Y-7642857D01*
X39892857Y-5928571D02*
X39178571Y-5928571D01*
X39107142Y-6642857D01*
X39178571Y-6571428D01*
X39321428Y-6500000D01*
X39678571Y-6500000D01*
X39821428Y-6571428D01*
X39892857Y-6642857D01*
X39964285Y-6785714D01*
X39964285Y-7142857D01*
X39892857Y-7285714D01*
X39821428Y-7357142D01*
X39678571Y-7428571D01*
X39321428Y-7428571D01*
X39178571Y-7357142D01*
X39107142Y-7285714D01*
X40892857Y-5928571D02*
X41035714Y-5928571D01*
X41178571Y-6000000D01*
X41250000Y-6071428D01*
X41321428Y-6214285D01*
X41392857Y-6500000D01*
X41392857Y-6857142D01*
X41321428Y-7142857D01*
X41250000Y-7285714D01*
X41178571Y-7357142D01*
X41035714Y-7428571D01*
X40892857Y-7428571D01*
X40750000Y-7357142D01*
X40678571Y-7285714D01*
X40607142Y-7142857D01*
X40535714Y-6857142D01*
X40535714Y-6500000D01*
X40607142Y-6214285D01*
X40678571Y-6071428D01*
X40750000Y-6000000D01*
X40892857Y-5928571D01*
X42321428Y-5928571D02*
X42464285Y-5928571D01*
X42607142Y-6000000D01*
X42678571Y-6071428D01*
X42750000Y-6214285D01*
X42821428Y-6500000D01*
X42821428Y-6857142D01*
X42750000Y-7142857D01*
X42678571Y-7285714D01*
X42607142Y-7357142D01*
X42464285Y-7428571D01*
X42321428Y-7428571D01*
X42178571Y-7357142D01*
X42107142Y-7285714D01*
X42035714Y-7142857D01*
X41964285Y-6857142D01*
X41964285Y-6500000D01*
X42035714Y-6214285D01*
X42107142Y-6071428D01*
X42178571Y-6000000D01*
X42321428Y-5928571D01*
X44607142Y-7428571D02*
X44607142Y-6428571D01*
X44607142Y-6571428D02*
X44678571Y-6500000D01*
X44821428Y-6428571D01*
X45035714Y-6428571D01*
X45178571Y-6500000D01*
X45250000Y-6642857D01*
X45250000Y-7428571D01*
X45250000Y-6642857D02*
X45321428Y-6500000D01*
X45464285Y-6428571D01*
X45678571Y-6428571D01*
X45821428Y-6500000D01*
X45892857Y-6642857D01*
X45892857Y-7428571D01*
X46607142Y-7428571D02*
X46607142Y-6428571D01*
X46607142Y-6571428D02*
X46678571Y-6500000D01*
X46821428Y-6428571D01*
X47035714Y-6428571D01*
X47178571Y-6500000D01*
X47250000Y-6642857D01*
X47250000Y-7428571D01*
X47250000Y-6642857D02*
X47321428Y-6500000D01*
X47464285Y-6428571D01*
X47678571Y-6428571D01*
X47821428Y-6500000D01*
X47892857Y-6642857D01*
X47892857Y-7428571D01*
X4000000Y-5400000D02*
X79500000Y-5400000D01*
X4000000Y6700000D02*
X4000000Y-8100000D01*
X79500000Y6700000D02*
X79500000Y-8100000D01*
X79500000Y-5400000D02*
X78373496Y-5986421D01*
X79500000Y-5400000D02*
X78373496Y-4813579D01*
X4000000Y-5400000D02*
X5126504Y-5986421D01*
X4000000Y-5400000D02*
X5126504Y-4813579D01*
X35821428Y21728572D02*
X35678571Y21800000D01*
X35607142Y21871429D01*
X35535714Y22014286D01*
X35535714Y22085715D01*
X35607142Y22228572D01*
X35678571Y22300000D01*
X35821428Y22371429D01*
X36107142Y22371429D01*
X36250000Y22300000D01*
X36321428Y22228572D01*
X36392857Y22085715D01*
X36392857Y22014286D01*
X36321428Y21871429D01*
X36250000Y21800000D01*
X36107142Y21728572D01*
X35821428Y21728572D01*
X35678571Y21657143D01*
X35607142Y21585715D01*
X35535714Y21442858D01*
X35535714Y21157143D01*
X35607142Y21014286D01*
X35678571Y20942858D01*
X35821428Y20871429D01*
X36107142Y20871429D01*
X36250000Y20942858D01*
X36321428Y21014286D01*
X36392857Y21157143D01*
X36392857Y21442858D01*
X36321428Y21585715D01*
X36250000Y21657143D01*
X36107142Y21728572D01*
X36892857Y22371429D02*
X37821428Y22371429D01*
X37321428Y21800000D01*
X37535714Y21800000D01*
X37678571Y21728572D01*
X37750000Y21657143D01*
X37821428Y21514286D01*
X37821428Y21157143D01*
X37750000Y21014286D01*
X37678571Y20942858D01*
X37535714Y20871429D01*
X37107142Y20871429D01*
X36964285Y20942858D01*
X36892857Y21014286D01*
X38535714Y20942858D02*
X38535714Y20871429D01*
X38464285Y20728572D01*
X38392857Y20657143D01*
X39892857Y22371429D02*
X39178571Y22371429D01*
X39107142Y21657143D01*
X39178571Y21728572D01*
X39321428Y21800000D01*
X39678571Y21800000D01*
X39821428Y21728572D01*
X39892857Y21657143D01*
X39964285Y21514286D01*
X39964285Y21157143D01*
X39892857Y21014286D01*
X39821428Y20942858D01*
X39678571Y20871429D01*
X39321428Y20871429D01*
X39178571Y20942858D01*
X39107142Y21014286D01*
X40892857Y22371429D02*
X41035714Y22371429D01*
X41178571Y22300000D01*
X41250000Y22228572D01*
X41321428Y22085715D01*
X41392857Y21800000D01*
X41392857Y21442858D01*
X41321428Y21157143D01*
X41250000Y21014286D01*
X41178571Y20942858D01*
X41035714Y20871429D01*
X40892857Y20871429D01*
X40750000Y20942858D01*
X40678571Y21014286D01*
X40607142Y21157143D01*
X40535714Y21442858D01*
X40535714Y21800000D01*
X40607142Y22085715D01*
X40678571Y22228572D01*
X40750000Y22300000D01*
X40892857Y22371429D01*
X42321428Y22371429D02*
X42464285Y22371429D01*
X42607142Y22300000D01*
X42678571Y22228572D01*
X42750000Y22085715D01*
X42821428Y21800000D01*
X42821428Y21442858D01*
X42750000Y21157143D01*
X42678571Y21014286D01*
X42607142Y20942858D01*
X42464285Y20871429D01*
X42321428Y20871429D01*
X42178571Y20942858D01*
X42107142Y21014286D01*
X42035714Y21157143D01*
X41964285Y21442858D01*
X41964285Y21800000D01*
X42035714Y22085715D01*
X42107142Y22228572D01*
X42178571Y22300000D01*
X42321428Y22371429D01*
X44607142Y20871429D02*
X44607142Y21871429D01*
X44607142Y21728572D02*
X44678571Y21800000D01*
X44821428Y21871429D01*
X45035714Y21871429D01*
X45178571Y21800000D01*
X45250000Y21657143D01*
X45250000Y20871429D01*
X45250000Y21657143D02*
X45321428Y21800000D01*
X45464285Y21871429D01*
X45678571Y21871429D01*
X45821428Y21800000D01*
X45892857Y21657143D01*
X45892857Y20871429D01*
X46607142Y20871429D02*
X46607142Y21871429D01*
X46607142Y21728572D02*
X46678571Y21800000D01*
X46821428Y21871429D01*
X47035714Y21871429D01*
X47178571Y21800000D01*
X47250000Y21657143D01*
X47250000Y20871429D01*
X47250000Y21657143D02*
X47321428Y21800000D01*
X47464285Y21871429D01*
X47678571Y21871429D01*
X47821428Y21800000D01*
X47892857Y21657143D01*
X47892857Y20871429D01*
X0Y20200000D02*
X83500000Y20200000D01*
X0Y12800000D02*
X0Y22900000D01*
X83500000Y12800000D02*
X83500000Y22900000D01*
X83500000Y20200000D02*
X82373496Y19613579D01*
X83500000Y20200000D02*
X82373496Y20786421D01*
X0Y20200000D02*
X1126504Y19613579D01*
X0Y20200000D02*
X1126504Y20786421D01*
D13*
X0Y0D02*
X0Y6700000D01*
X0Y12800000D02*
X0Y10200000D01*
X20400000Y12800000D02*
X0Y12800000D01*
X83500000Y12800000D02*
X83500000Y6600000D01*
X83500000Y0D02*
X83500000Y6600000D01*
X20400000Y12800000D02*
X83500000Y12800000D01*
X12800000Y0D02*
X0Y0D01*
X12800000Y0D02*
X83500000Y0D01*
X0Y6700000D02*
X0Y10200000D01*
M02*
