M48
;DRILL file {KiCad (5.0.0)} date 12/04/18 13:35:39
;FORMAT={-:-/ absolute / metric / decimal}
FMAT,2
METRIC,TZ
T1C0.700
T2C1.000
T3C1.016
T4C3.000
%
G90
G05
M71
T2
X67.05Y8.95
X67.05Y4.45
X73.55Y8.95
X73.55Y4.45
X37.05Y8.95
X37.05Y4.45
X43.55Y8.95
X43.55Y4.45
X52.05Y8.95
X52.05Y4.45
X58.55Y8.95
X58.55Y4.45
T3
X23.Y8.84
X23.Y6.3
X25.54Y8.84
X25.54Y6.3
X28.08Y8.84
X28.08Y6.3
X30.62Y8.84
X30.62Y6.3
X33.16Y8.84
X33.16Y6.3
T4
X4.Y6.7
X79.5Y6.7
T1
X11.9Y2.35G85X14.7Y2.35
G05
X16.1Y9.05G85X16.1Y6.75
G05
X18.8Y6.45G85X18.8Y4.15
G05
T0
M30
