G04 #@! TF.GenerationSoftware,KiCad,Pcbnew,(5.0.0)*
G04 #@! TF.CreationDate,2019-01-17T09:26:07-05:00*
G04 #@! TF.ProjectId,nixie_clock_3,6E697869655F636C6F636B5F332E6B69,rev?*
G04 #@! TF.SameCoordinates,PX3e8fa00PY66ce5c0*
G04 #@! TF.FileFunction,Soldermask,Top*
G04 #@! TF.FilePolarity,Negative*
%FSLAX46Y46*%
G04 Gerber Fmt 4.6, Leading zero omitted, Abs format (unit mm)*
G04 Created by KiCad (PCBNEW (5.0.0)) date 01/17/19 09:26:07*
%MOMM*%
%LPD*%
G01*
G04 APERTURE LIST*
%ADD10C,0.750000*%
%ADD11R,3.900000X2.900000*%
%ADD12R,1.300000X1.300000*%
%ADD13R,1.200100X1.200100*%
%ADD14C,2.200000*%
%ADD15R,1.650000X1.400000*%
%ADD16C,13.400000*%
%ADD17R,3.300000X6.200000*%
%ADD18R,1.400000X1.650000*%
%ADD19R,1.100000X0.650000*%
%ADD20R,0.650000X1.100000*%
%ADD21R,1.687500X1.687500*%
%ADD22R,2.900000X3.900000*%
%ADD23R,1.460000X1.050000*%
%ADD24C,2.000000*%
%ADD25R,2.432000X4.057600*%
%ADD26R,2.432000X1.416000*%
%ADD27R,2.000000X0.650000*%
%ADD28R,1.970000X2.280000*%
%ADD29C,3.600000*%
%ADD30R,2.100000X1.500000*%
%ADD31R,1.900000X1.000000*%
%ADD32R,1.900000X1.100000*%
%ADD33C,2.540000*%
%ADD34R,2.500000X2.500000*%
%ADD35R,3.400000X3.400000*%
G04 APERTURE END LIST*
D10*
X134928571Y55642858D02*
X136642857Y55642858D01*
X135785714Y52642858D02*
X135785714Y55642858D01*
X138214285Y55642858D02*
X138785714Y55642858D01*
X139071428Y55500000D01*
X139357142Y55214286D01*
X139500000Y54642858D01*
X139500000Y53642858D01*
X139357142Y53071429D01*
X139071428Y52785715D01*
X138785714Y52642858D01*
X138214285Y52642858D01*
X137928571Y52785715D01*
X137642857Y53071429D01*
X137500000Y53642858D01*
X137500000Y54642858D01*
X137642857Y55214286D01*
X137928571Y55500000D01*
X138214285Y55642858D01*
X140785714Y52642858D02*
X140785714Y55642858D01*
X141928571Y55642858D01*
X142214285Y55500000D01*
X142357142Y55357143D01*
X142500000Y55071429D01*
X142500000Y54642858D01*
X142357142Y54357143D01*
X142214285Y54214286D01*
X141928571Y54071429D01*
X140785714Y54071429D01*
X145928571Y52785715D02*
X146357142Y52642858D01*
X147071428Y52642858D01*
X147357142Y52785715D01*
X147500000Y52928572D01*
X147642857Y53214286D01*
X147642857Y53500000D01*
X147500000Y53785715D01*
X147357142Y53928572D01*
X147071428Y54071429D01*
X146500000Y54214286D01*
X146214285Y54357143D01*
X146071428Y54500000D01*
X145928571Y54785715D01*
X145928571Y55071429D01*
X146071428Y55357143D01*
X146214285Y55500000D01*
X146500000Y55642858D01*
X147214285Y55642858D01*
X147642857Y55500000D01*
X149500000Y55642858D02*
X150071428Y55642858D01*
X150357142Y55500000D01*
X150642857Y55214286D01*
X150785714Y54642858D01*
X150785714Y53642858D01*
X150642857Y53071429D01*
X150357142Y52785715D01*
X150071428Y52642858D01*
X149500000Y52642858D01*
X149214285Y52785715D01*
X148928571Y53071429D01*
X148785714Y53642858D01*
X148785714Y54642858D01*
X148928571Y55214286D01*
X149214285Y55500000D01*
X149500000Y55642858D01*
X153500000Y52642858D02*
X152071428Y52642858D01*
X152071428Y55642858D01*
X154500000Y52642858D02*
X154500000Y55642858D01*
X155214285Y55642858D01*
X155642857Y55500000D01*
X155928571Y55214286D01*
X156071428Y54928572D01*
X156214285Y54357143D01*
X156214285Y53928572D01*
X156071428Y53357143D01*
X155928571Y53071429D01*
X155642857Y52785715D01*
X155214285Y52642858D01*
X154500000Y52642858D01*
X157500000Y54214286D02*
X158500000Y54214286D01*
X158928571Y52642858D02*
X157500000Y52642858D01*
X157500000Y55642858D01*
X158928571Y55642858D01*
X161928571Y52642858D02*
X160928571Y54071429D01*
X160214285Y52642858D02*
X160214285Y55642858D01*
X161357142Y55642858D01*
X161642857Y55500000D01*
X161785714Y55357143D01*
X161928571Y55071429D01*
X161928571Y54642858D01*
X161785714Y54357143D01*
X161642857Y54214286D01*
X161357142Y54071429D01*
X160214285Y54071429D01*
X163214285Y52642858D02*
X163214285Y55642858D01*
X164214285Y53500000D01*
X165214285Y55642858D01*
X165214285Y52642858D01*
X166500000Y53500000D02*
X167928571Y53500000D01*
X166214285Y52642858D02*
X167214285Y55642858D01*
X168214285Y52642858D01*
X169071428Y52785715D02*
X169500000Y52642858D01*
X170214285Y52642858D01*
X170500000Y52785715D01*
X170642857Y52928572D01*
X170785714Y53214286D01*
X170785714Y53500000D01*
X170642857Y53785715D01*
X170500000Y53928572D01*
X170214285Y54071429D01*
X169642857Y54214286D01*
X169357142Y54357143D01*
X169214285Y54500000D01*
X169071428Y54785715D01*
X169071428Y55071429D01*
X169214285Y55357143D01*
X169357142Y55500000D01*
X169642857Y55642858D01*
X170357142Y55642858D01*
X170785714Y55500000D01*
X172071428Y52642858D02*
X172071428Y55642858D01*
X173785714Y52642858D02*
X172500000Y54357143D01*
X173785714Y55642858D02*
X172071428Y53928572D01*
D11*
G04 #@! TO.C,C20*
X56950000Y40600000D03*
X50450000Y40600000D03*
G04 #@! TD*
D12*
G04 #@! TO.C,C21*
X74500000Y10200000D03*
X76100000Y10200000D03*
G04 #@! TD*
G04 #@! TO.C,D12*
X83950000Y7800000D03*
X83950000Y5400000D03*
G04 #@! TD*
D13*
G04 #@! TO.C,Q3*
X9050000Y1499240D03*
X10950000Y1499240D03*
X10000000Y3498220D03*
G04 #@! TD*
D12*
G04 #@! TO.C,R7*
X12800000Y2700000D03*
X12800000Y4300000D03*
G04 #@! TD*
G04 #@! TO.C,R8*
X11100000Y7400000D03*
X11100000Y5800000D03*
G04 #@! TD*
G04 #@! TO.C,C6*
X9400000Y5800000D03*
X9400000Y7400000D03*
G04 #@! TD*
D14*
G04 #@! TO.C,CON1*
X52300000Y16070000D03*
X52300000Y13530000D03*
X49760000Y16070000D03*
X49760000Y13530000D03*
X54840000Y16070000D03*
X54840000Y13530000D03*
G04 #@! TD*
G04 #@! TO.C,NT1*
X7000000Y25400000D03*
X7000000Y29900000D03*
X8750000Y33400000D03*
X12750000Y34400000D03*
X16750000Y33400000D03*
X18500000Y29900000D03*
X18500000Y25400000D03*
X7000000Y20900000D03*
X18500000Y20900000D03*
X8750000Y17400000D03*
X16750000Y17400000D03*
X12750000Y16400000D03*
G04 #@! TD*
D12*
G04 #@! TO.C,R1*
X78300000Y7000000D03*
X78300000Y5400000D03*
G04 #@! TD*
D15*
G04 #@! TO.C,R57*
X85400000Y20400000D03*
X85400000Y18400000D03*
G04 #@! TD*
D13*
G04 #@! TO.C,Q25*
X111550000Y20100760D03*
X109650000Y20100760D03*
X110600000Y18101780D03*
G04 #@! TD*
D12*
G04 #@! TO.C,R64*
X109800000Y21500000D03*
X111400000Y21500000D03*
G04 #@! TD*
D16*
G04 #@! TO.C,BT1*
X98200000Y6100000D03*
D17*
X86950000Y6100000D03*
X109450000Y6100000D03*
G04 #@! TD*
D12*
G04 #@! TO.C,C1*
X58300000Y12500000D03*
X58300000Y10900000D03*
G04 #@! TD*
G04 #@! TO.C,C2*
X56800000Y12500000D03*
X56800000Y10900000D03*
G04 #@! TD*
G04 #@! TO.C,C3*
X74500000Y5650000D03*
X76100000Y5650000D03*
G04 #@! TD*
G04 #@! TO.C,C4*
X20100000Y3000000D03*
X21700000Y3000000D03*
G04 #@! TD*
G04 #@! TO.C,C5*
X14600000Y2700000D03*
X14600000Y4300000D03*
G04 #@! TD*
G04 #@! TO.C,C7*
X71000000Y16000000D03*
X71000000Y17600000D03*
G04 #@! TD*
G04 #@! TO.C,C8*
X76100000Y7150000D03*
X74500000Y7150000D03*
G04 #@! TD*
G04 #@! TO.C,C9*
X76100000Y8650000D03*
X74500000Y8650000D03*
G04 #@! TD*
G04 #@! TO.C,C10*
X72900000Y14600000D03*
X72900000Y13000000D03*
G04 #@! TD*
G04 #@! TO.C,C11*
X114400000Y8300000D03*
X116000000Y8300000D03*
G04 #@! TD*
G04 #@! TO.C,C12*
X26800000Y5600000D03*
X25200000Y5600000D03*
G04 #@! TD*
G04 #@! TO.C,C13*
X26800000Y7200000D03*
X25200000Y7200000D03*
G04 #@! TD*
G04 #@! TO.C,C14*
X38500000Y8600000D03*
X38500000Y7000000D03*
G04 #@! TD*
D15*
G04 #@! TO.C,C15*
X40300000Y8800000D03*
X40300000Y6800000D03*
G04 #@! TD*
G04 #@! TO.C,C16*
X58200000Y27900000D03*
X58200000Y29900000D03*
G04 #@! TD*
D12*
G04 #@! TO.C,C17*
X60300000Y34900000D03*
X58700000Y34900000D03*
G04 #@! TD*
D18*
G04 #@! TO.C,C18*
X53600000Y32000000D03*
X55600000Y32000000D03*
G04 #@! TD*
D12*
G04 #@! TO.C,C19*
X54600000Y29800000D03*
X56200000Y29800000D03*
G04 #@! TD*
G04 #@! TO.C,C22*
X60100000Y39900000D03*
X60100000Y38300000D03*
G04 #@! TD*
G04 #@! TO.C,C23*
X61700000Y39900000D03*
X61700000Y38300000D03*
G04 #@! TD*
G04 #@! TO.C,C24*
X69100000Y31100000D03*
X70700000Y31100000D03*
G04 #@! TD*
G04 #@! TO.C,C25*
X63300000Y39900000D03*
X63300000Y38300000D03*
G04 #@! TD*
G04 #@! TO.C,C26*
X63600000Y34900000D03*
X62000000Y34900000D03*
G04 #@! TD*
G04 #@! TO.C,C27*
X66200000Y32800000D03*
X66200000Y34400000D03*
G04 #@! TD*
G04 #@! TO.C,C29*
X69500000Y16000000D03*
X69500000Y17600000D03*
G04 #@! TD*
G04 #@! TO.C,D2*
X19700000Y4600000D03*
X22100000Y4600000D03*
G04 #@! TD*
G04 #@! TO.C,D3*
X14600000Y5400000D03*
X14600000Y7800000D03*
G04 #@! TD*
G04 #@! TO.C,D7*
X47400000Y5100000D03*
X49000000Y5100000D03*
G04 #@! TD*
G04 #@! TO.C,D8*
X72100000Y22600000D03*
X72100000Y24200000D03*
G04 #@! TD*
D19*
G04 #@! TO.C,IC1*
X62500000Y13200000D03*
X62500000Y12700000D03*
X62500000Y12200000D03*
X62500000Y11700000D03*
X62500000Y11200000D03*
X62500000Y10700000D03*
X62500000Y10200000D03*
X62500000Y9700000D03*
X62500000Y9200000D03*
X62500000Y8700000D03*
X62500000Y8200000D03*
D20*
X63400000Y7300000D03*
X63900000Y7300000D03*
X64400000Y7300000D03*
X64900000Y7300000D03*
X65400000Y7300000D03*
X65900000Y7300000D03*
X66400000Y7300000D03*
X66900000Y7300000D03*
X67400000Y7300000D03*
X67900000Y7300000D03*
X68400000Y7300000D03*
D19*
X69300000Y8200000D03*
X69300000Y8700000D03*
X69300000Y9200000D03*
X69300000Y9700000D03*
X69300000Y10200000D03*
X69300000Y10700000D03*
X69300000Y11200000D03*
X69300000Y11700000D03*
X69300000Y12200000D03*
X69300000Y12700000D03*
X69300000Y13200000D03*
D20*
X68400000Y14100000D03*
X67900000Y14100000D03*
X67400000Y14100000D03*
X66900000Y14100000D03*
X66400000Y14100000D03*
X65900000Y14100000D03*
X65400000Y14100000D03*
X64900000Y14100000D03*
X64400000Y14100000D03*
X63900000Y14100000D03*
X63400000Y14100000D03*
D21*
X67831250Y8768750D03*
X67831250Y10056250D03*
X67831250Y11343750D03*
X67831250Y12631250D03*
X66543750Y8768750D03*
X66543750Y10056250D03*
X66543750Y11343750D03*
X66543750Y12631250D03*
X65256250Y8768750D03*
X65256250Y10056250D03*
X65256250Y11343750D03*
X65256250Y12631250D03*
X63968750Y8768750D03*
X63968750Y10056250D03*
X63968750Y11343750D03*
X63968750Y12631250D03*
G04 #@! TD*
D12*
G04 #@! TO.C,L1*
X20100000Y1500000D03*
X21700000Y1500000D03*
G04 #@! TD*
G04 #@! TO.C,L2*
X26800000Y8800000D03*
X25200000Y8800000D03*
G04 #@! TD*
G04 #@! TO.C,L3*
X40100000Y10400000D03*
X38500000Y10400000D03*
G04 #@! TD*
D22*
G04 #@! TO.C,L4*
X71900000Y41300000D03*
X65900000Y41300000D03*
G04 #@! TD*
D14*
G04 #@! TO.C,NT2*
X35000000Y25400000D03*
X35000000Y29900000D03*
X36750000Y33400000D03*
X40750000Y34400000D03*
X44750000Y33400000D03*
X46500000Y29900000D03*
X46500000Y25400000D03*
X35000000Y20900000D03*
X46500000Y20900000D03*
X36750000Y17400000D03*
X44750000Y17400000D03*
X40750000Y16400000D03*
G04 #@! TD*
G04 #@! TO.C,NT3*
X78500000Y25400000D03*
X78500000Y29900000D03*
X80250000Y33400000D03*
X84250000Y34400000D03*
X88250000Y33400000D03*
X90000000Y29900000D03*
X90000000Y25400000D03*
X78500000Y20900000D03*
X90000000Y20900000D03*
X80250000Y17400000D03*
X88250000Y17400000D03*
X84250000Y16400000D03*
G04 #@! TD*
G04 #@! TO.C,NT4*
X106500000Y25400000D03*
X106500000Y29900000D03*
X108250000Y33400000D03*
X112250000Y34400000D03*
X116250000Y33400000D03*
X118000000Y29900000D03*
X118000000Y25400000D03*
X106500000Y20900000D03*
X118000000Y20900000D03*
X108250000Y17400000D03*
X116250000Y17400000D03*
X112250000Y16400000D03*
G04 #@! TD*
G04 #@! TO.C,P2*
X56660000Y1800000D03*
X61740000Y1800000D03*
X59200000Y1800000D03*
G04 #@! TD*
G04 #@! TO.C,P3*
X51300000Y1800000D03*
X53840000Y1800000D03*
X48760000Y1800000D03*
G04 #@! TD*
D13*
G04 #@! TO.C,Q1*
X16250000Y5599240D03*
X18150000Y5599240D03*
X17200000Y7598220D03*
G04 #@! TD*
G04 #@! TO.C,Q2*
X57050000Y20999240D03*
X58950000Y20999240D03*
X58000000Y22998220D03*
G04 #@! TD*
G04 #@! TO.C,Q4*
X61550000Y20999240D03*
X63450000Y20999240D03*
X62500000Y22998220D03*
G04 #@! TD*
G04 #@! TO.C,Q5*
X25750000Y29699240D03*
X27650000Y29699240D03*
X26700000Y31698220D03*
G04 #@! TD*
G04 #@! TO.C,Q6*
X66050000Y20999240D03*
X67950000Y20999240D03*
X67000000Y22998220D03*
G04 #@! TD*
G04 #@! TO.C,Q7*
X14050000Y13599240D03*
X15950000Y13599240D03*
X15000000Y15598220D03*
G04 #@! TD*
G04 #@! TO.C,Q8*
X11950000Y20100760D03*
X10050000Y20100760D03*
X11000000Y18101780D03*
G04 #@! TD*
G04 #@! TO.C,Q9*
X2599240Y21050000D03*
X2599240Y19150000D03*
X4598220Y20100000D03*
G04 #@! TD*
G04 #@! TO.C,Q10*
X122300760Y16450000D03*
X122300760Y18350000D03*
X120301780Y17400000D03*
G04 #@! TD*
G04 #@! TO.C,Q11*
X122300760Y20450000D03*
X122300760Y22350000D03*
X120301780Y21400000D03*
G04 #@! TD*
G04 #@! TO.C,Q12*
X122300760Y24450000D03*
X122300760Y26350000D03*
X120301780Y25400000D03*
G04 #@! TD*
G04 #@! TO.C,Q13*
X25000000Y20349240D03*
X26900000Y20349240D03*
X25950000Y22348220D03*
G04 #@! TD*
G04 #@! TO.C,Q14*
X30499240Y22250000D03*
X30499240Y20350000D03*
X32498220Y21300000D03*
G04 #@! TD*
G04 #@! TO.C,Q15*
X122300760Y28450000D03*
X122300760Y30350000D03*
X120301780Y29400000D03*
G04 #@! TD*
G04 #@! TO.C,Q16*
X122300760Y32450000D03*
X122300760Y34350000D03*
X120301780Y33400000D03*
G04 #@! TD*
G04 #@! TO.C,Q17*
X2599240Y37050000D03*
X2599240Y35150000D03*
X4598220Y36100000D03*
G04 #@! TD*
G04 #@! TO.C,Q18*
X2599240Y33050000D03*
X2599240Y31150000D03*
X4598220Y32100000D03*
G04 #@! TD*
G04 #@! TO.C,Q19*
X85550000Y13599240D03*
X87450000Y13599240D03*
X86500000Y15598220D03*
G04 #@! TD*
G04 #@! TO.C,Q20*
X2599240Y29050000D03*
X2599240Y27150000D03*
X4598220Y28100000D03*
G04 #@! TD*
G04 #@! TO.C,Q21*
X2599240Y25050000D03*
X2599240Y23150000D03*
X4598220Y24100000D03*
G04 #@! TD*
G04 #@! TO.C,Q22*
X83550000Y20100760D03*
X81650000Y20100760D03*
X82600000Y18101780D03*
G04 #@! TD*
D23*
G04 #@! TO.C,Q23*
X70100000Y36250000D03*
X70100000Y35300000D03*
X70100000Y34350000D03*
X72300000Y34350000D03*
X72300000Y36250000D03*
X72300000Y35300000D03*
G04 #@! TD*
D13*
G04 #@! TO.C,Q24*
X113550000Y13599240D03*
X115450000Y13599240D03*
X114500000Y15598220D03*
G04 #@! TD*
D12*
G04 #@! TO.C,R2*
X78300000Y8600000D03*
X78300000Y10200000D03*
G04 #@! TD*
G04 #@! TO.C,R3*
X16400000Y2700000D03*
X18000000Y2700000D03*
G04 #@! TD*
G04 #@! TO.C,R4*
X16400000Y4200000D03*
X18000000Y4200000D03*
G04 #@! TD*
G04 #@! TO.C,R5*
X58000000Y19500000D03*
X58000000Y17900000D03*
G04 #@! TD*
D18*
G04 #@! TO.C,R6*
X19900000Y6400000D03*
X21900000Y6400000D03*
G04 #@! TD*
D12*
G04 #@! TO.C,R9*
X55000000Y26000000D03*
X55000000Y24400000D03*
G04 #@! TD*
G04 #@! TO.C,R10*
X49000000Y6600000D03*
X49000000Y8200000D03*
G04 #@! TD*
G04 #@! TO.C,R11*
X74300000Y22600000D03*
X74300000Y24200000D03*
G04 #@! TD*
G04 #@! TO.C,R12*
X62500000Y19500000D03*
X62500000Y17900000D03*
G04 #@! TD*
G04 #@! TO.C,R13*
X61000000Y26000000D03*
X61000000Y24400000D03*
G04 #@! TD*
G04 #@! TO.C,R14*
X66300000Y3300000D03*
X66300000Y1700000D03*
G04 #@! TD*
G04 #@! TO.C,R15*
X76100000Y13000000D03*
X76100000Y14600000D03*
G04 #@! TD*
G04 #@! TO.C,R16*
X74500000Y14600000D03*
X74500000Y13000000D03*
G04 #@! TD*
G04 #@! TO.C,R17*
X67000000Y26000000D03*
X67000000Y24400000D03*
G04 #@! TD*
G04 #@! TO.C,R18*
X83400000Y31400000D03*
X85000000Y31400000D03*
G04 #@! TD*
G04 #@! TO.C,R19*
X83400000Y29700000D03*
X85000000Y29700000D03*
G04 #@! TD*
G04 #@! TO.C,R20*
X67900000Y3300000D03*
X67900000Y1700000D03*
G04 #@! TD*
G04 #@! TO.C,R21*
X31100000Y30500000D03*
X29500000Y30500000D03*
G04 #@! TD*
G04 #@! TO.C,R22*
X58000000Y26000000D03*
X58000000Y24400000D03*
G04 #@! TD*
G04 #@! TO.C,R23*
X112500000Y8300000D03*
X112500000Y6700000D03*
G04 #@! TD*
G04 #@! TO.C,R24*
X116000000Y6600000D03*
X114400000Y6600000D03*
G04 #@! TD*
G04 #@! TO.C,R25*
X64000000Y26000000D03*
X64000000Y24400000D03*
G04 #@! TD*
G04 #@! TO.C,R26*
X67000000Y19500000D03*
X67000000Y17900000D03*
G04 #@! TD*
G04 #@! TO.C,R27*
X70000000Y26000000D03*
X70000000Y24400000D03*
G04 #@! TD*
G04 #@! TO.C,R28*
X29500000Y32100000D03*
X31100000Y32100000D03*
G04 #@! TD*
G04 #@! TO.C,R29*
X17600000Y15200000D03*
X19200000Y15200000D03*
G04 #@! TD*
G04 #@! TO.C,R30*
X42900000Y8400000D03*
X44500000Y8400000D03*
G04 #@! TD*
G04 #@! TO.C,R31*
X44500000Y6700000D03*
X42900000Y6700000D03*
G04 #@! TD*
G04 #@! TO.C,R32*
X10200000Y21500000D03*
X11800000Y21500000D03*
G04 #@! TD*
D15*
G04 #@! TO.C,R33*
X13900000Y20500000D03*
X13900000Y18500000D03*
G04 #@! TD*
D12*
G04 #@! TO.C,R34*
X1200000Y20900000D03*
X1200000Y19300000D03*
G04 #@! TD*
G04 #@! TO.C,R35*
X123700000Y18200000D03*
X123700000Y16600000D03*
G04 #@! TD*
G04 #@! TO.C,R36*
X123700000Y22200000D03*
X123700000Y20600000D03*
G04 #@! TD*
G04 #@! TO.C,R37*
X123700000Y26200000D03*
X123700000Y24600000D03*
G04 #@! TD*
G04 #@! TO.C,R38*
X10500000Y15400000D03*
X8900000Y15400000D03*
G04 #@! TD*
G04 #@! TO.C,R39*
X25100000Y18100000D03*
X26700000Y18100000D03*
G04 #@! TD*
G04 #@! TO.C,R40*
X42500000Y19000000D03*
X42500000Y20600000D03*
G04 #@! TD*
G04 #@! TO.C,R41*
X61800000Y29800000D03*
X60200000Y29800000D03*
G04 #@! TD*
G04 #@! TO.C,R42*
X123700000Y30200000D03*
X123700000Y28600000D03*
G04 #@! TD*
G04 #@! TO.C,R43*
X123700000Y34200000D03*
X123700000Y32600000D03*
G04 #@! TD*
G04 #@! TO.C,R44*
X1200000Y36900000D03*
X1200000Y35300000D03*
G04 #@! TD*
G04 #@! TO.C,R45*
X1200000Y32900000D03*
X1200000Y31300000D03*
G04 #@! TD*
G04 #@! TO.C,R46*
X56200000Y27900000D03*
X54600000Y27900000D03*
G04 #@! TD*
G04 #@! TO.C,R47*
X28800000Y20500000D03*
X28800000Y22100000D03*
G04 #@! TD*
D18*
G04 #@! TO.C,R48*
X28750000Y24400000D03*
X26750000Y24400000D03*
G04 #@! TD*
D12*
G04 #@! TO.C,R49*
X33000000Y17400000D03*
X34600000Y17400000D03*
G04 #@! TD*
D18*
G04 #@! TO.C,R50*
X55600000Y33900000D03*
X53600000Y33900000D03*
G04 #@! TD*
G04 #@! TO.C,R51*
X64000000Y28800000D03*
X66000000Y28800000D03*
G04 #@! TD*
G04 #@! TO.C,R52*
X68200000Y28800000D03*
X70200000Y28800000D03*
G04 #@! TD*
D12*
G04 #@! TO.C,R53*
X81900000Y13600000D03*
X80300000Y13600000D03*
G04 #@! TD*
G04 #@! TO.C,R54*
X1200000Y28900000D03*
X1200000Y27300000D03*
G04 #@! TD*
G04 #@! TO.C,R55*
X1200000Y24900000D03*
X1200000Y23300000D03*
G04 #@! TD*
G04 #@! TO.C,R56*
X81800000Y21300000D03*
X83400000Y21300000D03*
G04 #@! TD*
G04 #@! TO.C,R58*
X81900000Y15500000D03*
X80300000Y15500000D03*
G04 #@! TD*
G04 #@! TO.C,R59*
X67700000Y34400000D03*
X67700000Y32800000D03*
G04 #@! TD*
G04 #@! TO.C,R60*
X70700000Y32700000D03*
X69100000Y32700000D03*
G04 #@! TD*
G04 #@! TO.C,R61*
X67700000Y36100000D03*
X66100000Y36100000D03*
G04 #@! TD*
G04 #@! TO.C,R62*
X110200000Y13700000D03*
X108600000Y13700000D03*
G04 #@! TD*
G04 #@! TO.C,R63*
X72300000Y31100000D03*
X72300000Y32700000D03*
G04 #@! TD*
D15*
G04 #@! TO.C,R65*
X113400000Y20400000D03*
X113400000Y18400000D03*
G04 #@! TD*
G04 #@! TO.C,R66*
X74300000Y18800000D03*
X74300000Y20800000D03*
G04 #@! TD*
D12*
G04 #@! TO.C,R67*
X71000000Y20700000D03*
X71000000Y19100000D03*
G04 #@! TD*
G04 #@! TO.C,R68*
X110200000Y15500000D03*
X108600000Y15500000D03*
G04 #@! TD*
D24*
G04 #@! TO.C,U1*
X29200000Y38900000D03*
X24200000Y38900000D03*
G04 #@! TD*
D25*
G04 #@! TO.C,U2*
X36002000Y9500000D03*
D26*
X29398000Y9500000D03*
X29398000Y7214000D03*
X29398000Y11786000D03*
G04 #@! TD*
D27*
G04 #@! TO.C,U3*
X58900000Y33300000D03*
X58900000Y32800000D03*
X58900000Y32300000D03*
X58900000Y31800000D03*
X58900000Y31300000D03*
X63100000Y31300000D03*
X63100000Y31800000D03*
X63100000Y32300000D03*
X63100000Y32800000D03*
X63100000Y33300000D03*
D28*
X61000000Y32300000D03*
G04 #@! TD*
D29*
G04 #@! TO.C,X2*
X3900000Y42600000D03*
G04 #@! TD*
G04 #@! TO.C,X3*
X121100000Y3900000D03*
G04 #@! TD*
G04 #@! TO.C,X4*
X121100000Y42600000D03*
G04 #@! TD*
G04 #@! TO.C,X5*
X3900000Y3900000D03*
G04 #@! TD*
D30*
G04 #@! TO.C,Y1*
X72700000Y7200000D03*
X72700000Y9700000D03*
G04 #@! TD*
D31*
G04 #@! TO.C,X1*
X60100000Y10000000D03*
D32*
X60100000Y9050000D03*
X60100000Y10950000D03*
G04 #@! TD*
D33*
G04 #@! TO.C,F3*
X60100000Y16500000D03*
G04 #@! TD*
G04 #@! TO.C,F4*
X71700000Y4900000D03*
G04 #@! TD*
G04 #@! TO.C,F5*
X12750000Y25400000D03*
G04 #@! TD*
G04 #@! TO.C,F6*
X112200000Y25400000D03*
G04 #@! TD*
D14*
G04 #@! TO.C,P1*
X36300000Y4270000D03*
X36300000Y1730000D03*
X33760000Y4270000D03*
X33760000Y1730000D03*
X31220000Y4270000D03*
X31220000Y1730000D03*
X38840000Y4270000D03*
X38840000Y1730000D03*
X41380000Y4270000D03*
X41380000Y1730000D03*
G04 #@! TD*
D18*
G04 #@! TO.C,R69*
X100500000Y22200000D03*
X98500000Y22200000D03*
G04 #@! TD*
G04 #@! TO.C,R70*
X94700000Y19700000D03*
X96700000Y19700000D03*
G04 #@! TD*
G04 #@! TO.C,R71*
X94700000Y22200000D03*
X96700000Y22200000D03*
G04 #@! TD*
G04 #@! TO.C,R72*
X94700000Y24800000D03*
X96700000Y24800000D03*
G04 #@! TD*
G04 #@! TO.C,R73*
X94700000Y30300000D03*
X96700000Y30300000D03*
G04 #@! TD*
G04 #@! TO.C,R74*
X94700000Y32700000D03*
X96700000Y32700000D03*
G04 #@! TD*
G04 #@! TO.C,R75*
X100500000Y35100000D03*
X98500000Y35100000D03*
G04 #@! TD*
G04 #@! TO.C,R76*
X100500000Y32700000D03*
X98500000Y32700000D03*
G04 #@! TD*
G04 #@! TO.C,R77*
X100500000Y24800000D03*
X98500000Y24800000D03*
G04 #@! TD*
G04 #@! TO.C,R78*
X100500000Y30300000D03*
X98500000Y30300000D03*
G04 #@! TD*
D34*
G04 #@! TO.C,D1*
X28450000Y3000000D03*
X24150000Y3000000D03*
G04 #@! TD*
G04 #@! TO.C,D13*
X75900000Y42650000D03*
X75900000Y38350000D03*
G04 #@! TD*
D14*
G04 #@! TO.C,P4*
X115970000Y3900000D03*
X113430000Y3900000D03*
G04 #@! TD*
D24*
G04 #@! TO.C,tp5*
X20000000Y8200000D03*
G04 #@! TD*
G04 #@! TO.C,tp6*
X7400000Y6350000D03*
G04 #@! TD*
G04 #@! TO.C,tp7*
X82100000Y7300000D03*
G04 #@! TD*
G04 #@! TO.C,tp8*
X52700000Y29800000D03*
G04 #@! TD*
G04 #@! TO.C,tp9*
X75500000Y34300000D03*
G04 #@! TD*
G04 #@! TO.C,tp10*
X96650000Y39125000D03*
G04 #@! TD*
D12*
G04 #@! TO.C,D4*
X12800000Y7800000D03*
X12800000Y5400000D03*
G04 #@! TD*
G04 #@! TO.C,D11*
X44900000Y10200000D03*
X42500000Y10200000D03*
G04 #@! TD*
D24*
G04 #@! TO.C,tp11*
X62200000Y15600000D03*
G04 #@! TD*
D35*
G04 #@! TO.C,tp1*
X82100000Y1500000D03*
G04 #@! TD*
G04 #@! TO.C,tp3*
X102800000Y43800000D03*
G04 #@! TD*
D11*
G04 #@! TO.C,C28*
X80850000Y40600000D03*
X87350000Y40600000D03*
G04 #@! TD*
D12*
G04 #@! TO.C,R79*
X52400000Y5100000D03*
X50800000Y5100000D03*
G04 #@! TD*
M02*
