G04 #@! TF.GenerationSoftware,KiCad,Pcbnew,(5.0.0)*
G04 #@! TF.CreationDate,2019-01-17T09:26:07-05:00*
G04 #@! TF.ProjectId,nixie_clock_3,6E697869655F636C6F636B5F332E6B69,rev?*
G04 #@! TF.SameCoordinates,PX3e8fa00PY66ce5c0*
G04 #@! TF.FileFunction,Legend,Bot*
G04 #@! TF.FilePolarity,Positive*
%FSLAX46Y46*%
G04 Gerber Fmt 4.6, Leading zero omitted, Abs format (unit mm)*
G04 Created by KiCad (PCBNEW (5.0.0)) date 01/17/19 09:26:07*
%MOMM*%
%LPD*%
G01*
G04 APERTURE LIST*
%ADD10C,0.200000*%
%ADD11C,0.750000*%
%ADD12C,0.300000*%
%ADD13C,0.150000*%
%ADD14C,0.010000*%
%ADD15C,0.120000*%
%ADD16C,0.100000*%
%ADD17C,2.200000*%
%ADD18C,2.000000*%
%ADD19C,3.600000*%
%ADD20C,2.540000*%
%ADD21R,3.400000X3.400000*%
%ADD22R,1.700000X1.000000*%
G04 APERTURE END LIST*
D10*
X28200000Y1900000D02*
X8500000Y1900000D01*
X8500000Y4700000D02*
X28200000Y4700000D01*
D11*
X132857142Y59214286D02*
X133285714Y59071429D01*
X133428571Y58928572D01*
X133571428Y58642858D01*
X133571428Y58214286D01*
X133428571Y57928572D01*
X133285714Y57785715D01*
X133000000Y57642858D01*
X131857142Y57642858D01*
X131857142Y60642858D01*
X132857142Y60642858D01*
X133142857Y60500000D01*
X133285714Y60357143D01*
X133428571Y60071429D01*
X133428571Y59785715D01*
X133285714Y59500000D01*
X133142857Y59357143D01*
X132857142Y59214286D01*
X131857142Y59214286D01*
X135428571Y60642858D02*
X136000000Y60642858D01*
X136285714Y60500000D01*
X136571428Y60214286D01*
X136714285Y59642858D01*
X136714285Y58642858D01*
X136571428Y58071429D01*
X136285714Y57785715D01*
X136000000Y57642858D01*
X135428571Y57642858D01*
X135142857Y57785715D01*
X134857142Y58071429D01*
X134714285Y58642858D01*
X134714285Y59642858D01*
X134857142Y60214286D01*
X135142857Y60500000D01*
X135428571Y60642858D01*
X137571428Y60642858D02*
X139285714Y60642858D01*
X138428571Y57642858D02*
X138428571Y60642858D01*
X139857142Y60642858D02*
X141571428Y60642858D01*
X140714285Y57642858D02*
X140714285Y60642858D01*
X143142857Y60642858D02*
X143714285Y60642858D01*
X144000000Y60500000D01*
X144285714Y60214286D01*
X144428571Y59642858D01*
X144428571Y58642858D01*
X144285714Y58071429D01*
X144000000Y57785715D01*
X143714285Y57642858D01*
X143142857Y57642858D01*
X142857142Y57785715D01*
X142571428Y58071429D01*
X142428571Y58642858D01*
X142428571Y59642858D01*
X142571428Y60214286D01*
X142857142Y60500000D01*
X143142857Y60642858D01*
X145714285Y57642858D02*
X145714285Y60642858D01*
X146714285Y58500000D01*
X147714285Y60642858D01*
X147714285Y57642858D01*
X151285714Y57785715D02*
X151714285Y57642858D01*
X152428571Y57642858D01*
X152714285Y57785715D01*
X152857142Y57928572D01*
X153000000Y58214286D01*
X153000000Y58500000D01*
X152857142Y58785715D01*
X152714285Y58928572D01*
X152428571Y59071429D01*
X151857142Y59214286D01*
X151571428Y59357143D01*
X151428571Y59500000D01*
X151285714Y59785715D01*
X151285714Y60071429D01*
X151428571Y60357143D01*
X151571428Y60500000D01*
X151857142Y60642858D01*
X152571428Y60642858D01*
X153000000Y60500000D01*
X154285714Y57642858D02*
X154285714Y60642858D01*
X157142857Y57642858D02*
X155714285Y57642858D01*
X155714285Y60642858D01*
X158142857Y57642858D02*
X158142857Y60642858D01*
X159857142Y57642858D02*
X158571428Y59357143D01*
X159857142Y60642858D02*
X158142857Y58928572D01*
X161000000Y57785715D02*
X161428571Y57642858D01*
X162142857Y57642858D01*
X162428571Y57785715D01*
X162571428Y57928572D01*
X162714285Y58214286D01*
X162714285Y58500000D01*
X162571428Y58785715D01*
X162428571Y58928572D01*
X162142857Y59071429D01*
X161571428Y59214286D01*
X161285714Y59357143D01*
X161142857Y59500000D01*
X161000000Y59785715D01*
X161000000Y60071429D01*
X161142857Y60357143D01*
X161285714Y60500000D01*
X161571428Y60642858D01*
X162285714Y60642858D01*
X162714285Y60500000D01*
X165714285Y57928572D02*
X165571428Y57785715D01*
X165142857Y57642858D01*
X164857142Y57642858D01*
X164428571Y57785715D01*
X164142857Y58071429D01*
X164000000Y58357143D01*
X163857142Y58928572D01*
X163857142Y59357143D01*
X164000000Y59928572D01*
X164142857Y60214286D01*
X164428571Y60500000D01*
X164857142Y60642858D01*
X165142857Y60642858D01*
X165571428Y60500000D01*
X165714285Y60357143D01*
X168714285Y57642858D02*
X167714285Y59071429D01*
X167000000Y57642858D02*
X167000000Y60642858D01*
X168142857Y60642858D01*
X168428571Y60500000D01*
X168571428Y60357143D01*
X168714285Y60071429D01*
X168714285Y59642858D01*
X168571428Y59357143D01*
X168428571Y59214286D01*
X168142857Y59071429D01*
X167000000Y59071429D01*
X170000000Y59214286D02*
X171000000Y59214286D01*
X171428571Y57642858D02*
X170000000Y57642858D01*
X170000000Y60642858D01*
X171428571Y60642858D01*
X172714285Y59214286D02*
X173714285Y59214286D01*
X174142857Y57642858D02*
X172714285Y57642858D01*
X172714285Y60642858D01*
X174142857Y60642858D01*
X175428571Y57642858D02*
X175428571Y60642858D01*
X177142857Y57642858D01*
X177142857Y60642858D01*
D10*
X28200000Y4700000D02*
G75*
G02X28200000Y1900000I0J-1400000D01*
G01*
X8500000Y1900000D02*
G75*
G02X8500000Y4700000I0J1400000D01*
G01*
D12*
X28580501Y3673686D02*
X27651930Y3673686D01*
X28139430Y4230829D02*
X28719787Y2559400D01*
X27845382Y3116543D02*
X28773954Y3116543D01*
X28286454Y2559400D02*
X27706097Y4230829D01*
X27326930Y2807019D02*
X27164430Y4107019D01*
X26854906Y4107019D01*
X26676930Y4045114D01*
X26568597Y3921305D01*
X26522168Y3797495D01*
X26491216Y3549876D01*
X26514430Y3364162D01*
X26607287Y3116543D01*
X26684668Y2992734D01*
X26823954Y2868924D01*
X27017406Y2807019D01*
X27326930Y2807019D01*
X25523954Y2868924D02*
X25655501Y2807019D01*
X25903120Y2807019D01*
X26019192Y2868924D01*
X26065620Y2992734D01*
X26003716Y3487972D01*
X25926335Y3611781D01*
X25794787Y3673686D01*
X25547168Y3673686D01*
X25431097Y3611781D01*
X25384668Y3487972D01*
X25400144Y3364162D01*
X26034668Y3240353D01*
X24966811Y2868924D02*
X24850740Y2807019D01*
X24603120Y2807019D01*
X24471573Y2868924D01*
X24394192Y2992734D01*
X24386454Y3054638D01*
X24432882Y3178448D01*
X24548954Y3240353D01*
X24734668Y3240353D01*
X24850740Y3302257D01*
X24897168Y3426067D01*
X24889430Y3487972D01*
X24812049Y3611781D01*
X24680501Y3673686D01*
X24494787Y3673686D01*
X24378716Y3611781D01*
X23860263Y2807019D02*
X23751930Y3673686D01*
X23697763Y4107019D02*
X23767406Y4045114D01*
X23713240Y3983210D01*
X23643597Y4045114D01*
X23697763Y4107019D01*
X23713240Y3983210D01*
X22575740Y3673686D02*
X22707287Y2621305D01*
X22784668Y2497495D01*
X22854311Y2435591D01*
X22985859Y2373686D01*
X23171573Y2373686D01*
X23287644Y2435591D01*
X22676335Y2868924D02*
X22807882Y2807019D01*
X23055501Y2807019D01*
X23171573Y2868924D01*
X23225740Y2930829D01*
X23272168Y3054638D01*
X23225740Y3426067D01*
X23148359Y3549876D01*
X23078716Y3611781D01*
X22947168Y3673686D01*
X22699549Y3673686D01*
X22583478Y3611781D01*
X21956692Y3673686D02*
X22065025Y2807019D01*
X21972168Y3549876D02*
X21902525Y3611781D01*
X21770978Y3673686D01*
X21585263Y3673686D01*
X21469192Y3611781D01*
X21422763Y3487972D01*
X21507882Y2807019D01*
X20385859Y2868924D02*
X20517406Y2807019D01*
X20765025Y2807019D01*
X20881097Y2868924D01*
X20927525Y2992734D01*
X20865620Y3487972D01*
X20788240Y3611781D01*
X20656692Y3673686D01*
X20409073Y3673686D01*
X20293001Y3611781D01*
X20246573Y3487972D01*
X20262049Y3364162D01*
X20896573Y3240353D01*
X19217406Y2807019D02*
X19054906Y4107019D01*
X19209668Y2868924D02*
X19341216Y2807019D01*
X19588835Y2807019D01*
X19704906Y2868924D01*
X19759073Y2930829D01*
X19805501Y3054638D01*
X19759073Y3426067D01*
X19681692Y3549876D01*
X19612049Y3611781D01*
X19480501Y3673686D01*
X19232882Y3673686D01*
X19116811Y3611781D01*
X18598359Y2807019D02*
X18435859Y4107019D01*
X17870978Y3673686D02*
X17979311Y2807019D01*
X17886454Y3549876D02*
X17816811Y3611781D01*
X17685263Y3673686D01*
X17499549Y3673686D01*
X17383478Y3611781D01*
X17337049Y3487972D01*
X17422168Y2807019D01*
X16044787Y2930829D02*
X16114430Y2868924D01*
X16307882Y2807019D01*
X16431692Y2807019D01*
X16609668Y2868924D01*
X16718001Y2992734D01*
X16764430Y3116543D01*
X16795382Y3364162D01*
X16772168Y3549876D01*
X16679311Y3797495D01*
X16601930Y3921305D01*
X16462644Y4045114D01*
X16269192Y4107019D01*
X16145382Y4107019D01*
X15967406Y4045114D01*
X15913240Y3983210D01*
X15317406Y2807019D02*
X15433478Y2868924D01*
X15487644Y2930829D01*
X15534073Y3054638D01*
X15487644Y3426067D01*
X15410263Y3549876D01*
X15340620Y3611781D01*
X15209073Y3673686D01*
X15023359Y3673686D01*
X14907287Y3611781D01*
X14853120Y3549876D01*
X14806692Y3426067D01*
X14853120Y3054638D01*
X14930501Y2930829D01*
X15000144Y2868924D01*
X15131692Y2807019D01*
X15317406Y2807019D01*
X14141216Y2807019D02*
X14257287Y2868924D01*
X14303716Y2992734D01*
X14164430Y4107019D01*
X13460263Y2807019D02*
X13576335Y2868924D01*
X13630501Y2930829D01*
X13676930Y3054638D01*
X13630501Y3426067D01*
X13553120Y3549876D01*
X13483478Y3611781D01*
X13351930Y3673686D01*
X13166216Y3673686D01*
X13050144Y3611781D01*
X12995978Y3549876D01*
X12949549Y3426067D01*
X12995978Y3054638D01*
X13073359Y2930829D01*
X13143001Y2868924D01*
X13274549Y2807019D01*
X13460263Y2807019D01*
X12469787Y2807019D02*
X12361454Y3673686D01*
X12376930Y3549876D02*
X12307287Y3611781D01*
X12175740Y3673686D01*
X11990025Y3673686D01*
X11873954Y3611781D01*
X11827525Y3487972D01*
X11912644Y2807019D01*
X11827525Y3487972D02*
X11750144Y3611781D01*
X11618597Y3673686D01*
X11432882Y3673686D01*
X11316811Y3611781D01*
X11270382Y3487972D01*
X11355501Y2807019D01*
X10736454Y2807019D02*
X10573954Y4107019D01*
X10635859Y3611781D02*
X10504311Y3673686D01*
X10256692Y3673686D01*
X10140620Y3611781D01*
X10086454Y3549876D01*
X10040025Y3426067D01*
X10086454Y3054638D01*
X10163835Y2930829D01*
X10233478Y2868924D01*
X10365025Y2807019D01*
X10612644Y2807019D01*
X10728716Y2868924D01*
X9560263Y2807019D02*
X9451930Y3673686D01*
X9397763Y4107019D02*
X9467406Y4045114D01*
X9413240Y3983210D01*
X9343597Y4045114D01*
X9397763Y4107019D01*
X9413240Y3983210D01*
X8384073Y2807019D02*
X8298954Y3487972D01*
X8345382Y3611781D01*
X8461454Y3673686D01*
X8709073Y3673686D01*
X8840620Y3611781D01*
X8376335Y2868924D02*
X8507882Y2807019D01*
X8817406Y2807019D01*
X8933478Y2868924D01*
X8979906Y2992734D01*
X8964430Y3116543D01*
X8887049Y3240353D01*
X8755501Y3302257D01*
X8445978Y3302257D01*
X8314430Y3364162D01*
D10*
X91300000Y2400000D02*
X105700000Y2400000D01*
X91300000Y10100000D02*
X91300000Y2400000D01*
X105700000Y10100000D02*
X91300000Y10100000D01*
X105700000Y2400000D02*
X105700000Y10100000D01*
D12*
X104435714Y8071429D02*
X104435714Y9571429D01*
X103578571Y8071429D01*
X103578571Y9571429D01*
X102864285Y8071429D02*
X102864285Y9071429D01*
X102864285Y9571429D02*
X102935714Y9500000D01*
X102864285Y9428572D01*
X102792857Y9500000D01*
X102864285Y9571429D01*
X102864285Y9428572D01*
X102292857Y8071429D02*
X101507142Y9071429D01*
X102292857Y9071429D02*
X101507142Y8071429D01*
X100935714Y8071429D02*
X100935714Y9071429D01*
X100935714Y9571429D02*
X101007142Y9500000D01*
X100935714Y9428572D01*
X100864285Y9500000D01*
X100935714Y9571429D01*
X100935714Y9428572D01*
X99650000Y8142858D02*
X99792857Y8071429D01*
X100078571Y8071429D01*
X100221428Y8142858D01*
X100292857Y8285715D01*
X100292857Y8857143D01*
X100221428Y9000000D01*
X100078571Y9071429D01*
X99792857Y9071429D01*
X99650000Y9000000D01*
X99578571Y8857143D01*
X99578571Y8714286D01*
X100292857Y8571429D01*
X96935714Y8214286D02*
X97007142Y8142858D01*
X97221428Y8071429D01*
X97364285Y8071429D01*
X97578571Y8142858D01*
X97721428Y8285715D01*
X97792857Y8428572D01*
X97864285Y8714286D01*
X97864285Y8928572D01*
X97792857Y9214286D01*
X97721428Y9357143D01*
X97578571Y9500000D01*
X97364285Y9571429D01*
X97221428Y9571429D01*
X97007142Y9500000D01*
X96935714Y9428572D01*
X96078571Y8071429D02*
X96221428Y8142858D01*
X96292857Y8285715D01*
X96292857Y9571429D01*
X95292857Y8071429D02*
X95435714Y8142858D01*
X95507142Y8214286D01*
X95578571Y8357143D01*
X95578571Y8785715D01*
X95507142Y8928572D01*
X95435714Y9000000D01*
X95292857Y9071429D01*
X95078571Y9071429D01*
X94935714Y9000000D01*
X94864285Y8928572D01*
X94792857Y8785715D01*
X94792857Y8357143D01*
X94864285Y8214286D01*
X94935714Y8142858D01*
X95078571Y8071429D01*
X95292857Y8071429D01*
X93507142Y8142858D02*
X93650000Y8071429D01*
X93935714Y8071429D01*
X94078571Y8142858D01*
X94150000Y8214286D01*
X94221428Y8357143D01*
X94221428Y8785715D01*
X94150000Y8928572D01*
X94078571Y9000000D01*
X93935714Y9071429D01*
X93650000Y9071429D01*
X93507142Y9000000D01*
X92864285Y8071429D02*
X92864285Y9571429D01*
X92721428Y8642858D02*
X92292857Y8071429D01*
X92292857Y9071429D02*
X92864285Y8500000D01*
X102721428Y7021429D02*
X102221428Y5521429D01*
X101721428Y7021429D01*
X100650000Y5592858D02*
X100792857Y5521429D01*
X101078571Y5521429D01*
X101221428Y5592858D01*
X101292857Y5735715D01*
X101292857Y6307143D01*
X101221428Y6450000D01*
X101078571Y6521429D01*
X100792857Y6521429D01*
X100650000Y6450000D01*
X100578571Y6307143D01*
X100578571Y6164286D01*
X101292857Y6021429D01*
X99935714Y5521429D02*
X99935714Y6521429D01*
X99935714Y6235715D02*
X99864285Y6378572D01*
X99792857Y6450000D01*
X99650000Y6521429D01*
X99507142Y6521429D01*
X99007142Y6092858D02*
X97864285Y6092858D01*
X97292857Y7021429D02*
X96364285Y7021429D01*
X96864285Y6450000D01*
X96650000Y6450000D01*
X96507142Y6378572D01*
X96435714Y6307143D01*
X96364285Y6164286D01*
X96364285Y5807143D01*
X96435714Y5664286D01*
X96507142Y5592858D01*
X96650000Y5521429D01*
X97078571Y5521429D01*
X97221428Y5592858D01*
X97292857Y5664286D01*
X95721428Y5664286D02*
X95650000Y5592858D01*
X95721428Y5521429D01*
X95792857Y5592858D01*
X95721428Y5664286D01*
X95721428Y5521429D01*
X94221428Y5521429D02*
X95078571Y5521429D01*
X94650000Y5521429D02*
X94650000Y7021429D01*
X94792857Y6807143D01*
X94935714Y6664286D01*
X95078571Y6592858D01*
X103685714Y2971429D02*
X103685714Y4471429D01*
X103328571Y4471429D01*
X103114285Y4400000D01*
X102971428Y4257143D01*
X102900000Y4114286D01*
X102828571Y3828572D01*
X102828571Y3614286D01*
X102900000Y3328572D01*
X102971428Y3185715D01*
X103114285Y3042858D01*
X103328571Y2971429D01*
X103685714Y2971429D01*
X102185714Y2971429D02*
X102185714Y4471429D01*
X100614285Y3114286D02*
X100685714Y3042858D01*
X100900000Y2971429D01*
X101042857Y2971429D01*
X101257142Y3042858D01*
X101400000Y3185715D01*
X101471428Y3328572D01*
X101542857Y3614286D01*
X101542857Y3828572D01*
X101471428Y4114286D01*
X101400000Y4257143D01*
X101257142Y4400000D01*
X101042857Y4471429D01*
X100900000Y4471429D01*
X100685714Y4400000D01*
X100614285Y4328572D01*
X99971428Y3542858D02*
X98828571Y3542858D01*
X98185714Y4328572D02*
X98114285Y4400000D01*
X97971428Y4471429D01*
X97614285Y4471429D01*
X97471428Y4400000D01*
X97400000Y4328572D01*
X97328571Y4185715D01*
X97328571Y4042858D01*
X97400000Y3828572D01*
X98257142Y2971429D01*
X97328571Y2971429D01*
X96400000Y4471429D02*
X96257142Y4471429D01*
X96114285Y4400000D01*
X96042857Y4328572D01*
X95971428Y4185715D01*
X95900000Y3900000D01*
X95900000Y3542858D01*
X95971428Y3257143D01*
X96042857Y3114286D01*
X96114285Y3042858D01*
X96257142Y2971429D01*
X96400000Y2971429D01*
X96542857Y3042858D01*
X96614285Y3114286D01*
X96685714Y3257143D01*
X96757142Y3542858D01*
X96757142Y3900000D01*
X96685714Y4185715D01*
X96614285Y4328572D01*
X96542857Y4400000D01*
X96400000Y4471429D01*
X94471428Y2971429D02*
X95328571Y2971429D01*
X94900000Y2971429D02*
X94900000Y4471429D01*
X95042857Y4257143D01*
X95185714Y4114286D01*
X95328571Y4042858D01*
X93614285Y3828572D02*
X93757142Y3900000D01*
X93828571Y3971429D01*
X93900000Y4114286D01*
X93900000Y4185715D01*
X93828571Y4328572D01*
X93757142Y4400000D01*
X93614285Y4471429D01*
X93328571Y4471429D01*
X93185714Y4400000D01*
X93114285Y4328572D01*
X93042857Y4185715D01*
X93042857Y4114286D01*
X93114285Y3971429D01*
X93185714Y3900000D01*
X93328571Y3828572D01*
X93614285Y3828572D01*
X93757142Y3757143D01*
X93828571Y3685715D01*
X93900000Y3542858D01*
X93900000Y3257143D01*
X93828571Y3114286D01*
X93757142Y3042858D01*
X93614285Y2971429D01*
X93328571Y2971429D01*
X93185714Y3042858D01*
X93114285Y3114286D01*
X93042857Y3257143D01*
X93042857Y3542858D01*
X93114285Y3685715D01*
X93185714Y3757143D01*
X93328571Y3828572D01*
D10*
X91400000Y10000000D02*
X105600000Y10000000D01*
X105600000Y9200000D02*
X105600000Y2500000D01*
X105600000Y10000000D02*
X105600000Y9200000D01*
X105600000Y2500000D02*
X91400000Y2500000D01*
X91400000Y2500000D02*
X91400000Y9700000D01*
X91400000Y9700000D02*
X91400000Y10000000D01*
D13*
G04 #@! TO.C,NT1*
X23250000Y13700000D02*
G75*
G02X2250000Y13700000I-10500000J10500000D01*
G01*
X2250000Y13700000D02*
X2250000Y37100000D01*
X23250000Y37100000D02*
X23250000Y13700000D01*
X2250000Y37100000D02*
G75*
G02X23250000Y37100000I10500000J-10500000D01*
G01*
X14950000Y25400000D02*
G75*
G03X14950000Y25400000I-2200000J0D01*
G01*
G04 #@! TO.C,NT2*
X51250000Y13700000D02*
G75*
G02X30250000Y13700000I-10500000J10500000D01*
G01*
X30250000Y13700000D02*
X30250000Y37100000D01*
X51250000Y37100000D02*
X51250000Y13700000D01*
X30250000Y37100000D02*
G75*
G02X51250000Y37100000I10500000J-10500000D01*
G01*
X42950000Y25400000D02*
G75*
G03X42950000Y25400000I-2200000J0D01*
G01*
G04 #@! TO.C,NT3*
X94750000Y13700000D02*
G75*
G02X73750000Y13700000I-10500000J10500000D01*
G01*
X73750000Y13700000D02*
X73750000Y37100000D01*
X94750000Y37100000D02*
X94750000Y13700000D01*
X73750000Y37100000D02*
G75*
G02X94750000Y37100000I10500000J-10500000D01*
G01*
X86450000Y25400000D02*
G75*
G03X86450000Y25400000I-2200000J0D01*
G01*
G04 #@! TO.C,NT4*
X122750000Y13700000D02*
G75*
G02X101750000Y13700000I-10500000J10500000D01*
G01*
X101750000Y13700000D02*
X101750000Y37100000D01*
X122750000Y37100000D02*
X122750000Y13700000D01*
X101750000Y37100000D02*
G75*
G02X122750000Y37100000I10500000J-10500000D01*
G01*
X114450000Y25400000D02*
G75*
G03X114450000Y25400000I-2200000J0D01*
G01*
D14*
G04 #@! TO.C,G\002A\002A\002A*
G36*
X63400546Y21763181D02*
X63412091Y21751636D01*
X63423637Y21763181D01*
X63412091Y21774727D01*
X63400546Y21763181D01*
X63400546Y21763181D01*
G37*
X63400546Y21763181D02*
X63412091Y21751636D01*
X63423637Y21763181D01*
X63412091Y21774727D01*
X63400546Y21763181D01*
G36*
X61006962Y28049681D02*
X61016080Y27952670D01*
X61026544Y27834446D01*
X61036160Y27719839D01*
X61036562Y27714863D01*
X61051913Y27524363D01*
X60745091Y27524363D01*
X60745345Y27426227D01*
X60749196Y27338430D01*
X60758301Y27251856D01*
X60759912Y27241500D01*
X60774225Y27154909D01*
X60932840Y27154909D01*
X61016838Y27153609D01*
X61064636Y27147786D01*
X61086186Y27134550D01*
X61091440Y27111015D01*
X61091455Y27108886D01*
X61093451Y27075528D01*
X61099117Y27001896D01*
X61107972Y26893710D01*
X61119536Y26756690D01*
X61133328Y26596558D01*
X61148865Y26419033D01*
X61160728Y26285185D01*
X61182618Y26037107D01*
X61200155Y25830767D01*
X61213386Y25661928D01*
X61222358Y25526357D01*
X61227119Y25419818D01*
X61227715Y25338077D01*
X61224195Y25276898D01*
X61216605Y25232047D01*
X61204993Y25199289D01*
X61189406Y25174389D01*
X61173323Y25156496D01*
X61121265Y25117485D01*
X61072021Y25099899D01*
X61069414Y25099818D01*
X61040585Y25093741D01*
X61026612Y25067746D01*
X61022507Y25010188D01*
X61022436Y24990136D01*
X61025963Y24900255D01*
X61034432Y24811668D01*
X61037461Y24791041D01*
X61052232Y24701627D01*
X61296980Y24712140D01*
X61426052Y24720148D01*
X61521199Y24732697D01*
X61594613Y24751914D01*
X61644257Y24772717D01*
X61710621Y24801322D01*
X61748559Y24806324D01*
X61765691Y24793890D01*
X61783491Y24762097D01*
X61817722Y24696993D01*
X61865174Y24604970D01*
X61922635Y24492416D01*
X61986891Y24365722D01*
X62054731Y24231278D01*
X62122944Y24095474D01*
X62188316Y23964699D01*
X62247636Y23845343D01*
X62297691Y23743797D01*
X62335270Y23666450D01*
X62357161Y23619693D01*
X62361455Y23608728D01*
X62340358Y23602598D01*
X62284530Y23601453D01*
X62205166Y23605422D01*
X62188273Y23606771D01*
X62105670Y23612202D01*
X62044481Y23613269D01*
X62015908Y23609848D01*
X62015091Y23608680D01*
X62028575Y23588025D01*
X62066848Y23535142D01*
X62126639Y23454330D01*
X62204679Y23349889D01*
X62297698Y23226116D01*
X62402427Y23087312D01*
X62515595Y22937776D01*
X62633933Y22781806D01*
X62754170Y22623702D01*
X62873039Y22467762D01*
X62987267Y22318287D01*
X63093587Y22179575D01*
X63188728Y22055925D01*
X63269419Y21951636D01*
X63332393Y21871007D01*
X63374378Y21818339D01*
X63392105Y21797928D01*
X63392371Y21797818D01*
X63394706Y21812177D01*
X63393134Y21815136D01*
X63379604Y21838895D01*
X63346230Y21897735D01*
X63295909Y21986542D01*
X63231538Y22100202D01*
X63156014Y22233601D01*
X63072232Y22381624D01*
X63043261Y22432818D01*
X62954444Y22589707D01*
X62870267Y22738279D01*
X62794190Y22872438D01*
X62729671Y22986087D01*
X62680170Y23073130D01*
X62649148Y23127468D01*
X62644996Y23134689D01*
X62586466Y23236196D01*
X62796743Y23224207D01*
X62899290Y23219791D01*
X62961628Y23221052D01*
X62989435Y23228449D01*
X62990191Y23239851D01*
X62972941Y23263561D01*
X62930569Y23319949D01*
X62866080Y23405067D01*
X62782481Y23514964D01*
X62682778Y23645694D01*
X62569977Y23793306D01*
X62447085Y23953852D01*
X62378773Y24042986D01*
X62252342Y24208380D01*
X62135089Y24362725D01*
X62029921Y24502122D01*
X61939747Y24622671D01*
X61867476Y24720474D01*
X61816016Y24791631D01*
X61788276Y24832243D01*
X61784182Y24840119D01*
X61799725Y24869992D01*
X61832821Y24905739D01*
X61896440Y24985700D01*
X61948404Y25092995D01*
X61978698Y25203727D01*
X61980191Y25248009D01*
X61977546Y25333164D01*
X61971096Y25454098D01*
X61961178Y25605719D01*
X61948127Y25782935D01*
X61932278Y25980653D01*
X61913967Y26193781D01*
X61912193Y26213737D01*
X61894299Y26414681D01*
X61877757Y26601006D01*
X61863002Y26767755D01*
X61850470Y26909969D01*
X61840599Y27022690D01*
X61833825Y27100960D01*
X61830584Y27139819D01*
X61830364Y27143146D01*
X61851404Y27149206D01*
X61906337Y27153453D01*
X61976582Y27154909D01*
X62122800Y27154909D01*
X62113926Y27287681D01*
X62106335Y27393135D01*
X62096416Y27461155D01*
X62077977Y27500325D01*
X62044828Y27519231D01*
X61990777Y27526459D01*
X61939881Y27529038D01*
X61795728Y27535909D01*
X61768588Y27836091D01*
X61758283Y27950788D01*
X61749498Y28049913D01*
X61743081Y28123817D01*
X61739877Y28162852D01*
X61739724Y28165136D01*
X61727228Y28176564D01*
X61688049Y28184787D01*
X61617291Y28190183D01*
X61510061Y28193127D01*
X61365357Y28194000D01*
X60992714Y28194000D01*
X61006962Y28049681D01*
X61006962Y28049681D01*
G37*
X61006962Y28049681D02*
X61016080Y27952670D01*
X61026544Y27834446D01*
X61036160Y27719839D01*
X61036562Y27714863D01*
X61051913Y27524363D01*
X60745091Y27524363D01*
X60745345Y27426227D01*
X60749196Y27338430D01*
X60758301Y27251856D01*
X60759912Y27241500D01*
X60774225Y27154909D01*
X60932840Y27154909D01*
X61016838Y27153609D01*
X61064636Y27147786D01*
X61086186Y27134550D01*
X61091440Y27111015D01*
X61091455Y27108886D01*
X61093451Y27075528D01*
X61099117Y27001896D01*
X61107972Y26893710D01*
X61119536Y26756690D01*
X61133328Y26596558D01*
X61148865Y26419033D01*
X61160728Y26285185D01*
X61182618Y26037107D01*
X61200155Y25830767D01*
X61213386Y25661928D01*
X61222358Y25526357D01*
X61227119Y25419818D01*
X61227715Y25338077D01*
X61224195Y25276898D01*
X61216605Y25232047D01*
X61204993Y25199289D01*
X61189406Y25174389D01*
X61173323Y25156496D01*
X61121265Y25117485D01*
X61072021Y25099899D01*
X61069414Y25099818D01*
X61040585Y25093741D01*
X61026612Y25067746D01*
X61022507Y25010188D01*
X61022436Y24990136D01*
X61025963Y24900255D01*
X61034432Y24811668D01*
X61037461Y24791041D01*
X61052232Y24701627D01*
X61296980Y24712140D01*
X61426052Y24720148D01*
X61521199Y24732697D01*
X61594613Y24751914D01*
X61644257Y24772717D01*
X61710621Y24801322D01*
X61748559Y24806324D01*
X61765691Y24793890D01*
X61783491Y24762097D01*
X61817722Y24696993D01*
X61865174Y24604970D01*
X61922635Y24492416D01*
X61986891Y24365722D01*
X62054731Y24231278D01*
X62122944Y24095474D01*
X62188316Y23964699D01*
X62247636Y23845343D01*
X62297691Y23743797D01*
X62335270Y23666450D01*
X62357161Y23619693D01*
X62361455Y23608728D01*
X62340358Y23602598D01*
X62284530Y23601453D01*
X62205166Y23605422D01*
X62188273Y23606771D01*
X62105670Y23612202D01*
X62044481Y23613269D01*
X62015908Y23609848D01*
X62015091Y23608680D01*
X62028575Y23588025D01*
X62066848Y23535142D01*
X62126639Y23454330D01*
X62204679Y23349889D01*
X62297698Y23226116D01*
X62402427Y23087312D01*
X62515595Y22937776D01*
X62633933Y22781806D01*
X62754170Y22623702D01*
X62873039Y22467762D01*
X62987267Y22318287D01*
X63093587Y22179575D01*
X63188728Y22055925D01*
X63269419Y21951636D01*
X63332393Y21871007D01*
X63374378Y21818339D01*
X63392105Y21797928D01*
X63392371Y21797818D01*
X63394706Y21812177D01*
X63393134Y21815136D01*
X63379604Y21838895D01*
X63346230Y21897735D01*
X63295909Y21986542D01*
X63231538Y22100202D01*
X63156014Y22233601D01*
X63072232Y22381624D01*
X63043261Y22432818D01*
X62954444Y22589707D01*
X62870267Y22738279D01*
X62794190Y22872438D01*
X62729671Y22986087D01*
X62680170Y23073130D01*
X62649148Y23127468D01*
X62644996Y23134689D01*
X62586466Y23236196D01*
X62796743Y23224207D01*
X62899290Y23219791D01*
X62961628Y23221052D01*
X62989435Y23228449D01*
X62990191Y23239851D01*
X62972941Y23263561D01*
X62930569Y23319949D01*
X62866080Y23405067D01*
X62782481Y23514964D01*
X62682778Y23645694D01*
X62569977Y23793306D01*
X62447085Y23953852D01*
X62378773Y24042986D01*
X62252342Y24208380D01*
X62135089Y24362725D01*
X62029921Y24502122D01*
X61939747Y24622671D01*
X61867476Y24720474D01*
X61816016Y24791631D01*
X61788276Y24832243D01*
X61784182Y24840119D01*
X61799725Y24869992D01*
X61832821Y24905739D01*
X61896440Y24985700D01*
X61948404Y25092995D01*
X61978698Y25203727D01*
X61980191Y25248009D01*
X61977546Y25333164D01*
X61971096Y25454098D01*
X61961178Y25605719D01*
X61948127Y25782935D01*
X61932278Y25980653D01*
X61913967Y26193781D01*
X61912193Y26213737D01*
X61894299Y26414681D01*
X61877757Y26601006D01*
X61863002Y26767755D01*
X61850470Y26909969D01*
X61840599Y27022690D01*
X61833825Y27100960D01*
X61830584Y27139819D01*
X61830364Y27143146D01*
X61851404Y27149206D01*
X61906337Y27153453D01*
X61976582Y27154909D01*
X62122800Y27154909D01*
X62113926Y27287681D01*
X62106335Y27393135D01*
X62096416Y27461155D01*
X62077977Y27500325D01*
X62044828Y27519231D01*
X61990777Y27526459D01*
X61939881Y27529038D01*
X61795728Y27535909D01*
X61768588Y27836091D01*
X61758283Y27950788D01*
X61749498Y28049913D01*
X61743081Y28123817D01*
X61739877Y28162852D01*
X61739724Y28165136D01*
X61727228Y28176564D01*
X61688049Y28184787D01*
X61617291Y28190183D01*
X61510061Y28193127D01*
X61365357Y28194000D01*
X60992714Y28194000D01*
X61006962Y28049681D01*
G36*
X65277699Y23021627D02*
X64932355Y23021565D01*
X64627880Y23021400D01*
X64361618Y23021080D01*
X64130913Y23020555D01*
X63933109Y23019775D01*
X63765549Y23018687D01*
X63625578Y23017242D01*
X63510538Y23015388D01*
X63417775Y23013075D01*
X63344631Y23010252D01*
X63288450Y23006867D01*
X63246577Y23002870D01*
X63216355Y22998211D01*
X63195127Y22992838D01*
X63180238Y22986700D01*
X63169031Y22979747D01*
X63161059Y22973663D01*
X63110695Y22926401D01*
X63076315Y22881300D01*
X63073364Y22874253D01*
X63074201Y22867994D01*
X63081383Y22862477D01*
X63097469Y22857654D01*
X63125019Y22853479D01*
X63166591Y22849905D01*
X63224743Y22846886D01*
X63302036Y22844374D01*
X63401028Y22842324D01*
X63524277Y22840688D01*
X63674343Y22839419D01*
X63853785Y22838471D01*
X64065161Y22837798D01*
X64311030Y22837352D01*
X64593951Y22837087D01*
X64916483Y22836956D01*
X65281185Y22836912D01*
X65508022Y22836909D01*
X67963486Y22836909D01*
X68037289Y22913054D01*
X68081401Y22961803D01*
X68107780Y22997206D01*
X68111091Y23005417D01*
X68088501Y23007618D01*
X68022734Y23009731D01*
X67916794Y23011737D01*
X67773686Y23013614D01*
X67596414Y23015343D01*
X67387984Y23016905D01*
X67151399Y23018279D01*
X66889665Y23019445D01*
X66605785Y23020384D01*
X66302765Y23021075D01*
X65983608Y23021499D01*
X65666569Y23021636D01*
X65277699Y23021627D01*
X65277699Y23021627D01*
G37*
X65277699Y23021627D02*
X64932355Y23021565D01*
X64627880Y23021400D01*
X64361618Y23021080D01*
X64130913Y23020555D01*
X63933109Y23019775D01*
X63765549Y23018687D01*
X63625578Y23017242D01*
X63510538Y23015388D01*
X63417775Y23013075D01*
X63344631Y23010252D01*
X63288450Y23006867D01*
X63246577Y23002870D01*
X63216355Y22998211D01*
X63195127Y22992838D01*
X63180238Y22986700D01*
X63169031Y22979747D01*
X63161059Y22973663D01*
X63110695Y22926401D01*
X63076315Y22881300D01*
X63073364Y22874253D01*
X63074201Y22867994D01*
X63081383Y22862477D01*
X63097469Y22857654D01*
X63125019Y22853479D01*
X63166591Y22849905D01*
X63224743Y22846886D01*
X63302036Y22844374D01*
X63401028Y22842324D01*
X63524277Y22840688D01*
X63674343Y22839419D01*
X63853785Y22838471D01*
X64065161Y22837798D01*
X64311030Y22837352D01*
X64593951Y22837087D01*
X64916483Y22836956D01*
X65281185Y22836912D01*
X65508022Y22836909D01*
X67963486Y22836909D01*
X68037289Y22913054D01*
X68081401Y22961803D01*
X68107780Y22997206D01*
X68111091Y23005417D01*
X68088501Y23007618D01*
X68022734Y23009731D01*
X67916794Y23011737D01*
X67773686Y23013614D01*
X67596414Y23015343D01*
X67387984Y23016905D01*
X67151399Y23018279D01*
X66889665Y23019445D01*
X66605785Y23020384D01*
X66302765Y23021075D01*
X65983608Y23021499D01*
X65666569Y23021636D01*
X65277699Y23021627D01*
G36*
X59179386Y23021489D02*
X58861327Y23021061D01*
X58559325Y23020371D01*
X58276421Y23019439D01*
X58015654Y23018285D01*
X57780066Y23016929D01*
X57572695Y23015389D01*
X57396583Y23013686D01*
X57254770Y23011840D01*
X57150297Y23009870D01*
X57086202Y23007795D01*
X57065534Y23005836D01*
X57070606Y22981658D01*
X57101453Y22938305D01*
X57123942Y22913472D01*
X57198151Y22836909D01*
X59653615Y22836909D01*
X60043402Y22836924D01*
X60389566Y22836999D01*
X60694665Y22837183D01*
X60961260Y22837520D01*
X61191908Y22838058D01*
X61389169Y22838845D01*
X61555602Y22839925D01*
X61693764Y22841347D01*
X61806216Y22843156D01*
X61895517Y22845400D01*
X61964224Y22848125D01*
X62014897Y22851379D01*
X62050095Y22855206D01*
X62072377Y22859656D01*
X62084301Y22864773D01*
X62088426Y22870605D01*
X62087312Y22877199D01*
X62085322Y22881300D01*
X62050314Y22927085D01*
X62000578Y22973663D01*
X61990369Y22981317D01*
X61978564Y22988111D01*
X61962498Y22994094D01*
X61939506Y22999320D01*
X61906923Y23003839D01*
X61862084Y23007703D01*
X61802324Y23010962D01*
X61724977Y23013669D01*
X61627379Y23015875D01*
X61506865Y23017630D01*
X61360769Y23018987D01*
X61186428Y23019997D01*
X60981174Y23020711D01*
X60742344Y23021180D01*
X60467273Y23021455D01*
X60153295Y23021589D01*
X59797746Y23021632D01*
X59510462Y23021636D01*
X59179386Y23021489D01*
X59179386Y23021489D01*
G37*
X59179386Y23021489D02*
X58861327Y23021061D01*
X58559325Y23020371D01*
X58276421Y23019439D01*
X58015654Y23018285D01*
X57780066Y23016929D01*
X57572695Y23015389D01*
X57396583Y23013686D01*
X57254770Y23011840D01*
X57150297Y23009870D01*
X57086202Y23007795D01*
X57065534Y23005836D01*
X57070606Y22981658D01*
X57101453Y22938305D01*
X57123942Y22913472D01*
X57198151Y22836909D01*
X59653615Y22836909D01*
X60043402Y22836924D01*
X60389566Y22836999D01*
X60694665Y22837183D01*
X60961260Y22837520D01*
X61191908Y22838058D01*
X61389169Y22838845D01*
X61555602Y22839925D01*
X61693764Y22841347D01*
X61806216Y22843156D01*
X61895517Y22845400D01*
X61964224Y22848125D01*
X62014897Y22851379D01*
X62050095Y22855206D01*
X62072377Y22859656D01*
X62084301Y22864773D01*
X62088426Y22870605D01*
X62087312Y22877199D01*
X62085322Y22881300D01*
X62050314Y22927085D01*
X62000578Y22973663D01*
X61990369Y22981317D01*
X61978564Y22988111D01*
X61962498Y22994094D01*
X61939506Y22999320D01*
X61906923Y23003839D01*
X61862084Y23007703D01*
X61802324Y23010962D01*
X61724977Y23013669D01*
X61627379Y23015875D01*
X61506865Y23017630D01*
X61360769Y23018987D01*
X61186428Y23019997D01*
X60981174Y23020711D01*
X60742344Y23021180D01*
X60467273Y23021455D01*
X60153295Y23021589D01*
X59797746Y23021632D01*
X59510462Y23021636D01*
X59179386Y23021489D01*
G36*
X63334738Y23298582D02*
X63280041Y23254828D01*
X63245348Y23219131D01*
X63238909Y23206218D01*
X63261950Y23202621D01*
X63330875Y23199325D01*
X63445385Y23196331D01*
X63605184Y23193642D01*
X63809975Y23191261D01*
X64059459Y23189188D01*
X64353340Y23187427D01*
X64691320Y23185978D01*
X65073102Y23184845D01*
X65498388Y23184030D01*
X65966881Y23183533D01*
X66478284Y23183359D01*
X66523591Y23183359D01*
X66978490Y23183388D01*
X67389486Y23183471D01*
X67758860Y23183636D01*
X68088892Y23183912D01*
X68381862Y23184329D01*
X68640049Y23184916D01*
X68865734Y23185702D01*
X69061195Y23186716D01*
X69228714Y23187987D01*
X69370569Y23189545D01*
X69489041Y23191418D01*
X69586410Y23193635D01*
X69664955Y23196227D01*
X69726956Y23199221D01*
X69774693Y23202648D01*
X69810447Y23206536D01*
X69836496Y23210914D01*
X69855120Y23215811D01*
X69868600Y23221258D01*
X69877546Y23226234D01*
X69939827Y23271347D01*
X69990806Y23318512D01*
X70034794Y23368000D01*
X63430566Y23368000D01*
X63334738Y23298582D01*
X63334738Y23298582D01*
G37*
X63334738Y23298582D02*
X63280041Y23254828D01*
X63245348Y23219131D01*
X63238909Y23206218D01*
X63261950Y23202621D01*
X63330875Y23199325D01*
X63445385Y23196331D01*
X63605184Y23193642D01*
X63809975Y23191261D01*
X64059459Y23189188D01*
X64353340Y23187427D01*
X64691320Y23185978D01*
X65073102Y23184845D01*
X65498388Y23184030D01*
X65966881Y23183533D01*
X66478284Y23183359D01*
X66523591Y23183359D01*
X66978490Y23183388D01*
X67389486Y23183471D01*
X67758860Y23183636D01*
X68088892Y23183912D01*
X68381862Y23184329D01*
X68640049Y23184916D01*
X68865734Y23185702D01*
X69061195Y23186716D01*
X69228714Y23187987D01*
X69370569Y23189545D01*
X69489041Y23191418D01*
X69586410Y23193635D01*
X69664955Y23196227D01*
X69726956Y23199221D01*
X69774693Y23202648D01*
X69810447Y23206536D01*
X69836496Y23210914D01*
X69855120Y23215811D01*
X69868600Y23221258D01*
X69877546Y23226234D01*
X69939827Y23271347D01*
X69990806Y23318512D01*
X70034794Y23368000D01*
X63430566Y23368000D01*
X63334738Y23298582D01*
G36*
X58045488Y23367881D02*
X57672023Y23367533D01*
X57313994Y23366969D01*
X56973989Y23366204D01*
X56654593Y23365251D01*
X56358394Y23364123D01*
X56087979Y23362835D01*
X55845934Y23361398D01*
X55634846Y23359828D01*
X55457302Y23358138D01*
X55315890Y23356341D01*
X55213194Y23354451D01*
X55151804Y23352481D01*
X55134001Y23350681D01*
X55150529Y23327314D01*
X55192526Y23287483D01*
X55220592Y23264091D01*
X55307182Y23194818D01*
X58601903Y23188812D01*
X58988268Y23188241D01*
X59361928Y23187948D01*
X59720284Y23187923D01*
X60060735Y23188156D01*
X60380680Y23188636D01*
X60677518Y23189352D01*
X60948650Y23190296D01*
X61191474Y23191455D01*
X61403390Y23192820D01*
X61581798Y23194380D01*
X61724098Y23196124D01*
X61827687Y23198043D01*
X61889967Y23200125D01*
X61908529Y23202070D01*
X61898642Y23225623D01*
X61860441Y23265292D01*
X61825020Y23294667D01*
X61729605Y23368000D01*
X58431803Y23368000D01*
X58045488Y23367881D01*
X58045488Y23367881D01*
G37*
X58045488Y23367881D02*
X57672023Y23367533D01*
X57313994Y23366969D01*
X56973989Y23366204D01*
X56654593Y23365251D01*
X56358394Y23364123D01*
X56087979Y23362835D01*
X55845934Y23361398D01*
X55634846Y23359828D01*
X55457302Y23358138D01*
X55315890Y23356341D01*
X55213194Y23354451D01*
X55151804Y23352481D01*
X55134001Y23350681D01*
X55150529Y23327314D01*
X55192526Y23287483D01*
X55220592Y23264091D01*
X55307182Y23194818D01*
X58601903Y23188812D01*
X58988268Y23188241D01*
X59361928Y23187948D01*
X59720284Y23187923D01*
X60060735Y23188156D01*
X60380680Y23188636D01*
X60677518Y23189352D01*
X60948650Y23190296D01*
X61191474Y23191455D01*
X61403390Y23192820D01*
X61581798Y23194380D01*
X61724098Y23196124D01*
X61827687Y23198043D01*
X61889967Y23200125D01*
X61908529Y23202070D01*
X61898642Y23225623D01*
X61860441Y23265292D01*
X61825020Y23294667D01*
X61729605Y23368000D01*
X58431803Y23368000D01*
X58045488Y23367881D01*
G36*
X67304219Y23785105D02*
X66936842Y23784725D01*
X66575086Y23784136D01*
X66221829Y23783337D01*
X65879947Y23782329D01*
X65552321Y23781114D01*
X65241826Y23779690D01*
X64951341Y23778060D01*
X64683744Y23776222D01*
X64441913Y23774179D01*
X64228726Y23771929D01*
X64047060Y23769474D01*
X63899794Y23766814D01*
X63789805Y23763950D01*
X63719972Y23760882D01*
X63693437Y23757774D01*
X63646287Y23726719D01*
X63590629Y23680924D01*
X63538616Y23631689D01*
X63502398Y23590316D01*
X63492909Y23571288D01*
X63515605Y23569300D01*
X63582114Y23567383D01*
X63690066Y23565548D01*
X63837091Y23563806D01*
X64020822Y23562166D01*
X64238888Y23560640D01*
X64488919Y23559238D01*
X64768548Y23557970D01*
X65075404Y23556848D01*
X65407119Y23555881D01*
X65761323Y23555081D01*
X66135646Y23554457D01*
X66527720Y23554021D01*
X66935175Y23553783D01*
X67355642Y23553753D01*
X67424137Y23553768D01*
X67950864Y23553982D01*
X68433026Y23554337D01*
X68872243Y23554848D01*
X69270130Y23555525D01*
X69628307Y23556379D01*
X69948390Y23557423D01*
X70231996Y23558669D01*
X70480745Y23560127D01*
X70696253Y23561810D01*
X70880137Y23563730D01*
X71034016Y23565898D01*
X71159507Y23568325D01*
X71258228Y23571024D01*
X71331796Y23574006D01*
X71381829Y23577283D01*
X71409944Y23580867D01*
X71415987Y23582632D01*
X71475117Y23616861D01*
X71536767Y23663109D01*
X71588553Y23710718D01*
X71618093Y23749025D01*
X71620909Y23759054D01*
X71598298Y23762308D01*
X71532384Y23765344D01*
X71426044Y23768163D01*
X71282156Y23770766D01*
X71103599Y23773152D01*
X70893250Y23775323D01*
X70653987Y23777279D01*
X70388687Y23779020D01*
X70100230Y23780547D01*
X69791492Y23781860D01*
X69465351Y23782959D01*
X69124686Y23783846D01*
X68772375Y23784521D01*
X68411294Y23784984D01*
X68044323Y23785235D01*
X67674339Y23785276D01*
X67304219Y23785105D01*
X67304219Y23785105D01*
G37*
X67304219Y23785105D02*
X66936842Y23784725D01*
X66575086Y23784136D01*
X66221829Y23783337D01*
X65879947Y23782329D01*
X65552321Y23781114D01*
X65241826Y23779690D01*
X64951341Y23778060D01*
X64683744Y23776222D01*
X64441913Y23774179D01*
X64228726Y23771929D01*
X64047060Y23769474D01*
X63899794Y23766814D01*
X63789805Y23763950D01*
X63719972Y23760882D01*
X63693437Y23757774D01*
X63646287Y23726719D01*
X63590629Y23680924D01*
X63538616Y23631689D01*
X63502398Y23590316D01*
X63492909Y23571288D01*
X63515605Y23569300D01*
X63582114Y23567383D01*
X63690066Y23565548D01*
X63837091Y23563806D01*
X64020822Y23562166D01*
X64238888Y23560640D01*
X64488919Y23559238D01*
X64768548Y23557970D01*
X65075404Y23556848D01*
X65407119Y23555881D01*
X65761323Y23555081D01*
X66135646Y23554457D01*
X66527720Y23554021D01*
X66935175Y23553783D01*
X67355642Y23553753D01*
X67424137Y23553768D01*
X67950864Y23553982D01*
X68433026Y23554337D01*
X68872243Y23554848D01*
X69270130Y23555525D01*
X69628307Y23556379D01*
X69948390Y23557423D01*
X70231996Y23558669D01*
X70480745Y23560127D01*
X70696253Y23561810D01*
X70880137Y23563730D01*
X71034016Y23565898D01*
X71159507Y23568325D01*
X71258228Y23571024D01*
X71331796Y23574006D01*
X71381829Y23577283D01*
X71409944Y23580867D01*
X71415987Y23582632D01*
X71475117Y23616861D01*
X71536767Y23663109D01*
X71588553Y23710718D01*
X71618093Y23749025D01*
X71620909Y23759054D01*
X71598298Y23762308D01*
X71532384Y23765344D01*
X71426044Y23768163D01*
X71282156Y23770766D01*
X71103599Y23773152D01*
X70893250Y23775323D01*
X70653987Y23777279D01*
X70388687Y23779020D01*
X70100230Y23780547D01*
X69791492Y23781860D01*
X69465351Y23782959D01*
X69124686Y23783846D01*
X68772375Y23784521D01*
X68411294Y23784984D01*
X68044323Y23785235D01*
X67674339Y23785276D01*
X67304219Y23785105D01*
G36*
X55544869Y23779463D02*
X55206992Y23779307D01*
X54893381Y23779016D01*
X54606425Y23778593D01*
X54348518Y23778042D01*
X54122052Y23777366D01*
X53929419Y23776571D01*
X53773012Y23775658D01*
X53655221Y23774631D01*
X53578440Y23773495D01*
X53545060Y23772253D01*
X53543900Y23772042D01*
X53527045Y23752785D01*
X53546558Y23719853D01*
X53604386Y23671012D01*
X53673955Y23622673D01*
X53779554Y23552727D01*
X57711233Y23552727D01*
X58201673Y23552851D01*
X58666121Y23553218D01*
X59103045Y23553819D01*
X59510915Y23554646D01*
X59888201Y23555691D01*
X60233371Y23556946D01*
X60544896Y23558401D01*
X60821245Y23560050D01*
X61060888Y23561884D01*
X61262293Y23563894D01*
X61423930Y23566072D01*
X61544270Y23568410D01*
X61621780Y23570900D01*
X61654931Y23573533D01*
X61656090Y23574050D01*
X61646729Y23598655D01*
X61609111Y23641119D01*
X61561441Y23683732D01*
X61453613Y23772091D01*
X57514488Y23778088D01*
X57091173Y23778662D01*
X56680161Y23779084D01*
X56283845Y23779355D01*
X55904617Y23779480D01*
X55544869Y23779463D01*
X55544869Y23779463D01*
G37*
X55544869Y23779463D02*
X55206992Y23779307D01*
X54893381Y23779016D01*
X54606425Y23778593D01*
X54348518Y23778042D01*
X54122052Y23777366D01*
X53929419Y23776571D01*
X53773012Y23775658D01*
X53655221Y23774631D01*
X53578440Y23773495D01*
X53545060Y23772253D01*
X53543900Y23772042D01*
X53527045Y23752785D01*
X53546558Y23719853D01*
X53604386Y23671012D01*
X53673955Y23622673D01*
X53779554Y23552727D01*
X57711233Y23552727D01*
X58201673Y23552851D01*
X58666121Y23553218D01*
X59103045Y23553819D01*
X59510915Y23554646D01*
X59888201Y23555691D01*
X60233371Y23556946D01*
X60544896Y23558401D01*
X60821245Y23560050D01*
X61060888Y23561884D01*
X61262293Y23563894D01*
X61423930Y23566072D01*
X61544270Y23568410D01*
X61621780Y23570900D01*
X61654931Y23573533D01*
X61656090Y23574050D01*
X61646729Y23598655D01*
X61609111Y23641119D01*
X61561441Y23683732D01*
X61453613Y23772091D01*
X57514488Y23778088D01*
X57091173Y23778662D01*
X56680161Y23779084D01*
X56283845Y23779355D01*
X55904617Y23779480D01*
X55544869Y23779463D01*
G36*
X71380450Y28791408D02*
X71158603Y28789704D01*
X71153526Y28789658D01*
X70937287Y28787583D01*
X70762001Y28785477D01*
X70622439Y28783009D01*
X70513373Y28779849D01*
X70429573Y28775666D01*
X70365812Y28770132D01*
X70316860Y28762916D01*
X70277490Y28753687D01*
X70242474Y28742117D01*
X70212364Y28730250D01*
X70055845Y28650301D01*
X69919853Y28549801D01*
X69815815Y28437571D01*
X69796560Y28409381D01*
X69770732Y28367985D01*
X69748824Y28328986D01*
X69730843Y28288713D01*
X69716791Y28243495D01*
X69706674Y28189663D01*
X69700495Y28123546D01*
X69698260Y28041474D01*
X69699972Y27939776D01*
X69705635Y27814784D01*
X69715255Y27662825D01*
X69728835Y27480231D01*
X69746380Y27263331D01*
X69767894Y27008455D01*
X69793382Y26711931D01*
X69798643Y26650936D01*
X69819996Y26399330D01*
X69839619Y26160086D01*
X69857212Y25937396D01*
X69872476Y25735448D01*
X69885113Y25558432D01*
X69894824Y25410540D01*
X69901310Y25295959D01*
X69904273Y25218882D01*
X69903412Y25183497D01*
X69903332Y25183156D01*
X69865194Y25119422D01*
X69820885Y25093152D01*
X69783431Y25076225D01*
X69765054Y25053140D01*
X69760894Y25010393D01*
X69765647Y24939688D01*
X69774541Y24834655D01*
X69785341Y24767119D01*
X69806380Y24728846D01*
X69845990Y24711601D01*
X69912504Y24707148D01*
X70000795Y24707272D01*
X70182618Y24716605D01*
X70328521Y24745918D01*
X70445106Y24797180D01*
X70532741Y24866013D01*
X70564500Y24897888D01*
X70591495Y24927622D01*
X70613786Y24958859D01*
X70631431Y24995240D01*
X70644488Y25040410D01*
X70653015Y25098011D01*
X70657070Y25171686D01*
X70656712Y25265078D01*
X70651999Y25381830D01*
X70642988Y25525584D01*
X70629739Y25699984D01*
X70612309Y25908672D01*
X70590757Y26155291D01*
X70565140Y26443484D01*
X70559040Y26511983D01*
X70531323Y26824433D01*
X70507687Y27094292D01*
X70487965Y27324957D01*
X70471991Y27519823D01*
X70459595Y27682286D01*
X70450612Y27815740D01*
X70444874Y27923583D01*
X70442214Y28009210D01*
X70442464Y28076016D01*
X70445458Y28127397D01*
X70451028Y28166749D01*
X70459006Y28197467D01*
X70469226Y28222947D01*
X70474261Y28233127D01*
X70521380Y28308412D01*
X70576834Y28358161D01*
X70650811Y28387085D01*
X70753498Y28399897D01*
X70838933Y28401818D01*
X70929695Y28399693D01*
X70999818Y28394007D01*
X71038922Y28385792D01*
X71043637Y28381450D01*
X71045614Y28352358D01*
X71051293Y28281613D01*
X71060293Y28173562D01*
X71072234Y28032553D01*
X71086734Y27862934D01*
X71103415Y27669053D01*
X71121895Y27455257D01*
X71141793Y27225895D01*
X71162730Y26985314D01*
X71184325Y26737861D01*
X71206197Y26487885D01*
X71227967Y26239733D01*
X71249253Y25997753D01*
X71269675Y25766293D01*
X71288853Y25549701D01*
X71306407Y25352323D01*
X71321955Y25178509D01*
X71335118Y25032606D01*
X71345515Y24918961D01*
X71352766Y24841923D01*
X71356489Y24805838D01*
X71356546Y24805409D01*
X71369739Y24707272D01*
X71737779Y24707272D01*
X71862267Y24708298D01*
X71968749Y24711133D01*
X72049483Y24715411D01*
X72096726Y24720770D01*
X72105810Y24724591D01*
X72103850Y24752604D01*
X72098228Y24822298D01*
X72089318Y24929347D01*
X72077495Y25069427D01*
X72063134Y25238212D01*
X72046612Y25431379D01*
X72028302Y25644602D01*
X72008581Y25873557D01*
X71987823Y26113919D01*
X71966404Y26361362D01*
X71944699Y26611564D01*
X71923083Y26860197D01*
X71901931Y27102938D01*
X71881618Y27335463D01*
X71862521Y27553446D01*
X71845013Y27752562D01*
X71829471Y27928487D01*
X71816269Y28076896D01*
X71805782Y28193464D01*
X71798387Y28273867D01*
X71794457Y28313780D01*
X71794288Y28315227D01*
X71780955Y28424909D01*
X72011717Y28424909D01*
X71999096Y28580772D01*
X71991334Y28664552D01*
X71983324Y28731846D01*
X71977081Y28766849D01*
X71966459Y28775038D01*
X71937597Y28781484D01*
X71886517Y28786296D01*
X71809241Y28789584D01*
X71701790Y28791459D01*
X71560186Y28792030D01*
X71380450Y28791408D01*
X71380450Y28791408D01*
G37*
X71380450Y28791408D02*
X71158603Y28789704D01*
X71153526Y28789658D01*
X70937287Y28787583D01*
X70762001Y28785477D01*
X70622439Y28783009D01*
X70513373Y28779849D01*
X70429573Y28775666D01*
X70365812Y28770132D01*
X70316860Y28762916D01*
X70277490Y28753687D01*
X70242474Y28742117D01*
X70212364Y28730250D01*
X70055845Y28650301D01*
X69919853Y28549801D01*
X69815815Y28437571D01*
X69796560Y28409381D01*
X69770732Y28367985D01*
X69748824Y28328986D01*
X69730843Y28288713D01*
X69716791Y28243495D01*
X69706674Y28189663D01*
X69700495Y28123546D01*
X69698260Y28041474D01*
X69699972Y27939776D01*
X69705635Y27814784D01*
X69715255Y27662825D01*
X69728835Y27480231D01*
X69746380Y27263331D01*
X69767894Y27008455D01*
X69793382Y26711931D01*
X69798643Y26650936D01*
X69819996Y26399330D01*
X69839619Y26160086D01*
X69857212Y25937396D01*
X69872476Y25735448D01*
X69885113Y25558432D01*
X69894824Y25410540D01*
X69901310Y25295959D01*
X69904273Y25218882D01*
X69903412Y25183497D01*
X69903332Y25183156D01*
X69865194Y25119422D01*
X69820885Y25093152D01*
X69783431Y25076225D01*
X69765054Y25053140D01*
X69760894Y25010393D01*
X69765647Y24939688D01*
X69774541Y24834655D01*
X69785341Y24767119D01*
X69806380Y24728846D01*
X69845990Y24711601D01*
X69912504Y24707148D01*
X70000795Y24707272D01*
X70182618Y24716605D01*
X70328521Y24745918D01*
X70445106Y24797180D01*
X70532741Y24866013D01*
X70564500Y24897888D01*
X70591495Y24927622D01*
X70613786Y24958859D01*
X70631431Y24995240D01*
X70644488Y25040410D01*
X70653015Y25098011D01*
X70657070Y25171686D01*
X70656712Y25265078D01*
X70651999Y25381830D01*
X70642988Y25525584D01*
X70629739Y25699984D01*
X70612309Y25908672D01*
X70590757Y26155291D01*
X70565140Y26443484D01*
X70559040Y26511983D01*
X70531323Y26824433D01*
X70507687Y27094292D01*
X70487965Y27324957D01*
X70471991Y27519823D01*
X70459595Y27682286D01*
X70450612Y27815740D01*
X70444874Y27923583D01*
X70442214Y28009210D01*
X70442464Y28076016D01*
X70445458Y28127397D01*
X70451028Y28166749D01*
X70459006Y28197467D01*
X70469226Y28222947D01*
X70474261Y28233127D01*
X70521380Y28308412D01*
X70576834Y28358161D01*
X70650811Y28387085D01*
X70753498Y28399897D01*
X70838933Y28401818D01*
X70929695Y28399693D01*
X70999818Y28394007D01*
X71038922Y28385792D01*
X71043637Y28381450D01*
X71045614Y28352358D01*
X71051293Y28281613D01*
X71060293Y28173562D01*
X71072234Y28032553D01*
X71086734Y27862934D01*
X71103415Y27669053D01*
X71121895Y27455257D01*
X71141793Y27225895D01*
X71162730Y26985314D01*
X71184325Y26737861D01*
X71206197Y26487885D01*
X71227967Y26239733D01*
X71249253Y25997753D01*
X71269675Y25766293D01*
X71288853Y25549701D01*
X71306407Y25352323D01*
X71321955Y25178509D01*
X71335118Y25032606D01*
X71345515Y24918961D01*
X71352766Y24841923D01*
X71356489Y24805838D01*
X71356546Y24805409D01*
X71369739Y24707272D01*
X71737779Y24707272D01*
X71862267Y24708298D01*
X71968749Y24711133D01*
X72049483Y24715411D01*
X72096726Y24720770D01*
X72105810Y24724591D01*
X72103850Y24752604D01*
X72098228Y24822298D01*
X72089318Y24929347D01*
X72077495Y25069427D01*
X72063134Y25238212D01*
X72046612Y25431379D01*
X72028302Y25644602D01*
X72008581Y25873557D01*
X71987823Y26113919D01*
X71966404Y26361362D01*
X71944699Y26611564D01*
X71923083Y26860197D01*
X71901931Y27102938D01*
X71881618Y27335463D01*
X71862521Y27553446D01*
X71845013Y27752562D01*
X71829471Y27928487D01*
X71816269Y28076896D01*
X71805782Y28193464D01*
X71798387Y28273867D01*
X71794457Y28313780D01*
X71794288Y28315227D01*
X71780955Y28424909D01*
X72011717Y28424909D01*
X71999096Y28580772D01*
X71991334Y28664552D01*
X71983324Y28731846D01*
X71977081Y28766849D01*
X71966459Y28775038D01*
X71937597Y28781484D01*
X71886517Y28786296D01*
X71809241Y28789584D01*
X71701790Y28791459D01*
X71560186Y28792030D01*
X71380450Y28791408D01*
G36*
X68226186Y27460863D02*
X68227990Y27424927D01*
X68233295Y27348049D01*
X68241705Y27235304D01*
X68252823Y27091769D01*
X68266253Y26922518D01*
X68281598Y26732627D01*
X68298462Y26527172D01*
X68309268Y26397055D01*
X68326558Y26183892D01*
X68341947Y25982564D01*
X68355108Y25798252D01*
X68365711Y25636138D01*
X68373430Y25501405D01*
X68377935Y25399234D01*
X68378900Y25334808D01*
X68377663Y25316534D01*
X68351847Y25246349D01*
X68307246Y25175138D01*
X68296714Y25162565D01*
X68260332Y25125311D01*
X68224493Y25102571D01*
X68175951Y25089987D01*
X68101460Y25083197D01*
X68047297Y25080475D01*
X67863781Y25072141D01*
X67851535Y25137934D01*
X67847177Y25173403D01*
X67839320Y25250214D01*
X67828392Y25363698D01*
X67814824Y25509182D01*
X67799046Y25681995D01*
X67781487Y25877466D01*
X67762577Y26090923D01*
X67742746Y26317696D01*
X67738723Y26364045D01*
X67638158Y27524363D01*
X66885682Y27524363D01*
X66898990Y27414681D01*
X66903848Y27367921D01*
X66911896Y27282510D01*
X66922663Y27163977D01*
X66935675Y27017854D01*
X66950460Y26849672D01*
X66966545Y26664962D01*
X66983458Y26469255D01*
X67000725Y26268081D01*
X67017874Y26066972D01*
X67034432Y25871457D01*
X67049927Y25687069D01*
X67063885Y25519338D01*
X67075835Y25373794D01*
X67085303Y25255969D01*
X67091817Y25171394D01*
X67094904Y25125600D01*
X67095091Y25120184D01*
X67087566Y25093183D01*
X67057443Y25080231D01*
X66993400Y25076736D01*
X66987966Y25076727D01*
X66880840Y25076727D01*
X66895401Y24955500D01*
X66903985Y24872192D01*
X66909321Y24797682D01*
X66910163Y24770772D01*
X66910364Y24707272D01*
X67666591Y24709236D01*
X67920274Y24710753D01*
X68129384Y24713903D01*
X68295503Y24718744D01*
X68420213Y24725329D01*
X68505095Y24733715D01*
X68538273Y24739808D01*
X68725030Y24805276D01*
X68878198Y24899774D01*
X68995935Y25021292D01*
X69076397Y25167825D01*
X69117741Y25337363D01*
X69121206Y25374609D01*
X69121477Y25430272D01*
X69117953Y25525072D01*
X69111145Y25652167D01*
X69101565Y25804715D01*
X69089725Y25975873D01*
X69076135Y26158798D01*
X69061307Y26346648D01*
X69045753Y26532580D01*
X69029984Y26709751D01*
X69014511Y26871319D01*
X68999846Y27010441D01*
X68997203Y27033681D01*
X68983225Y27154909D01*
X69078249Y27154909D01*
X69138505Y27157234D01*
X69165714Y27171353D01*
X69172998Y27207981D01*
X69173273Y27232504D01*
X69169969Y27305515D01*
X69161728Y27392532D01*
X69158589Y27417231D01*
X69143905Y27524363D01*
X68226546Y27524363D01*
X68226186Y27460863D01*
X68226186Y27460863D01*
G37*
X68226186Y27460863D02*
X68227990Y27424927D01*
X68233295Y27348049D01*
X68241705Y27235304D01*
X68252823Y27091769D01*
X68266253Y26922518D01*
X68281598Y26732627D01*
X68298462Y26527172D01*
X68309268Y26397055D01*
X68326558Y26183892D01*
X68341947Y25982564D01*
X68355108Y25798252D01*
X68365711Y25636138D01*
X68373430Y25501405D01*
X68377935Y25399234D01*
X68378900Y25334808D01*
X68377663Y25316534D01*
X68351847Y25246349D01*
X68307246Y25175138D01*
X68296714Y25162565D01*
X68260332Y25125311D01*
X68224493Y25102571D01*
X68175951Y25089987D01*
X68101460Y25083197D01*
X68047297Y25080475D01*
X67863781Y25072141D01*
X67851535Y25137934D01*
X67847177Y25173403D01*
X67839320Y25250214D01*
X67828392Y25363698D01*
X67814824Y25509182D01*
X67799046Y25681995D01*
X67781487Y25877466D01*
X67762577Y26090923D01*
X67742746Y26317696D01*
X67738723Y26364045D01*
X67638158Y27524363D01*
X66885682Y27524363D01*
X66898990Y27414681D01*
X66903848Y27367921D01*
X66911896Y27282510D01*
X66922663Y27163977D01*
X66935675Y27017854D01*
X66950460Y26849672D01*
X66966545Y26664962D01*
X66983458Y26469255D01*
X67000725Y26268081D01*
X67017874Y26066972D01*
X67034432Y25871457D01*
X67049927Y25687069D01*
X67063885Y25519338D01*
X67075835Y25373794D01*
X67085303Y25255969D01*
X67091817Y25171394D01*
X67094904Y25125600D01*
X67095091Y25120184D01*
X67087566Y25093183D01*
X67057443Y25080231D01*
X66993400Y25076736D01*
X66987966Y25076727D01*
X66880840Y25076727D01*
X66895401Y24955500D01*
X66903985Y24872192D01*
X66909321Y24797682D01*
X66910163Y24770772D01*
X66910364Y24707272D01*
X67666591Y24709236D01*
X67920274Y24710753D01*
X68129384Y24713903D01*
X68295503Y24718744D01*
X68420213Y24725329D01*
X68505095Y24733715D01*
X68538273Y24739808D01*
X68725030Y24805276D01*
X68878198Y24899774D01*
X68995935Y25021292D01*
X69076397Y25167825D01*
X69117741Y25337363D01*
X69121206Y25374609D01*
X69121477Y25430272D01*
X69117953Y25525072D01*
X69111145Y25652167D01*
X69101565Y25804715D01*
X69089725Y25975873D01*
X69076135Y26158798D01*
X69061307Y26346648D01*
X69045753Y26532580D01*
X69029984Y26709751D01*
X69014511Y26871319D01*
X68999846Y27010441D01*
X68997203Y27033681D01*
X68983225Y27154909D01*
X69078249Y27154909D01*
X69138505Y27157234D01*
X69165714Y27171353D01*
X69172998Y27207981D01*
X69173273Y27232504D01*
X69169969Y27305515D01*
X69161728Y27392532D01*
X69158589Y27417231D01*
X69143905Y27524363D01*
X68226546Y27524363D01*
X68226186Y27460863D01*
G36*
X65446958Y27437772D02*
X65450961Y27397341D01*
X65458447Y27315935D01*
X65468972Y27198592D01*
X65482093Y27050352D01*
X65497364Y26876255D01*
X65514342Y26681339D01*
X65532582Y26470644D01*
X65548224Y26289000D01*
X65567174Y26069474D01*
X65585270Y25861894D01*
X65602064Y25671249D01*
X65617108Y25502527D01*
X65629955Y25360717D01*
X65640157Y25250806D01*
X65647267Y25177783D01*
X65650499Y25148766D01*
X65661527Y25070714D01*
X65554679Y25085359D01*
X65425291Y25122181D01*
X65297317Y25192100D01*
X65197102Y25276712D01*
X65163075Y25314246D01*
X65134130Y25352171D01*
X65109420Y25394878D01*
X65088100Y25446760D01*
X65069324Y25512207D01*
X65052247Y25595610D01*
X65036024Y25701361D01*
X65019807Y25833851D01*
X65002752Y25997471D01*
X64984014Y26196612D01*
X64962746Y26435666D01*
X64953492Y26541702D01*
X64867998Y27524363D01*
X64117247Y27524363D01*
X64129013Y27426227D01*
X64133954Y27378315D01*
X64142131Y27291184D01*
X64152937Y27171635D01*
X64165767Y27026470D01*
X64180014Y26862491D01*
X64195074Y26686500D01*
X64198431Y26646909D01*
X64218292Y26419009D01*
X64236334Y26231064D01*
X64253699Y26076940D01*
X64271528Y25950505D01*
X64290963Y25845626D01*
X64313147Y25756170D01*
X64339220Y25676005D01*
X64370326Y25598998D01*
X64407606Y25519016D01*
X64408965Y25516233D01*
X64495817Y25372621D01*
X64614401Y25224226D01*
X64753270Y25082653D01*
X64900980Y24959508D01*
X65046086Y24866393D01*
X65053927Y24862290D01*
X65155926Y24813002D01*
X65252662Y24775161D01*
X65352592Y24747337D01*
X65464175Y24728101D01*
X65595868Y24716024D01*
X65756131Y24709678D01*
X65953420Y24707633D01*
X65969409Y24707614D01*
X66425455Y24707272D01*
X66425455Y24758837D01*
X66423513Y24793904D01*
X66418001Y24869412D01*
X66409393Y24979798D01*
X66398160Y25119497D01*
X66384776Y25282946D01*
X66369712Y25464583D01*
X66353441Y25658842D01*
X66336437Y25860160D01*
X66319170Y26062974D01*
X66302115Y26261721D01*
X66285743Y26450836D01*
X66270527Y26624756D01*
X66256939Y26777917D01*
X66245452Y26904756D01*
X66236539Y26999709D01*
X66230671Y27057213D01*
X66229306Y27068318D01*
X66217091Y27154909D01*
X66419782Y27154909D01*
X66409961Y27264591D01*
X66401307Y27349549D01*
X66391561Y27429137D01*
X66388661Y27449318D01*
X66377180Y27524363D01*
X65436940Y27524363D01*
X65446958Y27437772D01*
X65446958Y27437772D01*
G37*
X65446958Y27437772D02*
X65450961Y27397341D01*
X65458447Y27315935D01*
X65468972Y27198592D01*
X65482093Y27050352D01*
X65497364Y26876255D01*
X65514342Y26681339D01*
X65532582Y26470644D01*
X65548224Y26289000D01*
X65567174Y26069474D01*
X65585270Y25861894D01*
X65602064Y25671249D01*
X65617108Y25502527D01*
X65629955Y25360717D01*
X65640157Y25250806D01*
X65647267Y25177783D01*
X65650499Y25148766D01*
X65661527Y25070714D01*
X65554679Y25085359D01*
X65425291Y25122181D01*
X65297317Y25192100D01*
X65197102Y25276712D01*
X65163075Y25314246D01*
X65134130Y25352171D01*
X65109420Y25394878D01*
X65088100Y25446760D01*
X65069324Y25512207D01*
X65052247Y25595610D01*
X65036024Y25701361D01*
X65019807Y25833851D01*
X65002752Y25997471D01*
X64984014Y26196612D01*
X64962746Y26435666D01*
X64953492Y26541702D01*
X64867998Y27524363D01*
X64117247Y27524363D01*
X64129013Y27426227D01*
X64133954Y27378315D01*
X64142131Y27291184D01*
X64152937Y27171635D01*
X64165767Y27026470D01*
X64180014Y26862491D01*
X64195074Y26686500D01*
X64198431Y26646909D01*
X64218292Y26419009D01*
X64236334Y26231064D01*
X64253699Y26076940D01*
X64271528Y25950505D01*
X64290963Y25845626D01*
X64313147Y25756170D01*
X64339220Y25676005D01*
X64370326Y25598998D01*
X64407606Y25519016D01*
X64408965Y25516233D01*
X64495817Y25372621D01*
X64614401Y25224226D01*
X64753270Y25082653D01*
X64900980Y24959508D01*
X65046086Y24866393D01*
X65053927Y24862290D01*
X65155926Y24813002D01*
X65252662Y24775161D01*
X65352592Y24747337D01*
X65464175Y24728101D01*
X65595868Y24716024D01*
X65756131Y24709678D01*
X65953420Y24707633D01*
X65969409Y24707614D01*
X66425455Y24707272D01*
X66425455Y24758837D01*
X66423513Y24793904D01*
X66418001Y24869412D01*
X66409393Y24979798D01*
X66398160Y25119497D01*
X66384776Y25282946D01*
X66369712Y25464583D01*
X66353441Y25658842D01*
X66336437Y25860160D01*
X66319170Y26062974D01*
X66302115Y26261721D01*
X66285743Y26450836D01*
X66270527Y26624756D01*
X66256939Y26777917D01*
X66245452Y26904756D01*
X66236539Y26999709D01*
X66230671Y27057213D01*
X66229306Y27068318D01*
X66217091Y27154909D01*
X66419782Y27154909D01*
X66409961Y27264591D01*
X66401307Y27349549D01*
X66391561Y27429137D01*
X66388661Y27449318D01*
X66377180Y27524363D01*
X65436940Y27524363D01*
X65446958Y27437772D01*
G36*
X62739403Y27403136D02*
X62750931Y27294734D01*
X62764277Y27157066D01*
X62779001Y26995782D01*
X62794664Y26816530D01*
X62810824Y26624961D01*
X62827041Y26426723D01*
X62842876Y26227465D01*
X62857888Y26032838D01*
X62871636Y25848489D01*
X62883681Y25680069D01*
X62893582Y25533227D01*
X62900899Y25413611D01*
X62905192Y25326872D01*
X62906020Y25278658D01*
X62905472Y25272241D01*
X62868936Y25188917D01*
X62801630Y25121053D01*
X62740582Y25090608D01*
X62713546Y25077301D01*
X62700584Y25050502D01*
X62698447Y24998033D01*
X62701374Y24943636D01*
X62708963Y24837427D01*
X62718718Y24769029D01*
X62736736Y24730240D01*
X62769118Y24712858D01*
X62821963Y24708680D01*
X62875668Y24709236D01*
X62977240Y24715379D01*
X63081462Y24728989D01*
X63135000Y24739808D01*
X63305288Y24800005D01*
X63447838Y24887446D01*
X63557066Y24997916D01*
X63618739Y25104849D01*
X63632078Y25141797D01*
X63642028Y25183830D01*
X63648454Y25235530D01*
X63651219Y25301479D01*
X63650188Y25386258D01*
X63645224Y25494451D01*
X63636191Y25630638D01*
X63622953Y25799403D01*
X63605374Y26005326D01*
X63585273Y26231272D01*
X63564390Y26462175D01*
X63547389Y26651213D01*
X63534371Y26802551D01*
X63525443Y26920351D01*
X63520707Y27008776D01*
X63520269Y27071989D01*
X63524231Y27114155D01*
X63532699Y27139435D01*
X63545775Y27151993D01*
X63563565Y27155991D01*
X63586173Y27155594D01*
X63608364Y27154909D01*
X63700728Y27154909D01*
X63700728Y27267477D01*
X63697654Y27352092D01*
X63689938Y27430338D01*
X63686296Y27452204D01*
X63671864Y27524363D01*
X62725588Y27524363D01*
X62739403Y27403136D01*
X62739403Y27403136D01*
G37*
X62739403Y27403136D02*
X62750931Y27294734D01*
X62764277Y27157066D01*
X62779001Y26995782D01*
X62794664Y26816530D01*
X62810824Y26624961D01*
X62827041Y26426723D01*
X62842876Y26227465D01*
X62857888Y26032838D01*
X62871636Y25848489D01*
X62883681Y25680069D01*
X62893582Y25533227D01*
X62900899Y25413611D01*
X62905192Y25326872D01*
X62906020Y25278658D01*
X62905472Y25272241D01*
X62868936Y25188917D01*
X62801630Y25121053D01*
X62740582Y25090608D01*
X62713546Y25077301D01*
X62700584Y25050502D01*
X62698447Y24998033D01*
X62701374Y24943636D01*
X62708963Y24837427D01*
X62718718Y24769029D01*
X62736736Y24730240D01*
X62769118Y24712858D01*
X62821963Y24708680D01*
X62875668Y24709236D01*
X62977240Y24715379D01*
X63081462Y24728989D01*
X63135000Y24739808D01*
X63305288Y24800005D01*
X63447838Y24887446D01*
X63557066Y24997916D01*
X63618739Y25104849D01*
X63632078Y25141797D01*
X63642028Y25183830D01*
X63648454Y25235530D01*
X63651219Y25301479D01*
X63650188Y25386258D01*
X63645224Y25494451D01*
X63636191Y25630638D01*
X63622953Y25799403D01*
X63605374Y26005326D01*
X63585273Y26231272D01*
X63564390Y26462175D01*
X63547389Y26651213D01*
X63534371Y26802551D01*
X63525443Y26920351D01*
X63520707Y27008776D01*
X63520269Y27071989D01*
X63524231Y27114155D01*
X63532699Y27139435D01*
X63545775Y27151993D01*
X63563565Y27155991D01*
X63586173Y27155594D01*
X63608364Y27154909D01*
X63700728Y27154909D01*
X63700728Y27267477D01*
X63697654Y27352092D01*
X63689938Y27430338D01*
X63686296Y27452204D01*
X63671864Y27524363D01*
X62725588Y27524363D01*
X62739403Y27403136D01*
G36*
X59398646Y27297545D02*
X59312885Y27354299D01*
X59201240Y27419435D01*
X59087153Y27465528D01*
X58958593Y27495794D01*
X58803532Y27513446D01*
X58695773Y27519207D01*
X58575037Y27522984D01*
X58493381Y27523119D01*
X58443808Y27519051D01*
X58419318Y27510219D01*
X58412909Y27496525D01*
X58415113Y27456870D01*
X58421022Y27382546D01*
X58429584Y27284823D01*
X58439745Y27174968D01*
X58450454Y27064248D01*
X58460656Y26963932D01*
X58469301Y26885289D01*
X58472333Y26860500D01*
X58485012Y26762363D01*
X58879775Y26762363D01*
X58871030Y26935545D01*
X58869171Y27036005D01*
X58875727Y27094008D01*
X58887076Y27108727D01*
X58931008Y27093851D01*
X58996885Y27054516D01*
X59073742Y26998665D01*
X59150613Y26934237D01*
X59214008Y26871950D01*
X59312699Y26742531D01*
X59396649Y26591432D01*
X59455732Y26438062D01*
X59469943Y26381363D01*
X59477562Y26330758D01*
X59488218Y26240511D01*
X59501273Y26117017D01*
X59516090Y25966668D01*
X59532033Y25795859D01*
X59548465Y25610984D01*
X59559082Y25486591D01*
X59624493Y24707272D01*
X60376040Y24707272D01*
X60362406Y24828500D01*
X60357642Y24875824D01*
X60349322Y24964032D01*
X60337909Y25087997D01*
X60323867Y25242597D01*
X60307658Y25422708D01*
X60289746Y25623205D01*
X60270594Y25838964D01*
X60251769Y26052318D01*
X60154767Y27154909D01*
X60352546Y27154909D01*
X60352546Y27267477D01*
X60349472Y27352092D01*
X60341756Y27430338D01*
X60338114Y27452204D01*
X60323682Y27524363D01*
X59376852Y27524363D01*
X59398646Y27297545D01*
X59398646Y27297545D01*
G37*
X59398646Y27297545D02*
X59312885Y27354299D01*
X59201240Y27419435D01*
X59087153Y27465528D01*
X58958593Y27495794D01*
X58803532Y27513446D01*
X58695773Y27519207D01*
X58575037Y27522984D01*
X58493381Y27523119D01*
X58443808Y27519051D01*
X58419318Y27510219D01*
X58412909Y27496525D01*
X58415113Y27456870D01*
X58421022Y27382546D01*
X58429584Y27284823D01*
X58439745Y27174968D01*
X58450454Y27064248D01*
X58460656Y26963932D01*
X58469301Y26885289D01*
X58472333Y26860500D01*
X58485012Y26762363D01*
X58879775Y26762363D01*
X58871030Y26935545D01*
X58869171Y27036005D01*
X58875727Y27094008D01*
X58887076Y27108727D01*
X58931008Y27093851D01*
X58996885Y27054516D01*
X59073742Y26998665D01*
X59150613Y26934237D01*
X59214008Y26871950D01*
X59312699Y26742531D01*
X59396649Y26591432D01*
X59455732Y26438062D01*
X59469943Y26381363D01*
X59477562Y26330758D01*
X59488218Y26240511D01*
X59501273Y26117017D01*
X59516090Y25966668D01*
X59532033Y25795859D01*
X59548465Y25610984D01*
X59559082Y25486591D01*
X59624493Y24707272D01*
X60376040Y24707272D01*
X60362406Y24828500D01*
X60357642Y24875824D01*
X60349322Y24964032D01*
X60337909Y25087997D01*
X60323867Y25242597D01*
X60307658Y25422708D01*
X60289746Y25623205D01*
X60270594Y25838964D01*
X60251769Y26052318D01*
X60154767Y27154909D01*
X60352546Y27154909D01*
X60352546Y27267477D01*
X60349472Y27352092D01*
X60341756Y27430338D01*
X60338114Y27452204D01*
X60323682Y27524363D01*
X59376852Y27524363D01*
X59398646Y27297545D01*
G36*
X56754501Y27518916D02*
X56627042Y27506847D01*
X56550632Y27492153D01*
X56370066Y27425305D01*
X56215758Y27330130D01*
X56092266Y27211179D01*
X56004153Y27073002D01*
X55955978Y26920149D01*
X55952352Y26895210D01*
X55951459Y26847951D01*
X55954720Y26761304D01*
X55961693Y26641835D01*
X55971938Y26496109D01*
X55985014Y26330691D01*
X56000481Y26152146D01*
X56006990Y26081181D01*
X56028238Y25858369D01*
X56047370Y25676057D01*
X56065929Y25528710D01*
X56085456Y25410791D01*
X56107493Y25316765D01*
X56133582Y25241096D01*
X56165266Y25178246D01*
X56204085Y25122681D01*
X56251582Y25068865D01*
X56303389Y25016993D01*
X56410136Y24931798D01*
X56545171Y24850807D01*
X56690852Y24783054D01*
X56829537Y24737571D01*
X56863197Y24730335D01*
X56981498Y24715903D01*
X57121850Y24710093D01*
X57267169Y24712627D01*
X57400372Y24723229D01*
X57500818Y24740694D01*
X57620747Y24775125D01*
X57714506Y24813129D01*
X57801783Y24863742D01*
X57863800Y24907268D01*
X57964663Y25001781D01*
X58049045Y25119546D01*
X58106971Y25244848D01*
X58125174Y25319074D01*
X58126574Y25366104D01*
X58124752Y25421606D01*
X57374547Y25421606D01*
X57369273Y25339948D01*
X57357365Y25277850D01*
X57338410Y25230033D01*
X57312001Y25191218D01*
X57277728Y25156127D01*
X57267433Y25146923D01*
X57180925Y25091248D01*
X57094920Y25080435D01*
X57002088Y25113830D01*
X56987977Y25122089D01*
X56912202Y25192071D01*
X56851808Y25294580D01*
X56814123Y25416669D01*
X56811070Y25434636D01*
X56802578Y25502372D01*
X56791686Y25607374D01*
X56779094Y25740971D01*
X56765509Y25894494D01*
X56751634Y26059272D01*
X56738171Y26226634D01*
X56725827Y26387911D01*
X56715303Y26534431D01*
X56707305Y26657525D01*
X56702535Y26748522D01*
X56701516Y26784142D01*
X56711297Y26926665D01*
X56744914Y27031533D01*
X56804218Y27101704D01*
X56891062Y27140138D01*
X56928413Y27146652D01*
X57031298Y27137305D01*
X57123192Y27085832D01*
X57197962Y26996033D01*
X57211682Y26971161D01*
X57227348Y26939467D01*
X57240431Y26908348D01*
X57251633Y26872658D01*
X57261657Y26827253D01*
X57271204Y26766985D01*
X57280978Y26686709D01*
X57291680Y26581278D01*
X57304013Y26445548D01*
X57318680Y26274370D01*
X57336382Y26062601D01*
X57337479Y26049412D01*
X57354651Y25836727D01*
X57366826Y25664717D01*
X57373594Y25528103D01*
X57374547Y25421606D01*
X58124752Y25421606D01*
X58123760Y25451803D01*
X58117347Y25568913D01*
X58107946Y25710174D01*
X58096172Y25868328D01*
X58082638Y26036115D01*
X58067955Y26206276D01*
X58052739Y26371552D01*
X58037601Y26524684D01*
X58023156Y26658412D01*
X58010015Y26765479D01*
X57998793Y26838623D01*
X57995464Y26854727D01*
X57934430Y27016905D01*
X57833259Y27164532D01*
X57696874Y27293187D01*
X57530197Y27398446D01*
X57338148Y27475888D01*
X57288537Y27489919D01*
X57182470Y27508665D01*
X57047751Y27519777D01*
X56899916Y27523210D01*
X56754501Y27518916D01*
X56754501Y27518916D01*
G37*
X56754501Y27518916D02*
X56627042Y27506847D01*
X56550632Y27492153D01*
X56370066Y27425305D01*
X56215758Y27330130D01*
X56092266Y27211179D01*
X56004153Y27073002D01*
X55955978Y26920149D01*
X55952352Y26895210D01*
X55951459Y26847951D01*
X55954720Y26761304D01*
X55961693Y26641835D01*
X55971938Y26496109D01*
X55985014Y26330691D01*
X56000481Y26152146D01*
X56006990Y26081181D01*
X56028238Y25858369D01*
X56047370Y25676057D01*
X56065929Y25528710D01*
X56085456Y25410791D01*
X56107493Y25316765D01*
X56133582Y25241096D01*
X56165266Y25178246D01*
X56204085Y25122681D01*
X56251582Y25068865D01*
X56303389Y25016993D01*
X56410136Y24931798D01*
X56545171Y24850807D01*
X56690852Y24783054D01*
X56829537Y24737571D01*
X56863197Y24730335D01*
X56981498Y24715903D01*
X57121850Y24710093D01*
X57267169Y24712627D01*
X57400372Y24723229D01*
X57500818Y24740694D01*
X57620747Y24775125D01*
X57714506Y24813129D01*
X57801783Y24863742D01*
X57863800Y24907268D01*
X57964663Y25001781D01*
X58049045Y25119546D01*
X58106971Y25244848D01*
X58125174Y25319074D01*
X58126574Y25366104D01*
X58124752Y25421606D01*
X57374547Y25421606D01*
X57369273Y25339948D01*
X57357365Y25277850D01*
X57338410Y25230033D01*
X57312001Y25191218D01*
X57277728Y25156127D01*
X57267433Y25146923D01*
X57180925Y25091248D01*
X57094920Y25080435D01*
X57002088Y25113830D01*
X56987977Y25122089D01*
X56912202Y25192071D01*
X56851808Y25294580D01*
X56814123Y25416669D01*
X56811070Y25434636D01*
X56802578Y25502372D01*
X56791686Y25607374D01*
X56779094Y25740971D01*
X56765509Y25894494D01*
X56751634Y26059272D01*
X56738171Y26226634D01*
X56725827Y26387911D01*
X56715303Y26534431D01*
X56707305Y26657525D01*
X56702535Y26748522D01*
X56701516Y26784142D01*
X56711297Y26926665D01*
X56744914Y27031533D01*
X56804218Y27101704D01*
X56891062Y27140138D01*
X56928413Y27146652D01*
X57031298Y27137305D01*
X57123192Y27085832D01*
X57197962Y26996033D01*
X57211682Y26971161D01*
X57227348Y26939467D01*
X57240431Y26908348D01*
X57251633Y26872658D01*
X57261657Y26827253D01*
X57271204Y26766985D01*
X57280978Y26686709D01*
X57291680Y26581278D01*
X57304013Y26445548D01*
X57318680Y26274370D01*
X57336382Y26062601D01*
X57337479Y26049412D01*
X57354651Y25836727D01*
X57366826Y25664717D01*
X57373594Y25528103D01*
X57374547Y25421606D01*
X58124752Y25421606D01*
X58123760Y25451803D01*
X58117347Y25568913D01*
X58107946Y25710174D01*
X58096172Y25868328D01*
X58082638Y26036115D01*
X58067955Y26206276D01*
X58052739Y26371552D01*
X58037601Y26524684D01*
X58023156Y26658412D01*
X58010015Y26765479D01*
X57998793Y26838623D01*
X57995464Y26854727D01*
X57934430Y27016905D01*
X57833259Y27164532D01*
X57696874Y27293187D01*
X57530197Y27398446D01*
X57338148Y27475888D01*
X57288537Y27489919D01*
X57182470Y27508665D01*
X57047751Y27519777D01*
X56899916Y27523210D01*
X56754501Y27518916D01*
G36*
X54666409Y27518955D02*
X54450020Y27516688D01*
X54274478Y27514411D01*
X54134451Y27511784D01*
X54024606Y27508466D01*
X53939610Y27504118D01*
X53874131Y27498400D01*
X53822835Y27490970D01*
X53780389Y27481489D01*
X53741461Y27469617D01*
X53708360Y27457835D01*
X53545160Y27376243D01*
X53413345Y27265381D01*
X53316377Y27129938D01*
X53257722Y26974607D01*
X53240546Y26824242D01*
X53242495Y26770136D01*
X53248001Y26677119D01*
X53256553Y26552283D01*
X53267639Y26402719D01*
X53280749Y26235519D01*
X53295371Y26057773D01*
X53298273Y26023454D01*
X53313044Y25846629D01*
X53326418Y25680919D01*
X53337894Y25533003D01*
X53346967Y25409559D01*
X53353137Y25317263D01*
X53355900Y25262794D01*
X53356000Y25256437D01*
X53338474Y25168806D01*
X53290698Y25106408D01*
X53219878Y25077688D01*
X53202693Y25076727D01*
X53167632Y25074436D01*
X53151293Y25059902D01*
X53149279Y25021635D01*
X53156311Y24955500D01*
X53164894Y24872192D01*
X53170230Y24797682D01*
X53171072Y24770772D01*
X53171273Y24707272D01*
X53397991Y24707272D01*
X53605328Y24719436D01*
X53774786Y24756452D01*
X53907901Y24819112D01*
X54006213Y24908204D01*
X54071259Y25024519D01*
X54082804Y25058953D01*
X54091850Y25093233D01*
X54098269Y25130267D01*
X54101861Y25175315D01*
X54102424Y25233634D01*
X54099756Y25310483D01*
X54093655Y25411122D01*
X54083920Y25540809D01*
X54070350Y25704803D01*
X54052742Y25908361D01*
X54048300Y25959058D01*
X54027676Y26195656D01*
X54011138Y26390808D01*
X53998541Y26549057D01*
X53989739Y26674947D01*
X53984588Y26773018D01*
X53982943Y26847814D01*
X53984657Y26903877D01*
X53989586Y26945750D01*
X53997585Y26977975D01*
X54008508Y27005094D01*
X54014482Y27017119D01*
X54061671Y27081131D01*
X54129886Y27123464D01*
X54226746Y27147064D01*
X54359869Y27154877D01*
X54370854Y27154909D01*
X54462874Y27154200D01*
X54518091Y27150264D01*
X54545883Y27140387D01*
X54555625Y27121858D01*
X54556728Y27101126D01*
X54558705Y27067989D01*
X54564317Y26994407D01*
X54573080Y26885936D01*
X54584511Y26748130D01*
X54598129Y26586542D01*
X54613450Y26406728D01*
X54629993Y26214240D01*
X54647274Y26014634D01*
X54664812Y25813463D01*
X54682123Y25616282D01*
X54698725Y25428644D01*
X54714136Y25256105D01*
X54727873Y25104218D01*
X54739453Y24978537D01*
X54748395Y24884617D01*
X54754160Y24828500D01*
X54767869Y24707272D01*
X55135662Y24707272D01*
X55274055Y24707669D01*
X55372838Y24709340D01*
X55438579Y24713007D01*
X55477846Y24719392D01*
X55497208Y24729216D01*
X55503232Y24743202D01*
X55503424Y24747681D01*
X55501419Y24778016D01*
X55495676Y24849821D01*
X55486584Y24958571D01*
X55474534Y25099739D01*
X55459915Y25268799D01*
X55443116Y25461225D01*
X55424527Y25672492D01*
X55404539Y25898072D01*
X55399546Y25954181D01*
X55379321Y26181609D01*
X55360395Y26395056D01*
X55343156Y26590111D01*
X55327990Y26762365D01*
X55315285Y26907407D01*
X55305428Y27020826D01*
X55298806Y27098212D01*
X55295806Y27135156D01*
X55295667Y27137591D01*
X55316333Y27147792D01*
X55368813Y27154015D01*
X55402684Y27154909D01*
X55509732Y27154909D01*
X55495048Y27262041D01*
X55485782Y27347466D01*
X55480697Y27428983D01*
X55480364Y27448116D01*
X55480364Y27527059D01*
X54666409Y27518955D01*
X54666409Y27518955D01*
G37*
X54666409Y27518955D02*
X54450020Y27516688D01*
X54274478Y27514411D01*
X54134451Y27511784D01*
X54024606Y27508466D01*
X53939610Y27504118D01*
X53874131Y27498400D01*
X53822835Y27490970D01*
X53780389Y27481489D01*
X53741461Y27469617D01*
X53708360Y27457835D01*
X53545160Y27376243D01*
X53413345Y27265381D01*
X53316377Y27129938D01*
X53257722Y26974607D01*
X53240546Y26824242D01*
X53242495Y26770136D01*
X53248001Y26677119D01*
X53256553Y26552283D01*
X53267639Y26402719D01*
X53280749Y26235519D01*
X53295371Y26057773D01*
X53298273Y26023454D01*
X53313044Y25846629D01*
X53326418Y25680919D01*
X53337894Y25533003D01*
X53346967Y25409559D01*
X53353137Y25317263D01*
X53355900Y25262794D01*
X53356000Y25256437D01*
X53338474Y25168806D01*
X53290698Y25106408D01*
X53219878Y25077688D01*
X53202693Y25076727D01*
X53167632Y25074436D01*
X53151293Y25059902D01*
X53149279Y25021635D01*
X53156311Y24955500D01*
X53164894Y24872192D01*
X53170230Y24797682D01*
X53171072Y24770772D01*
X53171273Y24707272D01*
X53397991Y24707272D01*
X53605328Y24719436D01*
X53774786Y24756452D01*
X53907901Y24819112D01*
X54006213Y24908204D01*
X54071259Y25024519D01*
X54082804Y25058953D01*
X54091850Y25093233D01*
X54098269Y25130267D01*
X54101861Y25175315D01*
X54102424Y25233634D01*
X54099756Y25310483D01*
X54093655Y25411122D01*
X54083920Y25540809D01*
X54070350Y25704803D01*
X54052742Y25908361D01*
X54048300Y25959058D01*
X54027676Y26195656D01*
X54011138Y26390808D01*
X53998541Y26549057D01*
X53989739Y26674947D01*
X53984588Y26773018D01*
X53982943Y26847814D01*
X53984657Y26903877D01*
X53989586Y26945750D01*
X53997585Y26977975D01*
X54008508Y27005094D01*
X54014482Y27017119D01*
X54061671Y27081131D01*
X54129886Y27123464D01*
X54226746Y27147064D01*
X54359869Y27154877D01*
X54370854Y27154909D01*
X54462874Y27154200D01*
X54518091Y27150264D01*
X54545883Y27140387D01*
X54555625Y27121858D01*
X54556728Y27101126D01*
X54558705Y27067989D01*
X54564317Y26994407D01*
X54573080Y26885936D01*
X54584511Y26748130D01*
X54598129Y26586542D01*
X54613450Y26406728D01*
X54629993Y26214240D01*
X54647274Y26014634D01*
X54664812Y25813463D01*
X54682123Y25616282D01*
X54698725Y25428644D01*
X54714136Y25256105D01*
X54727873Y25104218D01*
X54739453Y24978537D01*
X54748395Y24884617D01*
X54754160Y24828500D01*
X54767869Y24707272D01*
X55135662Y24707272D01*
X55274055Y24707669D01*
X55372838Y24709340D01*
X55438579Y24713007D01*
X55477846Y24719392D01*
X55497208Y24729216D01*
X55503232Y24743202D01*
X55503424Y24747681D01*
X55501419Y24778016D01*
X55495676Y24849821D01*
X55486584Y24958571D01*
X55474534Y25099739D01*
X55459915Y25268799D01*
X55443116Y25461225D01*
X55424527Y25672492D01*
X55404539Y25898072D01*
X55399546Y25954181D01*
X55379321Y26181609D01*
X55360395Y26395056D01*
X55343156Y26590111D01*
X55327990Y26762365D01*
X55315285Y26907407D01*
X55305428Y27020826D01*
X55298806Y27098212D01*
X55295806Y27135156D01*
X55295667Y27137591D01*
X55316333Y27147792D01*
X55368813Y27154015D01*
X55402684Y27154909D01*
X55509732Y27154909D01*
X55495048Y27262041D01*
X55485782Y27347466D01*
X55480697Y27428983D01*
X55480364Y27448116D01*
X55480364Y27527059D01*
X54666409Y27518955D01*
G36*
X63018986Y28789851D02*
X62897966Y28770799D01*
X62807576Y28726293D01*
X62736151Y28649423D01*
X62709381Y28606492D01*
X62665260Y28486585D01*
X62665932Y28365221D01*
X62710458Y28247354D01*
X62797896Y28137937D01*
X62798521Y28137341D01*
X62848307Y28097097D01*
X62901945Y28074425D01*
X62977271Y28062953D01*
X63014174Y28060273D01*
X63102190Y28058036D01*
X63163143Y28067088D01*
X63215527Y28091170D01*
X63237661Y28105464D01*
X63332310Y28194602D01*
X63389814Y28302178D01*
X63410175Y28419192D01*
X63393391Y28536638D01*
X63339464Y28645515D01*
X63248392Y28736820D01*
X63237661Y28744353D01*
X63182025Y28775933D01*
X63124599Y28790251D01*
X63046137Y28791310D01*
X63018986Y28789851D01*
X63018986Y28789851D01*
G37*
X63018986Y28789851D02*
X62897966Y28770799D01*
X62807576Y28726293D01*
X62736151Y28649423D01*
X62709381Y28606492D01*
X62665260Y28486585D01*
X62665932Y28365221D01*
X62710458Y28247354D01*
X62797896Y28137937D01*
X62798521Y28137341D01*
X62848307Y28097097D01*
X62901945Y28074425D01*
X62977271Y28062953D01*
X63014174Y28060273D01*
X63102190Y28058036D01*
X63163143Y28067088D01*
X63215527Y28091170D01*
X63237661Y28105464D01*
X63332310Y28194602D01*
X63389814Y28302178D01*
X63410175Y28419192D01*
X63393391Y28536638D01*
X63339464Y28645515D01*
X63248392Y28736820D01*
X63237661Y28744353D01*
X63182025Y28775933D01*
X63124599Y28790251D01*
X63046137Y28791310D01*
X63018986Y28789851D01*
D15*
G04 #@! TO.C,tp2*
X101100000Y42100000D02*
X104500000Y42100000D01*
X104500000Y42100000D02*
X104500000Y45500000D01*
X104500000Y45500000D02*
X101100000Y45500000D01*
X101100000Y45500000D02*
X101100000Y42100000D01*
G04 #@! TO.C,tp4*
X80400000Y3200000D02*
X80400000Y-200000D01*
X83800000Y3200000D02*
X80400000Y3200000D01*
X83800000Y-200000D02*
X83800000Y3200000D01*
X80400000Y-200000D02*
X83800000Y-200000D01*
G04 #@! TO.C,D5*
X14650000Y23700000D02*
X14750000Y23700000D01*
X10850000Y23700000D02*
X10750000Y23700000D01*
X10850000Y23700000D02*
X14650000Y23700000D01*
X15050000Y27100000D02*
X15050000Y25900000D01*
X15150000Y27100000D02*
X14950000Y27100000D01*
X15150000Y25900000D02*
X15150000Y27100000D01*
X14950000Y25900000D02*
X15150000Y25900000D01*
X14950000Y27100000D02*
X14950000Y25900000D01*
X14850000Y27100000D02*
X14950000Y27100000D01*
X10750000Y27100000D02*
X14850000Y27100000D01*
G04 #@! TO.C,D6*
X42650000Y23700000D02*
X42750000Y23700000D01*
X38850000Y23700000D02*
X38750000Y23700000D01*
X38850000Y23700000D02*
X42650000Y23700000D01*
X43050000Y27100000D02*
X43050000Y25900000D01*
X43150000Y27100000D02*
X42950000Y27100000D01*
X43150000Y25900000D02*
X43150000Y27100000D01*
X42950000Y25900000D02*
X43150000Y25900000D01*
X42950000Y27100000D02*
X42950000Y25900000D01*
X42850000Y27100000D02*
X42950000Y27100000D01*
X38750000Y27100000D02*
X42850000Y27100000D01*
G04 #@! TO.C,D9*
X114250000Y23700000D02*
X110150000Y23700000D01*
X110150000Y23700000D02*
X110050000Y23700000D01*
X110050000Y23700000D02*
X110050000Y24900000D01*
X110050000Y24900000D02*
X109850000Y24900000D01*
X109850000Y24900000D02*
X109850000Y23700000D01*
X109850000Y23700000D02*
X110050000Y23700000D01*
X109950000Y23700000D02*
X109950000Y24900000D01*
X114150000Y27100000D02*
X110350000Y27100000D01*
X114150000Y27100000D02*
X114250000Y27100000D01*
X110350000Y27100000D02*
X110250000Y27100000D01*
G04 #@! TO.C,D10*
X86250000Y23700000D02*
X82150000Y23700000D01*
X82150000Y23700000D02*
X82050000Y23700000D01*
X82050000Y23700000D02*
X82050000Y24900000D01*
X82050000Y24900000D02*
X81850000Y24900000D01*
X81850000Y24900000D02*
X81850000Y23700000D01*
X81850000Y23700000D02*
X82050000Y23700000D01*
X81950000Y23700000D02*
X81950000Y24900000D01*
X86150000Y27100000D02*
X82350000Y27100000D01*
X86150000Y27100000D02*
X86250000Y27100000D01*
X82350000Y27100000D02*
X82250000Y27100000D01*
G04 #@! TO.C,NT1*
D16*
X13550000Y18983334D02*
X13550000Y19683334D01*
X13150000Y18983334D01*
X13150000Y19683334D01*
X12916666Y19683334D02*
X12516666Y19683334D01*
X12716666Y18983334D02*
X12716666Y19683334D01*
X11916666Y18983334D02*
X12316666Y18983334D01*
X12116666Y18983334D02*
X12116666Y19683334D01*
X12183333Y19583334D01*
X12250000Y19516667D01*
X12316666Y19483334D01*
G04 #@! TO.C,NT2*
X41550000Y18983334D02*
X41550000Y19683334D01*
X41150000Y18983334D01*
X41150000Y19683334D01*
X40916666Y19683334D02*
X40516666Y19683334D01*
X40716666Y18983334D02*
X40716666Y19683334D01*
X40316666Y19616667D02*
X40283333Y19650000D01*
X40216666Y19683334D01*
X40050000Y19683334D01*
X39983333Y19650000D01*
X39950000Y19616667D01*
X39916666Y19550000D01*
X39916666Y19483334D01*
X39950000Y19383334D01*
X40350000Y18983334D01*
X39916666Y18983334D01*
G04 #@! TO.C,NT3*
X85050000Y18983334D02*
X85050000Y19683334D01*
X84650000Y18983334D01*
X84650000Y19683334D01*
X84416666Y19683334D02*
X84016666Y19683334D01*
X84216666Y18983334D02*
X84216666Y19683334D01*
X83850000Y19683334D02*
X83416666Y19683334D01*
X83650000Y19416667D01*
X83550000Y19416667D01*
X83483333Y19383334D01*
X83450000Y19350000D01*
X83416666Y19283334D01*
X83416666Y19116667D01*
X83450000Y19050000D01*
X83483333Y19016667D01*
X83550000Y18983334D01*
X83750000Y18983334D01*
X83816666Y19016667D01*
X83850000Y19050000D01*
G04 #@! TO.C,NT4*
X113050000Y18983334D02*
X113050000Y19683334D01*
X112650000Y18983334D01*
X112650000Y19683334D01*
X112416666Y19683334D02*
X112016666Y19683334D01*
X112216666Y18983334D02*
X112216666Y19683334D01*
X111483333Y19450000D02*
X111483333Y18983334D01*
X111650000Y19716667D02*
X111816666Y19216667D01*
X111383333Y19216667D01*
G04 #@! TO.C,D5*
D13*
X13488095Y27497620D02*
X13488095Y28497620D01*
X13250000Y28497620D01*
X13107142Y28450000D01*
X13011904Y28354762D01*
X12964285Y28259524D01*
X12916666Y28069048D01*
X12916666Y27926191D01*
X12964285Y27735715D01*
X13011904Y27640477D01*
X13107142Y27545239D01*
X13250000Y27497620D01*
X13488095Y27497620D01*
X12011904Y28497620D02*
X12488095Y28497620D01*
X12535714Y28021429D01*
X12488095Y28069048D01*
X12392857Y28116667D01*
X12154761Y28116667D01*
X12059523Y28069048D01*
X12011904Y28021429D01*
X11964285Y27926191D01*
X11964285Y27688096D01*
X12011904Y27592858D01*
X12059523Y27545239D01*
X12154761Y27497620D01*
X12392857Y27497620D01*
X12488095Y27545239D01*
X12535714Y27592858D01*
G04 #@! TO.C,D6*
X41488095Y27497620D02*
X41488095Y28497620D01*
X41250000Y28497620D01*
X41107142Y28450000D01*
X41011904Y28354762D01*
X40964285Y28259524D01*
X40916666Y28069048D01*
X40916666Y27926191D01*
X40964285Y27735715D01*
X41011904Y27640477D01*
X41107142Y27545239D01*
X41250000Y27497620D01*
X41488095Y27497620D01*
X40059523Y28497620D02*
X40250000Y28497620D01*
X40345238Y28450000D01*
X40392857Y28402381D01*
X40488095Y28259524D01*
X40535714Y28069048D01*
X40535714Y27688096D01*
X40488095Y27592858D01*
X40440476Y27545239D01*
X40345238Y27497620D01*
X40154761Y27497620D01*
X40059523Y27545239D01*
X40011904Y27592858D01*
X39964285Y27688096D01*
X39964285Y27926191D01*
X40011904Y28021429D01*
X40059523Y28069048D01*
X40154761Y28116667D01*
X40345238Y28116667D01*
X40440476Y28069048D01*
X40488095Y28021429D01*
X40535714Y27926191D01*
G04 #@! TO.C,D9*
X112988095Y22397620D02*
X112988095Y23397620D01*
X112750000Y23397620D01*
X112607142Y23350000D01*
X112511904Y23254762D01*
X112464285Y23159524D01*
X112416666Y22969048D01*
X112416666Y22826191D01*
X112464285Y22635715D01*
X112511904Y22540477D01*
X112607142Y22445239D01*
X112750000Y22397620D01*
X112988095Y22397620D01*
X111940476Y22397620D02*
X111750000Y22397620D01*
X111654761Y22445239D01*
X111607142Y22492858D01*
X111511904Y22635715D01*
X111464285Y22826191D01*
X111464285Y23207143D01*
X111511904Y23302381D01*
X111559523Y23350000D01*
X111654761Y23397620D01*
X111845238Y23397620D01*
X111940476Y23350000D01*
X111988095Y23302381D01*
X112035714Y23207143D01*
X112035714Y22969048D01*
X111988095Y22873810D01*
X111940476Y22826191D01*
X111845238Y22778572D01*
X111654761Y22778572D01*
X111559523Y22826191D01*
X111511904Y22873810D01*
X111464285Y22969048D01*
G04 #@! TO.C,D10*
X85464285Y22397620D02*
X85464285Y23397620D01*
X85226190Y23397620D01*
X85083333Y23350000D01*
X84988095Y23254762D01*
X84940476Y23159524D01*
X84892857Y22969048D01*
X84892857Y22826191D01*
X84940476Y22635715D01*
X84988095Y22540477D01*
X85083333Y22445239D01*
X85226190Y22397620D01*
X85464285Y22397620D01*
X83940476Y22397620D02*
X84511904Y22397620D01*
X84226190Y22397620D02*
X84226190Y23397620D01*
X84321428Y23254762D01*
X84416666Y23159524D01*
X84511904Y23111905D01*
X83321428Y23397620D02*
X83226190Y23397620D01*
X83130952Y23350000D01*
X83083333Y23302381D01*
X83035714Y23207143D01*
X82988095Y23016667D01*
X82988095Y22778572D01*
X83035714Y22588096D01*
X83083333Y22492858D01*
X83130952Y22445239D01*
X83226190Y22397620D01*
X83321428Y22397620D01*
X83416666Y22445239D01*
X83464285Y22492858D01*
X83511904Y22588096D01*
X83559523Y22778572D01*
X83559523Y23016667D01*
X83511904Y23207143D01*
X83464285Y23302381D01*
X83416666Y23350000D01*
X83321428Y23397620D01*
G04 #@! TD*
%LPC*%
D11*
X131928571Y49714286D02*
X132357142Y49571429D01*
X132500000Y49428572D01*
X132642857Y49142858D01*
X132642857Y48714286D01*
X132500000Y48428572D01*
X132357142Y48285715D01*
X132071428Y48142858D01*
X130928571Y48142858D01*
X130928571Y51142858D01*
X131928571Y51142858D01*
X132214285Y51000000D01*
X132357142Y50857143D01*
X132500000Y50571429D01*
X132500000Y50285715D01*
X132357142Y50000000D01*
X132214285Y49857143D01*
X131928571Y49714286D01*
X130928571Y49714286D01*
X134500000Y51142858D02*
X135071428Y51142858D01*
X135357142Y51000000D01*
X135642857Y50714286D01*
X135785714Y50142858D01*
X135785714Y49142858D01*
X135642857Y48571429D01*
X135357142Y48285715D01*
X135071428Y48142858D01*
X134500000Y48142858D01*
X134214285Y48285715D01*
X133928571Y48571429D01*
X133785714Y49142858D01*
X133785714Y50142858D01*
X133928571Y50714286D01*
X134214285Y51000000D01*
X134500000Y51142858D01*
X136642857Y51142858D02*
X138357142Y51142858D01*
X137500000Y48142858D02*
X137500000Y51142858D01*
X138928571Y51142858D02*
X140642857Y51142858D01*
X139785714Y48142858D02*
X139785714Y51142858D01*
X142214285Y51142858D02*
X142785714Y51142858D01*
X143071428Y51000000D01*
X143357142Y50714286D01*
X143500000Y50142858D01*
X143500000Y49142858D01*
X143357142Y48571429D01*
X143071428Y48285715D01*
X142785714Y48142858D01*
X142214285Y48142858D01*
X141928571Y48285715D01*
X141642857Y48571429D01*
X141500000Y49142858D01*
X141500000Y50142858D01*
X141642857Y50714286D01*
X141928571Y51000000D01*
X142214285Y51142858D01*
X144785714Y48142858D02*
X144785714Y51142858D01*
X145785714Y49000000D01*
X146785714Y51142858D01*
X146785714Y48142858D01*
X150357142Y48285715D02*
X150785714Y48142858D01*
X151500000Y48142858D01*
X151785714Y48285715D01*
X151928571Y48428572D01*
X152071428Y48714286D01*
X152071428Y49000000D01*
X151928571Y49285715D01*
X151785714Y49428572D01*
X151500000Y49571429D01*
X150928571Y49714286D01*
X150642857Y49857143D01*
X150500000Y50000000D01*
X150357142Y50285715D01*
X150357142Y50571429D01*
X150500000Y50857143D01*
X150642857Y51000000D01*
X150928571Y51142858D01*
X151642857Y51142858D01*
X152071428Y51000000D01*
X153928571Y51142858D02*
X154500000Y51142858D01*
X154785714Y51000000D01*
X155071428Y50714286D01*
X155214285Y50142858D01*
X155214285Y49142858D01*
X155071428Y48571429D01*
X154785714Y48285715D01*
X154500000Y48142858D01*
X153928571Y48142858D01*
X153642857Y48285715D01*
X153357142Y48571429D01*
X153214285Y49142858D01*
X153214285Y50142858D01*
X153357142Y50714286D01*
X153642857Y51000000D01*
X153928571Y51142858D01*
X157928571Y48142858D02*
X156500000Y48142858D01*
X156500000Y51142858D01*
X158928571Y48142858D02*
X158928571Y51142858D01*
X159642857Y51142858D01*
X160071428Y51000000D01*
X160357142Y50714286D01*
X160500000Y50428572D01*
X160642857Y49857143D01*
X160642857Y49428572D01*
X160500000Y48857143D01*
X160357142Y48571429D01*
X160071428Y48285715D01*
X159642857Y48142858D01*
X158928571Y48142858D01*
X161928571Y49714286D02*
X162928571Y49714286D01*
X163357142Y48142858D02*
X161928571Y48142858D01*
X161928571Y51142858D01*
X163357142Y51142858D01*
X166357142Y48142858D02*
X165357142Y49571429D01*
X164642857Y48142858D02*
X164642857Y51142858D01*
X165785714Y51142858D01*
X166071428Y51000000D01*
X166214285Y50857143D01*
X166357142Y50571429D01*
X166357142Y50142858D01*
X166214285Y49857143D01*
X166071428Y49714286D01*
X165785714Y49571429D01*
X164642857Y49571429D01*
X167642857Y48142858D02*
X167642857Y51142858D01*
X168642857Y49000000D01*
X169642857Y51142858D01*
X169642857Y48142858D01*
X170928571Y49000000D02*
X172357142Y49000000D01*
X170642857Y48142858D02*
X171642857Y51142858D01*
X172642857Y48142858D01*
X173500000Y48285715D02*
X173928571Y48142858D01*
X174642857Y48142858D01*
X174928571Y48285715D01*
X175071428Y48428572D01*
X175214285Y48714286D01*
X175214285Y49000000D01*
X175071428Y49285715D01*
X174928571Y49428572D01*
X174642857Y49571429D01*
X174071428Y49714286D01*
X173785714Y49857143D01*
X173642857Y50000000D01*
X173500000Y50285715D01*
X173500000Y50571429D01*
X173642857Y50857143D01*
X173785714Y51000000D01*
X174071428Y51142858D01*
X174785714Y51142858D01*
X175214285Y51000000D01*
X176500000Y48142858D02*
X176500000Y51142858D01*
X178214285Y48142858D02*
X176928571Y49857143D01*
X178214285Y51142858D02*
X176500000Y49428572D01*
D17*
G04 #@! TO.C,CON1*
X52300000Y16070000D03*
X52300000Y13530000D03*
X49760000Y16070000D03*
X49760000Y13530000D03*
X54840000Y16070000D03*
X54840000Y13530000D03*
G04 #@! TD*
G04 #@! TO.C,NT1*
X7000000Y25400000D03*
X7000000Y29900000D03*
X8750000Y33400000D03*
X12750000Y34400000D03*
X16750000Y33400000D03*
X18500000Y29900000D03*
X18500000Y25400000D03*
X7000000Y20900000D03*
X18500000Y20900000D03*
X8750000Y17400000D03*
X16750000Y17400000D03*
X12750000Y16400000D03*
G04 #@! TD*
G04 #@! TO.C,NT2*
X35000000Y25400000D03*
X35000000Y29900000D03*
X36750000Y33400000D03*
X40750000Y34400000D03*
X44750000Y33400000D03*
X46500000Y29900000D03*
X46500000Y25400000D03*
X35000000Y20900000D03*
X46500000Y20900000D03*
X36750000Y17400000D03*
X44750000Y17400000D03*
X40750000Y16400000D03*
G04 #@! TD*
G04 #@! TO.C,NT3*
X78500000Y25400000D03*
X78500000Y29900000D03*
X80250000Y33400000D03*
X84250000Y34400000D03*
X88250000Y33400000D03*
X90000000Y29900000D03*
X90000000Y25400000D03*
X78500000Y20900000D03*
X90000000Y20900000D03*
X80250000Y17400000D03*
X88250000Y17400000D03*
X84250000Y16400000D03*
G04 #@! TD*
G04 #@! TO.C,NT4*
X106500000Y25400000D03*
X106500000Y29900000D03*
X108250000Y33400000D03*
X112250000Y34400000D03*
X116250000Y33400000D03*
X118000000Y29900000D03*
X118000000Y25400000D03*
X106500000Y20900000D03*
X118000000Y20900000D03*
X108250000Y17400000D03*
X116250000Y17400000D03*
X112250000Y16400000D03*
G04 #@! TD*
G04 #@! TO.C,P2*
X56660000Y1800000D03*
X61740000Y1800000D03*
X59200000Y1800000D03*
G04 #@! TD*
G04 #@! TO.C,P3*
X51300000Y1800000D03*
X53840000Y1800000D03*
X48760000Y1800000D03*
G04 #@! TD*
D18*
G04 #@! TO.C,U1*
X29200000Y38900000D03*
X24200000Y38900000D03*
G04 #@! TD*
D19*
G04 #@! TO.C,X2*
X3900000Y42600000D03*
G04 #@! TD*
G04 #@! TO.C,X3*
X121100000Y3900000D03*
G04 #@! TD*
G04 #@! TO.C,X4*
X121100000Y42600000D03*
G04 #@! TD*
G04 #@! TO.C,X5*
X3900000Y3900000D03*
G04 #@! TD*
D20*
G04 #@! TO.C,F1*
X10300000Y7100000D03*
G04 #@! TD*
G04 #@! TO.C,F2*
X114600000Y38200000D03*
G04 #@! TD*
D17*
G04 #@! TO.C,P1*
X36300000Y4270000D03*
X36300000Y1730000D03*
X33760000Y4270000D03*
X33760000Y1730000D03*
X31220000Y4270000D03*
X31220000Y1730000D03*
X38840000Y4270000D03*
X38840000Y1730000D03*
X41380000Y4270000D03*
X41380000Y1730000D03*
G04 #@! TD*
G04 #@! TO.C,P4*
X115970000Y3900000D03*
X113430000Y3900000D03*
G04 #@! TD*
D18*
G04 #@! TO.C,tp5*
X20000000Y8200000D03*
G04 #@! TD*
G04 #@! TO.C,tp6*
X7400000Y6350000D03*
G04 #@! TD*
G04 #@! TO.C,tp7*
X82100000Y7300000D03*
G04 #@! TD*
G04 #@! TO.C,tp8*
X52700000Y29800000D03*
G04 #@! TD*
G04 #@! TO.C,tp9*
X75500000Y34300000D03*
G04 #@! TD*
G04 #@! TO.C,tp10*
X96650000Y39125000D03*
G04 #@! TD*
G04 #@! TO.C,tp11*
X62200000Y15600000D03*
G04 #@! TD*
D21*
G04 #@! TO.C,tp2*
X102800000Y43800000D03*
G04 #@! TD*
G04 #@! TO.C,tp4*
X82100000Y1500000D03*
G04 #@! TD*
D22*
G04 #@! TO.C,D5*
X11450000Y26200000D03*
X11450000Y25400000D03*
X11450000Y24600000D03*
X14050000Y24600000D03*
X14050000Y25400000D03*
X14050000Y26200000D03*
G04 #@! TD*
G04 #@! TO.C,D6*
X39450000Y26200000D03*
X39450000Y25400000D03*
X39450000Y24600000D03*
X42050000Y24600000D03*
X42050000Y25400000D03*
X42050000Y26200000D03*
G04 #@! TD*
G04 #@! TO.C,D9*
X110950000Y24600000D03*
X110950000Y25400000D03*
X110950000Y26200000D03*
X113550000Y26200000D03*
X113550000Y25400000D03*
X113550000Y24600000D03*
G04 #@! TD*
G04 #@! TO.C,D10*
X82950000Y24600000D03*
X82950000Y25400000D03*
X82950000Y26200000D03*
X85550000Y26200000D03*
X85550000Y25400000D03*
X85550000Y24600000D03*
G04 #@! TD*
M02*
