M48
;DRILL file {KiCad (5.0.0)} date 01/17/19 09:26:12
;FORMAT={-:-/ absolute / metric / decimal}
FMAT,2
METRIC,TZ
T1C0.400
T2C0.500
T3C0.600
T4C0.700
T5C0.800
T6C0.900
T7C1.000
T8C3.200
%
G90
G05
M71
T1
X1.2Y34.4
X1.2Y30.4
X1.2Y26.4
X1.2Y22.4
X6.25Y14.3
X6.25Y13.1
X6.25Y11.95
X6.25Y10.8
X8.8Y19.5
X30.5Y17.9
X35.075Y3.075
X43.5Y10.2
X45.6Y7.4
X46.7Y7.3
X47.6Y6.5
X48.2Y14.1
X50.6Y8.2
X52.9Y9.3
X56.8Y35.3
X57.3Y9.1
X57.4Y15.8
X58.9Y14.9
X60.3Y12.5
X63.4Y4.2
X64.5Y34.9
X64.5Y4.6
X65.2Y15.2
X65.3Y32.8
X66.3Y15.3
X67.4Y4.4
X68.9Y5.7
X69.2Y7.3
X70.7Y3.2
X71.1Y9.8
X71.5Y2.4
X73.55Y5.65
X74.3Y2.4
X74.5Y17.8
X76.5Y16.325
X77.Y13.
X77.3Y14.1
X77.3Y10.2
X78.1Y17.8
X79.3Y5.4
X80.2Y10.2
X82.7Y8.8
X91.8Y23.8
X92.2Y26.7
X92.6Y28.5
X93.1Y27.4
X100.8Y28.1
X101.5Y27.2
X102.5Y26.6
X102.7Y23.8
X106.Y17.8
X119.3Y15.1
X119.3Y13.9
X120.5Y13.9
X121.4Y14.7
X123.7Y31.7
X123.7Y27.7
X123.7Y23.7
X123.7Y19.7
X66.9Y10.7
X61.Y31.8
X61.Y32.8
X115.4Y12.6
X64.8Y10.7
T2
X14.Y27.
X14.Y23.8
X15.2Y25.4
X38.2Y25.4
X39.4Y27.
X39.4Y23.8
X42.Y27.
X42.Y23.8
X43.2Y25.4
X81.7Y25.4
X82.9Y27.
X82.9Y23.8
X85.5Y27.
X85.5Y23.8
X86.8Y25.4
X109.7Y25.4
X110.9Y27.
X110.9Y23.8
X113.5Y23.8
X77.2Y7.9
T3
X46.7Y9.6
X12.6Y39.5
X41.8Y39.
X36.2Y39.1
X60.8Y37.
X31.55Y10.7
X33.25Y10.7
X98.2Y6.9
X72.6Y16.4
X24.1Y25.5
X15.8Y8.7
X23.5Y5.2
X71.6Y13.175
X30.9Y25.7
X49.5Y38.3
X86.4Y42.6
X102.8Y43.8
X17.8Y13.85
X47.5Y39.6
X20.5Y39.5
X62.5Y37.
X58.3Y9.9
X29.1Y16.35
X21.6Y29.7
X2.6Y38.9
X52.3Y32.
X82.1Y1.5
X25.4Y16.2
X22.9Y16.2
X24.1Y29.7
X6.35Y18.3
X88.4Y42.6
X44.5Y4.1
X83.2Y12.6
X30.8Y29.2
X51.7Y38.3
X72.3Y30.
X23.5Y6.4
X47.5Y41.3
X21.7Y25.5
X122.3Y35.9
T4
X24.2Y38.9
X29.2Y38.9
T5
X106.5Y29.9
X106.5Y25.4
X106.5Y20.9
X108.25Y33.4
X108.25Y17.4
X112.25Y34.4
X112.25Y16.4
X116.25Y33.4
X116.25Y17.4
X118.Y29.9
X118.Y25.4
X118.Y20.9
X78.5Y29.9
X78.5Y25.4
X78.5Y20.9
X80.25Y33.4
X80.25Y17.4
X84.25Y34.4
X84.25Y16.4
X88.25Y33.4
X88.25Y17.4
X90.Y29.9
X90.Y25.4
X90.Y20.9
X7.Y29.9
X7.Y25.4
X7.Y20.9
X8.75Y33.4
X8.75Y17.4
X12.75Y34.4
X12.75Y16.4
X16.75Y33.4
X16.75Y17.4
X18.5Y29.9
X18.5Y25.4
X18.5Y20.9
X35.Y29.9
X35.Y25.4
X35.Y20.9
X36.75Y33.4
X36.75Y17.4
X40.75Y34.4
X40.75Y16.4
X44.75Y33.4
X44.75Y17.4
X46.5Y29.9
X46.5Y25.4
X46.5Y20.9
T6
X20.Y8.2
X52.7Y29.8
X82.1Y7.3
X96.65Y39.125
X62.2Y15.6
X7.4Y6.35
X75.5Y34.3
T7
X4.4Y15.8
X6.7Y38.5
X118.2Y36.3
X48.76Y1.8
X51.3Y1.8
X53.84Y1.8
X49.76Y16.07
X49.76Y13.53
X52.3Y16.07
X52.3Y13.53
X54.84Y16.07
X54.84Y13.53
X31.22Y4.27
X31.22Y1.73
X33.76Y4.27
X33.76Y1.73
X36.3Y4.27
X36.3Y1.73
X38.84Y4.27
X38.84Y1.73
X41.38Y4.27
X41.38Y1.73
X56.66Y1.8
X59.2Y1.8
X61.74Y1.8
X113.43Y3.9
X115.97Y3.9
T8
X3.9Y3.9
X121.1Y42.6
X121.1Y3.9
X3.9Y42.6
T0
M30
