G04 #@! TF.GenerationSoftware,KiCad,Pcbnew,(5.0.0)*
G04 #@! TF.CreationDate,2019-01-17T09:26:07-05:00*
G04 #@! TF.ProjectId,nixie_clock_3,6E697869655F636C6F636B5F332E6B69,rev?*
G04 #@! TF.SameCoordinates,PX3e8fa00PY66ce5c0*
G04 #@! TF.FileFunction,Profile,NP*
%FSLAX46Y46*%
G04 Gerber Fmt 4.6, Leading zero omitted, Abs format (unit mm)*
G04 Created by KiCad (PCBNEW (5.0.0)) date 01/17/19 09:26:07*
%MOMM*%
%LPD*%
G01*
G04 APERTURE LIST*
%ADD10C,0.150000*%
G04 APERTURE END LIST*
D10*
X126659179Y0D02*
G75*
G03X126659179Y0I-1666666J0D01*
G01*
X122492513Y0D02*
X127492513Y0D01*
X124992513Y2500000D02*
X124992513Y-2500000D01*
X126666666Y45300000D02*
G75*
G03X126666666Y45300000I-1666666J0D01*
G01*
X122500000Y45300000D02*
X127500000Y45300000D01*
X125000000Y47800000D02*
X125000000Y42800000D01*
X121100000Y45300000D02*
X121000000Y45300000D01*
X121100000Y0D02*
X121000000Y0D01*
X1666666Y45300000D02*
G75*
G03X1666666Y45300000I-1666666J0D01*
G01*
X-2500000Y45300000D02*
X2500000Y45300000D01*
X0Y47800000D02*
X0Y42800000D01*
X1666666Y0D02*
G75*
G03X1666666Y0I-1666666J0D01*
G01*
X-2500000Y0D02*
X2500000Y0D01*
X0Y2500000D02*
X0Y-2500000D01*
X0Y18700000D02*
X0Y3900000D01*
X0Y41400000D02*
X0Y37000000D01*
X121000000Y45300000D02*
X3900000Y45300000D01*
X125000000Y41400000D02*
X125000000Y25800000D01*
X121000000Y0D02*
X108800000Y0D01*
X125000000Y3900000D02*
X125000000Y25800000D01*
X3900000Y45300000D02*
G75*
G03X0Y41400000I0J-3900000D01*
G01*
X125000000Y41400000D02*
G75*
G03X121100000Y45300000I-3900000J0D01*
G01*
X121100000Y0D02*
G75*
G03X125000000Y3900000I0J3900000D01*
G01*
X0Y3900000D02*
G75*
G03X3900000Y0I3900000J0D01*
G01*
X87600000Y0D02*
X3900000Y0D01*
X90400000Y1600000D02*
X87600000Y0D01*
X106000000Y1600000D02*
X90400000Y1600000D01*
X108800000Y0D02*
X106000000Y1600000D01*
X0Y37000000D02*
X0Y18700000D01*
M02*
