%FSLAX45Y45*%
G04 Gerber Fmt 4.5, Leading zero omitted, Abs format (unit mm)*
G04 Created by KiCad (PCBNEW (5.0.0)) date 01/17/19 09:26:13*
%MOMM*%
%LPD*%
G01*
G04 APERTURE LIST*
%ADD10C,0.150000*%
%ADD11C,0.200000*%
%ADD12C,0.300000*%
G04 APERTURE END LIST*
D10*
X12110000Y4530000D02*
X12100000Y4530000D01*
X12110000Y0D02*
X12100000Y0D01*
X0Y1870000D02*
X0Y390000D01*
X0Y4140000D02*
X0Y3700000D01*
X12100000Y4530000D02*
X390000Y4530000D01*
X12500000Y4140000D02*
X12500000Y2580000D01*
X12100000Y0D02*
X10880000Y0D01*
X12500000Y390000D02*
X12500000Y2580000D01*
X390000Y4530000D02*
G75*
G03X0Y4140000I0J-390000D01*
G01*
X12500000Y4140000D02*
G75*
G03X12110000Y4530000I-390000J0D01*
G01*
X12110000Y0D02*
G75*
G03X12500000Y390000I0J390000D01*
G01*
X0Y390000D02*
G75*
G03X390000Y0I390000J0D01*
G01*
X8760000Y0D02*
X390000Y0D01*
X9040000Y160000D02*
X8760000Y0D01*
X10600000Y160000D02*
X9040000Y160000D01*
X10880000Y0D02*
X10600000Y160000D01*
X0Y3700000D02*
X0Y1870000D01*
D11*
X100000Y3460000D02*
X140000Y3420000D01*
X140000Y3460000D02*
X100000Y3420000D01*
X100000Y3060000D02*
X140000Y3020000D01*
X140000Y3060000D02*
X100000Y3020000D01*
X100000Y2660000D02*
X140000Y2620000D01*
X140000Y2660000D02*
X100000Y2620000D01*
X100000Y2260000D02*
X140000Y2220000D01*
X140000Y2260000D02*
X100000Y2220000D01*
X605000Y1450000D02*
X645000Y1410000D01*
X645000Y1450000D02*
X605000Y1410000D01*
X605000Y1330000D02*
X645000Y1290000D01*
X645000Y1330000D02*
X605000Y1290000D01*
X605000Y1215000D02*
X645000Y1175000D01*
X645000Y1215000D02*
X605000Y1175000D01*
X605000Y1100000D02*
X645000Y1060000D01*
X645000Y1100000D02*
X605000Y1060000D01*
X860000Y1970000D02*
X900000Y1930000D01*
X900000Y1970000D02*
X860000Y1930000D01*
X3030000Y1810000D02*
X3070000Y1770000D01*
X3070000Y1810000D02*
X3030000Y1770000D01*
X3487500Y327500D02*
X3527500Y287500D01*
X3527500Y327500D02*
X3487500Y287500D01*
X4330000Y1040000D02*
X4370000Y1000000D01*
X4370000Y1040000D02*
X4330000Y1000000D01*
X4540000Y760000D02*
X4580000Y720000D01*
X4580000Y760000D02*
X4540000Y720000D01*
X4650000Y750000D02*
X4690000Y710000D01*
X4690000Y750000D02*
X4650000Y710000D01*
X4740000Y670000D02*
X4780000Y630000D01*
X4780000Y670000D02*
X4740000Y630000D01*
X4800000Y1430000D02*
X4840000Y1390000D01*
X4840000Y1430000D02*
X4800000Y1390000D01*
X5040000Y840000D02*
X5080000Y800000D01*
X5080000Y840000D02*
X5040000Y800000D01*
X5270000Y950000D02*
X5310000Y910000D01*
X5310000Y950000D02*
X5270000Y910000D01*
X5660000Y3550000D02*
X5700000Y3510000D01*
X5700000Y3550000D02*
X5660000Y3510000D01*
X5710000Y930000D02*
X5750000Y890000D01*
X5750000Y930000D02*
X5710000Y890000D01*
X5720000Y1600000D02*
X5760000Y1560000D01*
X5760000Y1600000D02*
X5720000Y1560000D01*
X5870000Y1510000D02*
X5910000Y1470000D01*
X5910000Y1510000D02*
X5870000Y1470000D01*
X6010000Y1270000D02*
X6050000Y1230000D01*
X6050000Y1270000D02*
X6010000Y1230000D01*
X6320000Y440000D02*
X6360000Y400000D01*
X6360000Y440000D02*
X6320000Y400000D01*
X6430000Y3510000D02*
X6470000Y3470000D01*
X6470000Y3510000D02*
X6430000Y3470000D01*
X6430000Y480000D02*
X6470000Y440000D01*
X6470000Y480000D02*
X6430000Y440000D01*
X6500000Y1540000D02*
X6540000Y1500000D01*
X6540000Y1540000D02*
X6500000Y1500000D01*
X6510000Y3300000D02*
X6550000Y3260000D01*
X6550000Y3300000D02*
X6510000Y3260000D01*
X6610000Y1550000D02*
X6650000Y1510000D01*
X6650000Y1550000D02*
X6610000Y1510000D01*
X6720000Y460000D02*
X6760000Y420000D01*
X6760000Y460000D02*
X6720000Y420000D01*
X6870000Y590000D02*
X6910000Y550000D01*
X6910000Y590000D02*
X6870000Y550000D01*
X6899999Y750000D02*
X6939999Y710000D01*
X6939999Y750000D02*
X6899999Y710000D01*
X7050000Y340000D02*
X7090000Y300000D01*
X7090000Y340000D02*
X7050000Y300000D01*
X7090000Y1000000D02*
X7130000Y960000D01*
X7130000Y1000000D02*
X7090000Y960000D01*
X7130000Y260000D02*
X7170000Y220000D01*
X7170000Y260000D02*
X7130000Y220000D01*
X7335000Y585000D02*
X7375000Y545000D01*
X7375000Y585000D02*
X7335000Y545000D01*
X7410000Y260000D02*
X7450000Y220000D01*
X7450000Y260000D02*
X7410000Y220000D01*
X7430000Y1800000D02*
X7470000Y1760000D01*
X7470000Y1800000D02*
X7430000Y1760000D01*
X7630000Y1652500D02*
X7670000Y1612500D01*
X7670000Y1652500D02*
X7630000Y1612500D01*
X7680000Y1320000D02*
X7720000Y1280000D01*
X7720000Y1320000D02*
X7680000Y1280000D01*
X7710000Y1430000D02*
X7750000Y1390000D01*
X7750000Y1430000D02*
X7710000Y1390000D01*
X7710000Y1040000D02*
X7750000Y1000000D01*
X7750000Y1040000D02*
X7710000Y1000000D01*
X7790000Y1800000D02*
X7830000Y1760000D01*
X7830000Y1800000D02*
X7790000Y1760000D01*
X7910000Y560000D02*
X7950000Y520000D01*
X7950000Y560000D02*
X7910000Y520000D01*
X8000000Y1040000D02*
X8040000Y1000000D01*
X8040000Y1040000D02*
X8000000Y1000000D01*
X8250000Y900000D02*
X8290000Y860000D01*
X8290000Y900000D02*
X8250000Y860000D01*
X9160000Y2400000D02*
X9200000Y2360000D01*
X9200000Y2400000D02*
X9160000Y2360000D01*
X9200000Y2690000D02*
X9240000Y2650000D01*
X9240000Y2690000D02*
X9200000Y2650000D01*
X9240000Y2870000D02*
X9280000Y2830000D01*
X9280000Y2870000D02*
X9240000Y2830000D01*
X9290000Y2760000D02*
X9330000Y2720000D01*
X9330000Y2760000D02*
X9290000Y2720000D01*
X10060000Y2830000D02*
X10100000Y2790000D01*
X10100000Y2830000D02*
X10060000Y2790000D01*
X10130000Y2740000D02*
X10170000Y2700000D01*
X10170000Y2740000D02*
X10130000Y2700000D01*
X10230000Y2680000D02*
X10270000Y2640000D01*
X10270000Y2680000D02*
X10230000Y2640000D01*
X10250000Y2400000D02*
X10290000Y2360000D01*
X10290000Y2400000D02*
X10250000Y2360000D01*
X10580000Y1800000D02*
X10620000Y1760000D01*
X10620000Y1800000D02*
X10580000Y1760000D01*
X11910000Y1530000D02*
X11950000Y1490000D01*
X11950000Y1530000D02*
X11910000Y1490000D01*
X11910000Y1410000D02*
X11950000Y1370000D01*
X11950000Y1410000D02*
X11910000Y1370000D01*
X12030000Y1410000D02*
X12070000Y1370000D01*
X12070000Y1410000D02*
X12030000Y1370000D01*
X12120000Y1490000D02*
X12160000Y1450000D01*
X12160000Y1490000D02*
X12120000Y1450000D01*
X12350000Y3190000D02*
X12390000Y3150000D01*
X12390000Y3190000D02*
X12350000Y3150000D01*
X12350000Y2790000D02*
X12390000Y2750000D01*
X12390000Y2790000D02*
X12350000Y2750000D01*
X12350000Y2390000D02*
X12390000Y2350000D01*
X12390000Y2390000D02*
X12350000Y2350000D01*
X12350000Y1990000D02*
X12390000Y1950000D01*
X12390000Y1990000D02*
X12350000Y1950000D01*
X6670000Y1090000D02*
X6710000Y1050000D01*
X6710000Y1090000D02*
X6670000Y1050000D01*
X6080000Y3200000D02*
X6120000Y3160000D01*
X6120000Y3200000D02*
X6080000Y3160000D01*
X6080000Y3300000D02*
X6120000Y3260000D01*
X6120000Y3300000D02*
X6080000Y3260000D01*
X11520000Y1280000D02*
X11560000Y1240000D01*
X11560000Y1280000D02*
X11520000Y1240000D01*
X6460000Y1090000D02*
X6500000Y1050000D01*
X6500000Y1090000D02*
X6460000Y1050000D01*
X1425000Y2700000D02*
G75*
G03X1425000Y2700000I-25000J0D01*
G01*
X1425000Y2380000D02*
G75*
G03X1425000Y2380000I-25000J0D01*
G01*
X1545000Y2540000D02*
G75*
G03X1545000Y2540000I-25000J0D01*
G01*
X3845000Y2540000D02*
G75*
G03X3845000Y2540000I-25000J0D01*
G01*
X3965000Y2700000D02*
G75*
G03X3965000Y2700000I-25000J0D01*
G01*
X3965000Y2380000D02*
G75*
G03X3965000Y2380000I-25000J0D01*
G01*
X4225000Y2700000D02*
G75*
G03X4225000Y2700000I-25000J0D01*
G01*
X4225000Y2380000D02*
G75*
G03X4225000Y2380000I-25000J0D01*
G01*
X4345000Y2540000D02*
G75*
G03X4345000Y2540000I-25000J0D01*
G01*
X8195000Y2540000D02*
G75*
G03X8195000Y2540000I-25000J0D01*
G01*
X8315000Y2700000D02*
G75*
G03X8315000Y2700000I-25000J0D01*
G01*
X8315000Y2380000D02*
G75*
G03X8315000Y2380000I-25000J0D01*
G01*
X8575000Y2700000D02*
G75*
G03X8575000Y2700000I-25000J0D01*
G01*
X8575000Y2380000D02*
G75*
G03X8575000Y2380000I-25000J0D01*
G01*
X8705000Y2540000D02*
G75*
G03X8705000Y2540000I-25000J0D01*
G01*
X10995000Y2540000D02*
G75*
G03X10995000Y2540000I-25000J0D01*
G01*
X11115000Y2700000D02*
G75*
G03X11115000Y2700000I-25000J0D01*
G01*
X11115000Y2380000D02*
G75*
G03X11115000Y2380000I-25000J0D01*
G01*
X11375000Y2380000D02*
G75*
G03X11375000Y2380000I-25000J0D01*
G01*
X7745000Y790000D02*
G75*
G03X7745000Y790000I-25000J0D01*
G01*
X4670000Y990000D02*
X4670000Y930000D01*
X4640000Y960000D02*
X4700000Y960000D01*
X1260000Y3980000D02*
X1260000Y3920000D01*
X1230000Y3950000D02*
X1290000Y3950000D01*
X4180000Y3930000D02*
X4180000Y3870000D01*
X4150000Y3900000D02*
X4210000Y3900000D01*
X3620000Y3940000D02*
X3620000Y3880000D01*
X3590000Y3910000D02*
X3650000Y3910000D01*
X6080000Y3730000D02*
X6080000Y3670000D01*
X6050000Y3700000D02*
X6110000Y3700000D01*
X3155000Y1100000D02*
X3155000Y1040000D01*
X3125000Y1070000D02*
X3185000Y1070000D01*
X3325000Y1100000D02*
X3325000Y1040000D01*
X3295000Y1070000D02*
X3355000Y1070000D01*
X9820000Y720000D02*
X9820000Y660000D01*
X9790000Y690000D02*
X9850000Y690000D01*
X7260000Y1670000D02*
X7260000Y1610000D01*
X7230000Y1640000D02*
X7290000Y1640000D01*
X2410000Y2580000D02*
X2410000Y2520000D01*
X2380000Y2550000D02*
X2440000Y2550000D01*
X1580000Y900000D02*
X1580000Y840000D01*
X1550000Y870000D02*
X1610000Y870000D01*
X2350000Y550000D02*
X2350000Y490000D01*
X2320000Y520000D02*
X2380000Y520000D01*
X7160000Y1347500D02*
X7160000Y1287500D01*
X7130000Y1317500D02*
X7190000Y1317500D01*
X3090000Y2600000D02*
X3090000Y2540000D01*
X3060000Y2570000D02*
X3120000Y2570000D01*
X4950000Y3860000D02*
X4950000Y3800000D01*
X4920000Y3830000D02*
X4980000Y3830000D01*
X8640000Y4290000D02*
X8640000Y4230000D01*
X8610000Y4260000D02*
X8670000Y4260000D01*
X10280000Y4410000D02*
X10280000Y4350000D01*
X10250000Y4380000D02*
X10310000Y4380000D01*
X1780000Y1415000D02*
X1780000Y1355000D01*
X1750000Y1385000D02*
X1810000Y1385000D01*
X4750000Y3990000D02*
X4750000Y3930000D01*
X4720000Y3960000D02*
X4780000Y3960000D01*
X2050000Y3980000D02*
X2050000Y3920000D01*
X2020000Y3950000D02*
X2080000Y3950000D01*
X6250000Y3730000D02*
X6250000Y3670000D01*
X6220000Y3700000D02*
X6280000Y3700000D01*
X5830000Y1020000D02*
X5830000Y960000D01*
X5800000Y990000D02*
X5860000Y990000D01*
X2910000Y1665000D02*
X2910000Y1605000D01*
X2880000Y1635000D02*
X2940000Y1635000D01*
X2160000Y3000000D02*
X2160000Y2940000D01*
X2130000Y2970000D02*
X2190000Y2970000D01*
X260000Y3920000D02*
X260000Y3860000D01*
X230000Y3890000D02*
X290000Y3890000D01*
X5230000Y3230000D02*
X5230000Y3170000D01*
X5200000Y3200000D02*
X5260000Y3200000D01*
X8210000Y180000D02*
X8210000Y120000D01*
X8180000Y150000D02*
X8240000Y150000D01*
X2540000Y1650000D02*
X2540000Y1590000D01*
X2510000Y1620000D02*
X2570000Y1620000D01*
X2290000Y1650000D02*
X2290000Y1590000D01*
X2260000Y1620000D02*
X2320000Y1620000D01*
X2410000Y3000000D02*
X2410000Y2940000D01*
X2380000Y2970000D02*
X2440000Y2970000D01*
X635000Y1860000D02*
X635000Y1800000D01*
X605000Y1830000D02*
X665000Y1830000D01*
X8840000Y4290000D02*
X8840000Y4230000D01*
X8810000Y4260000D02*
X8870000Y4260000D01*
X4450000Y440000D02*
X4450000Y380000D01*
X4420000Y410000D02*
X4480000Y410000D01*
X8320000Y1290000D02*
X8320000Y1230000D01*
X8290000Y1260000D02*
X8350000Y1260000D01*
X3080000Y2950000D02*
X3080000Y2890000D01*
X3050000Y2920000D02*
X3110000Y2920000D01*
X5170000Y3860000D02*
X5170000Y3800000D01*
X5140000Y3830000D02*
X5200000Y3830000D01*
X7230000Y3030000D02*
X7230000Y2970000D01*
X7200000Y3000000D02*
X7260000Y3000000D01*
X2350000Y670000D02*
X2350000Y610000D01*
X2320000Y640000D02*
X2380000Y640000D01*
X4750000Y4160000D02*
X4750000Y4100000D01*
X4720000Y4130000D02*
X4780000Y4130000D01*
X2170000Y2580000D02*
X2170000Y2520000D01*
X2140000Y2550000D02*
X2200000Y2550000D01*
X12230000Y3620000D02*
X12230000Y3560000D01*
X12200000Y3590000D02*
X12260000Y3590000D01*
X2444749Y3865251D02*
X2444749Y3914749D01*
X2395251Y3914749D01*
X2395251Y3865251D01*
X2444749Y3865251D01*
X2944749Y3865251D02*
X2944749Y3914749D01*
X2895251Y3914749D01*
X2895251Y3865251D01*
X2944749Y3865251D01*
X10650000Y2950000D02*
X10690000Y2990000D01*
X10650000Y3030000D01*
X10610000Y2990000D01*
X10650000Y2950000D01*
X10650000Y2500000D02*
X10690000Y2540000D01*
X10650000Y2580000D01*
X10610000Y2540000D01*
X10650000Y2500000D01*
X10650000Y2050000D02*
X10690000Y2090000D01*
X10650000Y2130000D01*
X10610000Y2090000D01*
X10650000Y2050000D01*
X10825000Y3300000D02*
X10865000Y3340000D01*
X10825000Y3380000D01*
X10785000Y3340000D01*
X10825000Y3300000D01*
X10825000Y1700000D02*
X10865000Y1740000D01*
X10825000Y1780000D01*
X10785000Y1740000D01*
X10825000Y1700000D01*
X11225000Y3400000D02*
X11265000Y3440000D01*
X11225000Y3480000D01*
X11185000Y3440000D01*
X11225000Y3400000D01*
X11225000Y1600000D02*
X11265000Y1640000D01*
X11225000Y1680000D01*
X11185000Y1640000D01*
X11225000Y1600000D01*
X11625000Y3300000D02*
X11665000Y3340000D01*
X11625000Y3380000D01*
X11585000Y3340000D01*
X11625000Y3300000D01*
X11625000Y1700000D02*
X11665000Y1740000D01*
X11625000Y1780000D01*
X11585000Y1740000D01*
X11625000Y1700000D01*
X11800000Y2950000D02*
X11840000Y2990000D01*
X11800000Y3030000D01*
X11760000Y2990000D01*
X11800000Y2950000D01*
X11800000Y2500000D02*
X11840000Y2540000D01*
X11800000Y2580000D01*
X11760000Y2540000D01*
X11800000Y2500000D01*
X11800000Y2050000D02*
X11840000Y2090000D01*
X11800000Y2130000D01*
X11760000Y2090000D01*
X11800000Y2050000D01*
X7850000Y2950000D02*
X7890000Y2990000D01*
X7850000Y3030000D01*
X7810000Y2990000D01*
X7850000Y2950000D01*
X7850000Y2500000D02*
X7890000Y2540000D01*
X7850000Y2580000D01*
X7810000Y2540000D01*
X7850000Y2500000D01*
X7850000Y2050000D02*
X7890000Y2090000D01*
X7850000Y2130000D01*
X7810000Y2090000D01*
X7850000Y2050000D01*
X8025000Y3300000D02*
X8065000Y3340000D01*
X8025000Y3380000D01*
X7985000Y3340000D01*
X8025000Y3300000D01*
X8025000Y1700000D02*
X8065000Y1740000D01*
X8025000Y1780000D01*
X7985000Y1740000D01*
X8025000Y1700000D01*
X8425000Y3400000D02*
X8465000Y3440000D01*
X8425000Y3480000D01*
X8385000Y3440000D01*
X8425000Y3400000D01*
X8425000Y1600000D02*
X8465000Y1640000D01*
X8425000Y1680000D01*
X8385000Y1640000D01*
X8425000Y1600000D01*
X8825000Y3300000D02*
X8865000Y3340000D01*
X8825000Y3380000D01*
X8785000Y3340000D01*
X8825000Y3300000D01*
X8825000Y1700000D02*
X8865000Y1740000D01*
X8825000Y1780000D01*
X8785000Y1740000D01*
X8825000Y1700000D01*
X9000000Y2950000D02*
X9040000Y2990000D01*
X9000000Y3030000D01*
X8960000Y2990000D01*
X9000000Y2950000D01*
X9000000Y2500000D02*
X9040000Y2540000D01*
X9000000Y2580000D01*
X8960000Y2540000D01*
X9000000Y2500000D01*
X9000000Y2050000D02*
X9040000Y2090000D01*
X9000000Y2130000D01*
X8960000Y2090000D01*
X9000000Y2050000D01*
X700000Y2950000D02*
X740000Y2990000D01*
X700000Y3030000D01*
X660000Y2990000D01*
X700000Y2950000D01*
X700000Y2500000D02*
X740000Y2540000D01*
X700000Y2580000D01*
X660000Y2540000D01*
X700000Y2500000D01*
X700000Y2050000D02*
X740000Y2090000D01*
X700000Y2130000D01*
X660000Y2090000D01*
X700000Y2050000D01*
X875000Y3300000D02*
X915000Y3340000D01*
X875000Y3380000D01*
X835000Y3340000D01*
X875000Y3300000D01*
X875000Y1700000D02*
X915000Y1740000D01*
X875000Y1780000D01*
X835000Y1740000D01*
X875000Y1700000D01*
X1275000Y3400000D02*
X1315000Y3440000D01*
X1275000Y3480000D01*
X1235000Y3440000D01*
X1275000Y3400000D01*
X1275000Y1600000D02*
X1315000Y1640000D01*
X1275000Y1680000D01*
X1235000Y1640000D01*
X1275000Y1600000D01*
X1675000Y3300000D02*
X1715000Y3340000D01*
X1675000Y3380000D01*
X1635000Y3340000D01*
X1675000Y3300000D01*
X1675000Y1700000D02*
X1715000Y1740000D01*
X1675000Y1780000D01*
X1635000Y1740000D01*
X1675000Y1700000D01*
X1850000Y2950000D02*
X1890000Y2990000D01*
X1850000Y3030000D01*
X1810000Y2990000D01*
X1850000Y2950000D01*
X1850000Y2500000D02*
X1890000Y2540000D01*
X1850000Y2580000D01*
X1810000Y2540000D01*
X1850000Y2500000D01*
X1850000Y2050000D02*
X1890000Y2090000D01*
X1850000Y2130000D01*
X1810000Y2090000D01*
X1850000Y2050000D01*
X3500000Y2950000D02*
X3540000Y2990000D01*
X3500000Y3030000D01*
X3460000Y2990000D01*
X3500000Y2950000D01*
X3500000Y2500000D02*
X3540000Y2540000D01*
X3500000Y2580000D01*
X3460000Y2540000D01*
X3500000Y2500000D01*
X3500000Y2050000D02*
X3540000Y2090000D01*
X3500000Y2130000D01*
X3460000Y2090000D01*
X3500000Y2050000D01*
X3675000Y3300000D02*
X3715000Y3340000D01*
X3675000Y3380000D01*
X3635000Y3340000D01*
X3675000Y3300000D01*
X3675000Y1700000D02*
X3715000Y1740000D01*
X3675000Y1780000D01*
X3635000Y1740000D01*
X3675000Y1700000D01*
X4075000Y3400000D02*
X4115000Y3440000D01*
X4075000Y3480000D01*
X4035000Y3440000D01*
X4075000Y3400000D01*
X4075000Y1600000D02*
X4115000Y1640000D01*
X4075000Y1680000D01*
X4035000Y1640000D01*
X4075000Y1600000D01*
X4475000Y3300000D02*
X4515000Y3340000D01*
X4475000Y3380000D01*
X4435000Y3340000D01*
X4475000Y3300000D01*
X4475000Y1700000D02*
X4515000Y1740000D01*
X4475000Y1780000D01*
X4435000Y1740000D01*
X4475000Y1700000D01*
X4650000Y2950000D02*
X4690000Y2990000D01*
X4650000Y3030000D01*
X4610000Y2990000D01*
X4650000Y2950000D01*
X4650000Y2500000D02*
X4690000Y2540000D01*
X4650000Y2580000D01*
X4610000Y2540000D01*
X4650000Y2500000D01*
X4650000Y2050000D02*
X4690000Y2090000D01*
X4650000Y2130000D01*
X4610000Y2090000D01*
X4650000Y2050000D01*
X1955000Y865000D02*
X2045000Y775000D01*
X2045000Y865000D02*
X1955000Y775000D01*
X2045000Y820000D02*
G75*
G03X2045000Y820000I-45000J0D01*
G01*
X5225000Y3025000D02*
X5315000Y2935000D01*
X5315000Y3025000D02*
X5225000Y2935000D01*
X5315000Y2980000D02*
G75*
G03X5315000Y2980000I-45000J0D01*
G01*
X8165000Y775000D02*
X8255000Y685000D01*
X8255000Y775000D02*
X8165000Y685000D01*
X8255000Y730000D02*
G75*
G03X8255000Y730000I-45000J0D01*
G01*
X9620000Y3957500D02*
X9710000Y3867500D01*
X9710000Y3957500D02*
X9620000Y3867500D01*
X9710000Y3912500D02*
G75*
G03X9710000Y3912500I-45000J0D01*
G01*
X6175000Y1605000D02*
X6265000Y1515000D01*
X6265000Y1605000D02*
X6175000Y1515000D01*
X6265000Y1560000D02*
G75*
G03X6265000Y1560000I-45000J0D01*
G01*
X695000Y680000D02*
X785000Y590000D01*
X785000Y680000D02*
X695000Y590000D01*
X785000Y635000D02*
G75*
G03X785000Y635000I-45000J0D01*
G01*
X7505000Y3475000D02*
X7595000Y3385000D01*
X7595000Y3475000D02*
X7505000Y3385000D01*
X7595000Y3430000D02*
G75*
G03X7595000Y3430000I-45000J0D01*
G01*
X390000Y1630000D02*
X490000Y1530000D01*
X490000Y1630000D02*
X390000Y1530000D01*
X440000Y1630000D02*
X440000Y1530000D01*
X390000Y1580000D02*
X490000Y1580000D01*
X620000Y3900000D02*
X720000Y3800000D01*
X720000Y3900000D02*
X620000Y3800000D01*
X670000Y3900000D02*
X670000Y3800000D01*
X620000Y3850000D02*
X720000Y3850000D01*
X11770000Y3680000D02*
X11870000Y3580000D01*
X11870000Y3680000D02*
X11770000Y3580000D01*
X11820000Y3680000D02*
X11820000Y3580000D01*
X11770000Y3630000D02*
X11870000Y3630000D01*
X4826000Y230000D02*
X4926000Y130000D01*
X4926000Y230000D02*
X4826000Y130000D01*
X4876000Y230000D02*
X4876000Y130000D01*
X4826000Y180000D02*
X4926000Y180000D01*
X5080000Y230000D02*
X5180000Y130000D01*
X5180000Y230000D02*
X5080000Y130000D01*
X5130000Y230000D02*
X5130000Y130000D01*
X5080000Y180000D02*
X5180000Y180000D01*
X5334000Y230000D02*
X5434000Y130000D01*
X5434000Y230000D02*
X5334000Y130000D01*
X5384000Y230000D02*
X5384000Y130000D01*
X5334000Y180000D02*
X5434000Y180000D01*
X4926000Y1657000D02*
X5026000Y1557000D01*
X5026000Y1657000D02*
X4926000Y1557000D01*
X4976000Y1657000D02*
X4976000Y1557000D01*
X4926000Y1607000D02*
X5026000Y1607000D01*
X4926000Y1403000D02*
X5026000Y1303000D01*
X5026000Y1403000D02*
X4926000Y1303000D01*
X4976000Y1403000D02*
X4976000Y1303000D01*
X4926000Y1353000D02*
X5026000Y1353000D01*
X5180000Y1657000D02*
X5280000Y1557000D01*
X5280000Y1657000D02*
X5180000Y1557000D01*
X5230000Y1657000D02*
X5230000Y1557000D01*
X5180000Y1607000D02*
X5280000Y1607000D01*
X5180000Y1403000D02*
X5280000Y1303000D01*
X5280000Y1403000D02*
X5180000Y1303000D01*
X5230000Y1403000D02*
X5230000Y1303000D01*
X5180000Y1353000D02*
X5280000Y1353000D01*
X5434000Y1657000D02*
X5534000Y1557000D01*
X5534000Y1657000D02*
X5434000Y1557000D01*
X5484000Y1657000D02*
X5484000Y1557000D01*
X5434000Y1607000D02*
X5534000Y1607000D01*
X5434000Y1403000D02*
X5534000Y1303000D01*
X5534000Y1403000D02*
X5434000Y1303000D01*
X5484000Y1403000D02*
X5484000Y1303000D01*
X5434000Y1353000D02*
X5534000Y1353000D01*
X3072000Y477000D02*
X3172000Y377000D01*
X3172000Y477000D02*
X3072000Y377000D01*
X3122000Y477000D02*
X3122000Y377000D01*
X3072000Y427000D02*
X3172000Y427000D01*
X3072000Y223000D02*
X3172000Y123000D01*
X3172000Y223000D02*
X3072000Y123000D01*
X3122000Y223000D02*
X3122000Y123000D01*
X3072000Y173000D02*
X3172000Y173000D01*
X3326000Y477000D02*
X3426000Y377000D01*
X3426000Y477000D02*
X3326000Y377000D01*
X3376000Y477000D02*
X3376000Y377000D01*
X3326000Y427000D02*
X3426000Y427000D01*
X3326000Y223000D02*
X3426000Y123000D01*
X3426000Y223000D02*
X3326000Y123000D01*
X3376000Y223000D02*
X3376000Y123000D01*
X3326000Y173000D02*
X3426000Y173000D01*
X3580000Y477000D02*
X3680000Y377000D01*
X3680000Y477000D02*
X3580000Y377000D01*
X3630000Y477000D02*
X3630000Y377000D01*
X3580000Y427000D02*
X3680000Y427000D01*
X3580000Y223000D02*
X3680000Y123000D01*
X3680000Y223000D02*
X3580000Y123000D01*
X3630000Y223000D02*
X3630000Y123000D01*
X3580000Y173000D02*
X3680000Y173000D01*
X3834000Y477000D02*
X3934000Y377000D01*
X3934000Y477000D02*
X3834000Y377000D01*
X3884000Y477000D02*
X3884000Y377000D01*
X3834000Y427000D02*
X3934000Y427000D01*
X3834000Y223000D02*
X3934000Y123000D01*
X3934000Y223000D02*
X3834000Y123000D01*
X3884000Y223000D02*
X3884000Y123000D01*
X3834000Y173000D02*
X3934000Y173000D01*
X4088000Y477000D02*
X4188000Y377000D01*
X4188000Y477000D02*
X4088000Y377000D01*
X4138000Y477000D02*
X4138000Y377000D01*
X4088000Y427000D02*
X4188000Y427000D01*
X4088000Y223000D02*
X4188000Y123000D01*
X4188000Y223000D02*
X4088000Y123000D01*
X4138000Y223000D02*
X4138000Y123000D01*
X4088000Y173000D02*
X4188000Y173000D01*
X5616000Y230000D02*
X5716000Y130000D01*
X5716000Y230000D02*
X5616000Y130000D01*
X5666000Y230000D02*
X5666000Y130000D01*
X5616000Y180000D02*
X5716000Y180000D01*
X5870000Y230000D02*
X5970000Y130000D01*
X5970000Y230000D02*
X5870000Y130000D01*
X5920000Y230000D02*
X5920000Y130000D01*
X5870000Y180000D02*
X5970000Y180000D01*
X6124000Y230000D02*
X6224000Y130000D01*
X6224000Y230000D02*
X6124000Y130000D01*
X6174000Y230000D02*
X6174000Y130000D01*
X6124000Y180000D02*
X6224000Y180000D01*
X11293000Y440000D02*
X11393000Y340000D01*
X11393000Y440000D02*
X11293000Y340000D01*
X11343000Y440000D02*
X11343000Y340000D01*
X11293000Y390000D02*
X11393000Y390000D01*
X11547000Y440000D02*
X11647000Y340000D01*
X11647000Y440000D02*
X11547000Y340000D01*
X11597000Y440000D02*
X11597000Y340000D01*
X11547000Y390000D02*
X11647000Y390000D01*
X230000Y550000D02*
X550000Y230000D01*
X550000Y550000D02*
X230000Y230000D01*
X503138Y276862D02*
X503138Y503138D01*
X276862Y503138D01*
X276862Y276862D01*
X503138Y276862D01*
X11950000Y4420000D02*
X12270000Y4100000D01*
X12270000Y4420000D02*
X11950000Y4100000D01*
X12223138Y4146862D02*
X12223138Y4373138D01*
X11996862Y4373138D01*
X11996862Y4146862D01*
X12223138Y4146862D01*
X11950000Y550000D02*
X12270000Y230000D01*
X12270000Y550000D02*
X11950000Y230000D01*
X12223138Y276862D02*
X12223138Y503138D01*
X11996862Y503138D01*
X11996862Y276862D01*
X12223138Y276862D01*
X230000Y4420000D02*
X550000Y4100000D01*
X550000Y4420000D02*
X230000Y4100000D01*
X503138Y4146862D02*
X503138Y4373138D01*
X276862Y4373138D01*
X276862Y4146862D01*
X503138Y4146862D01*
D12*
X278928Y-473214D02*
X278928Y-173214D01*
X350357Y-173214D01*
X393214Y-187500D01*
X421786Y-216071D01*
X436071Y-244643D01*
X450357Y-301786D01*
X450357Y-344643D01*
X436071Y-401786D01*
X421786Y-430357D01*
X393214Y-458929D01*
X350357Y-473214D01*
X278928Y-473214D01*
X578928Y-473214D02*
X578928Y-273214D01*
X578928Y-330357D02*
X593214Y-301786D01*
X607500Y-287500D01*
X636071Y-273214D01*
X664643Y-273214D01*
X764643Y-473214D02*
X764643Y-273214D01*
X764643Y-173214D02*
X750357Y-187500D01*
X764643Y-201786D01*
X778928Y-187500D01*
X764643Y-173214D01*
X764643Y-201786D01*
X950357Y-473214D02*
X921786Y-458929D01*
X907500Y-430357D01*
X907500Y-173214D01*
X1107500Y-473214D02*
X1078928Y-458929D01*
X1064643Y-430357D01*
X1064643Y-173214D01*
X1450357Y-473214D02*
X1450357Y-173214D01*
X1550357Y-387500D01*
X1650357Y-173214D01*
X1650357Y-473214D01*
X1921786Y-473214D02*
X1921786Y-316072D01*
X1907500Y-287500D01*
X1878928Y-273214D01*
X1821786Y-273214D01*
X1793214Y-287500D01*
X1921786Y-458929D02*
X1893214Y-473214D01*
X1821786Y-473214D01*
X1793214Y-458929D01*
X1778928Y-430357D01*
X1778928Y-401786D01*
X1793214Y-373214D01*
X1821786Y-358929D01*
X1893214Y-358929D01*
X1921786Y-344643D01*
X2064643Y-273214D02*
X2064643Y-573214D01*
X2064643Y-287500D02*
X2093214Y-273214D01*
X2150357Y-273214D01*
X2178928Y-287500D01*
X2193214Y-301786D01*
X2207500Y-330357D01*
X2207500Y-416071D01*
X2193214Y-444643D01*
X2178928Y-458929D01*
X2150357Y-473214D01*
X2093214Y-473214D01*
X2064643Y-458929D01*
X2336071Y-444643D02*
X2350357Y-458929D01*
X2336071Y-473214D01*
X2321786Y-458929D01*
X2336071Y-444643D01*
X2336071Y-473214D01*
X2336071Y-287500D02*
X2350357Y-301786D01*
X2336071Y-316072D01*
X2321786Y-301786D01*
X2336071Y-287500D01*
X2336071Y-316072D01*
X-47500Y-947500D02*
X-7500Y-987500D01*
X-7500Y-947500D02*
X-47500Y-987500D01*
X336071Y-803214D02*
X364643Y-803214D01*
X393214Y-817500D01*
X407500Y-831786D01*
X421786Y-860357D01*
X436071Y-917500D01*
X436071Y-988929D01*
X421786Y-1046071D01*
X407500Y-1074643D01*
X393214Y-1088929D01*
X364643Y-1103214D01*
X336071Y-1103214D01*
X307500Y-1088929D01*
X293214Y-1074643D01*
X278928Y-1046071D01*
X264643Y-988929D01*
X264643Y-917500D01*
X278928Y-860357D01*
X293214Y-831786D01*
X307500Y-817500D01*
X336071Y-803214D01*
X564643Y-1074643D02*
X578928Y-1088929D01*
X564643Y-1103214D01*
X550357Y-1088929D01*
X564643Y-1074643D01*
X564643Y-1103214D01*
X836071Y-903214D02*
X836071Y-1103214D01*
X764643Y-788929D02*
X693214Y-1003214D01*
X878928Y-1003214D01*
X1050357Y-803214D02*
X1078928Y-803214D01*
X1107500Y-817500D01*
X1121786Y-831786D01*
X1136071Y-860357D01*
X1150357Y-917500D01*
X1150357Y-988929D01*
X1136071Y-1046071D01*
X1121786Y-1074643D01*
X1107500Y-1088929D01*
X1078928Y-1103214D01*
X1050357Y-1103214D01*
X1021786Y-1088929D01*
X1007500Y-1074643D01*
X993214Y-1046071D01*
X978928Y-988929D01*
X978928Y-917500D01*
X993214Y-860357D01*
X1007500Y-831786D01*
X1021786Y-817500D01*
X1050357Y-803214D01*
X1278928Y-1103214D02*
X1278928Y-903214D01*
X1278928Y-931786D02*
X1293214Y-917500D01*
X1321786Y-903214D01*
X1364643Y-903214D01*
X1393214Y-917500D01*
X1407500Y-946071D01*
X1407500Y-1103214D01*
X1407500Y-946071D02*
X1421786Y-917500D01*
X1450357Y-903214D01*
X1493214Y-903214D01*
X1521786Y-917500D01*
X1536071Y-946071D01*
X1536071Y-1103214D01*
X1678928Y-1103214D02*
X1678928Y-903214D01*
X1678928Y-931786D02*
X1693214Y-917500D01*
X1721786Y-903214D01*
X1764643Y-903214D01*
X1793214Y-917500D01*
X1807500Y-946071D01*
X1807500Y-1103214D01*
X1807500Y-946071D02*
X1821786Y-917500D01*
X1850357Y-903214D01*
X1893214Y-903214D01*
X1921786Y-917500D01*
X1936071Y-946071D01*
X1936071Y-1103214D01*
X2521786Y-788929D02*
X2264643Y-1174643D01*
X2907500Y-803214D02*
X2936071Y-803214D01*
X2964643Y-817500D01*
X2978928Y-831786D01*
X2993214Y-860357D01*
X3007500Y-917500D01*
X3007500Y-988929D01*
X2993214Y-1046071D01*
X2978928Y-1074643D01*
X2964643Y-1088929D01*
X2936071Y-1103214D01*
X2907500Y-1103214D01*
X2878928Y-1088929D01*
X2864643Y-1074643D01*
X2850357Y-1046071D01*
X2836071Y-988929D01*
X2836071Y-917500D01*
X2850357Y-860357D01*
X2864643Y-831786D01*
X2878928Y-817500D01*
X2907500Y-803214D01*
X3136071Y-1074643D02*
X3150357Y-1088929D01*
X3136071Y-1103214D01*
X3121786Y-1088929D01*
X3136071Y-1074643D01*
X3136071Y-1103214D01*
X3336071Y-803214D02*
X3364643Y-803214D01*
X3393214Y-817500D01*
X3407500Y-831786D01*
X3421786Y-860357D01*
X3436071Y-917500D01*
X3436071Y-988929D01*
X3421786Y-1046071D01*
X3407500Y-1074643D01*
X3393214Y-1088929D01*
X3364643Y-1103214D01*
X3336071Y-1103214D01*
X3307500Y-1088929D01*
X3293214Y-1074643D01*
X3278928Y-1046071D01*
X3264643Y-988929D01*
X3264643Y-917500D01*
X3278928Y-860357D01*
X3293214Y-831786D01*
X3307500Y-817500D01*
X3336071Y-803214D01*
X3721786Y-1103214D02*
X3550357Y-1103214D01*
X3636071Y-1103214D02*
X3636071Y-803214D01*
X3607500Y-846071D01*
X3578928Y-874643D01*
X3550357Y-888929D01*
X3978928Y-803214D02*
X3921786Y-803214D01*
X3893214Y-817500D01*
X3878928Y-831786D01*
X3850357Y-874643D01*
X3836071Y-931786D01*
X3836071Y-1046071D01*
X3850357Y-1074643D01*
X3864643Y-1088929D01*
X3893214Y-1103214D01*
X3950357Y-1103214D01*
X3978928Y-1088929D01*
X3993214Y-1074643D01*
X4007500Y-1046071D01*
X4007500Y-974643D01*
X3993214Y-946071D01*
X3978928Y-931786D01*
X3950357Y-917500D01*
X3893214Y-917500D01*
X3864643Y-931786D01*
X3850357Y-946071D01*
X3836071Y-974643D01*
X4121786Y-803214D02*
X4121786Y-860357D01*
X4236071Y-803214D02*
X4236071Y-860357D01*
X4678928Y-1217500D02*
X4664643Y-1203214D01*
X4636071Y-1160357D01*
X4621786Y-1131786D01*
X4607500Y-1088929D01*
X4593214Y-1017500D01*
X4593214Y-960357D01*
X4607500Y-888929D01*
X4621786Y-846071D01*
X4636071Y-817500D01*
X4664643Y-774643D01*
X4678928Y-760357D01*
X4921786Y-803214D02*
X4864643Y-803214D01*
X4836071Y-817500D01*
X4821786Y-831786D01*
X4793214Y-874643D01*
X4778928Y-931786D01*
X4778928Y-1046071D01*
X4793214Y-1074643D01*
X4807500Y-1088929D01*
X4836071Y-1103214D01*
X4893214Y-1103214D01*
X4921786Y-1088929D01*
X4936071Y-1074643D01*
X4950357Y-1046071D01*
X4950357Y-974643D01*
X4936071Y-946071D01*
X4921786Y-931786D01*
X4893214Y-917500D01*
X4836071Y-917500D01*
X4807500Y-931786D01*
X4793214Y-946071D01*
X4778928Y-974643D01*
X5121786Y-931786D02*
X5093214Y-917500D01*
X5078928Y-903214D01*
X5064643Y-874643D01*
X5064643Y-860357D01*
X5078928Y-831786D01*
X5093214Y-817500D01*
X5121786Y-803214D01*
X5178928Y-803214D01*
X5207500Y-817500D01*
X5221786Y-831786D01*
X5236071Y-860357D01*
X5236071Y-874643D01*
X5221786Y-903214D01*
X5207500Y-917500D01*
X5178928Y-931786D01*
X5121786Y-931786D01*
X5093214Y-946071D01*
X5078928Y-960357D01*
X5064643Y-988929D01*
X5064643Y-1046071D01*
X5078928Y-1074643D01*
X5093214Y-1088929D01*
X5121786Y-1103214D01*
X5178928Y-1103214D01*
X5207500Y-1088929D01*
X5221786Y-1074643D01*
X5236071Y-1046071D01*
X5236071Y-988929D01*
X5221786Y-960357D01*
X5207500Y-946071D01*
X5178928Y-931786D01*
X5593214Y-1103214D02*
X5593214Y-803214D01*
X5721786Y-1103214D02*
X5721786Y-946071D01*
X5707500Y-917500D01*
X5678928Y-903214D01*
X5636071Y-903214D01*
X5607500Y-917500D01*
X5593214Y-931786D01*
X5907500Y-1103214D02*
X5878928Y-1088929D01*
X5864643Y-1074643D01*
X5850357Y-1046071D01*
X5850357Y-960357D01*
X5864643Y-931786D01*
X5878928Y-917500D01*
X5907500Y-903214D01*
X5950357Y-903214D01*
X5978928Y-917500D01*
X5993214Y-931786D01*
X6007500Y-960357D01*
X6007500Y-1046071D01*
X5993214Y-1074643D01*
X5978928Y-1088929D01*
X5950357Y-1103214D01*
X5907500Y-1103214D01*
X6178928Y-1103214D02*
X6150357Y-1088929D01*
X6136071Y-1060357D01*
X6136071Y-803214D01*
X6407500Y-1088929D02*
X6378928Y-1103214D01*
X6321786Y-1103214D01*
X6293214Y-1088929D01*
X6278928Y-1060357D01*
X6278928Y-946071D01*
X6293214Y-917500D01*
X6321786Y-903214D01*
X6378928Y-903214D01*
X6407500Y-917500D01*
X6421786Y-946071D01*
X6421786Y-974643D01*
X6278928Y-1003214D01*
X6536071Y-1088929D02*
X6564643Y-1103214D01*
X6621786Y-1103214D01*
X6650357Y-1088929D01*
X6664643Y-1060357D01*
X6664643Y-1046071D01*
X6650357Y-1017500D01*
X6621786Y-1003214D01*
X6578928Y-1003214D01*
X6550357Y-988929D01*
X6536071Y-960357D01*
X6536071Y-946071D01*
X6550357Y-917500D01*
X6578928Y-903214D01*
X6621786Y-903214D01*
X6650357Y-917500D01*
X6764643Y-1217500D02*
X6778928Y-1203214D01*
X6807500Y-1160357D01*
X6821786Y-1131786D01*
X6836071Y-1088929D01*
X6850357Y-1017500D01*
X6850357Y-960357D01*
X6836071Y-888929D01*
X6821786Y-846071D01*
X6807500Y-817500D01*
X6778928Y-774643D01*
X6764643Y-760357D01*
X-7500Y-1363500D02*
G75*
G03X-7500Y-1363500I-25000J0D01*
G01*
X336071Y-1199214D02*
X364643Y-1199214D01*
X393214Y-1213500D01*
X407500Y-1227786D01*
X421786Y-1256357D01*
X436071Y-1313500D01*
X436071Y-1384929D01*
X421786Y-1442071D01*
X407500Y-1470643D01*
X393214Y-1484929D01*
X364643Y-1499214D01*
X336071Y-1499214D01*
X307500Y-1484929D01*
X293214Y-1470643D01*
X278928Y-1442071D01*
X264643Y-1384929D01*
X264643Y-1313500D01*
X278928Y-1256357D01*
X293214Y-1227786D01*
X307500Y-1213500D01*
X336071Y-1199214D01*
X564643Y-1470643D02*
X578928Y-1484929D01*
X564643Y-1499214D01*
X550357Y-1484929D01*
X564643Y-1470643D01*
X564643Y-1499214D01*
X850357Y-1199214D02*
X707500Y-1199214D01*
X693214Y-1342072D01*
X707500Y-1327786D01*
X736071Y-1313500D01*
X807500Y-1313500D01*
X836071Y-1327786D01*
X850357Y-1342072D01*
X864643Y-1370643D01*
X864643Y-1442071D01*
X850357Y-1470643D01*
X836071Y-1484929D01*
X807500Y-1499214D01*
X736071Y-1499214D01*
X707500Y-1484929D01*
X693214Y-1470643D01*
X1050357Y-1199214D02*
X1078928Y-1199214D01*
X1107500Y-1213500D01*
X1121786Y-1227786D01*
X1136071Y-1256357D01*
X1150357Y-1313500D01*
X1150357Y-1384929D01*
X1136071Y-1442071D01*
X1121786Y-1470643D01*
X1107500Y-1484929D01*
X1078928Y-1499214D01*
X1050357Y-1499214D01*
X1021786Y-1484929D01*
X1007500Y-1470643D01*
X993214Y-1442071D01*
X978928Y-1384929D01*
X978928Y-1313500D01*
X993214Y-1256357D01*
X1007500Y-1227786D01*
X1021786Y-1213500D01*
X1050357Y-1199214D01*
X1278928Y-1499214D02*
X1278928Y-1299214D01*
X1278928Y-1327786D02*
X1293214Y-1313500D01*
X1321786Y-1299214D01*
X1364643Y-1299214D01*
X1393214Y-1313500D01*
X1407500Y-1342072D01*
X1407500Y-1499214D01*
X1407500Y-1342072D02*
X1421786Y-1313500D01*
X1450357Y-1299214D01*
X1493214Y-1299214D01*
X1521786Y-1313500D01*
X1536071Y-1342072D01*
X1536071Y-1499214D01*
X1678928Y-1499214D02*
X1678928Y-1299214D01*
X1678928Y-1327786D02*
X1693214Y-1313500D01*
X1721786Y-1299214D01*
X1764643Y-1299214D01*
X1793214Y-1313500D01*
X1807500Y-1342072D01*
X1807500Y-1499214D01*
X1807500Y-1342072D02*
X1821786Y-1313500D01*
X1850357Y-1299214D01*
X1893214Y-1299214D01*
X1921786Y-1313500D01*
X1936071Y-1342072D01*
X1936071Y-1499214D01*
X2521786Y-1184929D02*
X2264643Y-1570643D01*
X2907500Y-1199214D02*
X2936071Y-1199214D01*
X2964643Y-1213500D01*
X2978928Y-1227786D01*
X2993214Y-1256357D01*
X3007500Y-1313500D01*
X3007500Y-1384929D01*
X2993214Y-1442071D01*
X2978928Y-1470643D01*
X2964643Y-1484929D01*
X2936071Y-1499214D01*
X2907500Y-1499214D01*
X2878928Y-1484929D01*
X2864643Y-1470643D01*
X2850357Y-1442071D01*
X2836071Y-1384929D01*
X2836071Y-1313500D01*
X2850357Y-1256357D01*
X2864643Y-1227786D01*
X2878928Y-1213500D01*
X2907500Y-1199214D01*
X3136071Y-1470643D02*
X3150357Y-1484929D01*
X3136071Y-1499214D01*
X3121786Y-1484929D01*
X3136071Y-1470643D01*
X3136071Y-1499214D01*
X3336071Y-1199214D02*
X3364643Y-1199214D01*
X3393214Y-1213500D01*
X3407500Y-1227786D01*
X3421786Y-1256357D01*
X3436071Y-1313500D01*
X3436071Y-1384929D01*
X3421786Y-1442071D01*
X3407500Y-1470643D01*
X3393214Y-1484929D01*
X3364643Y-1499214D01*
X3336071Y-1499214D01*
X3307500Y-1484929D01*
X3293214Y-1470643D01*
X3278928Y-1442071D01*
X3264643Y-1384929D01*
X3264643Y-1313500D01*
X3278928Y-1256357D01*
X3293214Y-1227786D01*
X3307500Y-1213500D01*
X3336071Y-1199214D01*
X3550357Y-1227786D02*
X3564643Y-1213500D01*
X3593214Y-1199214D01*
X3664643Y-1199214D01*
X3693214Y-1213500D01*
X3707500Y-1227786D01*
X3721786Y-1256357D01*
X3721786Y-1284929D01*
X3707500Y-1327786D01*
X3536071Y-1499214D01*
X3721786Y-1499214D01*
X3907500Y-1199214D02*
X3936071Y-1199214D01*
X3964643Y-1213500D01*
X3978928Y-1227786D01*
X3993214Y-1256357D01*
X4007500Y-1313500D01*
X4007500Y-1384929D01*
X3993214Y-1442071D01*
X3978928Y-1470643D01*
X3964643Y-1484929D01*
X3936071Y-1499214D01*
X3907500Y-1499214D01*
X3878928Y-1484929D01*
X3864643Y-1470643D01*
X3850357Y-1442071D01*
X3836071Y-1384929D01*
X3836071Y-1313500D01*
X3850357Y-1256357D01*
X3864643Y-1227786D01*
X3878928Y-1213500D01*
X3907500Y-1199214D01*
X4121786Y-1199214D02*
X4121786Y-1256357D01*
X4236071Y-1199214D02*
X4236071Y-1256357D01*
X4678928Y-1613500D02*
X4664643Y-1599214D01*
X4636071Y-1556357D01*
X4621786Y-1527786D01*
X4607500Y-1484929D01*
X4593214Y-1413500D01*
X4593214Y-1356357D01*
X4607500Y-1284929D01*
X4621786Y-1242072D01*
X4636071Y-1213500D01*
X4664643Y-1170643D01*
X4678928Y-1156357D01*
X4778928Y-1227786D02*
X4793214Y-1213500D01*
X4821786Y-1199214D01*
X4893214Y-1199214D01*
X4921786Y-1213500D01*
X4936071Y-1227786D01*
X4950357Y-1256357D01*
X4950357Y-1284929D01*
X4936071Y-1327786D01*
X4764643Y-1499214D01*
X4950357Y-1499214D01*
X5136071Y-1199214D02*
X5164643Y-1199214D01*
X5193214Y-1213500D01*
X5207500Y-1227786D01*
X5221786Y-1256357D01*
X5236071Y-1313500D01*
X5236071Y-1384929D01*
X5221786Y-1442071D01*
X5207500Y-1470643D01*
X5193214Y-1484929D01*
X5164643Y-1499214D01*
X5136071Y-1499214D01*
X5107500Y-1484929D01*
X5093214Y-1470643D01*
X5078928Y-1442071D01*
X5064643Y-1384929D01*
X5064643Y-1313500D01*
X5078928Y-1256357D01*
X5093214Y-1227786D01*
X5107500Y-1213500D01*
X5136071Y-1199214D01*
X5593214Y-1499214D02*
X5593214Y-1199214D01*
X5721786Y-1499214D02*
X5721786Y-1342072D01*
X5707500Y-1313500D01*
X5678928Y-1299214D01*
X5636071Y-1299214D01*
X5607500Y-1313500D01*
X5593214Y-1327786D01*
X5907500Y-1499214D02*
X5878928Y-1484929D01*
X5864643Y-1470643D01*
X5850357Y-1442071D01*
X5850357Y-1356357D01*
X5864643Y-1327786D01*
X5878928Y-1313500D01*
X5907500Y-1299214D01*
X5950357Y-1299214D01*
X5978928Y-1313500D01*
X5993214Y-1327786D01*
X6007500Y-1356357D01*
X6007500Y-1442071D01*
X5993214Y-1470643D01*
X5978928Y-1484929D01*
X5950357Y-1499214D01*
X5907500Y-1499214D01*
X6178928Y-1499214D02*
X6150357Y-1484929D01*
X6136071Y-1456357D01*
X6136071Y-1199214D01*
X6407500Y-1484929D02*
X6378928Y-1499214D01*
X6321786Y-1499214D01*
X6293214Y-1484929D01*
X6278928Y-1456357D01*
X6278928Y-1342072D01*
X6293214Y-1313500D01*
X6321786Y-1299214D01*
X6378928Y-1299214D01*
X6407500Y-1313500D01*
X6421786Y-1342072D01*
X6421786Y-1370643D01*
X6278928Y-1399214D01*
X6536071Y-1484929D02*
X6564643Y-1499214D01*
X6621786Y-1499214D01*
X6650357Y-1484929D01*
X6664643Y-1456357D01*
X6664643Y-1442071D01*
X6650357Y-1413500D01*
X6621786Y-1399214D01*
X6578928Y-1399214D01*
X6550357Y-1384929D01*
X6536071Y-1356357D01*
X6536071Y-1342072D01*
X6550357Y-1313500D01*
X6578928Y-1299214D01*
X6621786Y-1299214D01*
X6650357Y-1313500D01*
X6764643Y-1613500D02*
X6778928Y-1599214D01*
X6807500Y-1556357D01*
X6821786Y-1527786D01*
X6836071Y-1484929D01*
X6850357Y-1413500D01*
X6850357Y-1356357D01*
X6836071Y-1284929D01*
X6821786Y-1242072D01*
X6807500Y-1213500D01*
X6778928Y-1170643D01*
X6764643Y-1156357D01*
X-37500Y-1729500D02*
X-37500Y-1789500D01*
X-67500Y-1759500D02*
X-7500Y-1759500D01*
X336071Y-1595214D02*
X364643Y-1595214D01*
X393214Y-1609500D01*
X407500Y-1623786D01*
X421786Y-1652357D01*
X436071Y-1709500D01*
X436071Y-1780929D01*
X421786Y-1838071D01*
X407500Y-1866643D01*
X393214Y-1880929D01*
X364643Y-1895214D01*
X336071Y-1895214D01*
X307500Y-1880929D01*
X293214Y-1866643D01*
X278928Y-1838071D01*
X264643Y-1780929D01*
X264643Y-1709500D01*
X278928Y-1652357D01*
X293214Y-1623786D01*
X307500Y-1609500D01*
X336071Y-1595214D01*
X564643Y-1866643D02*
X578928Y-1880929D01*
X564643Y-1895214D01*
X550357Y-1880929D01*
X564643Y-1866643D01*
X564643Y-1895214D01*
X836071Y-1595214D02*
X778928Y-1595214D01*
X750357Y-1609500D01*
X736071Y-1623786D01*
X707500Y-1666643D01*
X693214Y-1723786D01*
X693214Y-1838071D01*
X707500Y-1866643D01*
X721786Y-1880929D01*
X750357Y-1895214D01*
X807500Y-1895214D01*
X836071Y-1880929D01*
X850357Y-1866643D01*
X864643Y-1838071D01*
X864643Y-1766643D01*
X850357Y-1738071D01*
X836071Y-1723786D01*
X807500Y-1709500D01*
X750357Y-1709500D01*
X721786Y-1723786D01*
X707500Y-1738071D01*
X693214Y-1766643D01*
X1050357Y-1595214D02*
X1078928Y-1595214D01*
X1107500Y-1609500D01*
X1121786Y-1623786D01*
X1136071Y-1652357D01*
X1150357Y-1709500D01*
X1150357Y-1780929D01*
X1136071Y-1838071D01*
X1121786Y-1866643D01*
X1107500Y-1880929D01*
X1078928Y-1895214D01*
X1050357Y-1895214D01*
X1021786Y-1880929D01*
X1007500Y-1866643D01*
X993214Y-1838071D01*
X978928Y-1780929D01*
X978928Y-1709500D01*
X993214Y-1652357D01*
X1007500Y-1623786D01*
X1021786Y-1609500D01*
X1050357Y-1595214D01*
X1278928Y-1895214D02*
X1278928Y-1695214D01*
X1278928Y-1723786D02*
X1293214Y-1709500D01*
X1321786Y-1695214D01*
X1364643Y-1695214D01*
X1393214Y-1709500D01*
X1407500Y-1738071D01*
X1407500Y-1895214D01*
X1407500Y-1738071D02*
X1421786Y-1709500D01*
X1450357Y-1695214D01*
X1493214Y-1695214D01*
X1521786Y-1709500D01*
X1536071Y-1738071D01*
X1536071Y-1895214D01*
X1678928Y-1895214D02*
X1678928Y-1695214D01*
X1678928Y-1723786D02*
X1693214Y-1709500D01*
X1721786Y-1695214D01*
X1764643Y-1695214D01*
X1793214Y-1709500D01*
X1807500Y-1738071D01*
X1807500Y-1895214D01*
X1807500Y-1738071D02*
X1821786Y-1709500D01*
X1850357Y-1695214D01*
X1893214Y-1695214D01*
X1921786Y-1709500D01*
X1936071Y-1738071D01*
X1936071Y-1895214D01*
X2521786Y-1580929D02*
X2264643Y-1966643D01*
X2907500Y-1595214D02*
X2936071Y-1595214D01*
X2964643Y-1609500D01*
X2978928Y-1623786D01*
X2993214Y-1652357D01*
X3007500Y-1709500D01*
X3007500Y-1780929D01*
X2993214Y-1838071D01*
X2978928Y-1866643D01*
X2964643Y-1880929D01*
X2936071Y-1895214D01*
X2907500Y-1895214D01*
X2878928Y-1880929D01*
X2864643Y-1866643D01*
X2850357Y-1838071D01*
X2836071Y-1780929D01*
X2836071Y-1709500D01*
X2850357Y-1652357D01*
X2864643Y-1623786D01*
X2878928Y-1609500D01*
X2907500Y-1595214D01*
X3136071Y-1866643D02*
X3150357Y-1880929D01*
X3136071Y-1895214D01*
X3121786Y-1880929D01*
X3136071Y-1866643D01*
X3136071Y-1895214D01*
X3336071Y-1595214D02*
X3364643Y-1595214D01*
X3393214Y-1609500D01*
X3407500Y-1623786D01*
X3421786Y-1652357D01*
X3436071Y-1709500D01*
X3436071Y-1780929D01*
X3421786Y-1838071D01*
X3407500Y-1866643D01*
X3393214Y-1880929D01*
X3364643Y-1895214D01*
X3336071Y-1895214D01*
X3307500Y-1880929D01*
X3293214Y-1866643D01*
X3278928Y-1838071D01*
X3264643Y-1780929D01*
X3264643Y-1709500D01*
X3278928Y-1652357D01*
X3293214Y-1623786D01*
X3307500Y-1609500D01*
X3336071Y-1595214D01*
X3550357Y-1623786D02*
X3564643Y-1609500D01*
X3593214Y-1595214D01*
X3664643Y-1595214D01*
X3693214Y-1609500D01*
X3707500Y-1623786D01*
X3721786Y-1652357D01*
X3721786Y-1680929D01*
X3707500Y-1723786D01*
X3536071Y-1895214D01*
X3721786Y-1895214D01*
X3978928Y-1695214D02*
X3978928Y-1895214D01*
X3907500Y-1580929D02*
X3836071Y-1795214D01*
X4021786Y-1795214D01*
X4121786Y-1595214D02*
X4121786Y-1652357D01*
X4236071Y-1595214D02*
X4236071Y-1652357D01*
X4678928Y-2009500D02*
X4664643Y-1995214D01*
X4636071Y-1952357D01*
X4621786Y-1923786D01*
X4607500Y-1880929D01*
X4593214Y-1809500D01*
X4593214Y-1752357D01*
X4607500Y-1680929D01*
X4621786Y-1638071D01*
X4636071Y-1609500D01*
X4664643Y-1566643D01*
X4678928Y-1552357D01*
X4921786Y-1695214D02*
X4921786Y-1895214D01*
X4850357Y-1580929D02*
X4778928Y-1795214D01*
X4964643Y-1795214D01*
X5236071Y-1895214D02*
X5064643Y-1895214D01*
X5150357Y-1895214D02*
X5150357Y-1595214D01*
X5121786Y-1638071D01*
X5093214Y-1666643D01*
X5064643Y-1680929D01*
X5593214Y-1895214D02*
X5593214Y-1595214D01*
X5721786Y-1895214D02*
X5721786Y-1738071D01*
X5707500Y-1709500D01*
X5678928Y-1695214D01*
X5636071Y-1695214D01*
X5607500Y-1709500D01*
X5593214Y-1723786D01*
X5907500Y-1895214D02*
X5878928Y-1880929D01*
X5864643Y-1866643D01*
X5850357Y-1838071D01*
X5850357Y-1752357D01*
X5864643Y-1723786D01*
X5878928Y-1709500D01*
X5907500Y-1695214D01*
X5950357Y-1695214D01*
X5978928Y-1709500D01*
X5993214Y-1723786D01*
X6007500Y-1752357D01*
X6007500Y-1838071D01*
X5993214Y-1866643D01*
X5978928Y-1880929D01*
X5950357Y-1895214D01*
X5907500Y-1895214D01*
X6178928Y-1895214D02*
X6150357Y-1880929D01*
X6136071Y-1852357D01*
X6136071Y-1595214D01*
X6407500Y-1880929D02*
X6378928Y-1895214D01*
X6321786Y-1895214D01*
X6293214Y-1880929D01*
X6278928Y-1852357D01*
X6278928Y-1738071D01*
X6293214Y-1709500D01*
X6321786Y-1695214D01*
X6378928Y-1695214D01*
X6407500Y-1709500D01*
X6421786Y-1738071D01*
X6421786Y-1766643D01*
X6278928Y-1795214D01*
X6536071Y-1880929D02*
X6564643Y-1895214D01*
X6621786Y-1895214D01*
X6650357Y-1880929D01*
X6664643Y-1852357D01*
X6664643Y-1838071D01*
X6650357Y-1809500D01*
X6621786Y-1795214D01*
X6578928Y-1795214D01*
X6550357Y-1780929D01*
X6536071Y-1752357D01*
X6536071Y-1738071D01*
X6550357Y-1709500D01*
X6578928Y-1695214D01*
X6621786Y-1695214D01*
X6650357Y-1709500D01*
X6764643Y-2009500D02*
X6778928Y-1995214D01*
X6807500Y-1952357D01*
X6821786Y-1923786D01*
X6836071Y-1880929D01*
X6850357Y-1809500D01*
X6850357Y-1752357D01*
X6836071Y-1680929D01*
X6821786Y-1638071D01*
X6807500Y-1609500D01*
X6778928Y-1566643D01*
X6764643Y-1552357D01*
X-17751Y-2180249D02*
X-17751Y-2130751D01*
X-67249Y-2130751D01*
X-67249Y-2180249D01*
X-17751Y-2180249D01*
X336071Y-1991214D02*
X364643Y-1991214D01*
X393214Y-2005500D01*
X407500Y-2019786D01*
X421786Y-2048357D01*
X436071Y-2105500D01*
X436071Y-2176929D01*
X421786Y-2234072D01*
X407500Y-2262643D01*
X393214Y-2276929D01*
X364643Y-2291214D01*
X336071Y-2291214D01*
X307500Y-2276929D01*
X293214Y-2262643D01*
X278928Y-2234072D01*
X264643Y-2176929D01*
X264643Y-2105500D01*
X278928Y-2048357D01*
X293214Y-2019786D01*
X307500Y-2005500D01*
X336071Y-1991214D01*
X564643Y-2262643D02*
X578928Y-2276929D01*
X564643Y-2291214D01*
X550357Y-2276929D01*
X564643Y-2262643D01*
X564643Y-2291214D01*
X678928Y-1991214D02*
X878928Y-1991214D01*
X750357Y-2291214D01*
X1050357Y-1991214D02*
X1078928Y-1991214D01*
X1107500Y-2005500D01*
X1121786Y-2019786D01*
X1136071Y-2048357D01*
X1150357Y-2105500D01*
X1150357Y-2176929D01*
X1136071Y-2234072D01*
X1121786Y-2262643D01*
X1107500Y-2276929D01*
X1078928Y-2291214D01*
X1050357Y-2291214D01*
X1021786Y-2276929D01*
X1007500Y-2262643D01*
X993214Y-2234072D01*
X978928Y-2176929D01*
X978928Y-2105500D01*
X993214Y-2048357D01*
X1007500Y-2019786D01*
X1021786Y-2005500D01*
X1050357Y-1991214D01*
X1278928Y-2291214D02*
X1278928Y-2091214D01*
X1278928Y-2119786D02*
X1293214Y-2105500D01*
X1321786Y-2091214D01*
X1364643Y-2091214D01*
X1393214Y-2105500D01*
X1407500Y-2134072D01*
X1407500Y-2291214D01*
X1407500Y-2134072D02*
X1421786Y-2105500D01*
X1450357Y-2091214D01*
X1493214Y-2091214D01*
X1521786Y-2105500D01*
X1536071Y-2134072D01*
X1536071Y-2291214D01*
X1678928Y-2291214D02*
X1678928Y-2091214D01*
X1678928Y-2119786D02*
X1693214Y-2105500D01*
X1721786Y-2091214D01*
X1764643Y-2091214D01*
X1793214Y-2105500D01*
X1807500Y-2134072D01*
X1807500Y-2291214D01*
X1807500Y-2134072D02*
X1821786Y-2105500D01*
X1850357Y-2091214D01*
X1893214Y-2091214D01*
X1921786Y-2105500D01*
X1936071Y-2134072D01*
X1936071Y-2291214D01*
X2521786Y-1976929D02*
X2264643Y-2362643D01*
X2907500Y-1991214D02*
X2936071Y-1991214D01*
X2964643Y-2005500D01*
X2978928Y-2019786D01*
X2993214Y-2048357D01*
X3007500Y-2105500D01*
X3007500Y-2176929D01*
X2993214Y-2234072D01*
X2978928Y-2262643D01*
X2964643Y-2276929D01*
X2936071Y-2291214D01*
X2907500Y-2291214D01*
X2878928Y-2276929D01*
X2864643Y-2262643D01*
X2850357Y-2234072D01*
X2836071Y-2176929D01*
X2836071Y-2105500D01*
X2850357Y-2048357D01*
X2864643Y-2019786D01*
X2878928Y-2005500D01*
X2907500Y-1991214D01*
X3136071Y-2262643D02*
X3150357Y-2276929D01*
X3136071Y-2291214D01*
X3121786Y-2276929D01*
X3136071Y-2262643D01*
X3136071Y-2291214D01*
X3336071Y-1991214D02*
X3364643Y-1991214D01*
X3393214Y-2005500D01*
X3407500Y-2019786D01*
X3421786Y-2048357D01*
X3436071Y-2105500D01*
X3436071Y-2176929D01*
X3421786Y-2234072D01*
X3407500Y-2262643D01*
X3393214Y-2276929D01*
X3364643Y-2291214D01*
X3336071Y-2291214D01*
X3307500Y-2276929D01*
X3293214Y-2262643D01*
X3278928Y-2234072D01*
X3264643Y-2176929D01*
X3264643Y-2105500D01*
X3278928Y-2048357D01*
X3293214Y-2019786D01*
X3307500Y-2005500D01*
X3336071Y-1991214D01*
X3550357Y-2019786D02*
X3564643Y-2005500D01*
X3593214Y-1991214D01*
X3664643Y-1991214D01*
X3693214Y-2005500D01*
X3707500Y-2019786D01*
X3721786Y-2048357D01*
X3721786Y-2076929D01*
X3707500Y-2119786D01*
X3536071Y-2291214D01*
X3721786Y-2291214D01*
X3893214Y-2119786D02*
X3864643Y-2105500D01*
X3850357Y-2091214D01*
X3836071Y-2062643D01*
X3836071Y-2048357D01*
X3850357Y-2019786D01*
X3864643Y-2005500D01*
X3893214Y-1991214D01*
X3950357Y-1991214D01*
X3978928Y-2005500D01*
X3993214Y-2019786D01*
X4007500Y-2048357D01*
X4007500Y-2062643D01*
X3993214Y-2091214D01*
X3978928Y-2105500D01*
X3950357Y-2119786D01*
X3893214Y-2119786D01*
X3864643Y-2134072D01*
X3850357Y-2148357D01*
X3836071Y-2176929D01*
X3836071Y-2234072D01*
X3850357Y-2262643D01*
X3864643Y-2276929D01*
X3893214Y-2291214D01*
X3950357Y-2291214D01*
X3978928Y-2276929D01*
X3993214Y-2262643D01*
X4007500Y-2234072D01*
X4007500Y-2176929D01*
X3993214Y-2148357D01*
X3978928Y-2134072D01*
X3950357Y-2119786D01*
X4121786Y-1991214D02*
X4121786Y-2048357D01*
X4236071Y-1991214D02*
X4236071Y-2048357D01*
X4678928Y-2405500D02*
X4664643Y-2391214D01*
X4636071Y-2348357D01*
X4621786Y-2319786D01*
X4607500Y-2276929D01*
X4593214Y-2205500D01*
X4593214Y-2148357D01*
X4607500Y-2076929D01*
X4621786Y-2034071D01*
X4636071Y-2005500D01*
X4664643Y-1962643D01*
X4678928Y-1948357D01*
X4778928Y-2019786D02*
X4793214Y-2005500D01*
X4821786Y-1991214D01*
X4893214Y-1991214D01*
X4921786Y-2005500D01*
X4936071Y-2019786D01*
X4950357Y-2048357D01*
X4950357Y-2076929D01*
X4936071Y-2119786D01*
X4764643Y-2291214D01*
X4950357Y-2291214D01*
X5307500Y-2291214D02*
X5307500Y-1991214D01*
X5436071Y-2291214D02*
X5436071Y-2134072D01*
X5421786Y-2105500D01*
X5393214Y-2091214D01*
X5350357Y-2091214D01*
X5321786Y-2105500D01*
X5307500Y-2119786D01*
X5621786Y-2291214D02*
X5593214Y-2276929D01*
X5578928Y-2262643D01*
X5564643Y-2234072D01*
X5564643Y-2148357D01*
X5578928Y-2119786D01*
X5593214Y-2105500D01*
X5621786Y-2091214D01*
X5664643Y-2091214D01*
X5693214Y-2105500D01*
X5707500Y-2119786D01*
X5721786Y-2148357D01*
X5721786Y-2234072D01*
X5707500Y-2262643D01*
X5693214Y-2276929D01*
X5664643Y-2291214D01*
X5621786Y-2291214D01*
X5893214Y-2291214D02*
X5864643Y-2276929D01*
X5850357Y-2248357D01*
X5850357Y-1991214D01*
X6121786Y-2276929D02*
X6093214Y-2291214D01*
X6036071Y-2291214D01*
X6007500Y-2276929D01*
X5993214Y-2248357D01*
X5993214Y-2134072D01*
X6007500Y-2105500D01*
X6036071Y-2091214D01*
X6093214Y-2091214D01*
X6121786Y-2105500D01*
X6136071Y-2134072D01*
X6136071Y-2162643D01*
X5993214Y-2191214D01*
X6250357Y-2276929D02*
X6278928Y-2291214D01*
X6336071Y-2291214D01*
X6364643Y-2276929D01*
X6378928Y-2248357D01*
X6378928Y-2234072D01*
X6364643Y-2205500D01*
X6336071Y-2191214D01*
X6293214Y-2191214D01*
X6264643Y-2176929D01*
X6250357Y-2148357D01*
X6250357Y-2134072D01*
X6264643Y-2105500D01*
X6293214Y-2091214D01*
X6336071Y-2091214D01*
X6364643Y-2105500D01*
X6478928Y-2405500D02*
X6493214Y-2391214D01*
X6521786Y-2348357D01*
X6536071Y-2319786D01*
X6550357Y-2276929D01*
X6564643Y-2205500D01*
X6564643Y-2148357D01*
X6550357Y-2076929D01*
X6536071Y-2034071D01*
X6521786Y-2005500D01*
X6493214Y-1962643D01*
X6478928Y-1948357D01*
X-47500Y-2591500D02*
X-7500Y-2551500D01*
X-47500Y-2511500D01*
X-87500Y-2551500D01*
X-47500Y-2591500D01*
X336071Y-2387214D02*
X364643Y-2387214D01*
X393214Y-2401500D01*
X407500Y-2415786D01*
X421786Y-2444357D01*
X436071Y-2501500D01*
X436071Y-2572929D01*
X421786Y-2630072D01*
X407500Y-2658643D01*
X393214Y-2672929D01*
X364643Y-2687214D01*
X336071Y-2687214D01*
X307500Y-2672929D01*
X293214Y-2658643D01*
X278928Y-2630072D01*
X264643Y-2572929D01*
X264643Y-2501500D01*
X278928Y-2444357D01*
X293214Y-2415786D01*
X307500Y-2401500D01*
X336071Y-2387214D01*
X564643Y-2658643D02*
X578928Y-2672929D01*
X564643Y-2687214D01*
X550357Y-2672929D01*
X564643Y-2658643D01*
X564643Y-2687214D01*
X750357Y-2515786D02*
X721786Y-2501500D01*
X707500Y-2487214D01*
X693214Y-2458643D01*
X693214Y-2444357D01*
X707500Y-2415786D01*
X721786Y-2401500D01*
X750357Y-2387214D01*
X807500Y-2387214D01*
X836071Y-2401500D01*
X850357Y-2415786D01*
X864643Y-2444357D01*
X864643Y-2458643D01*
X850357Y-2487214D01*
X836071Y-2501500D01*
X807500Y-2515786D01*
X750357Y-2515786D01*
X721786Y-2530072D01*
X707500Y-2544357D01*
X693214Y-2572929D01*
X693214Y-2630072D01*
X707500Y-2658643D01*
X721786Y-2672929D01*
X750357Y-2687214D01*
X807500Y-2687214D01*
X836071Y-2672929D01*
X850357Y-2658643D01*
X864643Y-2630072D01*
X864643Y-2572929D01*
X850357Y-2544357D01*
X836071Y-2530072D01*
X807500Y-2515786D01*
X1050357Y-2387214D02*
X1078928Y-2387214D01*
X1107500Y-2401500D01*
X1121786Y-2415786D01*
X1136071Y-2444357D01*
X1150357Y-2501500D01*
X1150357Y-2572929D01*
X1136071Y-2630072D01*
X1121786Y-2658643D01*
X1107500Y-2672929D01*
X1078928Y-2687214D01*
X1050357Y-2687214D01*
X1021786Y-2672929D01*
X1007500Y-2658643D01*
X993214Y-2630072D01*
X978928Y-2572929D01*
X978928Y-2501500D01*
X993214Y-2444357D01*
X1007500Y-2415786D01*
X1021786Y-2401500D01*
X1050357Y-2387214D01*
X1278928Y-2687214D02*
X1278928Y-2487214D01*
X1278928Y-2515786D02*
X1293214Y-2501500D01*
X1321786Y-2487214D01*
X1364643Y-2487214D01*
X1393214Y-2501500D01*
X1407500Y-2530072D01*
X1407500Y-2687214D01*
X1407500Y-2530072D02*
X1421786Y-2501500D01*
X1450357Y-2487214D01*
X1493214Y-2487214D01*
X1521786Y-2501500D01*
X1536071Y-2530072D01*
X1536071Y-2687214D01*
X1678928Y-2687214D02*
X1678928Y-2487214D01*
X1678928Y-2515786D02*
X1693214Y-2501500D01*
X1721786Y-2487214D01*
X1764643Y-2487214D01*
X1793214Y-2501500D01*
X1807500Y-2530072D01*
X1807500Y-2687214D01*
X1807500Y-2530072D02*
X1821786Y-2501500D01*
X1850357Y-2487214D01*
X1893214Y-2487214D01*
X1921786Y-2501500D01*
X1936071Y-2530072D01*
X1936071Y-2687214D01*
X2521786Y-2372929D02*
X2264643Y-2758643D01*
X2907500Y-2387214D02*
X2936071Y-2387214D01*
X2964643Y-2401500D01*
X2978928Y-2415786D01*
X2993214Y-2444357D01*
X3007500Y-2501500D01*
X3007500Y-2572929D01*
X2993214Y-2630072D01*
X2978928Y-2658643D01*
X2964643Y-2672929D01*
X2936071Y-2687214D01*
X2907500Y-2687214D01*
X2878928Y-2672929D01*
X2864643Y-2658643D01*
X2850357Y-2630072D01*
X2836071Y-2572929D01*
X2836071Y-2501500D01*
X2850357Y-2444357D01*
X2864643Y-2415786D01*
X2878928Y-2401500D01*
X2907500Y-2387214D01*
X3136071Y-2658643D02*
X3150357Y-2672929D01*
X3136071Y-2687214D01*
X3121786Y-2672929D01*
X3136071Y-2658643D01*
X3136071Y-2687214D01*
X3336071Y-2387214D02*
X3364643Y-2387214D01*
X3393214Y-2401500D01*
X3407500Y-2415786D01*
X3421786Y-2444357D01*
X3436071Y-2501500D01*
X3436071Y-2572929D01*
X3421786Y-2630072D01*
X3407500Y-2658643D01*
X3393214Y-2672929D01*
X3364643Y-2687214D01*
X3336071Y-2687214D01*
X3307500Y-2672929D01*
X3293214Y-2658643D01*
X3278928Y-2630072D01*
X3264643Y-2572929D01*
X3264643Y-2501500D01*
X3278928Y-2444357D01*
X3293214Y-2415786D01*
X3307500Y-2401500D01*
X3336071Y-2387214D01*
X3536071Y-2387214D02*
X3721786Y-2387214D01*
X3621786Y-2501500D01*
X3664643Y-2501500D01*
X3693214Y-2515786D01*
X3707500Y-2530072D01*
X3721786Y-2558643D01*
X3721786Y-2630072D01*
X3707500Y-2658643D01*
X3693214Y-2672929D01*
X3664643Y-2687214D01*
X3578928Y-2687214D01*
X3550357Y-2672929D01*
X3536071Y-2658643D01*
X4007500Y-2687214D02*
X3836071Y-2687214D01*
X3921786Y-2687214D02*
X3921786Y-2387214D01*
X3893214Y-2430072D01*
X3864643Y-2458643D01*
X3836071Y-2472929D01*
X4121786Y-2387214D02*
X4121786Y-2444357D01*
X4236071Y-2387214D02*
X4236071Y-2444357D01*
X4678928Y-2801500D02*
X4664643Y-2787214D01*
X4636071Y-2744357D01*
X4621786Y-2715786D01*
X4607500Y-2672929D01*
X4593214Y-2601500D01*
X4593214Y-2544357D01*
X4607500Y-2472929D01*
X4621786Y-2430072D01*
X4636071Y-2401500D01*
X4664643Y-2358643D01*
X4678928Y-2344357D01*
X4921786Y-2487214D02*
X4921786Y-2687214D01*
X4850357Y-2372929D02*
X4778928Y-2587214D01*
X4964643Y-2587214D01*
X5121786Y-2515786D02*
X5093214Y-2501500D01*
X5078928Y-2487214D01*
X5064643Y-2458643D01*
X5064643Y-2444357D01*
X5078928Y-2415786D01*
X5093214Y-2401500D01*
X5121786Y-2387214D01*
X5178928Y-2387214D01*
X5207500Y-2401500D01*
X5221786Y-2415786D01*
X5236071Y-2444357D01*
X5236071Y-2458643D01*
X5221786Y-2487214D01*
X5207500Y-2501500D01*
X5178928Y-2515786D01*
X5121786Y-2515786D01*
X5093214Y-2530072D01*
X5078928Y-2544357D01*
X5064643Y-2572929D01*
X5064643Y-2630072D01*
X5078928Y-2658643D01*
X5093214Y-2672929D01*
X5121786Y-2687214D01*
X5178928Y-2687214D01*
X5207500Y-2672929D01*
X5221786Y-2658643D01*
X5236071Y-2630072D01*
X5236071Y-2572929D01*
X5221786Y-2544357D01*
X5207500Y-2530072D01*
X5178928Y-2515786D01*
X5593214Y-2687214D02*
X5593214Y-2387214D01*
X5721786Y-2687214D02*
X5721786Y-2530072D01*
X5707500Y-2501500D01*
X5678928Y-2487214D01*
X5636071Y-2487214D01*
X5607500Y-2501500D01*
X5593214Y-2515786D01*
X5907500Y-2687214D02*
X5878928Y-2672929D01*
X5864643Y-2658643D01*
X5850357Y-2630072D01*
X5850357Y-2544357D01*
X5864643Y-2515786D01*
X5878928Y-2501500D01*
X5907500Y-2487214D01*
X5950357Y-2487214D01*
X5978928Y-2501500D01*
X5993214Y-2515786D01*
X6007500Y-2544357D01*
X6007500Y-2630072D01*
X5993214Y-2658643D01*
X5978928Y-2672929D01*
X5950357Y-2687214D01*
X5907500Y-2687214D01*
X6178928Y-2687214D02*
X6150357Y-2672929D01*
X6136071Y-2644357D01*
X6136071Y-2387214D01*
X6407500Y-2672929D02*
X6378928Y-2687214D01*
X6321786Y-2687214D01*
X6293214Y-2672929D01*
X6278928Y-2644357D01*
X6278928Y-2530072D01*
X6293214Y-2501500D01*
X6321786Y-2487214D01*
X6378928Y-2487214D01*
X6407500Y-2501500D01*
X6421786Y-2530072D01*
X6421786Y-2558643D01*
X6278928Y-2587214D01*
X6536071Y-2672929D02*
X6564643Y-2687214D01*
X6621786Y-2687214D01*
X6650357Y-2672929D01*
X6664643Y-2644357D01*
X6664643Y-2630072D01*
X6650357Y-2601500D01*
X6621786Y-2587214D01*
X6578928Y-2587214D01*
X6550357Y-2572929D01*
X6536071Y-2544357D01*
X6536071Y-2530072D01*
X6550357Y-2501500D01*
X6578928Y-2487214D01*
X6621786Y-2487214D01*
X6650357Y-2501500D01*
X6764643Y-2801500D02*
X6778928Y-2787214D01*
X6807500Y-2744357D01*
X6821786Y-2715786D01*
X6836071Y-2672929D01*
X6850357Y-2601500D01*
X6850357Y-2544357D01*
X6836071Y-2472929D01*
X6821786Y-2430072D01*
X6807500Y-2401500D01*
X6778928Y-2358643D01*
X6764643Y-2344357D01*
X-97500Y-2902500D02*
X-7500Y-2992500D01*
X-7500Y-2902500D02*
X-97500Y-2992500D01*
X-7500Y-2947500D02*
G75*
G03X-7500Y-2947500I-45000J0D01*
G01*
X336071Y-2783214D02*
X364643Y-2783214D01*
X393214Y-2797500D01*
X407500Y-2811786D01*
X421786Y-2840357D01*
X436071Y-2897500D01*
X436071Y-2968929D01*
X421786Y-3026071D01*
X407500Y-3054643D01*
X393214Y-3068929D01*
X364643Y-3083214D01*
X336071Y-3083214D01*
X307500Y-3068929D01*
X293214Y-3054643D01*
X278928Y-3026071D01*
X264643Y-2968929D01*
X264643Y-2897500D01*
X278928Y-2840357D01*
X293214Y-2811786D01*
X307500Y-2797500D01*
X336071Y-2783214D01*
X564643Y-3054643D02*
X578928Y-3068929D01*
X564643Y-3083214D01*
X550357Y-3068929D01*
X564643Y-3054643D01*
X564643Y-3083214D01*
X721786Y-3083214D02*
X778928Y-3083214D01*
X807500Y-3068929D01*
X821786Y-3054643D01*
X850357Y-3011786D01*
X864643Y-2954643D01*
X864643Y-2840357D01*
X850357Y-2811786D01*
X836071Y-2797500D01*
X807500Y-2783214D01*
X750357Y-2783214D01*
X721786Y-2797500D01*
X707500Y-2811786D01*
X693214Y-2840357D01*
X693214Y-2911786D01*
X707500Y-2940357D01*
X721786Y-2954643D01*
X750357Y-2968929D01*
X807500Y-2968929D01*
X836071Y-2954643D01*
X850357Y-2940357D01*
X864643Y-2911786D01*
X1050357Y-2783214D02*
X1078928Y-2783214D01*
X1107500Y-2797500D01*
X1121786Y-2811786D01*
X1136071Y-2840357D01*
X1150357Y-2897500D01*
X1150357Y-2968929D01*
X1136071Y-3026071D01*
X1121786Y-3054643D01*
X1107500Y-3068929D01*
X1078928Y-3083214D01*
X1050357Y-3083214D01*
X1021786Y-3068929D01*
X1007500Y-3054643D01*
X993214Y-3026071D01*
X978928Y-2968929D01*
X978928Y-2897500D01*
X993214Y-2840357D01*
X1007500Y-2811786D01*
X1021786Y-2797500D01*
X1050357Y-2783214D01*
X1278928Y-3083214D02*
X1278928Y-2883214D01*
X1278928Y-2911786D02*
X1293214Y-2897500D01*
X1321786Y-2883214D01*
X1364643Y-2883214D01*
X1393214Y-2897500D01*
X1407500Y-2926071D01*
X1407500Y-3083214D01*
X1407500Y-2926071D02*
X1421786Y-2897500D01*
X1450357Y-2883214D01*
X1493214Y-2883214D01*
X1521786Y-2897500D01*
X1536071Y-2926071D01*
X1536071Y-3083214D01*
X1678928Y-3083214D02*
X1678928Y-2883214D01*
X1678928Y-2911786D02*
X1693214Y-2897500D01*
X1721786Y-2883214D01*
X1764643Y-2883214D01*
X1793214Y-2897500D01*
X1807500Y-2926071D01*
X1807500Y-3083214D01*
X1807500Y-2926071D02*
X1821786Y-2897500D01*
X1850357Y-2883214D01*
X1893214Y-2883214D01*
X1921786Y-2897500D01*
X1936071Y-2926071D01*
X1936071Y-3083214D01*
X2521786Y-2768929D02*
X2264643Y-3154643D01*
X2907500Y-2783214D02*
X2936071Y-2783214D01*
X2964643Y-2797500D01*
X2978928Y-2811786D01*
X2993214Y-2840357D01*
X3007500Y-2897500D01*
X3007500Y-2968929D01*
X2993214Y-3026071D01*
X2978928Y-3054643D01*
X2964643Y-3068929D01*
X2936071Y-3083214D01*
X2907500Y-3083214D01*
X2878928Y-3068929D01*
X2864643Y-3054643D01*
X2850357Y-3026071D01*
X2836071Y-2968929D01*
X2836071Y-2897500D01*
X2850357Y-2840357D01*
X2864643Y-2811786D01*
X2878928Y-2797500D01*
X2907500Y-2783214D01*
X3136071Y-3054643D02*
X3150357Y-3068929D01*
X3136071Y-3083214D01*
X3121786Y-3068929D01*
X3136071Y-3054643D01*
X3136071Y-3083214D01*
X3336071Y-2783214D02*
X3364643Y-2783214D01*
X3393214Y-2797500D01*
X3407500Y-2811786D01*
X3421786Y-2840357D01*
X3436071Y-2897500D01*
X3436071Y-2968929D01*
X3421786Y-3026071D01*
X3407500Y-3054643D01*
X3393214Y-3068929D01*
X3364643Y-3083214D01*
X3336071Y-3083214D01*
X3307500Y-3068929D01*
X3293214Y-3054643D01*
X3278928Y-3026071D01*
X3264643Y-2968929D01*
X3264643Y-2897500D01*
X3278928Y-2840357D01*
X3293214Y-2811786D01*
X3307500Y-2797500D01*
X3336071Y-2783214D01*
X3536071Y-2783214D02*
X3721786Y-2783214D01*
X3621786Y-2897500D01*
X3664643Y-2897500D01*
X3693214Y-2911786D01*
X3707500Y-2926071D01*
X3721786Y-2954643D01*
X3721786Y-3026071D01*
X3707500Y-3054643D01*
X3693214Y-3068929D01*
X3664643Y-3083214D01*
X3578928Y-3083214D01*
X3550357Y-3068929D01*
X3536071Y-3054643D01*
X3993214Y-2783214D02*
X3850357Y-2783214D01*
X3836071Y-2926071D01*
X3850357Y-2911786D01*
X3878928Y-2897500D01*
X3950357Y-2897500D01*
X3978928Y-2911786D01*
X3993214Y-2926071D01*
X4007500Y-2954643D01*
X4007500Y-3026071D01*
X3993214Y-3054643D01*
X3978928Y-3068929D01*
X3950357Y-3083214D01*
X3878928Y-3083214D01*
X3850357Y-3068929D01*
X3836071Y-3054643D01*
X4121786Y-2783214D02*
X4121786Y-2840357D01*
X4236071Y-2783214D02*
X4236071Y-2840357D01*
X4678928Y-3197500D02*
X4664643Y-3183214D01*
X4636071Y-3140357D01*
X4621786Y-3111786D01*
X4607500Y-3068929D01*
X4593214Y-2997500D01*
X4593214Y-2940357D01*
X4607500Y-2868929D01*
X4621786Y-2826071D01*
X4636071Y-2797500D01*
X4664643Y-2754643D01*
X4678928Y-2740357D01*
X4764643Y-2783214D02*
X4964643Y-2783214D01*
X4836071Y-3083214D01*
X5307500Y-3083214D02*
X5307500Y-2783214D01*
X5436071Y-3083214D02*
X5436071Y-2926071D01*
X5421786Y-2897500D01*
X5393214Y-2883214D01*
X5350357Y-2883214D01*
X5321786Y-2897500D01*
X5307500Y-2911786D01*
X5621786Y-3083214D02*
X5593214Y-3068929D01*
X5578928Y-3054643D01*
X5564643Y-3026071D01*
X5564643Y-2940357D01*
X5578928Y-2911786D01*
X5593214Y-2897500D01*
X5621786Y-2883214D01*
X5664643Y-2883214D01*
X5693214Y-2897500D01*
X5707500Y-2911786D01*
X5721786Y-2940357D01*
X5721786Y-3026071D01*
X5707500Y-3054643D01*
X5693214Y-3068929D01*
X5664643Y-3083214D01*
X5621786Y-3083214D01*
X5893214Y-3083214D02*
X5864643Y-3068929D01*
X5850357Y-3040357D01*
X5850357Y-2783214D01*
X6121786Y-3068929D02*
X6093214Y-3083214D01*
X6036071Y-3083214D01*
X6007500Y-3068929D01*
X5993214Y-3040357D01*
X5993214Y-2926071D01*
X6007500Y-2897500D01*
X6036071Y-2883214D01*
X6093214Y-2883214D01*
X6121786Y-2897500D01*
X6136071Y-2926071D01*
X6136071Y-2954643D01*
X5993214Y-2983214D01*
X6250357Y-3068929D02*
X6278928Y-3083214D01*
X6336071Y-3083214D01*
X6364643Y-3068929D01*
X6378928Y-3040357D01*
X6378928Y-3026071D01*
X6364643Y-2997500D01*
X6336071Y-2983214D01*
X6293214Y-2983214D01*
X6264643Y-2968929D01*
X6250357Y-2940357D01*
X6250357Y-2926071D01*
X6264643Y-2897500D01*
X6293214Y-2883214D01*
X6336071Y-2883214D01*
X6364643Y-2897500D01*
X6478928Y-3197500D02*
X6493214Y-3183214D01*
X6521786Y-3140357D01*
X6536071Y-3111786D01*
X6550357Y-3068929D01*
X6564643Y-2997500D01*
X6564643Y-2940357D01*
X6550357Y-2868929D01*
X6536071Y-2826071D01*
X6521786Y-2797500D01*
X6493214Y-2754643D01*
X6478928Y-2740357D01*
X-107500Y-3293500D02*
X-7500Y-3393500D01*
X-7500Y-3293500D02*
X-107500Y-3393500D01*
X-57500Y-3293500D02*
X-57500Y-3393500D01*
X-107500Y-3343500D02*
X-7500Y-3343500D01*
X436071Y-3479214D02*
X264643Y-3479214D01*
X350357Y-3479214D02*
X350357Y-3179214D01*
X321786Y-3222071D01*
X293214Y-3250643D01*
X264643Y-3264929D01*
X564643Y-3450643D02*
X578928Y-3464929D01*
X564643Y-3479214D01*
X550357Y-3464929D01*
X564643Y-3450643D01*
X564643Y-3479214D01*
X764643Y-3179214D02*
X793214Y-3179214D01*
X821786Y-3193500D01*
X836071Y-3207786D01*
X850357Y-3236357D01*
X864643Y-3293500D01*
X864643Y-3364929D01*
X850357Y-3422071D01*
X836071Y-3450643D01*
X821786Y-3464929D01*
X793214Y-3479214D01*
X764643Y-3479214D01*
X736071Y-3464929D01*
X721786Y-3450643D01*
X707500Y-3422071D01*
X693214Y-3364929D01*
X693214Y-3293500D01*
X707500Y-3236357D01*
X721786Y-3207786D01*
X736071Y-3193500D01*
X764643Y-3179214D01*
X1050357Y-3179214D02*
X1078928Y-3179214D01*
X1107500Y-3193500D01*
X1121786Y-3207786D01*
X1136071Y-3236357D01*
X1150357Y-3293500D01*
X1150357Y-3364929D01*
X1136071Y-3422071D01*
X1121786Y-3450643D01*
X1107500Y-3464929D01*
X1078928Y-3479214D01*
X1050357Y-3479214D01*
X1021786Y-3464929D01*
X1007500Y-3450643D01*
X993214Y-3422071D01*
X978928Y-3364929D01*
X978928Y-3293500D01*
X993214Y-3236357D01*
X1007500Y-3207786D01*
X1021786Y-3193500D01*
X1050357Y-3179214D01*
X1278928Y-3479214D02*
X1278928Y-3279214D01*
X1278928Y-3307786D02*
X1293214Y-3293500D01*
X1321786Y-3279214D01*
X1364643Y-3279214D01*
X1393214Y-3293500D01*
X1407500Y-3322071D01*
X1407500Y-3479214D01*
X1407500Y-3322071D02*
X1421786Y-3293500D01*
X1450357Y-3279214D01*
X1493214Y-3279214D01*
X1521786Y-3293500D01*
X1536071Y-3322071D01*
X1536071Y-3479214D01*
X1678928Y-3479214D02*
X1678928Y-3279214D01*
X1678928Y-3307786D02*
X1693214Y-3293500D01*
X1721786Y-3279214D01*
X1764643Y-3279214D01*
X1793214Y-3293500D01*
X1807500Y-3322071D01*
X1807500Y-3479214D01*
X1807500Y-3322071D02*
X1821786Y-3293500D01*
X1850357Y-3279214D01*
X1893214Y-3279214D01*
X1921786Y-3293500D01*
X1936071Y-3322071D01*
X1936071Y-3479214D01*
X2521786Y-3164929D02*
X2264643Y-3550643D01*
X2907500Y-3179214D02*
X2936071Y-3179214D01*
X2964643Y-3193500D01*
X2978928Y-3207786D01*
X2993214Y-3236357D01*
X3007500Y-3293500D01*
X3007500Y-3364929D01*
X2993214Y-3422071D01*
X2978928Y-3450643D01*
X2964643Y-3464929D01*
X2936071Y-3479214D01*
X2907500Y-3479214D01*
X2878928Y-3464929D01*
X2864643Y-3450643D01*
X2850357Y-3422071D01*
X2836071Y-3364929D01*
X2836071Y-3293500D01*
X2850357Y-3236357D01*
X2864643Y-3207786D01*
X2878928Y-3193500D01*
X2907500Y-3179214D01*
X3136071Y-3450643D02*
X3150357Y-3464929D01*
X3136071Y-3479214D01*
X3121786Y-3464929D01*
X3136071Y-3450643D01*
X3136071Y-3479214D01*
X3336071Y-3179214D02*
X3364643Y-3179214D01*
X3393214Y-3193500D01*
X3407500Y-3207786D01*
X3421786Y-3236357D01*
X3436071Y-3293500D01*
X3436071Y-3364929D01*
X3421786Y-3422071D01*
X3407500Y-3450643D01*
X3393214Y-3464929D01*
X3364643Y-3479214D01*
X3336071Y-3479214D01*
X3307500Y-3464929D01*
X3293214Y-3450643D01*
X3278928Y-3422071D01*
X3264643Y-3364929D01*
X3264643Y-3293500D01*
X3278928Y-3236357D01*
X3293214Y-3207786D01*
X3307500Y-3193500D01*
X3336071Y-3179214D01*
X3536071Y-3179214D02*
X3721786Y-3179214D01*
X3621786Y-3293500D01*
X3664643Y-3293500D01*
X3693214Y-3307786D01*
X3707500Y-3322071D01*
X3721786Y-3350643D01*
X3721786Y-3422071D01*
X3707500Y-3450643D01*
X3693214Y-3464929D01*
X3664643Y-3479214D01*
X3578928Y-3479214D01*
X3550357Y-3464929D01*
X3536071Y-3450643D01*
X3864643Y-3479214D02*
X3921786Y-3479214D01*
X3950357Y-3464929D01*
X3964643Y-3450643D01*
X3993214Y-3407786D01*
X4007500Y-3350643D01*
X4007500Y-3236357D01*
X3993214Y-3207786D01*
X3978928Y-3193500D01*
X3950357Y-3179214D01*
X3893214Y-3179214D01*
X3864643Y-3193500D01*
X3850357Y-3207786D01*
X3836071Y-3236357D01*
X3836071Y-3307786D01*
X3850357Y-3336357D01*
X3864643Y-3350643D01*
X3893214Y-3364929D01*
X3950357Y-3364929D01*
X3978928Y-3350643D01*
X3993214Y-3336357D01*
X4007500Y-3307786D01*
X4121786Y-3179214D02*
X4121786Y-3236357D01*
X4236071Y-3179214D02*
X4236071Y-3236357D01*
X4678928Y-3593500D02*
X4664643Y-3579214D01*
X4636071Y-3536357D01*
X4621786Y-3507786D01*
X4607500Y-3464929D01*
X4593214Y-3393500D01*
X4593214Y-3336357D01*
X4607500Y-3264929D01*
X4621786Y-3222071D01*
X4636071Y-3193500D01*
X4664643Y-3150643D01*
X4678928Y-3136357D01*
X4778928Y-3207786D02*
X4793214Y-3193500D01*
X4821786Y-3179214D01*
X4893214Y-3179214D01*
X4921786Y-3193500D01*
X4936071Y-3207786D01*
X4950357Y-3236357D01*
X4950357Y-3264929D01*
X4936071Y-3307786D01*
X4764643Y-3479214D01*
X4950357Y-3479214D01*
X5050357Y-3179214D02*
X5250357Y-3179214D01*
X5121786Y-3479214D01*
X5593214Y-3479214D02*
X5593214Y-3179214D01*
X5721786Y-3479214D02*
X5721786Y-3322071D01*
X5707500Y-3293500D01*
X5678928Y-3279214D01*
X5636071Y-3279214D01*
X5607500Y-3293500D01*
X5593214Y-3307786D01*
X5907500Y-3479214D02*
X5878928Y-3464929D01*
X5864643Y-3450643D01*
X5850357Y-3422071D01*
X5850357Y-3336357D01*
X5864643Y-3307786D01*
X5878928Y-3293500D01*
X5907500Y-3279214D01*
X5950357Y-3279214D01*
X5978928Y-3293500D01*
X5993214Y-3307786D01*
X6007500Y-3336357D01*
X6007500Y-3422071D01*
X5993214Y-3450643D01*
X5978928Y-3464929D01*
X5950357Y-3479214D01*
X5907500Y-3479214D01*
X6178928Y-3479214D02*
X6150357Y-3464929D01*
X6136071Y-3436357D01*
X6136071Y-3179214D01*
X6407500Y-3464929D02*
X6378928Y-3479214D01*
X6321786Y-3479214D01*
X6293214Y-3464929D01*
X6278928Y-3436357D01*
X6278928Y-3322071D01*
X6293214Y-3293500D01*
X6321786Y-3279214D01*
X6378928Y-3279214D01*
X6407500Y-3293500D01*
X6421786Y-3322071D01*
X6421786Y-3350643D01*
X6278928Y-3379214D01*
X6536071Y-3464929D02*
X6564643Y-3479214D01*
X6621786Y-3479214D01*
X6650357Y-3464929D01*
X6664643Y-3436357D01*
X6664643Y-3422071D01*
X6650357Y-3393500D01*
X6621786Y-3379214D01*
X6578928Y-3379214D01*
X6550357Y-3364929D01*
X6536071Y-3336357D01*
X6536071Y-3322071D01*
X6550357Y-3293500D01*
X6578928Y-3279214D01*
X6621786Y-3279214D01*
X6650357Y-3293500D01*
X6764643Y-3593500D02*
X6778928Y-3579214D01*
X6807500Y-3536357D01*
X6821786Y-3507786D01*
X6836071Y-3464929D01*
X6850357Y-3393500D01*
X6850357Y-3336357D01*
X6836071Y-3264929D01*
X6821786Y-3222071D01*
X6807500Y-3193500D01*
X6778928Y-3150643D01*
X6764643Y-3136357D01*
X-327500Y-3579500D02*
X-7500Y-3899500D01*
X-7500Y-3579500D02*
X-327500Y-3899500D01*
X-54362Y-3852638D02*
X-54362Y-3626362D01*
X-280638Y-3626362D01*
X-280638Y-3852638D01*
X-54362Y-3852638D01*
X250357Y-3575214D02*
X436071Y-3575214D01*
X336071Y-3689500D01*
X378928Y-3689500D01*
X407500Y-3703786D01*
X421786Y-3718071D01*
X436071Y-3746643D01*
X436071Y-3818071D01*
X421786Y-3846643D01*
X407500Y-3860929D01*
X378928Y-3875214D01*
X293214Y-3875214D01*
X264643Y-3860929D01*
X250357Y-3846643D01*
X564643Y-3846643D02*
X578928Y-3860929D01*
X564643Y-3875214D01*
X550357Y-3860929D01*
X564643Y-3846643D01*
X564643Y-3875214D01*
X693214Y-3603786D02*
X707500Y-3589500D01*
X736071Y-3575214D01*
X807500Y-3575214D01*
X836071Y-3589500D01*
X850357Y-3603786D01*
X864643Y-3632357D01*
X864643Y-3660929D01*
X850357Y-3703786D01*
X678928Y-3875214D01*
X864643Y-3875214D01*
X1050357Y-3575214D02*
X1078928Y-3575214D01*
X1107500Y-3589500D01*
X1121786Y-3603786D01*
X1136071Y-3632357D01*
X1150357Y-3689500D01*
X1150357Y-3760929D01*
X1136071Y-3818071D01*
X1121786Y-3846643D01*
X1107500Y-3860929D01*
X1078928Y-3875214D01*
X1050357Y-3875214D01*
X1021786Y-3860929D01*
X1007500Y-3846643D01*
X993214Y-3818071D01*
X978928Y-3760929D01*
X978928Y-3689500D01*
X993214Y-3632357D01*
X1007500Y-3603786D01*
X1021786Y-3589500D01*
X1050357Y-3575214D01*
X1278928Y-3875214D02*
X1278928Y-3675214D01*
X1278928Y-3703786D02*
X1293214Y-3689500D01*
X1321786Y-3675214D01*
X1364643Y-3675214D01*
X1393214Y-3689500D01*
X1407500Y-3718071D01*
X1407500Y-3875214D01*
X1407500Y-3718071D02*
X1421786Y-3689500D01*
X1450357Y-3675214D01*
X1493214Y-3675214D01*
X1521786Y-3689500D01*
X1536071Y-3718071D01*
X1536071Y-3875214D01*
X1678928Y-3875214D02*
X1678928Y-3675214D01*
X1678928Y-3703786D02*
X1693214Y-3689500D01*
X1721786Y-3675214D01*
X1764643Y-3675214D01*
X1793214Y-3689500D01*
X1807500Y-3718071D01*
X1807500Y-3875214D01*
X1807500Y-3718071D02*
X1821786Y-3689500D01*
X1850357Y-3675214D01*
X1893214Y-3675214D01*
X1921786Y-3689500D01*
X1936071Y-3718071D01*
X1936071Y-3875214D01*
X2521786Y-3560929D02*
X2264643Y-3946643D01*
X2907500Y-3575214D02*
X2936071Y-3575214D01*
X2964643Y-3589500D01*
X2978928Y-3603786D01*
X2993214Y-3632357D01*
X3007500Y-3689500D01*
X3007500Y-3760929D01*
X2993214Y-3818071D01*
X2978928Y-3846643D01*
X2964643Y-3860929D01*
X2936071Y-3875214D01*
X2907500Y-3875214D01*
X2878928Y-3860929D01*
X2864643Y-3846643D01*
X2850357Y-3818071D01*
X2836071Y-3760929D01*
X2836071Y-3689500D01*
X2850357Y-3632357D01*
X2864643Y-3603786D01*
X2878928Y-3589500D01*
X2907500Y-3575214D01*
X3136071Y-3846643D02*
X3150357Y-3860929D01*
X3136071Y-3875214D01*
X3121786Y-3860929D01*
X3136071Y-3846643D01*
X3136071Y-3875214D01*
X3436071Y-3875214D02*
X3264643Y-3875214D01*
X3350357Y-3875214D02*
X3350357Y-3575214D01*
X3321786Y-3618071D01*
X3293214Y-3646643D01*
X3264643Y-3660929D01*
X3550357Y-3603786D02*
X3564643Y-3589500D01*
X3593214Y-3575214D01*
X3664643Y-3575214D01*
X3693214Y-3589500D01*
X3707500Y-3603786D01*
X3721786Y-3632357D01*
X3721786Y-3660929D01*
X3707500Y-3703786D01*
X3536071Y-3875214D01*
X3721786Y-3875214D01*
X3978928Y-3575214D02*
X3921786Y-3575214D01*
X3893214Y-3589500D01*
X3878928Y-3603786D01*
X3850357Y-3646643D01*
X3836071Y-3703786D01*
X3836071Y-3818071D01*
X3850357Y-3846643D01*
X3864643Y-3860929D01*
X3893214Y-3875214D01*
X3950357Y-3875214D01*
X3978928Y-3860929D01*
X3993214Y-3846643D01*
X4007500Y-3818071D01*
X4007500Y-3746643D01*
X3993214Y-3718071D01*
X3978928Y-3703786D01*
X3950357Y-3689500D01*
X3893214Y-3689500D01*
X3864643Y-3703786D01*
X3850357Y-3718071D01*
X3836071Y-3746643D01*
X4121786Y-3575214D02*
X4121786Y-3632357D01*
X4236071Y-3575214D02*
X4236071Y-3632357D01*
X4678928Y-3989500D02*
X4664643Y-3975214D01*
X4636071Y-3932357D01*
X4621786Y-3903786D01*
X4607500Y-3860929D01*
X4593214Y-3789500D01*
X4593214Y-3732357D01*
X4607500Y-3660929D01*
X4621786Y-3618071D01*
X4636071Y-3589500D01*
X4664643Y-3546643D01*
X4678928Y-3532357D01*
X4921786Y-3675214D02*
X4921786Y-3875214D01*
X4850357Y-3560929D02*
X4778928Y-3775214D01*
X4964643Y-3775214D01*
X5307500Y-3875214D02*
X5307500Y-3575214D01*
X5436071Y-3875214D02*
X5436071Y-3718071D01*
X5421786Y-3689500D01*
X5393214Y-3675214D01*
X5350357Y-3675214D01*
X5321786Y-3689500D01*
X5307500Y-3703786D01*
X5621786Y-3875214D02*
X5593214Y-3860929D01*
X5578928Y-3846643D01*
X5564643Y-3818071D01*
X5564643Y-3732357D01*
X5578928Y-3703786D01*
X5593214Y-3689500D01*
X5621786Y-3675214D01*
X5664643Y-3675214D01*
X5693214Y-3689500D01*
X5707500Y-3703786D01*
X5721786Y-3732357D01*
X5721786Y-3818071D01*
X5707500Y-3846643D01*
X5693214Y-3860929D01*
X5664643Y-3875214D01*
X5621786Y-3875214D01*
X5893214Y-3875214D02*
X5864643Y-3860929D01*
X5850357Y-3832357D01*
X5850357Y-3575214D01*
X6121786Y-3860929D02*
X6093214Y-3875214D01*
X6036071Y-3875214D01*
X6007500Y-3860929D01*
X5993214Y-3832357D01*
X5993214Y-3718071D01*
X6007500Y-3689500D01*
X6036071Y-3675214D01*
X6093214Y-3675214D01*
X6121786Y-3689500D01*
X6136071Y-3718071D01*
X6136071Y-3746643D01*
X5993214Y-3775214D01*
X6250357Y-3860929D02*
X6278928Y-3875214D01*
X6336071Y-3875214D01*
X6364643Y-3860929D01*
X6378928Y-3832357D01*
X6378928Y-3818071D01*
X6364643Y-3789500D01*
X6336071Y-3775214D01*
X6293214Y-3775214D01*
X6264643Y-3760929D01*
X6250357Y-3732357D01*
X6250357Y-3718071D01*
X6264643Y-3689500D01*
X6293214Y-3675214D01*
X6336071Y-3675214D01*
X6364643Y-3689500D01*
X6478928Y-3989500D02*
X6493214Y-3975214D01*
X6521786Y-3932357D01*
X6536071Y-3903786D01*
X6550357Y-3860929D01*
X6564643Y-3789500D01*
X6564643Y-3732357D01*
X6550357Y-3660929D01*
X6536071Y-3618071D01*
X6521786Y-3589500D01*
X6493214Y-3546643D01*
X6478928Y-3532357D01*
X7021786Y-3989500D02*
X7007500Y-3975214D01*
X6978928Y-3932357D01*
X6964643Y-3903786D01*
X6950357Y-3860929D01*
X6936071Y-3789500D01*
X6936071Y-3732357D01*
X6950357Y-3660929D01*
X6964643Y-3618071D01*
X6978928Y-3589500D01*
X7007500Y-3546643D01*
X7021786Y-3532357D01*
X7136071Y-3675214D02*
X7136071Y-3875214D01*
X7136071Y-3703786D02*
X7150357Y-3689500D01*
X7178928Y-3675214D01*
X7221786Y-3675214D01*
X7250357Y-3689500D01*
X7264643Y-3718071D01*
X7264643Y-3875214D01*
X7450357Y-3875214D02*
X7421786Y-3860929D01*
X7407500Y-3846643D01*
X7393214Y-3818071D01*
X7393214Y-3732357D01*
X7407500Y-3703786D01*
X7421786Y-3689500D01*
X7450357Y-3675214D01*
X7493214Y-3675214D01*
X7521786Y-3689500D01*
X7536071Y-3703786D01*
X7550357Y-3732357D01*
X7550357Y-3818071D01*
X7536071Y-3846643D01*
X7521786Y-3860929D01*
X7493214Y-3875214D01*
X7450357Y-3875214D01*
X7636071Y-3675214D02*
X7750357Y-3675214D01*
X7678928Y-3575214D02*
X7678928Y-3832357D01*
X7693214Y-3860929D01*
X7721786Y-3875214D01*
X7750357Y-3875214D01*
X8078928Y-3675214D02*
X8078928Y-3975214D01*
X8078928Y-3689500D02*
X8107500Y-3675214D01*
X8164643Y-3675214D01*
X8193214Y-3689500D01*
X8207500Y-3703786D01*
X8221786Y-3732357D01*
X8221786Y-3818071D01*
X8207500Y-3846643D01*
X8193214Y-3860929D01*
X8164643Y-3875214D01*
X8107500Y-3875214D01*
X8078928Y-3860929D01*
X8393214Y-3875214D02*
X8364643Y-3860929D01*
X8350357Y-3832357D01*
X8350357Y-3575214D01*
X8636071Y-3875214D02*
X8636071Y-3718071D01*
X8621786Y-3689500D01*
X8593214Y-3675214D01*
X8536071Y-3675214D01*
X8507500Y-3689500D01*
X8636071Y-3860929D02*
X8607500Y-3875214D01*
X8536071Y-3875214D01*
X8507500Y-3860929D01*
X8493214Y-3832357D01*
X8493214Y-3803786D01*
X8507500Y-3775214D01*
X8536071Y-3760929D01*
X8607500Y-3760929D01*
X8636071Y-3746643D01*
X8736071Y-3675214D02*
X8850357Y-3675214D01*
X8778928Y-3575214D02*
X8778928Y-3832357D01*
X8793214Y-3860929D01*
X8821786Y-3875214D01*
X8850357Y-3875214D01*
X9064643Y-3860929D02*
X9036071Y-3875214D01*
X8978928Y-3875214D01*
X8950357Y-3860929D01*
X8936071Y-3832357D01*
X8936071Y-3718071D01*
X8950357Y-3689500D01*
X8978928Y-3675214D01*
X9036071Y-3675214D01*
X9064643Y-3689500D01*
X9078928Y-3718071D01*
X9078928Y-3746643D01*
X8936071Y-3775214D01*
X9336071Y-3875214D02*
X9336071Y-3575214D01*
X9336071Y-3860929D02*
X9307500Y-3875214D01*
X9250357Y-3875214D01*
X9221786Y-3860929D01*
X9207500Y-3846643D01*
X9193214Y-3818071D01*
X9193214Y-3732357D01*
X9207500Y-3703786D01*
X9221786Y-3689500D01*
X9250357Y-3675214D01*
X9307500Y-3675214D01*
X9336071Y-3689500D01*
X9450357Y-3989500D02*
X9464643Y-3975214D01*
X9493214Y-3932357D01*
X9507500Y-3903786D01*
X9521786Y-3860929D01*
X9536071Y-3789500D01*
X9536071Y-3732357D01*
X9521786Y-3660929D01*
X9507500Y-3618071D01*
X9493214Y-3589500D01*
X9464643Y-3546643D01*
X9450357Y-3532357D01*
M02*
